%TF.GenerationSoftware,KiCad,Pcbnew,8.0.2*%
%TF.CreationDate,2024-05-18T00:21:11-06:00*%
%TF.ProjectId,VacuumATM_wCoinDispenser,56616375-756d-4415-944d-5f77436f696e,rev?*%
%TF.SameCoordinates,Original*%
%TF.FileFunction,Drillmap*%
%TF.FilePolarity,Positive*%
%FSLAX45Y45*%
G04 Gerber Fmt 4.5, Leading zero omitted, Abs format (unit mm)*
G04 Created by KiCad (PCBNEW 8.0.2) date 2024-05-18 00:21:11*
%MOMM*%
%LPD*%
G01*
G04 APERTURE LIST*
%ADD10C,0.050000*%
%ADD11C,0.200000*%
%ADD12C,0.110000*%
%ADD13C,0.250000*%
%ADD14C,0.254000*%
G04 APERTURE END LIST*
D10*
X10471429Y-12639000D02*
X10471429Y-7139000D01*
X10971429Y-6639000D02*
X15271429Y-6639000D01*
X15271429Y-13139000D02*
X10971429Y-13139000D01*
X15771429Y-7139000D02*
X15771429Y-12639000D01*
X10471429Y-7139000D02*
G75*
G02*
X10971429Y-6638999I500001J0D01*
G01*
X10971429Y-13139000D02*
G75*
G02*
X10471430Y-12639000I1J500000D01*
G01*
X15271429Y-6639000D02*
G75*
G02*
X15771430Y-7139000I1J-500000D01*
G01*
X15771429Y-12639000D02*
G75*
G02*
X15271429Y-13138999I-499999J0D01*
G01*
D11*
D12*
X10991000Y-8120000D02*
X11101000Y-8230000D01*
X11101000Y-8120000D02*
X10991000Y-8230000D01*
X10991000Y-8374000D02*
X11101000Y-8484000D01*
X11101000Y-8374000D02*
X10991000Y-8484000D01*
X10991000Y-9016000D02*
X11101000Y-9126000D01*
X11101000Y-9016000D02*
X10991000Y-9126000D01*
X10991000Y-9270000D02*
X11101000Y-9380000D01*
X11101000Y-9270000D02*
X10991000Y-9380000D01*
X10991000Y-9970000D02*
X11101000Y-10080000D01*
X11101000Y-9970000D02*
X10991000Y-10080000D01*
X10991000Y-10224000D02*
X11101000Y-10334000D01*
X11101000Y-10224000D02*
X10991000Y-10334000D01*
X14949000Y-8066000D02*
X15059000Y-8176000D01*
X15059000Y-8066000D02*
X14949000Y-8176000D01*
X14949000Y-8320000D02*
X15059000Y-8430000D01*
X15059000Y-8320000D02*
X14949000Y-8430000D01*
X14949000Y-8962000D02*
X15059000Y-9072000D01*
X15059000Y-8962000D02*
X14949000Y-9072000D01*
X14949000Y-9216000D02*
X15059000Y-9326000D01*
X15059000Y-9216000D02*
X14949000Y-9326000D01*
X14949000Y-9470000D02*
X15059000Y-9580000D01*
X15059000Y-9470000D02*
X14949000Y-9580000D01*
X14949000Y-10120000D02*
X15059000Y-10230000D01*
X15059000Y-10120000D02*
X14949000Y-10230000D01*
X14949000Y-10374000D02*
X15059000Y-10484000D01*
X15059000Y-10374000D02*
X14949000Y-10484000D01*
X14949000Y-10628000D02*
X15059000Y-10738000D01*
X15059000Y-10628000D02*
X14949000Y-10738000D01*
D13*
X12247000Y-7603000D02*
G75*
G02*
X11997000Y-7603000I-125000J0D01*
G01*
X11997000Y-7603000D02*
G75*
G02*
X12247000Y-7603000I125000J0D01*
G01*
X14025000Y-7603000D02*
G75*
G02*
X13775000Y-7603000I-125000J0D01*
G01*
X13775000Y-7603000D02*
G75*
G02*
X14025000Y-7603000I125000J0D01*
G01*
D14*
X12122000Y-12048000D02*
X12122000Y-12302000D01*
X11995000Y-12175000D02*
X12249000Y-12175000D01*
X13900000Y-12048000D02*
X13900000Y-12302000D01*
X13773000Y-12175000D02*
X14027000Y-12175000D01*
D11*
X10729705Y-13452984D02*
X10729705Y-13252984D01*
X10729705Y-13252984D02*
X10777324Y-13252984D01*
X10777324Y-13252984D02*
X10805896Y-13262508D01*
X10805896Y-13262508D02*
X10824944Y-13281555D01*
X10824944Y-13281555D02*
X10834467Y-13300603D01*
X10834467Y-13300603D02*
X10843991Y-13338698D01*
X10843991Y-13338698D02*
X10843991Y-13367269D01*
X10843991Y-13367269D02*
X10834467Y-13405365D01*
X10834467Y-13405365D02*
X10824944Y-13424412D01*
X10824944Y-13424412D02*
X10805896Y-13443460D01*
X10805896Y-13443460D02*
X10777324Y-13452984D01*
X10777324Y-13452984D02*
X10729705Y-13452984D01*
X10929705Y-13452984D02*
X10929705Y-13319650D01*
X10929705Y-13357746D02*
X10939229Y-13338698D01*
X10939229Y-13338698D02*
X10948753Y-13329174D01*
X10948753Y-13329174D02*
X10967801Y-13319650D01*
X10967801Y-13319650D02*
X10986848Y-13319650D01*
X11053515Y-13452984D02*
X11053515Y-13319650D01*
X11053515Y-13252984D02*
X11043991Y-13262508D01*
X11043991Y-13262508D02*
X11053515Y-13272031D01*
X11053515Y-13272031D02*
X11063039Y-13262508D01*
X11063039Y-13262508D02*
X11053515Y-13252984D01*
X11053515Y-13252984D02*
X11053515Y-13272031D01*
X11177324Y-13452984D02*
X11158277Y-13443460D01*
X11158277Y-13443460D02*
X11148753Y-13424412D01*
X11148753Y-13424412D02*
X11148753Y-13252984D01*
X11282086Y-13452984D02*
X11263039Y-13443460D01*
X11263039Y-13443460D02*
X11253515Y-13424412D01*
X11253515Y-13424412D02*
X11253515Y-13252984D01*
X11510658Y-13452984D02*
X11510658Y-13252984D01*
X11510658Y-13252984D02*
X11577324Y-13395841D01*
X11577324Y-13395841D02*
X11643991Y-13252984D01*
X11643991Y-13252984D02*
X11643991Y-13452984D01*
X11824943Y-13452984D02*
X11824943Y-13348222D01*
X11824943Y-13348222D02*
X11815420Y-13329174D01*
X11815420Y-13329174D02*
X11796372Y-13319650D01*
X11796372Y-13319650D02*
X11758277Y-13319650D01*
X11758277Y-13319650D02*
X11739229Y-13329174D01*
X11824943Y-13443460D02*
X11805896Y-13452984D01*
X11805896Y-13452984D02*
X11758277Y-13452984D01*
X11758277Y-13452984D02*
X11739229Y-13443460D01*
X11739229Y-13443460D02*
X11729705Y-13424412D01*
X11729705Y-13424412D02*
X11729705Y-13405365D01*
X11729705Y-13405365D02*
X11739229Y-13386317D01*
X11739229Y-13386317D02*
X11758277Y-13376793D01*
X11758277Y-13376793D02*
X11805896Y-13376793D01*
X11805896Y-13376793D02*
X11824943Y-13367269D01*
X11920182Y-13319650D02*
X11920182Y-13519650D01*
X11920182Y-13329174D02*
X11939229Y-13319650D01*
X11939229Y-13319650D02*
X11977324Y-13319650D01*
X11977324Y-13319650D02*
X11996372Y-13329174D01*
X11996372Y-13329174D02*
X12005896Y-13338698D01*
X12005896Y-13338698D02*
X12015420Y-13357746D01*
X12015420Y-13357746D02*
X12015420Y-13414888D01*
X12015420Y-13414888D02*
X12005896Y-13433936D01*
X12005896Y-13433936D02*
X11996372Y-13443460D01*
X11996372Y-13443460D02*
X11977324Y-13452984D01*
X11977324Y-13452984D02*
X11939229Y-13452984D01*
X11939229Y-13452984D02*
X11920182Y-13443460D01*
X12101134Y-13433936D02*
X12110658Y-13443460D01*
X12110658Y-13443460D02*
X12101134Y-13452984D01*
X12101134Y-13452984D02*
X12091610Y-13443460D01*
X12091610Y-13443460D02*
X12101134Y-13433936D01*
X12101134Y-13433936D02*
X12101134Y-13452984D01*
X12101134Y-13329174D02*
X12110658Y-13338698D01*
X12110658Y-13338698D02*
X12101134Y-13348222D01*
X12101134Y-13348222D02*
X12091610Y-13338698D01*
X12091610Y-13338698D02*
X12101134Y-13329174D01*
X12101134Y-13329174D02*
X12101134Y-13348222D01*
D12*
X10358929Y-13726500D02*
X10468929Y-13836500D01*
X10468929Y-13726500D02*
X10358929Y-13836500D01*
D11*
X10834467Y-13872984D02*
X10720182Y-13872984D01*
X10777324Y-13872984D02*
X10777324Y-13672984D01*
X10777324Y-13672984D02*
X10758277Y-13701555D01*
X10758277Y-13701555D02*
X10739229Y-13720603D01*
X10739229Y-13720603D02*
X10720182Y-13730127D01*
X10920182Y-13853936D02*
X10929705Y-13863460D01*
X10929705Y-13863460D02*
X10920182Y-13872984D01*
X10920182Y-13872984D02*
X10910658Y-13863460D01*
X10910658Y-13863460D02*
X10920182Y-13853936D01*
X10920182Y-13853936D02*
X10920182Y-13872984D01*
X11120182Y-13872984D02*
X11005896Y-13872984D01*
X11063039Y-13872984D02*
X11063039Y-13672984D01*
X11063039Y-13672984D02*
X11043991Y-13701555D01*
X11043991Y-13701555D02*
X11024944Y-13720603D01*
X11024944Y-13720603D02*
X11005896Y-13730127D01*
X11243991Y-13672984D02*
X11263039Y-13672984D01*
X11263039Y-13672984D02*
X11282086Y-13682508D01*
X11282086Y-13682508D02*
X11291610Y-13692031D01*
X11291610Y-13692031D02*
X11301134Y-13711079D01*
X11301134Y-13711079D02*
X11310658Y-13749174D01*
X11310658Y-13749174D02*
X11310658Y-13796793D01*
X11310658Y-13796793D02*
X11301134Y-13834888D01*
X11301134Y-13834888D02*
X11291610Y-13853936D01*
X11291610Y-13853936D02*
X11282086Y-13863460D01*
X11282086Y-13863460D02*
X11263039Y-13872984D01*
X11263039Y-13872984D02*
X11243991Y-13872984D01*
X11243991Y-13872984D02*
X11224943Y-13863460D01*
X11224943Y-13863460D02*
X11215420Y-13853936D01*
X11215420Y-13853936D02*
X11205896Y-13834888D01*
X11205896Y-13834888D02*
X11196372Y-13796793D01*
X11196372Y-13796793D02*
X11196372Y-13749174D01*
X11196372Y-13749174D02*
X11205896Y-13711079D01*
X11205896Y-13711079D02*
X11215420Y-13692031D01*
X11215420Y-13692031D02*
X11224943Y-13682508D01*
X11224943Y-13682508D02*
X11243991Y-13672984D01*
X11434467Y-13672984D02*
X11453515Y-13672984D01*
X11453515Y-13672984D02*
X11472563Y-13682508D01*
X11472563Y-13682508D02*
X11482086Y-13692031D01*
X11482086Y-13692031D02*
X11491610Y-13711079D01*
X11491610Y-13711079D02*
X11501134Y-13749174D01*
X11501134Y-13749174D02*
X11501134Y-13796793D01*
X11501134Y-13796793D02*
X11491610Y-13834888D01*
X11491610Y-13834888D02*
X11482086Y-13853936D01*
X11482086Y-13853936D02*
X11472563Y-13863460D01*
X11472563Y-13863460D02*
X11453515Y-13872984D01*
X11453515Y-13872984D02*
X11434467Y-13872984D01*
X11434467Y-13872984D02*
X11415420Y-13863460D01*
X11415420Y-13863460D02*
X11405896Y-13853936D01*
X11405896Y-13853936D02*
X11396372Y-13834888D01*
X11396372Y-13834888D02*
X11386848Y-13796793D01*
X11386848Y-13796793D02*
X11386848Y-13749174D01*
X11386848Y-13749174D02*
X11396372Y-13711079D01*
X11396372Y-13711079D02*
X11405896Y-13692031D01*
X11405896Y-13692031D02*
X11415420Y-13682508D01*
X11415420Y-13682508D02*
X11434467Y-13672984D01*
X11586848Y-13872984D02*
X11586848Y-13739650D01*
X11586848Y-13758698D02*
X11596372Y-13749174D01*
X11596372Y-13749174D02*
X11615420Y-13739650D01*
X11615420Y-13739650D02*
X11643991Y-13739650D01*
X11643991Y-13739650D02*
X11663039Y-13749174D01*
X11663039Y-13749174D02*
X11672563Y-13768222D01*
X11672563Y-13768222D02*
X11672563Y-13872984D01*
X11672563Y-13768222D02*
X11682086Y-13749174D01*
X11682086Y-13749174D02*
X11701134Y-13739650D01*
X11701134Y-13739650D02*
X11729705Y-13739650D01*
X11729705Y-13739650D02*
X11748753Y-13749174D01*
X11748753Y-13749174D02*
X11758277Y-13768222D01*
X11758277Y-13768222D02*
X11758277Y-13872984D01*
X11853515Y-13872984D02*
X11853515Y-13739650D01*
X11853515Y-13758698D02*
X11863039Y-13749174D01*
X11863039Y-13749174D02*
X11882086Y-13739650D01*
X11882086Y-13739650D02*
X11910658Y-13739650D01*
X11910658Y-13739650D02*
X11929705Y-13749174D01*
X11929705Y-13749174D02*
X11939229Y-13768222D01*
X11939229Y-13768222D02*
X11939229Y-13872984D01*
X11939229Y-13768222D02*
X11948753Y-13749174D01*
X11948753Y-13749174D02*
X11967801Y-13739650D01*
X11967801Y-13739650D02*
X11996372Y-13739650D01*
X11996372Y-13739650D02*
X12015420Y-13749174D01*
X12015420Y-13749174D02*
X12024944Y-13768222D01*
X12024944Y-13768222D02*
X12024944Y-13872984D01*
X12415420Y-13663460D02*
X12243991Y-13920603D01*
X12672563Y-13672984D02*
X12691610Y-13672984D01*
X12691610Y-13672984D02*
X12710658Y-13682508D01*
X12710658Y-13682508D02*
X12720182Y-13692031D01*
X12720182Y-13692031D02*
X12729706Y-13711079D01*
X12729706Y-13711079D02*
X12739229Y-13749174D01*
X12739229Y-13749174D02*
X12739229Y-13796793D01*
X12739229Y-13796793D02*
X12729706Y-13834888D01*
X12729706Y-13834888D02*
X12720182Y-13853936D01*
X12720182Y-13853936D02*
X12710658Y-13863460D01*
X12710658Y-13863460D02*
X12691610Y-13872984D01*
X12691610Y-13872984D02*
X12672563Y-13872984D01*
X12672563Y-13872984D02*
X12653515Y-13863460D01*
X12653515Y-13863460D02*
X12643991Y-13853936D01*
X12643991Y-13853936D02*
X12634467Y-13834888D01*
X12634467Y-13834888D02*
X12624944Y-13796793D01*
X12624944Y-13796793D02*
X12624944Y-13749174D01*
X12624944Y-13749174D02*
X12634467Y-13711079D01*
X12634467Y-13711079D02*
X12643991Y-13692031D01*
X12643991Y-13692031D02*
X12653515Y-13682508D01*
X12653515Y-13682508D02*
X12672563Y-13672984D01*
X12824944Y-13853936D02*
X12834467Y-13863460D01*
X12834467Y-13863460D02*
X12824944Y-13872984D01*
X12824944Y-13872984D02*
X12815420Y-13863460D01*
X12815420Y-13863460D02*
X12824944Y-13853936D01*
X12824944Y-13853936D02*
X12824944Y-13872984D01*
X12958277Y-13672984D02*
X12977325Y-13672984D01*
X12977325Y-13672984D02*
X12996372Y-13682508D01*
X12996372Y-13682508D02*
X13005896Y-13692031D01*
X13005896Y-13692031D02*
X13015420Y-13711079D01*
X13015420Y-13711079D02*
X13024944Y-13749174D01*
X13024944Y-13749174D02*
X13024944Y-13796793D01*
X13024944Y-13796793D02*
X13015420Y-13834888D01*
X13015420Y-13834888D02*
X13005896Y-13853936D01*
X13005896Y-13853936D02*
X12996372Y-13863460D01*
X12996372Y-13863460D02*
X12977325Y-13872984D01*
X12977325Y-13872984D02*
X12958277Y-13872984D01*
X12958277Y-13872984D02*
X12939229Y-13863460D01*
X12939229Y-13863460D02*
X12929706Y-13853936D01*
X12929706Y-13853936D02*
X12920182Y-13834888D01*
X12920182Y-13834888D02*
X12910658Y-13796793D01*
X12910658Y-13796793D02*
X12910658Y-13749174D01*
X12910658Y-13749174D02*
X12920182Y-13711079D01*
X12920182Y-13711079D02*
X12929706Y-13692031D01*
X12929706Y-13692031D02*
X12939229Y-13682508D01*
X12939229Y-13682508D02*
X12958277Y-13672984D01*
X13196372Y-13739650D02*
X13196372Y-13872984D01*
X13148753Y-13663460D02*
X13101134Y-13806317D01*
X13101134Y-13806317D02*
X13224944Y-13806317D01*
X13282087Y-13672984D02*
X13405896Y-13672984D01*
X13405896Y-13672984D02*
X13339229Y-13749174D01*
X13339229Y-13749174D02*
X13367801Y-13749174D01*
X13367801Y-13749174D02*
X13386848Y-13758698D01*
X13386848Y-13758698D02*
X13396372Y-13768222D01*
X13396372Y-13768222D02*
X13405896Y-13787269D01*
X13405896Y-13787269D02*
X13405896Y-13834888D01*
X13405896Y-13834888D02*
X13396372Y-13853936D01*
X13396372Y-13853936D02*
X13386848Y-13863460D01*
X13386848Y-13863460D02*
X13367801Y-13872984D01*
X13367801Y-13872984D02*
X13310658Y-13872984D01*
X13310658Y-13872984D02*
X13291610Y-13863460D01*
X13291610Y-13863460D02*
X13282087Y-13853936D01*
X13472563Y-13672984D02*
X13596372Y-13672984D01*
X13596372Y-13672984D02*
X13529706Y-13749174D01*
X13529706Y-13749174D02*
X13558277Y-13749174D01*
X13558277Y-13749174D02*
X13577325Y-13758698D01*
X13577325Y-13758698D02*
X13586848Y-13768222D01*
X13586848Y-13768222D02*
X13596372Y-13787269D01*
X13596372Y-13787269D02*
X13596372Y-13834888D01*
X13596372Y-13834888D02*
X13586848Y-13853936D01*
X13586848Y-13853936D02*
X13577325Y-13863460D01*
X13577325Y-13863460D02*
X13558277Y-13872984D01*
X13558277Y-13872984D02*
X13501134Y-13872984D01*
X13501134Y-13872984D02*
X13482087Y-13863460D01*
X13482087Y-13863460D02*
X13472563Y-13853936D01*
X13672563Y-13672984D02*
X13672563Y-13711079D01*
X13748753Y-13672984D02*
X13748753Y-13711079D01*
X14043991Y-13949174D02*
X14034468Y-13939650D01*
X14034468Y-13939650D02*
X14015420Y-13911079D01*
X14015420Y-13911079D02*
X14005896Y-13892031D01*
X14005896Y-13892031D02*
X13996372Y-13863460D01*
X13996372Y-13863460D02*
X13986849Y-13815841D01*
X13986849Y-13815841D02*
X13986849Y-13777746D01*
X13986849Y-13777746D02*
X13996372Y-13730127D01*
X13996372Y-13730127D02*
X14005896Y-13701555D01*
X14005896Y-13701555D02*
X14015420Y-13682508D01*
X14015420Y-13682508D02*
X14034468Y-13653936D01*
X14034468Y-13653936D02*
X14043991Y-13644412D01*
X14224944Y-13872984D02*
X14110658Y-13872984D01*
X14167801Y-13872984D02*
X14167801Y-13672984D01*
X14167801Y-13672984D02*
X14148753Y-13701555D01*
X14148753Y-13701555D02*
X14129706Y-13720603D01*
X14129706Y-13720603D02*
X14110658Y-13730127D01*
X14396372Y-13739650D02*
X14396372Y-13872984D01*
X14348753Y-13663460D02*
X14301134Y-13806317D01*
X14301134Y-13806317D02*
X14424944Y-13806317D01*
X14653515Y-13872984D02*
X14653515Y-13672984D01*
X14739230Y-13872984D02*
X14739230Y-13768222D01*
X14739230Y-13768222D02*
X14729706Y-13749174D01*
X14729706Y-13749174D02*
X14710658Y-13739650D01*
X14710658Y-13739650D02*
X14682087Y-13739650D01*
X14682087Y-13739650D02*
X14663039Y-13749174D01*
X14663039Y-13749174D02*
X14653515Y-13758698D01*
X14863039Y-13872984D02*
X14843991Y-13863460D01*
X14843991Y-13863460D02*
X14834468Y-13853936D01*
X14834468Y-13853936D02*
X14824944Y-13834888D01*
X14824944Y-13834888D02*
X14824944Y-13777746D01*
X14824944Y-13777746D02*
X14834468Y-13758698D01*
X14834468Y-13758698D02*
X14843991Y-13749174D01*
X14843991Y-13749174D02*
X14863039Y-13739650D01*
X14863039Y-13739650D02*
X14891611Y-13739650D01*
X14891611Y-13739650D02*
X14910658Y-13749174D01*
X14910658Y-13749174D02*
X14920182Y-13758698D01*
X14920182Y-13758698D02*
X14929706Y-13777746D01*
X14929706Y-13777746D02*
X14929706Y-13834888D01*
X14929706Y-13834888D02*
X14920182Y-13853936D01*
X14920182Y-13853936D02*
X14910658Y-13863460D01*
X14910658Y-13863460D02*
X14891611Y-13872984D01*
X14891611Y-13872984D02*
X14863039Y-13872984D01*
X15043991Y-13872984D02*
X15024944Y-13863460D01*
X15024944Y-13863460D02*
X15015420Y-13844412D01*
X15015420Y-13844412D02*
X15015420Y-13672984D01*
X15196372Y-13863460D02*
X15177325Y-13872984D01*
X15177325Y-13872984D02*
X15139230Y-13872984D01*
X15139230Y-13872984D02*
X15120182Y-13863460D01*
X15120182Y-13863460D02*
X15110658Y-13844412D01*
X15110658Y-13844412D02*
X15110658Y-13768222D01*
X15110658Y-13768222D02*
X15120182Y-13749174D01*
X15120182Y-13749174D02*
X15139230Y-13739650D01*
X15139230Y-13739650D02*
X15177325Y-13739650D01*
X15177325Y-13739650D02*
X15196372Y-13749174D01*
X15196372Y-13749174D02*
X15205896Y-13768222D01*
X15205896Y-13768222D02*
X15205896Y-13787269D01*
X15205896Y-13787269D02*
X15110658Y-13806317D01*
X15282087Y-13863460D02*
X15301134Y-13872984D01*
X15301134Y-13872984D02*
X15339230Y-13872984D01*
X15339230Y-13872984D02*
X15358277Y-13863460D01*
X15358277Y-13863460D02*
X15367801Y-13844412D01*
X15367801Y-13844412D02*
X15367801Y-13834888D01*
X15367801Y-13834888D02*
X15358277Y-13815841D01*
X15358277Y-13815841D02*
X15339230Y-13806317D01*
X15339230Y-13806317D02*
X15310658Y-13806317D01*
X15310658Y-13806317D02*
X15291611Y-13796793D01*
X15291611Y-13796793D02*
X15282087Y-13777746D01*
X15282087Y-13777746D02*
X15282087Y-13768222D01*
X15282087Y-13768222D02*
X15291611Y-13749174D01*
X15291611Y-13749174D02*
X15310658Y-13739650D01*
X15310658Y-13739650D02*
X15339230Y-13739650D01*
X15339230Y-13739650D02*
X15358277Y-13749174D01*
X15434468Y-13949174D02*
X15443992Y-13939650D01*
X15443992Y-13939650D02*
X15463039Y-13911079D01*
X15463039Y-13911079D02*
X15472563Y-13892031D01*
X15472563Y-13892031D02*
X15482087Y-13863460D01*
X15482087Y-13863460D02*
X15491611Y-13815841D01*
X15491611Y-13815841D02*
X15491611Y-13777746D01*
X15491611Y-13777746D02*
X15482087Y-13730127D01*
X15482087Y-13730127D02*
X15472563Y-13701555D01*
X15472563Y-13701555D02*
X15463039Y-13682508D01*
X15463039Y-13682508D02*
X15443992Y-13653936D01*
X15443992Y-13653936D02*
X15434468Y-13644412D01*
X15796373Y-13949174D02*
X15786849Y-13939650D01*
X15786849Y-13939650D02*
X15767801Y-13911079D01*
X15767801Y-13911079D02*
X15758277Y-13892031D01*
X15758277Y-13892031D02*
X15748753Y-13863460D01*
X15748753Y-13863460D02*
X15739230Y-13815841D01*
X15739230Y-13815841D02*
X15739230Y-13777746D01*
X15739230Y-13777746D02*
X15748753Y-13730127D01*
X15748753Y-13730127D02*
X15758277Y-13701555D01*
X15758277Y-13701555D02*
X15767801Y-13682508D01*
X15767801Y-13682508D02*
X15786849Y-13653936D01*
X15786849Y-13653936D02*
X15796373Y-13644412D01*
X15872563Y-13739650D02*
X15872563Y-13872984D01*
X15872563Y-13758698D02*
X15882087Y-13749174D01*
X15882087Y-13749174D02*
X15901134Y-13739650D01*
X15901134Y-13739650D02*
X15929706Y-13739650D01*
X15929706Y-13739650D02*
X15948753Y-13749174D01*
X15948753Y-13749174D02*
X15958277Y-13768222D01*
X15958277Y-13768222D02*
X15958277Y-13872984D01*
X16082087Y-13872984D02*
X16063039Y-13863460D01*
X16063039Y-13863460D02*
X16053515Y-13853936D01*
X16053515Y-13853936D02*
X16043992Y-13834888D01*
X16043992Y-13834888D02*
X16043992Y-13777746D01*
X16043992Y-13777746D02*
X16053515Y-13758698D01*
X16053515Y-13758698D02*
X16063039Y-13749174D01*
X16063039Y-13749174D02*
X16082087Y-13739650D01*
X16082087Y-13739650D02*
X16110658Y-13739650D01*
X16110658Y-13739650D02*
X16129706Y-13749174D01*
X16129706Y-13749174D02*
X16139230Y-13758698D01*
X16139230Y-13758698D02*
X16148753Y-13777746D01*
X16148753Y-13777746D02*
X16148753Y-13834888D01*
X16148753Y-13834888D02*
X16139230Y-13853936D01*
X16139230Y-13853936D02*
X16129706Y-13863460D01*
X16129706Y-13863460D02*
X16110658Y-13872984D01*
X16110658Y-13872984D02*
X16082087Y-13872984D01*
X16205896Y-13739650D02*
X16282087Y-13739650D01*
X16234468Y-13672984D02*
X16234468Y-13844412D01*
X16234468Y-13844412D02*
X16243992Y-13863460D01*
X16243992Y-13863460D02*
X16263039Y-13872984D01*
X16263039Y-13872984D02*
X16282087Y-13872984D01*
X16501134Y-13739650D02*
X16501134Y-13939650D01*
X16501134Y-13749174D02*
X16520182Y-13739650D01*
X16520182Y-13739650D02*
X16558277Y-13739650D01*
X16558277Y-13739650D02*
X16577325Y-13749174D01*
X16577325Y-13749174D02*
X16586849Y-13758698D01*
X16586849Y-13758698D02*
X16596373Y-13777746D01*
X16596373Y-13777746D02*
X16596373Y-13834888D01*
X16596373Y-13834888D02*
X16586849Y-13853936D01*
X16586849Y-13853936D02*
X16577325Y-13863460D01*
X16577325Y-13863460D02*
X16558277Y-13872984D01*
X16558277Y-13872984D02*
X16520182Y-13872984D01*
X16520182Y-13872984D02*
X16501134Y-13863460D01*
X16710658Y-13872984D02*
X16691611Y-13863460D01*
X16691611Y-13863460D02*
X16682087Y-13844412D01*
X16682087Y-13844412D02*
X16682087Y-13672984D01*
X16872563Y-13872984D02*
X16872563Y-13768222D01*
X16872563Y-13768222D02*
X16863039Y-13749174D01*
X16863039Y-13749174D02*
X16843992Y-13739650D01*
X16843992Y-13739650D02*
X16805896Y-13739650D01*
X16805896Y-13739650D02*
X16786849Y-13749174D01*
X16872563Y-13863460D02*
X16853516Y-13872984D01*
X16853516Y-13872984D02*
X16805896Y-13872984D01*
X16805896Y-13872984D02*
X16786849Y-13863460D01*
X16786849Y-13863460D02*
X16777325Y-13844412D01*
X16777325Y-13844412D02*
X16777325Y-13825365D01*
X16777325Y-13825365D02*
X16786849Y-13806317D01*
X16786849Y-13806317D02*
X16805896Y-13796793D01*
X16805896Y-13796793D02*
X16853516Y-13796793D01*
X16853516Y-13796793D02*
X16872563Y-13787269D01*
X16939230Y-13739650D02*
X17015420Y-13739650D01*
X16967801Y-13672984D02*
X16967801Y-13844412D01*
X16967801Y-13844412D02*
X16977325Y-13863460D01*
X16977325Y-13863460D02*
X16996373Y-13872984D01*
X16996373Y-13872984D02*
X17015420Y-13872984D01*
X17158277Y-13863460D02*
X17139230Y-13872984D01*
X17139230Y-13872984D02*
X17101135Y-13872984D01*
X17101135Y-13872984D02*
X17082087Y-13863460D01*
X17082087Y-13863460D02*
X17072563Y-13844412D01*
X17072563Y-13844412D02*
X17072563Y-13768222D01*
X17072563Y-13768222D02*
X17082087Y-13749174D01*
X17082087Y-13749174D02*
X17101135Y-13739650D01*
X17101135Y-13739650D02*
X17139230Y-13739650D01*
X17139230Y-13739650D02*
X17158277Y-13749174D01*
X17158277Y-13749174D02*
X17167801Y-13768222D01*
X17167801Y-13768222D02*
X17167801Y-13787269D01*
X17167801Y-13787269D02*
X17072563Y-13806317D01*
X17339230Y-13872984D02*
X17339230Y-13672984D01*
X17339230Y-13863460D02*
X17320182Y-13872984D01*
X17320182Y-13872984D02*
X17282087Y-13872984D01*
X17282087Y-13872984D02*
X17263039Y-13863460D01*
X17263039Y-13863460D02*
X17253516Y-13853936D01*
X17253516Y-13853936D02*
X17243992Y-13834888D01*
X17243992Y-13834888D02*
X17243992Y-13777746D01*
X17243992Y-13777746D02*
X17253516Y-13758698D01*
X17253516Y-13758698D02*
X17263039Y-13749174D01*
X17263039Y-13749174D02*
X17282087Y-13739650D01*
X17282087Y-13739650D02*
X17320182Y-13739650D01*
X17320182Y-13739650D02*
X17339230Y-13749174D01*
X17415420Y-13949174D02*
X17424944Y-13939650D01*
X17424944Y-13939650D02*
X17443992Y-13911079D01*
X17443992Y-13911079D02*
X17453516Y-13892031D01*
X17453516Y-13892031D02*
X17463039Y-13863460D01*
X17463039Y-13863460D02*
X17472563Y-13815841D01*
X17472563Y-13815841D02*
X17472563Y-13777746D01*
X17472563Y-13777746D02*
X17463039Y-13730127D01*
X17463039Y-13730127D02*
X17453516Y-13701555D01*
X17453516Y-13701555D02*
X17443992Y-13682508D01*
X17443992Y-13682508D02*
X17424944Y-13653936D01*
X17424944Y-13653936D02*
X17415420Y-13644412D01*
X10468929Y-14045500D02*
G75*
G02*
X10268929Y-14045500I-100000J0D01*
G01*
X10268929Y-14045500D02*
G75*
G02*
X10468929Y-14045500I100000J0D01*
G01*
X10720182Y-13956031D02*
X10729705Y-13946508D01*
X10729705Y-13946508D02*
X10748753Y-13936984D01*
X10748753Y-13936984D02*
X10796372Y-13936984D01*
X10796372Y-13936984D02*
X10815420Y-13946508D01*
X10815420Y-13946508D02*
X10824944Y-13956031D01*
X10824944Y-13956031D02*
X10834467Y-13975079D01*
X10834467Y-13975079D02*
X10834467Y-13994127D01*
X10834467Y-13994127D02*
X10824944Y-14022698D01*
X10824944Y-14022698D02*
X10710658Y-14136984D01*
X10710658Y-14136984D02*
X10834467Y-14136984D01*
X10920182Y-14117936D02*
X10929705Y-14127460D01*
X10929705Y-14127460D02*
X10920182Y-14136984D01*
X10920182Y-14136984D02*
X10910658Y-14127460D01*
X10910658Y-14127460D02*
X10920182Y-14117936D01*
X10920182Y-14117936D02*
X10920182Y-14136984D01*
X11110658Y-13936984D02*
X11015420Y-13936984D01*
X11015420Y-13936984D02*
X11005896Y-14032222D01*
X11005896Y-14032222D02*
X11015420Y-14022698D01*
X11015420Y-14022698D02*
X11034467Y-14013174D01*
X11034467Y-14013174D02*
X11082086Y-14013174D01*
X11082086Y-14013174D02*
X11101134Y-14022698D01*
X11101134Y-14022698D02*
X11110658Y-14032222D01*
X11110658Y-14032222D02*
X11120182Y-14051269D01*
X11120182Y-14051269D02*
X11120182Y-14098888D01*
X11120182Y-14098888D02*
X11110658Y-14117936D01*
X11110658Y-14117936D02*
X11101134Y-14127460D01*
X11101134Y-14127460D02*
X11082086Y-14136984D01*
X11082086Y-14136984D02*
X11034467Y-14136984D01*
X11034467Y-14136984D02*
X11015420Y-14127460D01*
X11015420Y-14127460D02*
X11005896Y-14117936D01*
X11243991Y-13936984D02*
X11263039Y-13936984D01*
X11263039Y-13936984D02*
X11282086Y-13946508D01*
X11282086Y-13946508D02*
X11291610Y-13956031D01*
X11291610Y-13956031D02*
X11301134Y-13975079D01*
X11301134Y-13975079D02*
X11310658Y-14013174D01*
X11310658Y-14013174D02*
X11310658Y-14060793D01*
X11310658Y-14060793D02*
X11301134Y-14098888D01*
X11301134Y-14098888D02*
X11291610Y-14117936D01*
X11291610Y-14117936D02*
X11282086Y-14127460D01*
X11282086Y-14127460D02*
X11263039Y-14136984D01*
X11263039Y-14136984D02*
X11243991Y-14136984D01*
X11243991Y-14136984D02*
X11224943Y-14127460D01*
X11224943Y-14127460D02*
X11215420Y-14117936D01*
X11215420Y-14117936D02*
X11205896Y-14098888D01*
X11205896Y-14098888D02*
X11196372Y-14060793D01*
X11196372Y-14060793D02*
X11196372Y-14013174D01*
X11196372Y-14013174D02*
X11205896Y-13975079D01*
X11205896Y-13975079D02*
X11215420Y-13956031D01*
X11215420Y-13956031D02*
X11224943Y-13946508D01*
X11224943Y-13946508D02*
X11243991Y-13936984D01*
X11434467Y-13936984D02*
X11453515Y-13936984D01*
X11453515Y-13936984D02*
X11472563Y-13946508D01*
X11472563Y-13946508D02*
X11482086Y-13956031D01*
X11482086Y-13956031D02*
X11491610Y-13975079D01*
X11491610Y-13975079D02*
X11501134Y-14013174D01*
X11501134Y-14013174D02*
X11501134Y-14060793D01*
X11501134Y-14060793D02*
X11491610Y-14098888D01*
X11491610Y-14098888D02*
X11482086Y-14117936D01*
X11482086Y-14117936D02*
X11472563Y-14127460D01*
X11472563Y-14127460D02*
X11453515Y-14136984D01*
X11453515Y-14136984D02*
X11434467Y-14136984D01*
X11434467Y-14136984D02*
X11415420Y-14127460D01*
X11415420Y-14127460D02*
X11405896Y-14117936D01*
X11405896Y-14117936D02*
X11396372Y-14098888D01*
X11396372Y-14098888D02*
X11386848Y-14060793D01*
X11386848Y-14060793D02*
X11386848Y-14013174D01*
X11386848Y-14013174D02*
X11396372Y-13975079D01*
X11396372Y-13975079D02*
X11405896Y-13956031D01*
X11405896Y-13956031D02*
X11415420Y-13946508D01*
X11415420Y-13946508D02*
X11434467Y-13936984D01*
X11586848Y-14136984D02*
X11586848Y-14003650D01*
X11586848Y-14022698D02*
X11596372Y-14013174D01*
X11596372Y-14013174D02*
X11615420Y-14003650D01*
X11615420Y-14003650D02*
X11643991Y-14003650D01*
X11643991Y-14003650D02*
X11663039Y-14013174D01*
X11663039Y-14013174D02*
X11672563Y-14032222D01*
X11672563Y-14032222D02*
X11672563Y-14136984D01*
X11672563Y-14032222D02*
X11682086Y-14013174D01*
X11682086Y-14013174D02*
X11701134Y-14003650D01*
X11701134Y-14003650D02*
X11729705Y-14003650D01*
X11729705Y-14003650D02*
X11748753Y-14013174D01*
X11748753Y-14013174D02*
X11758277Y-14032222D01*
X11758277Y-14032222D02*
X11758277Y-14136984D01*
X11853515Y-14136984D02*
X11853515Y-14003650D01*
X11853515Y-14022698D02*
X11863039Y-14013174D01*
X11863039Y-14013174D02*
X11882086Y-14003650D01*
X11882086Y-14003650D02*
X11910658Y-14003650D01*
X11910658Y-14003650D02*
X11929705Y-14013174D01*
X11929705Y-14013174D02*
X11939229Y-14032222D01*
X11939229Y-14032222D02*
X11939229Y-14136984D01*
X11939229Y-14032222D02*
X11948753Y-14013174D01*
X11948753Y-14013174D02*
X11967801Y-14003650D01*
X11967801Y-14003650D02*
X11996372Y-14003650D01*
X11996372Y-14003650D02*
X12015420Y-14013174D01*
X12015420Y-14013174D02*
X12024944Y-14032222D01*
X12024944Y-14032222D02*
X12024944Y-14136984D01*
X12415420Y-13927460D02*
X12243991Y-14184603D01*
X12672563Y-13936984D02*
X12691610Y-13936984D01*
X12691610Y-13936984D02*
X12710658Y-13946508D01*
X12710658Y-13946508D02*
X12720182Y-13956031D01*
X12720182Y-13956031D02*
X12729706Y-13975079D01*
X12729706Y-13975079D02*
X12739229Y-14013174D01*
X12739229Y-14013174D02*
X12739229Y-14060793D01*
X12739229Y-14060793D02*
X12729706Y-14098888D01*
X12729706Y-14098888D02*
X12720182Y-14117936D01*
X12720182Y-14117936D02*
X12710658Y-14127460D01*
X12710658Y-14127460D02*
X12691610Y-14136984D01*
X12691610Y-14136984D02*
X12672563Y-14136984D01*
X12672563Y-14136984D02*
X12653515Y-14127460D01*
X12653515Y-14127460D02*
X12643991Y-14117936D01*
X12643991Y-14117936D02*
X12634467Y-14098888D01*
X12634467Y-14098888D02*
X12624944Y-14060793D01*
X12624944Y-14060793D02*
X12624944Y-14013174D01*
X12624944Y-14013174D02*
X12634467Y-13975079D01*
X12634467Y-13975079D02*
X12643991Y-13956031D01*
X12643991Y-13956031D02*
X12653515Y-13946508D01*
X12653515Y-13946508D02*
X12672563Y-13936984D01*
X12824944Y-14117936D02*
X12834467Y-14127460D01*
X12834467Y-14127460D02*
X12824944Y-14136984D01*
X12824944Y-14136984D02*
X12815420Y-14127460D01*
X12815420Y-14127460D02*
X12824944Y-14117936D01*
X12824944Y-14117936D02*
X12824944Y-14136984D01*
X12958277Y-13936984D02*
X12977325Y-13936984D01*
X12977325Y-13936984D02*
X12996372Y-13946508D01*
X12996372Y-13946508D02*
X13005896Y-13956031D01*
X13005896Y-13956031D02*
X13015420Y-13975079D01*
X13015420Y-13975079D02*
X13024944Y-14013174D01*
X13024944Y-14013174D02*
X13024944Y-14060793D01*
X13024944Y-14060793D02*
X13015420Y-14098888D01*
X13015420Y-14098888D02*
X13005896Y-14117936D01*
X13005896Y-14117936D02*
X12996372Y-14127460D01*
X12996372Y-14127460D02*
X12977325Y-14136984D01*
X12977325Y-14136984D02*
X12958277Y-14136984D01*
X12958277Y-14136984D02*
X12939229Y-14127460D01*
X12939229Y-14127460D02*
X12929706Y-14117936D01*
X12929706Y-14117936D02*
X12920182Y-14098888D01*
X12920182Y-14098888D02*
X12910658Y-14060793D01*
X12910658Y-14060793D02*
X12910658Y-14013174D01*
X12910658Y-14013174D02*
X12920182Y-13975079D01*
X12920182Y-13975079D02*
X12929706Y-13956031D01*
X12929706Y-13956031D02*
X12939229Y-13946508D01*
X12939229Y-13946508D02*
X12958277Y-13936984D01*
X13120182Y-14136984D02*
X13158277Y-14136984D01*
X13158277Y-14136984D02*
X13177325Y-14127460D01*
X13177325Y-14127460D02*
X13186848Y-14117936D01*
X13186848Y-14117936D02*
X13205896Y-14089365D01*
X13205896Y-14089365D02*
X13215420Y-14051269D01*
X13215420Y-14051269D02*
X13215420Y-13975079D01*
X13215420Y-13975079D02*
X13205896Y-13956031D01*
X13205896Y-13956031D02*
X13196372Y-13946508D01*
X13196372Y-13946508D02*
X13177325Y-13936984D01*
X13177325Y-13936984D02*
X13139229Y-13936984D01*
X13139229Y-13936984D02*
X13120182Y-13946508D01*
X13120182Y-13946508D02*
X13110658Y-13956031D01*
X13110658Y-13956031D02*
X13101134Y-13975079D01*
X13101134Y-13975079D02*
X13101134Y-14022698D01*
X13101134Y-14022698D02*
X13110658Y-14041746D01*
X13110658Y-14041746D02*
X13120182Y-14051269D01*
X13120182Y-14051269D02*
X13139229Y-14060793D01*
X13139229Y-14060793D02*
X13177325Y-14060793D01*
X13177325Y-14060793D02*
X13196372Y-14051269D01*
X13196372Y-14051269D02*
X13205896Y-14041746D01*
X13205896Y-14041746D02*
X13215420Y-14022698D01*
X13329706Y-14022698D02*
X13310658Y-14013174D01*
X13310658Y-14013174D02*
X13301134Y-14003650D01*
X13301134Y-14003650D02*
X13291610Y-13984603D01*
X13291610Y-13984603D02*
X13291610Y-13975079D01*
X13291610Y-13975079D02*
X13301134Y-13956031D01*
X13301134Y-13956031D02*
X13310658Y-13946508D01*
X13310658Y-13946508D02*
X13329706Y-13936984D01*
X13329706Y-13936984D02*
X13367801Y-13936984D01*
X13367801Y-13936984D02*
X13386848Y-13946508D01*
X13386848Y-13946508D02*
X13396372Y-13956031D01*
X13396372Y-13956031D02*
X13405896Y-13975079D01*
X13405896Y-13975079D02*
X13405896Y-13984603D01*
X13405896Y-13984603D02*
X13396372Y-14003650D01*
X13396372Y-14003650D02*
X13386848Y-14013174D01*
X13386848Y-14013174D02*
X13367801Y-14022698D01*
X13367801Y-14022698D02*
X13329706Y-14022698D01*
X13329706Y-14022698D02*
X13310658Y-14032222D01*
X13310658Y-14032222D02*
X13301134Y-14041746D01*
X13301134Y-14041746D02*
X13291610Y-14060793D01*
X13291610Y-14060793D02*
X13291610Y-14098888D01*
X13291610Y-14098888D02*
X13301134Y-14117936D01*
X13301134Y-14117936D02*
X13310658Y-14127460D01*
X13310658Y-14127460D02*
X13329706Y-14136984D01*
X13329706Y-14136984D02*
X13367801Y-14136984D01*
X13367801Y-14136984D02*
X13386848Y-14127460D01*
X13386848Y-14127460D02*
X13396372Y-14117936D01*
X13396372Y-14117936D02*
X13405896Y-14098888D01*
X13405896Y-14098888D02*
X13405896Y-14060793D01*
X13405896Y-14060793D02*
X13396372Y-14041746D01*
X13396372Y-14041746D02*
X13386848Y-14032222D01*
X13386848Y-14032222D02*
X13367801Y-14022698D01*
X13577325Y-14003650D02*
X13577325Y-14136984D01*
X13529706Y-13927460D02*
X13482087Y-14070317D01*
X13482087Y-14070317D02*
X13605896Y-14070317D01*
X13672563Y-13936984D02*
X13672563Y-13975079D01*
X13748753Y-13936984D02*
X13748753Y-13975079D01*
X14043991Y-14213174D02*
X14034468Y-14203650D01*
X14034468Y-14203650D02*
X14015420Y-14175079D01*
X14015420Y-14175079D02*
X14005896Y-14156031D01*
X14005896Y-14156031D02*
X13996372Y-14127460D01*
X13996372Y-14127460D02*
X13986849Y-14079841D01*
X13986849Y-14079841D02*
X13986849Y-14041746D01*
X13986849Y-14041746D02*
X13996372Y-13994127D01*
X13996372Y-13994127D02*
X14005896Y-13965555D01*
X14005896Y-13965555D02*
X14015420Y-13946508D01*
X14015420Y-13946508D02*
X14034468Y-13917936D01*
X14034468Y-13917936D02*
X14043991Y-13908412D01*
X14110658Y-13956031D02*
X14120182Y-13946508D01*
X14120182Y-13946508D02*
X14139229Y-13936984D01*
X14139229Y-13936984D02*
X14186849Y-13936984D01*
X14186849Y-13936984D02*
X14205896Y-13946508D01*
X14205896Y-13946508D02*
X14215420Y-13956031D01*
X14215420Y-13956031D02*
X14224944Y-13975079D01*
X14224944Y-13975079D02*
X14224944Y-13994127D01*
X14224944Y-13994127D02*
X14215420Y-14022698D01*
X14215420Y-14022698D02*
X14101134Y-14136984D01*
X14101134Y-14136984D02*
X14224944Y-14136984D01*
X14463039Y-14136984D02*
X14463039Y-13936984D01*
X14548753Y-14136984D02*
X14548753Y-14032222D01*
X14548753Y-14032222D02*
X14539230Y-14013174D01*
X14539230Y-14013174D02*
X14520182Y-14003650D01*
X14520182Y-14003650D02*
X14491610Y-14003650D01*
X14491610Y-14003650D02*
X14472563Y-14013174D01*
X14472563Y-14013174D02*
X14463039Y-14022698D01*
X14672563Y-14136984D02*
X14653515Y-14127460D01*
X14653515Y-14127460D02*
X14643991Y-14117936D01*
X14643991Y-14117936D02*
X14634468Y-14098888D01*
X14634468Y-14098888D02*
X14634468Y-14041746D01*
X14634468Y-14041746D02*
X14643991Y-14022698D01*
X14643991Y-14022698D02*
X14653515Y-14013174D01*
X14653515Y-14013174D02*
X14672563Y-14003650D01*
X14672563Y-14003650D02*
X14701134Y-14003650D01*
X14701134Y-14003650D02*
X14720182Y-14013174D01*
X14720182Y-14013174D02*
X14729706Y-14022698D01*
X14729706Y-14022698D02*
X14739230Y-14041746D01*
X14739230Y-14041746D02*
X14739230Y-14098888D01*
X14739230Y-14098888D02*
X14729706Y-14117936D01*
X14729706Y-14117936D02*
X14720182Y-14127460D01*
X14720182Y-14127460D02*
X14701134Y-14136984D01*
X14701134Y-14136984D02*
X14672563Y-14136984D01*
X14853515Y-14136984D02*
X14834468Y-14127460D01*
X14834468Y-14127460D02*
X14824944Y-14108412D01*
X14824944Y-14108412D02*
X14824944Y-13936984D01*
X15005896Y-14127460D02*
X14986849Y-14136984D01*
X14986849Y-14136984D02*
X14948753Y-14136984D01*
X14948753Y-14136984D02*
X14929706Y-14127460D01*
X14929706Y-14127460D02*
X14920182Y-14108412D01*
X14920182Y-14108412D02*
X14920182Y-14032222D01*
X14920182Y-14032222D02*
X14929706Y-14013174D01*
X14929706Y-14013174D02*
X14948753Y-14003650D01*
X14948753Y-14003650D02*
X14986849Y-14003650D01*
X14986849Y-14003650D02*
X15005896Y-14013174D01*
X15005896Y-14013174D02*
X15015420Y-14032222D01*
X15015420Y-14032222D02*
X15015420Y-14051269D01*
X15015420Y-14051269D02*
X14920182Y-14070317D01*
X15091611Y-14127460D02*
X15110658Y-14136984D01*
X15110658Y-14136984D02*
X15148753Y-14136984D01*
X15148753Y-14136984D02*
X15167801Y-14127460D01*
X15167801Y-14127460D02*
X15177325Y-14108412D01*
X15177325Y-14108412D02*
X15177325Y-14098888D01*
X15177325Y-14098888D02*
X15167801Y-14079841D01*
X15167801Y-14079841D02*
X15148753Y-14070317D01*
X15148753Y-14070317D02*
X15120182Y-14070317D01*
X15120182Y-14070317D02*
X15101134Y-14060793D01*
X15101134Y-14060793D02*
X15091611Y-14041746D01*
X15091611Y-14041746D02*
X15091611Y-14032222D01*
X15091611Y-14032222D02*
X15101134Y-14013174D01*
X15101134Y-14013174D02*
X15120182Y-14003650D01*
X15120182Y-14003650D02*
X15148753Y-14003650D01*
X15148753Y-14003650D02*
X15167801Y-14013174D01*
X15243992Y-14213174D02*
X15253515Y-14203650D01*
X15253515Y-14203650D02*
X15272563Y-14175079D01*
X15272563Y-14175079D02*
X15282087Y-14156031D01*
X15282087Y-14156031D02*
X15291611Y-14127460D01*
X15291611Y-14127460D02*
X15301134Y-14079841D01*
X15301134Y-14079841D02*
X15301134Y-14041746D01*
X15301134Y-14041746D02*
X15291611Y-13994127D01*
X15291611Y-13994127D02*
X15282087Y-13965555D01*
X15282087Y-13965555D02*
X15272563Y-13946508D01*
X15272563Y-13946508D02*
X15253515Y-13917936D01*
X15253515Y-13917936D02*
X15243992Y-13908412D01*
X15605896Y-14213174D02*
X15596372Y-14203650D01*
X15596372Y-14203650D02*
X15577325Y-14175079D01*
X15577325Y-14175079D02*
X15567801Y-14156031D01*
X15567801Y-14156031D02*
X15558277Y-14127460D01*
X15558277Y-14127460D02*
X15548753Y-14079841D01*
X15548753Y-14079841D02*
X15548753Y-14041746D01*
X15548753Y-14041746D02*
X15558277Y-13994127D01*
X15558277Y-13994127D02*
X15567801Y-13965555D01*
X15567801Y-13965555D02*
X15577325Y-13946508D01*
X15577325Y-13946508D02*
X15596372Y-13917936D01*
X15596372Y-13917936D02*
X15605896Y-13908412D01*
X15682087Y-14003650D02*
X15682087Y-14136984D01*
X15682087Y-14022698D02*
X15691611Y-14013174D01*
X15691611Y-14013174D02*
X15710658Y-14003650D01*
X15710658Y-14003650D02*
X15739230Y-14003650D01*
X15739230Y-14003650D02*
X15758277Y-14013174D01*
X15758277Y-14013174D02*
X15767801Y-14032222D01*
X15767801Y-14032222D02*
X15767801Y-14136984D01*
X15891611Y-14136984D02*
X15872563Y-14127460D01*
X15872563Y-14127460D02*
X15863039Y-14117936D01*
X15863039Y-14117936D02*
X15853515Y-14098888D01*
X15853515Y-14098888D02*
X15853515Y-14041746D01*
X15853515Y-14041746D02*
X15863039Y-14022698D01*
X15863039Y-14022698D02*
X15872563Y-14013174D01*
X15872563Y-14013174D02*
X15891611Y-14003650D01*
X15891611Y-14003650D02*
X15920182Y-14003650D01*
X15920182Y-14003650D02*
X15939230Y-14013174D01*
X15939230Y-14013174D02*
X15948753Y-14022698D01*
X15948753Y-14022698D02*
X15958277Y-14041746D01*
X15958277Y-14041746D02*
X15958277Y-14098888D01*
X15958277Y-14098888D02*
X15948753Y-14117936D01*
X15948753Y-14117936D02*
X15939230Y-14127460D01*
X15939230Y-14127460D02*
X15920182Y-14136984D01*
X15920182Y-14136984D02*
X15891611Y-14136984D01*
X16015420Y-14003650D02*
X16091611Y-14003650D01*
X16043992Y-13936984D02*
X16043992Y-14108412D01*
X16043992Y-14108412D02*
X16053515Y-14127460D01*
X16053515Y-14127460D02*
X16072563Y-14136984D01*
X16072563Y-14136984D02*
X16091611Y-14136984D01*
X16310658Y-14003650D02*
X16310658Y-14203650D01*
X16310658Y-14013174D02*
X16329706Y-14003650D01*
X16329706Y-14003650D02*
X16367801Y-14003650D01*
X16367801Y-14003650D02*
X16386849Y-14013174D01*
X16386849Y-14013174D02*
X16396373Y-14022698D01*
X16396373Y-14022698D02*
X16405896Y-14041746D01*
X16405896Y-14041746D02*
X16405896Y-14098888D01*
X16405896Y-14098888D02*
X16396373Y-14117936D01*
X16396373Y-14117936D02*
X16386849Y-14127460D01*
X16386849Y-14127460D02*
X16367801Y-14136984D01*
X16367801Y-14136984D02*
X16329706Y-14136984D01*
X16329706Y-14136984D02*
X16310658Y-14127460D01*
X16520182Y-14136984D02*
X16501134Y-14127460D01*
X16501134Y-14127460D02*
X16491611Y-14108412D01*
X16491611Y-14108412D02*
X16491611Y-13936984D01*
X16682087Y-14136984D02*
X16682087Y-14032222D01*
X16682087Y-14032222D02*
X16672563Y-14013174D01*
X16672563Y-14013174D02*
X16653515Y-14003650D01*
X16653515Y-14003650D02*
X16615420Y-14003650D01*
X16615420Y-14003650D02*
X16596373Y-14013174D01*
X16682087Y-14127460D02*
X16663039Y-14136984D01*
X16663039Y-14136984D02*
X16615420Y-14136984D01*
X16615420Y-14136984D02*
X16596373Y-14127460D01*
X16596373Y-14127460D02*
X16586849Y-14108412D01*
X16586849Y-14108412D02*
X16586849Y-14089365D01*
X16586849Y-14089365D02*
X16596373Y-14070317D01*
X16596373Y-14070317D02*
X16615420Y-14060793D01*
X16615420Y-14060793D02*
X16663039Y-14060793D01*
X16663039Y-14060793D02*
X16682087Y-14051269D01*
X16748754Y-14003650D02*
X16824944Y-14003650D01*
X16777325Y-13936984D02*
X16777325Y-14108412D01*
X16777325Y-14108412D02*
X16786849Y-14127460D01*
X16786849Y-14127460D02*
X16805896Y-14136984D01*
X16805896Y-14136984D02*
X16824944Y-14136984D01*
X16967801Y-14127460D02*
X16948754Y-14136984D01*
X16948754Y-14136984D02*
X16910658Y-14136984D01*
X16910658Y-14136984D02*
X16891611Y-14127460D01*
X16891611Y-14127460D02*
X16882087Y-14108412D01*
X16882087Y-14108412D02*
X16882087Y-14032222D01*
X16882087Y-14032222D02*
X16891611Y-14013174D01*
X16891611Y-14013174D02*
X16910658Y-14003650D01*
X16910658Y-14003650D02*
X16948754Y-14003650D01*
X16948754Y-14003650D02*
X16967801Y-14013174D01*
X16967801Y-14013174D02*
X16977325Y-14032222D01*
X16977325Y-14032222D02*
X16977325Y-14051269D01*
X16977325Y-14051269D02*
X16882087Y-14070317D01*
X17148754Y-14136984D02*
X17148754Y-13936984D01*
X17148754Y-14127460D02*
X17129706Y-14136984D01*
X17129706Y-14136984D02*
X17091611Y-14136984D01*
X17091611Y-14136984D02*
X17072563Y-14127460D01*
X17072563Y-14127460D02*
X17063039Y-14117936D01*
X17063039Y-14117936D02*
X17053516Y-14098888D01*
X17053516Y-14098888D02*
X17053516Y-14041746D01*
X17053516Y-14041746D02*
X17063039Y-14022698D01*
X17063039Y-14022698D02*
X17072563Y-14013174D01*
X17072563Y-14013174D02*
X17091611Y-14003650D01*
X17091611Y-14003650D02*
X17129706Y-14003650D01*
X17129706Y-14003650D02*
X17148754Y-14013174D01*
X17224944Y-14213174D02*
X17234468Y-14203650D01*
X17234468Y-14203650D02*
X17253516Y-14175079D01*
X17253516Y-14175079D02*
X17263039Y-14156031D01*
X17263039Y-14156031D02*
X17272563Y-14127460D01*
X17272563Y-14127460D02*
X17282087Y-14079841D01*
X17282087Y-14079841D02*
X17282087Y-14041746D01*
X17282087Y-14041746D02*
X17272563Y-13994127D01*
X17272563Y-13994127D02*
X17263039Y-13965555D01*
X17263039Y-13965555D02*
X17253516Y-13946508D01*
X17253516Y-13946508D02*
X17234468Y-13917936D01*
X17234468Y-13917936D02*
X17224944Y-13908412D01*
X10368929Y-14265500D02*
X10368929Y-14465500D01*
X10268929Y-14365500D02*
X10468929Y-14365500D01*
X10720182Y-14276031D02*
X10729705Y-14266508D01*
X10729705Y-14266508D02*
X10748753Y-14256984D01*
X10748753Y-14256984D02*
X10796372Y-14256984D01*
X10796372Y-14256984D02*
X10815420Y-14266508D01*
X10815420Y-14266508D02*
X10824944Y-14276031D01*
X10824944Y-14276031D02*
X10834467Y-14295079D01*
X10834467Y-14295079D02*
X10834467Y-14314127D01*
X10834467Y-14314127D02*
X10824944Y-14342698D01*
X10824944Y-14342698D02*
X10710658Y-14456984D01*
X10710658Y-14456984D02*
X10834467Y-14456984D01*
X10920182Y-14437936D02*
X10929705Y-14447460D01*
X10929705Y-14447460D02*
X10920182Y-14456984D01*
X10920182Y-14456984D02*
X10910658Y-14447460D01*
X10910658Y-14447460D02*
X10920182Y-14437936D01*
X10920182Y-14437936D02*
X10920182Y-14456984D01*
X11110658Y-14256984D02*
X11015420Y-14256984D01*
X11015420Y-14256984D02*
X11005896Y-14352222D01*
X11005896Y-14352222D02*
X11015420Y-14342698D01*
X11015420Y-14342698D02*
X11034467Y-14333174D01*
X11034467Y-14333174D02*
X11082086Y-14333174D01*
X11082086Y-14333174D02*
X11101134Y-14342698D01*
X11101134Y-14342698D02*
X11110658Y-14352222D01*
X11110658Y-14352222D02*
X11120182Y-14371269D01*
X11120182Y-14371269D02*
X11120182Y-14418888D01*
X11120182Y-14418888D02*
X11110658Y-14437936D01*
X11110658Y-14437936D02*
X11101134Y-14447460D01*
X11101134Y-14447460D02*
X11082086Y-14456984D01*
X11082086Y-14456984D02*
X11034467Y-14456984D01*
X11034467Y-14456984D02*
X11015420Y-14447460D01*
X11015420Y-14447460D02*
X11005896Y-14437936D01*
X11291610Y-14323650D02*
X11291610Y-14456984D01*
X11243991Y-14247460D02*
X11196372Y-14390317D01*
X11196372Y-14390317D02*
X11320182Y-14390317D01*
X11434467Y-14256984D02*
X11453515Y-14256984D01*
X11453515Y-14256984D02*
X11472563Y-14266508D01*
X11472563Y-14266508D02*
X11482086Y-14276031D01*
X11482086Y-14276031D02*
X11491610Y-14295079D01*
X11491610Y-14295079D02*
X11501134Y-14333174D01*
X11501134Y-14333174D02*
X11501134Y-14380793D01*
X11501134Y-14380793D02*
X11491610Y-14418888D01*
X11491610Y-14418888D02*
X11482086Y-14437936D01*
X11482086Y-14437936D02*
X11472563Y-14447460D01*
X11472563Y-14447460D02*
X11453515Y-14456984D01*
X11453515Y-14456984D02*
X11434467Y-14456984D01*
X11434467Y-14456984D02*
X11415420Y-14447460D01*
X11415420Y-14447460D02*
X11405896Y-14437936D01*
X11405896Y-14437936D02*
X11396372Y-14418888D01*
X11396372Y-14418888D02*
X11386848Y-14380793D01*
X11386848Y-14380793D02*
X11386848Y-14333174D01*
X11386848Y-14333174D02*
X11396372Y-14295079D01*
X11396372Y-14295079D02*
X11405896Y-14276031D01*
X11405896Y-14276031D02*
X11415420Y-14266508D01*
X11415420Y-14266508D02*
X11434467Y-14256984D01*
X11586848Y-14456984D02*
X11586848Y-14323650D01*
X11586848Y-14342698D02*
X11596372Y-14333174D01*
X11596372Y-14333174D02*
X11615420Y-14323650D01*
X11615420Y-14323650D02*
X11643991Y-14323650D01*
X11643991Y-14323650D02*
X11663039Y-14333174D01*
X11663039Y-14333174D02*
X11672563Y-14352222D01*
X11672563Y-14352222D02*
X11672563Y-14456984D01*
X11672563Y-14352222D02*
X11682086Y-14333174D01*
X11682086Y-14333174D02*
X11701134Y-14323650D01*
X11701134Y-14323650D02*
X11729705Y-14323650D01*
X11729705Y-14323650D02*
X11748753Y-14333174D01*
X11748753Y-14333174D02*
X11758277Y-14352222D01*
X11758277Y-14352222D02*
X11758277Y-14456984D01*
X11853515Y-14456984D02*
X11853515Y-14323650D01*
X11853515Y-14342698D02*
X11863039Y-14333174D01*
X11863039Y-14333174D02*
X11882086Y-14323650D01*
X11882086Y-14323650D02*
X11910658Y-14323650D01*
X11910658Y-14323650D02*
X11929705Y-14333174D01*
X11929705Y-14333174D02*
X11939229Y-14352222D01*
X11939229Y-14352222D02*
X11939229Y-14456984D01*
X11939229Y-14352222D02*
X11948753Y-14333174D01*
X11948753Y-14333174D02*
X11967801Y-14323650D01*
X11967801Y-14323650D02*
X11996372Y-14323650D01*
X11996372Y-14323650D02*
X12015420Y-14333174D01*
X12015420Y-14333174D02*
X12024944Y-14352222D01*
X12024944Y-14352222D02*
X12024944Y-14456984D01*
X12415420Y-14247460D02*
X12243991Y-14504603D01*
X12672563Y-14256984D02*
X12691610Y-14256984D01*
X12691610Y-14256984D02*
X12710658Y-14266508D01*
X12710658Y-14266508D02*
X12720182Y-14276031D01*
X12720182Y-14276031D02*
X12729706Y-14295079D01*
X12729706Y-14295079D02*
X12739229Y-14333174D01*
X12739229Y-14333174D02*
X12739229Y-14380793D01*
X12739229Y-14380793D02*
X12729706Y-14418888D01*
X12729706Y-14418888D02*
X12720182Y-14437936D01*
X12720182Y-14437936D02*
X12710658Y-14447460D01*
X12710658Y-14447460D02*
X12691610Y-14456984D01*
X12691610Y-14456984D02*
X12672563Y-14456984D01*
X12672563Y-14456984D02*
X12653515Y-14447460D01*
X12653515Y-14447460D02*
X12643991Y-14437936D01*
X12643991Y-14437936D02*
X12634467Y-14418888D01*
X12634467Y-14418888D02*
X12624944Y-14380793D01*
X12624944Y-14380793D02*
X12624944Y-14333174D01*
X12624944Y-14333174D02*
X12634467Y-14295079D01*
X12634467Y-14295079D02*
X12643991Y-14276031D01*
X12643991Y-14276031D02*
X12653515Y-14266508D01*
X12653515Y-14266508D02*
X12672563Y-14256984D01*
X12824944Y-14437936D02*
X12834467Y-14447460D01*
X12834467Y-14447460D02*
X12824944Y-14456984D01*
X12824944Y-14456984D02*
X12815420Y-14447460D01*
X12815420Y-14447460D02*
X12824944Y-14437936D01*
X12824944Y-14437936D02*
X12824944Y-14456984D01*
X13024944Y-14456984D02*
X12910658Y-14456984D01*
X12967801Y-14456984D02*
X12967801Y-14256984D01*
X12967801Y-14256984D02*
X12948753Y-14285555D01*
X12948753Y-14285555D02*
X12929706Y-14304603D01*
X12929706Y-14304603D02*
X12910658Y-14314127D01*
X13148753Y-14256984D02*
X13167801Y-14256984D01*
X13167801Y-14256984D02*
X13186848Y-14266508D01*
X13186848Y-14266508D02*
X13196372Y-14276031D01*
X13196372Y-14276031D02*
X13205896Y-14295079D01*
X13205896Y-14295079D02*
X13215420Y-14333174D01*
X13215420Y-14333174D02*
X13215420Y-14380793D01*
X13215420Y-14380793D02*
X13205896Y-14418888D01*
X13205896Y-14418888D02*
X13196372Y-14437936D01*
X13196372Y-14437936D02*
X13186848Y-14447460D01*
X13186848Y-14447460D02*
X13167801Y-14456984D01*
X13167801Y-14456984D02*
X13148753Y-14456984D01*
X13148753Y-14456984D02*
X13129706Y-14447460D01*
X13129706Y-14447460D02*
X13120182Y-14437936D01*
X13120182Y-14437936D02*
X13110658Y-14418888D01*
X13110658Y-14418888D02*
X13101134Y-14380793D01*
X13101134Y-14380793D02*
X13101134Y-14333174D01*
X13101134Y-14333174D02*
X13110658Y-14295079D01*
X13110658Y-14295079D02*
X13120182Y-14276031D01*
X13120182Y-14276031D02*
X13129706Y-14266508D01*
X13129706Y-14266508D02*
X13148753Y-14256984D01*
X13339229Y-14256984D02*
X13358277Y-14256984D01*
X13358277Y-14256984D02*
X13377325Y-14266508D01*
X13377325Y-14266508D02*
X13386848Y-14276031D01*
X13386848Y-14276031D02*
X13396372Y-14295079D01*
X13396372Y-14295079D02*
X13405896Y-14333174D01*
X13405896Y-14333174D02*
X13405896Y-14380793D01*
X13405896Y-14380793D02*
X13396372Y-14418888D01*
X13396372Y-14418888D02*
X13386848Y-14437936D01*
X13386848Y-14437936D02*
X13377325Y-14447460D01*
X13377325Y-14447460D02*
X13358277Y-14456984D01*
X13358277Y-14456984D02*
X13339229Y-14456984D01*
X13339229Y-14456984D02*
X13320182Y-14447460D01*
X13320182Y-14447460D02*
X13310658Y-14437936D01*
X13310658Y-14437936D02*
X13301134Y-14418888D01*
X13301134Y-14418888D02*
X13291610Y-14380793D01*
X13291610Y-14380793D02*
X13291610Y-14333174D01*
X13291610Y-14333174D02*
X13301134Y-14295079D01*
X13301134Y-14295079D02*
X13310658Y-14276031D01*
X13310658Y-14276031D02*
X13320182Y-14266508D01*
X13320182Y-14266508D02*
X13339229Y-14256984D01*
X13529706Y-14256984D02*
X13548753Y-14256984D01*
X13548753Y-14256984D02*
X13567801Y-14266508D01*
X13567801Y-14266508D02*
X13577325Y-14276031D01*
X13577325Y-14276031D02*
X13586848Y-14295079D01*
X13586848Y-14295079D02*
X13596372Y-14333174D01*
X13596372Y-14333174D02*
X13596372Y-14380793D01*
X13596372Y-14380793D02*
X13586848Y-14418888D01*
X13586848Y-14418888D02*
X13577325Y-14437936D01*
X13577325Y-14437936D02*
X13567801Y-14447460D01*
X13567801Y-14447460D02*
X13548753Y-14456984D01*
X13548753Y-14456984D02*
X13529706Y-14456984D01*
X13529706Y-14456984D02*
X13510658Y-14447460D01*
X13510658Y-14447460D02*
X13501134Y-14437936D01*
X13501134Y-14437936D02*
X13491610Y-14418888D01*
X13491610Y-14418888D02*
X13482087Y-14380793D01*
X13482087Y-14380793D02*
X13482087Y-14333174D01*
X13482087Y-14333174D02*
X13491610Y-14295079D01*
X13491610Y-14295079D02*
X13501134Y-14276031D01*
X13501134Y-14276031D02*
X13510658Y-14266508D01*
X13510658Y-14266508D02*
X13529706Y-14256984D01*
X13672563Y-14256984D02*
X13672563Y-14295079D01*
X13748753Y-14256984D02*
X13748753Y-14295079D01*
X14043991Y-14533174D02*
X14034468Y-14523650D01*
X14034468Y-14523650D02*
X14015420Y-14495079D01*
X14015420Y-14495079D02*
X14005896Y-14476031D01*
X14005896Y-14476031D02*
X13996372Y-14447460D01*
X13996372Y-14447460D02*
X13986849Y-14399841D01*
X13986849Y-14399841D02*
X13986849Y-14361746D01*
X13986849Y-14361746D02*
X13996372Y-14314127D01*
X13996372Y-14314127D02*
X14005896Y-14285555D01*
X14005896Y-14285555D02*
X14015420Y-14266508D01*
X14015420Y-14266508D02*
X14034468Y-14237936D01*
X14034468Y-14237936D02*
X14043991Y-14228412D01*
X14110658Y-14276031D02*
X14120182Y-14266508D01*
X14120182Y-14266508D02*
X14139229Y-14256984D01*
X14139229Y-14256984D02*
X14186849Y-14256984D01*
X14186849Y-14256984D02*
X14205896Y-14266508D01*
X14205896Y-14266508D02*
X14215420Y-14276031D01*
X14215420Y-14276031D02*
X14224944Y-14295079D01*
X14224944Y-14295079D02*
X14224944Y-14314127D01*
X14224944Y-14314127D02*
X14215420Y-14342698D01*
X14215420Y-14342698D02*
X14101134Y-14456984D01*
X14101134Y-14456984D02*
X14224944Y-14456984D01*
X14463039Y-14456984D02*
X14463039Y-14256984D01*
X14548753Y-14456984D02*
X14548753Y-14352222D01*
X14548753Y-14352222D02*
X14539230Y-14333174D01*
X14539230Y-14333174D02*
X14520182Y-14323650D01*
X14520182Y-14323650D02*
X14491610Y-14323650D01*
X14491610Y-14323650D02*
X14472563Y-14333174D01*
X14472563Y-14333174D02*
X14463039Y-14342698D01*
X14672563Y-14456984D02*
X14653515Y-14447460D01*
X14653515Y-14447460D02*
X14643991Y-14437936D01*
X14643991Y-14437936D02*
X14634468Y-14418888D01*
X14634468Y-14418888D02*
X14634468Y-14361746D01*
X14634468Y-14361746D02*
X14643991Y-14342698D01*
X14643991Y-14342698D02*
X14653515Y-14333174D01*
X14653515Y-14333174D02*
X14672563Y-14323650D01*
X14672563Y-14323650D02*
X14701134Y-14323650D01*
X14701134Y-14323650D02*
X14720182Y-14333174D01*
X14720182Y-14333174D02*
X14729706Y-14342698D01*
X14729706Y-14342698D02*
X14739230Y-14361746D01*
X14739230Y-14361746D02*
X14739230Y-14418888D01*
X14739230Y-14418888D02*
X14729706Y-14437936D01*
X14729706Y-14437936D02*
X14720182Y-14447460D01*
X14720182Y-14447460D02*
X14701134Y-14456984D01*
X14701134Y-14456984D02*
X14672563Y-14456984D01*
X14853515Y-14456984D02*
X14834468Y-14447460D01*
X14834468Y-14447460D02*
X14824944Y-14428412D01*
X14824944Y-14428412D02*
X14824944Y-14256984D01*
X15005896Y-14447460D02*
X14986849Y-14456984D01*
X14986849Y-14456984D02*
X14948753Y-14456984D01*
X14948753Y-14456984D02*
X14929706Y-14447460D01*
X14929706Y-14447460D02*
X14920182Y-14428412D01*
X14920182Y-14428412D02*
X14920182Y-14352222D01*
X14920182Y-14352222D02*
X14929706Y-14333174D01*
X14929706Y-14333174D02*
X14948753Y-14323650D01*
X14948753Y-14323650D02*
X14986849Y-14323650D01*
X14986849Y-14323650D02*
X15005896Y-14333174D01*
X15005896Y-14333174D02*
X15015420Y-14352222D01*
X15015420Y-14352222D02*
X15015420Y-14371269D01*
X15015420Y-14371269D02*
X14920182Y-14390317D01*
X15091611Y-14447460D02*
X15110658Y-14456984D01*
X15110658Y-14456984D02*
X15148753Y-14456984D01*
X15148753Y-14456984D02*
X15167801Y-14447460D01*
X15167801Y-14447460D02*
X15177325Y-14428412D01*
X15177325Y-14428412D02*
X15177325Y-14418888D01*
X15177325Y-14418888D02*
X15167801Y-14399841D01*
X15167801Y-14399841D02*
X15148753Y-14390317D01*
X15148753Y-14390317D02*
X15120182Y-14390317D01*
X15120182Y-14390317D02*
X15101134Y-14380793D01*
X15101134Y-14380793D02*
X15091611Y-14361746D01*
X15091611Y-14361746D02*
X15091611Y-14352222D01*
X15091611Y-14352222D02*
X15101134Y-14333174D01*
X15101134Y-14333174D02*
X15120182Y-14323650D01*
X15120182Y-14323650D02*
X15148753Y-14323650D01*
X15148753Y-14323650D02*
X15167801Y-14333174D01*
X15243992Y-14533174D02*
X15253515Y-14523650D01*
X15253515Y-14523650D02*
X15272563Y-14495079D01*
X15272563Y-14495079D02*
X15282087Y-14476031D01*
X15282087Y-14476031D02*
X15291611Y-14447460D01*
X15291611Y-14447460D02*
X15301134Y-14399841D01*
X15301134Y-14399841D02*
X15301134Y-14361746D01*
X15301134Y-14361746D02*
X15291611Y-14314127D01*
X15291611Y-14314127D02*
X15282087Y-14285555D01*
X15282087Y-14285555D02*
X15272563Y-14266508D01*
X15272563Y-14266508D02*
X15253515Y-14237936D01*
X15253515Y-14237936D02*
X15243992Y-14228412D01*
X15605896Y-14533174D02*
X15596372Y-14523650D01*
X15596372Y-14523650D02*
X15577325Y-14495079D01*
X15577325Y-14495079D02*
X15567801Y-14476031D01*
X15567801Y-14476031D02*
X15558277Y-14447460D01*
X15558277Y-14447460D02*
X15548753Y-14399841D01*
X15548753Y-14399841D02*
X15548753Y-14361746D01*
X15548753Y-14361746D02*
X15558277Y-14314127D01*
X15558277Y-14314127D02*
X15567801Y-14285555D01*
X15567801Y-14285555D02*
X15577325Y-14266508D01*
X15577325Y-14266508D02*
X15596372Y-14237936D01*
X15596372Y-14237936D02*
X15605896Y-14228412D01*
X15682087Y-14323650D02*
X15682087Y-14456984D01*
X15682087Y-14342698D02*
X15691611Y-14333174D01*
X15691611Y-14333174D02*
X15710658Y-14323650D01*
X15710658Y-14323650D02*
X15739230Y-14323650D01*
X15739230Y-14323650D02*
X15758277Y-14333174D01*
X15758277Y-14333174D02*
X15767801Y-14352222D01*
X15767801Y-14352222D02*
X15767801Y-14456984D01*
X15891611Y-14456984D02*
X15872563Y-14447460D01*
X15872563Y-14447460D02*
X15863039Y-14437936D01*
X15863039Y-14437936D02*
X15853515Y-14418888D01*
X15853515Y-14418888D02*
X15853515Y-14361746D01*
X15853515Y-14361746D02*
X15863039Y-14342698D01*
X15863039Y-14342698D02*
X15872563Y-14333174D01*
X15872563Y-14333174D02*
X15891611Y-14323650D01*
X15891611Y-14323650D02*
X15920182Y-14323650D01*
X15920182Y-14323650D02*
X15939230Y-14333174D01*
X15939230Y-14333174D02*
X15948753Y-14342698D01*
X15948753Y-14342698D02*
X15958277Y-14361746D01*
X15958277Y-14361746D02*
X15958277Y-14418888D01*
X15958277Y-14418888D02*
X15948753Y-14437936D01*
X15948753Y-14437936D02*
X15939230Y-14447460D01*
X15939230Y-14447460D02*
X15920182Y-14456984D01*
X15920182Y-14456984D02*
X15891611Y-14456984D01*
X16015420Y-14323650D02*
X16091611Y-14323650D01*
X16043992Y-14256984D02*
X16043992Y-14428412D01*
X16043992Y-14428412D02*
X16053515Y-14447460D01*
X16053515Y-14447460D02*
X16072563Y-14456984D01*
X16072563Y-14456984D02*
X16091611Y-14456984D01*
X16310658Y-14323650D02*
X16310658Y-14523650D01*
X16310658Y-14333174D02*
X16329706Y-14323650D01*
X16329706Y-14323650D02*
X16367801Y-14323650D01*
X16367801Y-14323650D02*
X16386849Y-14333174D01*
X16386849Y-14333174D02*
X16396373Y-14342698D01*
X16396373Y-14342698D02*
X16405896Y-14361746D01*
X16405896Y-14361746D02*
X16405896Y-14418888D01*
X16405896Y-14418888D02*
X16396373Y-14437936D01*
X16396373Y-14437936D02*
X16386849Y-14447460D01*
X16386849Y-14447460D02*
X16367801Y-14456984D01*
X16367801Y-14456984D02*
X16329706Y-14456984D01*
X16329706Y-14456984D02*
X16310658Y-14447460D01*
X16520182Y-14456984D02*
X16501134Y-14447460D01*
X16501134Y-14447460D02*
X16491611Y-14428412D01*
X16491611Y-14428412D02*
X16491611Y-14256984D01*
X16682087Y-14456984D02*
X16682087Y-14352222D01*
X16682087Y-14352222D02*
X16672563Y-14333174D01*
X16672563Y-14333174D02*
X16653515Y-14323650D01*
X16653515Y-14323650D02*
X16615420Y-14323650D01*
X16615420Y-14323650D02*
X16596373Y-14333174D01*
X16682087Y-14447460D02*
X16663039Y-14456984D01*
X16663039Y-14456984D02*
X16615420Y-14456984D01*
X16615420Y-14456984D02*
X16596373Y-14447460D01*
X16596373Y-14447460D02*
X16586849Y-14428412D01*
X16586849Y-14428412D02*
X16586849Y-14409365D01*
X16586849Y-14409365D02*
X16596373Y-14390317D01*
X16596373Y-14390317D02*
X16615420Y-14380793D01*
X16615420Y-14380793D02*
X16663039Y-14380793D01*
X16663039Y-14380793D02*
X16682087Y-14371269D01*
X16748754Y-14323650D02*
X16824944Y-14323650D01*
X16777325Y-14256984D02*
X16777325Y-14428412D01*
X16777325Y-14428412D02*
X16786849Y-14447460D01*
X16786849Y-14447460D02*
X16805896Y-14456984D01*
X16805896Y-14456984D02*
X16824944Y-14456984D01*
X16967801Y-14447460D02*
X16948754Y-14456984D01*
X16948754Y-14456984D02*
X16910658Y-14456984D01*
X16910658Y-14456984D02*
X16891611Y-14447460D01*
X16891611Y-14447460D02*
X16882087Y-14428412D01*
X16882087Y-14428412D02*
X16882087Y-14352222D01*
X16882087Y-14352222D02*
X16891611Y-14333174D01*
X16891611Y-14333174D02*
X16910658Y-14323650D01*
X16910658Y-14323650D02*
X16948754Y-14323650D01*
X16948754Y-14323650D02*
X16967801Y-14333174D01*
X16967801Y-14333174D02*
X16977325Y-14352222D01*
X16977325Y-14352222D02*
X16977325Y-14371269D01*
X16977325Y-14371269D02*
X16882087Y-14390317D01*
X17148754Y-14456984D02*
X17148754Y-14256984D01*
X17148754Y-14447460D02*
X17129706Y-14456984D01*
X17129706Y-14456984D02*
X17091611Y-14456984D01*
X17091611Y-14456984D02*
X17072563Y-14447460D01*
X17072563Y-14447460D02*
X17063039Y-14437936D01*
X17063039Y-14437936D02*
X17053516Y-14418888D01*
X17053516Y-14418888D02*
X17053516Y-14361746D01*
X17053516Y-14361746D02*
X17063039Y-14342698D01*
X17063039Y-14342698D02*
X17072563Y-14333174D01*
X17072563Y-14333174D02*
X17091611Y-14323650D01*
X17091611Y-14323650D02*
X17129706Y-14323650D01*
X17129706Y-14323650D02*
X17148754Y-14333174D01*
X17224944Y-14533174D02*
X17234468Y-14523650D01*
X17234468Y-14523650D02*
X17253516Y-14495079D01*
X17253516Y-14495079D02*
X17263039Y-14476031D01*
X17263039Y-14476031D02*
X17272563Y-14447460D01*
X17272563Y-14447460D02*
X17282087Y-14399841D01*
X17282087Y-14399841D02*
X17282087Y-14361746D01*
X17282087Y-14361746D02*
X17272563Y-14314127D01*
X17272563Y-14314127D02*
X17263039Y-14285555D01*
X17263039Y-14285555D02*
X17253516Y-14266508D01*
X17253516Y-14266508D02*
X17234468Y-14237936D01*
X17234468Y-14237936D02*
X17224944Y-14228412D01*
M02*
