%TF.GenerationSoftware,KiCad,Pcbnew,8.0.2*%
%TF.CreationDate,2024-05-18T00:20:58-06:00*%
%TF.ProjectId,VacuumATM_wCoinDispenser,56616375-756d-4415-944d-5f77436f696e,rev?*%
%TF.SameCoordinates,Original*%
%TF.FileFunction,Copper,L2,Bot*%
%TF.FilePolarity,Positive*%
%FSLAX46Y46*%
G04 Gerber Fmt 4.6, Leading zero omitted, Abs format (unit mm)*
G04 Created by KiCad (PCBNEW 8.0.2) date 2024-05-18 00:20:58*
%MOMM*%
%LPD*%
G01*
G04 APERTURE LIST*
%TA.AperFunction,ComponentPad*%
%ADD10R,2.200000X2.200000*%
%TD*%
%TA.AperFunction,ComponentPad*%
%ADD11C,2.200000*%
%TD*%
%TA.AperFunction,WasherPad*%
%ADD12C,3.200000*%
%TD*%
%TA.AperFunction,ComponentPad*%
%ADD13R,2.600000X1.600000*%
%TD*%
%TA.AperFunction,ComponentPad*%
%ADD14O,2.600000X1.600000*%
%TD*%
%TA.AperFunction,ComponentPad*%
%ADD15C,5.000000*%
%TD*%
%TA.AperFunction,Conductor*%
%ADD16C,0.200000*%
%TD*%
G04 APERTURE END LIST*
D10*
%TO.P,Reset,1,Pin_1*%
%TO.N,Net-(A1-~{RESET})*%
X147500000Y-83750000D03*
D11*
%TO.P,Reset,2,Pin_2*%
%TO.N,GND*%
X147500000Y-81210000D03*
%TD*%
D10*
%TO.P,User1,1,Pin_1*%
%TO.N,Net-(A1-D1)*%
X113000000Y-90710000D03*
D11*
%TO.P,User1,2,Pin_2*%
%TO.N,+3.3V*%
X113000000Y-93250000D03*
%TD*%
D10*
%TO.P,User2,1,Pin_1*%
%TO.N,Net-(A1-D0)*%
X113000000Y-100250000D03*
D11*
%TO.P,User2,2,Pin_2*%
%TO.N,+3.3V*%
X113000000Y-102790000D03*
%TD*%
D10*
%TO.P,9g Servo,1,Pin_1*%
%TO.N,GND*%
X147500000Y-106830000D03*
D11*
%TO.P,9g Servo,2,Pin_2*%
%TO.N,VBUS*%
X147500000Y-104290000D03*
%TO.P,9g Servo,3,Pin_3*%
%TO.N,Net-(A1-A5)*%
X147500000Y-101750000D03*
%TD*%
D10*
%TO.P,Neopixel,1,Pin_1*%
%TO.N,Net-(A1-D2)*%
X147500000Y-95250000D03*
D11*
%TO.P,Neopixel,2,Pin_2*%
%TO.N,VBUS*%
X147500000Y-92710000D03*
%TO.P,Neopixel,3,Pin_3*%
%TO.N,GND*%
X147500000Y-90170000D03*
%TD*%
D10*
%TO.P,Cam,1,Pin_1*%
%TO.N,Net-(A1-A2)*%
X113000000Y-81750000D03*
D11*
%TO.P,Cam,2,Pin_2*%
%TO.N,+3.3V*%
X113000000Y-84290000D03*
%TD*%
D12*
%TO.P,A1,*%
%TO.N,*%
X121220000Y-76030000D03*
X139000000Y-76030000D03*
D13*
%TO.P,A1,1,~{RESET}*%
%TO.N,Net-(A1-~{RESET})*%
X120250000Y-79840000D03*
D14*
%TO.P,A1,2,3V3*%
%TO.N,+3.3V*%
X120250000Y-82380000D03*
%TO.P,A1,3,AREF*%
%TO.N,unconnected-(A1-AREF-Pad3)*%
X120250000Y-84920000D03*
%TO.P,A1,4,GND*%
%TO.N,GND*%
X120250000Y-87460000D03*
%TO.P,A1,5,A0*%
%TO.N,unconnected-(A1-A0-Pad5)*%
X120250000Y-90000000D03*
%TO.P,A1,6,A1*%
%TO.N,unconnected-(A1-A1-Pad6)*%
X120250000Y-92540000D03*
%TO.P,A1,7,A2*%
%TO.N,Net-(A1-A2)*%
X120250000Y-95080000D03*
%TO.P,A1,8,A3*%
%TO.N,unconnected-(A1-A3-Pad8)*%
X120250000Y-97620000D03*
%TO.P,A1,9,A4*%
%TO.N,unconnected-(A1-A4-Pad9)*%
X120250000Y-100160000D03*
%TO.P,A1,10,A5*%
%TO.N,Net-(A1-A5)*%
X120250000Y-102700000D03*
%TO.P,A1,11,SCK*%
%TO.N,unconnected-(A1-SCK-Pad11)*%
X120250000Y-105240000D03*
%TO.P,A1,12,MOSI*%
%TO.N,unconnected-(A1-MOSI-Pad12)*%
X120250000Y-107780000D03*
%TO.P,A1,13,MISO*%
%TO.N,unconnected-(A1-MISO-Pad13)*%
X120250000Y-110320000D03*
%TO.P,A1,14,RX*%
%TO.N,unconnected-(A1-RX-Pad14)*%
X120250000Y-112860000D03*
%TO.P,A1,15,TX*%
%TO.N,unconnected-(A1-TX-Pad15)*%
X120250000Y-115400000D03*
%TO.P,A1,16,SPARE*%
%TO.N,unconnected-(A1-SPARE-Pad16)*%
X120250000Y-117940000D03*
%TO.P,A1,17,SDA*%
%TO.N,unconnected-(A1-SDA-Pad17)*%
X139970000Y-117940000D03*
%TO.P,A1,18,SCL*%
%TO.N,unconnected-(A1-SCL-Pad18)*%
X139970000Y-115400000D03*
%TO.P,A1,19,D0*%
%TO.N,Net-(A1-D0)*%
X139970000Y-112860000D03*
%TO.P,A1,20,D1*%
%TO.N,Net-(A1-D1)*%
X139970000Y-110320000D03*
%TO.P,A1,21,D2*%
%TO.N,Net-(A1-D2)*%
X139970000Y-107780000D03*
%TO.P,A1,22,D3*%
%TO.N,unconnected-(A1-D3-Pad22)*%
X139970000Y-105240000D03*
%TO.P,A1,23,D4*%
%TO.N,unconnected-(A1-D4-Pad23)*%
X139970000Y-102700000D03*
%TO.P,A1,24,D5*%
%TO.N,unconnected-(A1-D5-Pad24)*%
X139970000Y-100160000D03*
%TO.P,A1,25,D6*%
%TO.N,unconnected-(A1-D6-Pad25)*%
X139970000Y-97620000D03*
%TO.P,A1,26,USB*%
%TO.N,VBUS*%
X139970000Y-95080000D03*
%TO.P,A1,27,EN*%
%TO.N,unconnected-(A1-EN-Pad27)*%
X139970000Y-92540000D03*
%TO.P,A1,28,VBAT*%
%TO.N,unconnected-(A1-VBAT-Pad28)*%
X139970000Y-90000000D03*
%TD*%
D15*
%TO.P,H3,1*%
%TO.N,N/C*%
X113500000Y-126250000D03*
%TD*%
%TO.P,H2,1*%
%TO.N,N/C*%
X147702236Y-70750000D03*
%TD*%
%TO.P,H1,1*%
%TO.N,N/C*%
X113500000Y-70750000D03*
%TD*%
%TO.P,H4,1*%
%TO.N,N/C*%
X147702236Y-126250000D03*
%TD*%
D16*
%TO.N,Net-(A1-A2)*%
X118650000Y-93780000D02*
X119950000Y-95080000D01*
X118650000Y-87650000D02*
X118650000Y-93780000D01*
X113000000Y-82000000D02*
X118650000Y-87650000D01*
X113000000Y-81750000D02*
X113000000Y-82000000D01*
%TO.N,Net-(A1-D1)*%
X118790000Y-96500000D02*
X126450000Y-96500000D01*
X126450000Y-96500000D02*
X140270000Y-110320000D01*
X113000000Y-90710000D02*
X118790000Y-96500000D01*
%TO.N,Net-(A1-D0)*%
X131304365Y-103894365D02*
X140270000Y-112860000D01*
X116644365Y-103894365D02*
X131304365Y-103894365D01*
X113000000Y-100250000D02*
X116644365Y-103894365D01*
%TO.N,Net-(A1-D2)*%
X146100000Y-101950000D02*
X140270000Y-107780000D01*
X146100000Y-96650000D02*
X146100000Y-101950000D01*
X147500000Y-95250000D02*
X146100000Y-96650000D01*
%TD*%
%TA.AperFunction,NonConductor*%
G36*
X152716989Y-66890617D02*
G01*
X153101057Y-66907385D01*
X153111795Y-66908325D01*
X153490264Y-66958151D01*
X153500883Y-66960023D01*
X153873574Y-67042645D01*
X153884000Y-67045439D01*
X154248064Y-67160227D01*
X154258195Y-67163915D01*
X154610864Y-67309993D01*
X154620664Y-67314563D01*
X154959235Y-67490811D01*
X154968603Y-67496219D01*
X155290538Y-67701314D01*
X155299388Y-67707511D01*
X155512035Y-67870680D01*
X155602218Y-67939880D01*
X155610504Y-67946833D01*
X155657860Y-67990226D01*
X155891943Y-68204722D01*
X155899586Y-68212366D01*
X156157448Y-68493773D01*
X156164402Y-68502059D01*
X156396783Y-68804903D01*
X156402987Y-68813765D01*
X156584321Y-69098402D01*
X156608068Y-69135676D01*
X156613477Y-69145044D01*
X156789728Y-69483620D01*
X156794300Y-69493424D01*
X156940373Y-69846073D01*
X156944073Y-69856238D01*
X157058855Y-70220278D01*
X157061655Y-70230728D01*
X157144271Y-70603388D01*
X157146149Y-70614041D01*
X157195971Y-70992472D01*
X157196914Y-71003248D01*
X157213668Y-71386976D01*
X157213786Y-71392385D01*
X157213786Y-126387293D01*
X157213668Y-126392702D01*
X157196900Y-126776750D01*
X157195957Y-126787526D01*
X157146135Y-127165956D01*
X157144257Y-127176609D01*
X157061641Y-127549268D01*
X157058841Y-127559718D01*
X156944060Y-127923756D01*
X156940360Y-127933921D01*
X156794288Y-128286569D01*
X156789716Y-128296373D01*
X156613465Y-128634948D01*
X156608060Y-128644309D01*
X156597521Y-128660853D01*
X156402971Y-128966233D01*
X156396767Y-128975093D01*
X156164396Y-129277925D01*
X156157442Y-129286212D01*
X155899576Y-129567624D01*
X155891927Y-129575274D01*
X155610495Y-129833156D01*
X155602208Y-129840109D01*
X155299391Y-130072469D01*
X155290530Y-130078674D01*
X154968596Y-130283767D01*
X154959228Y-130289175D01*
X154620658Y-130465423D01*
X154610854Y-130469995D01*
X154258211Y-130616064D01*
X154248045Y-130619764D01*
X153884008Y-130734543D01*
X153873560Y-130737343D01*
X153500899Y-130819960D01*
X153490244Y-130821838D01*
X153111813Y-130871657D01*
X153101038Y-130872600D01*
X152716660Y-130889382D01*
X152711251Y-130889500D01*
X109716994Y-130889500D01*
X109711585Y-130889382D01*
X109327537Y-130872613D01*
X109316762Y-130871670D01*
X109229392Y-130860167D01*
X108938332Y-130821848D01*
X108927679Y-130819970D01*
X108555017Y-130737352D01*
X108544568Y-130734552D01*
X108180532Y-130619771D01*
X108170367Y-130616071D01*
X107817720Y-130469998D01*
X107807916Y-130465426D01*
X107469342Y-130289175D01*
X107459974Y-130283766D01*
X107138063Y-130078685D01*
X107129202Y-130072481D01*
X106826359Y-129840101D01*
X106818072Y-129833147D01*
X106536660Y-129575280D01*
X106529011Y-129567631D01*
X106271139Y-129286213D01*
X106264185Y-129277926D01*
X106031821Y-128975101D01*
X106025616Y-128966240D01*
X105820522Y-128644306D01*
X105815114Y-128634938D01*
X105638868Y-128296373D01*
X105634296Y-128286569D01*
X105488219Y-127933908D01*
X105484526Y-127923761D01*
X105369744Y-127559717D01*
X105366945Y-127549273D01*
X105306799Y-127277971D01*
X105284325Y-127176600D01*
X105282450Y-127165962D01*
X105232626Y-126787507D01*
X105231686Y-126776771D01*
X105214903Y-126392373D01*
X105214786Y-126386981D01*
X105214786Y-126249996D01*
X110494415Y-126249996D01*
X110494415Y-126250003D01*
X110514738Y-126598927D01*
X110514739Y-126598938D01*
X110575428Y-126943127D01*
X110575430Y-126943134D01*
X110675674Y-127277972D01*
X110814107Y-127598895D01*
X110814113Y-127598908D01*
X110988870Y-127901597D01*
X111197584Y-128181949D01*
X111197589Y-128181955D01*
X111305538Y-128296373D01*
X111437442Y-128436183D01*
X111613903Y-128584251D01*
X111705186Y-128660847D01*
X111705194Y-128660853D01*
X111997203Y-128852911D01*
X111997207Y-128852913D01*
X112309549Y-129009777D01*
X112637989Y-129129319D01*
X112978086Y-129209923D01*
X113325241Y-129250500D01*
X113325248Y-129250500D01*
X113674752Y-129250500D01*
X113674759Y-129250500D01*
X114021914Y-129209923D01*
X114362011Y-129129319D01*
X114690451Y-129009777D01*
X115002793Y-128852913D01*
X115294811Y-128660849D01*
X115562558Y-128436183D01*
X115802412Y-128181953D01*
X116011130Y-127901596D01*
X116185889Y-127598904D01*
X116324326Y-127277971D01*
X116424569Y-126943136D01*
X116485262Y-126598927D01*
X116505585Y-126250000D01*
X116505585Y-126249996D01*
X144696651Y-126249996D01*
X144696651Y-126250003D01*
X144716974Y-126598927D01*
X144716975Y-126598938D01*
X144777664Y-126943127D01*
X144777666Y-126943134D01*
X144877910Y-127277972D01*
X145016343Y-127598895D01*
X145016349Y-127598908D01*
X145191106Y-127901597D01*
X145399820Y-128181949D01*
X145399825Y-128181955D01*
X145507774Y-128296373D01*
X145639678Y-128436183D01*
X145816139Y-128584251D01*
X145907422Y-128660847D01*
X145907430Y-128660853D01*
X146199439Y-128852911D01*
X146199443Y-128852913D01*
X146511785Y-129009777D01*
X146840225Y-129129319D01*
X147180322Y-129209923D01*
X147527477Y-129250500D01*
X147527484Y-129250500D01*
X147876988Y-129250500D01*
X147876995Y-129250500D01*
X148224150Y-129209923D01*
X148564247Y-129129319D01*
X148892687Y-129009777D01*
X149205029Y-128852913D01*
X149497047Y-128660849D01*
X149764794Y-128436183D01*
X150004648Y-128181953D01*
X150213366Y-127901596D01*
X150388125Y-127598904D01*
X150526562Y-127277971D01*
X150626805Y-126943136D01*
X150687498Y-126598927D01*
X150707821Y-126250000D01*
X150687498Y-125901073D01*
X150687496Y-125901061D01*
X150626807Y-125556872D01*
X150626805Y-125556865D01*
X150526561Y-125222027D01*
X150388128Y-124901104D01*
X150388125Y-124901096D01*
X150213366Y-124598404D01*
X150213365Y-124598402D01*
X150004651Y-124318050D01*
X150004646Y-124318044D01*
X149888669Y-124195117D01*
X149764794Y-124063817D01*
X149616724Y-123939572D01*
X149497049Y-123839152D01*
X149497041Y-123839146D01*
X149205032Y-123647088D01*
X148892694Y-123490226D01*
X148892688Y-123490223D01*
X148564248Y-123370681D01*
X148564245Y-123370680D01*
X148224151Y-123290077D01*
X148180755Y-123285004D01*
X147876995Y-123249500D01*
X147527477Y-123249500D01*
X147223716Y-123285004D01*
X147180321Y-123290077D01*
X147180319Y-123290077D01*
X146840226Y-123370680D01*
X146840223Y-123370681D01*
X146511783Y-123490223D01*
X146511777Y-123490226D01*
X146199439Y-123647088D01*
X145907430Y-123839146D01*
X145907422Y-123839152D01*
X145639678Y-124063817D01*
X145639676Y-124063819D01*
X145399825Y-124318044D01*
X145399820Y-124318050D01*
X145191106Y-124598402D01*
X145016349Y-124901091D01*
X145016343Y-124901104D01*
X144877910Y-125222027D01*
X144777666Y-125556865D01*
X144777664Y-125556872D01*
X144716975Y-125901061D01*
X144716974Y-125901072D01*
X144696651Y-126249996D01*
X116505585Y-126249996D01*
X116485262Y-125901073D01*
X116485260Y-125901061D01*
X116424571Y-125556872D01*
X116424569Y-125556865D01*
X116324325Y-125222027D01*
X116185892Y-124901104D01*
X116185889Y-124901096D01*
X116011130Y-124598404D01*
X116011129Y-124598402D01*
X115802415Y-124318050D01*
X115802410Y-124318044D01*
X115686433Y-124195117D01*
X115562558Y-124063817D01*
X115414488Y-123939572D01*
X115294813Y-123839152D01*
X115294805Y-123839146D01*
X115002796Y-123647088D01*
X114690458Y-123490226D01*
X114690452Y-123490223D01*
X114362012Y-123370681D01*
X114362009Y-123370680D01*
X114021915Y-123290077D01*
X113978519Y-123285004D01*
X113674759Y-123249500D01*
X113325241Y-123249500D01*
X113021480Y-123285004D01*
X112978085Y-123290077D01*
X112978083Y-123290077D01*
X112637990Y-123370680D01*
X112637987Y-123370681D01*
X112309547Y-123490223D01*
X112309541Y-123490226D01*
X111997203Y-123647088D01*
X111705194Y-123839146D01*
X111705186Y-123839152D01*
X111437442Y-124063817D01*
X111437440Y-124063819D01*
X111197589Y-124318044D01*
X111197584Y-124318050D01*
X110988870Y-124598402D01*
X110814113Y-124901091D01*
X110814107Y-124901104D01*
X110675674Y-125222027D01*
X110575430Y-125556865D01*
X110575428Y-125556872D01*
X110514739Y-125901061D01*
X110514738Y-125901072D01*
X110494415Y-126249996D01*
X105214786Y-126249996D01*
X105214786Y-121630328D01*
X119699500Y-121630328D01*
X119699500Y-121869671D01*
X119736939Y-122106051D01*
X119810898Y-122333674D01*
X119919554Y-122546919D01*
X120060221Y-122740532D01*
X120060225Y-122740537D01*
X120229462Y-122909774D01*
X120229467Y-122909778D01*
X120398347Y-123032476D01*
X120423084Y-123050448D01*
X120558961Y-123119681D01*
X120636325Y-123159101D01*
X120636327Y-123159101D01*
X120636330Y-123159103D01*
X120863949Y-123233061D01*
X120985735Y-123252349D01*
X121100329Y-123270500D01*
X121100334Y-123270500D01*
X121339671Y-123270500D01*
X121444135Y-123253953D01*
X121576051Y-123233061D01*
X121803670Y-123159103D01*
X122016916Y-123050448D01*
X122210539Y-122909773D01*
X122379773Y-122740539D01*
X122520448Y-122546916D01*
X122629103Y-122333670D01*
X122703061Y-122106051D01*
X122723953Y-121974135D01*
X122740500Y-121869671D01*
X122740500Y-121630328D01*
X137479500Y-121630328D01*
X137479500Y-121869671D01*
X137516939Y-122106051D01*
X137590898Y-122333674D01*
X137699554Y-122546919D01*
X137840221Y-122740532D01*
X137840225Y-122740537D01*
X138009462Y-122909774D01*
X138009467Y-122909778D01*
X138178347Y-123032476D01*
X138203084Y-123050448D01*
X138338961Y-123119681D01*
X138416325Y-123159101D01*
X138416327Y-123159101D01*
X138416330Y-123159103D01*
X138643949Y-123233061D01*
X138765735Y-123252349D01*
X138880329Y-123270500D01*
X138880334Y-123270500D01*
X139119671Y-123270500D01*
X139224135Y-123253953D01*
X139356051Y-123233061D01*
X139583670Y-123159103D01*
X139796916Y-123050448D01*
X139990539Y-122909773D01*
X140159773Y-122740539D01*
X140300448Y-122546916D01*
X140409103Y-122333670D01*
X140483061Y-122106051D01*
X140503953Y-121974135D01*
X140520500Y-121869671D01*
X140520500Y-121630328D01*
X140500644Y-121504970D01*
X140483061Y-121393949D01*
X140409103Y-121166330D01*
X140409101Y-121166327D01*
X140409101Y-121166325D01*
X140369681Y-121088961D01*
X140300448Y-120953084D01*
X140282476Y-120928347D01*
X140159778Y-120759467D01*
X140159774Y-120759462D01*
X139990537Y-120590225D01*
X139990532Y-120590221D01*
X139796919Y-120449554D01*
X139796918Y-120449553D01*
X139796916Y-120449552D01*
X139730324Y-120415621D01*
X139583674Y-120340898D01*
X139356051Y-120266939D01*
X139119671Y-120229500D01*
X139119666Y-120229500D01*
X138880334Y-120229500D01*
X138880329Y-120229500D01*
X138643948Y-120266939D01*
X138416325Y-120340898D01*
X138203080Y-120449554D01*
X138009467Y-120590221D01*
X138009462Y-120590225D01*
X137840225Y-120759462D01*
X137840221Y-120759467D01*
X137699554Y-120953080D01*
X137590898Y-121166325D01*
X137516939Y-121393948D01*
X137479500Y-121630328D01*
X122740500Y-121630328D01*
X122720644Y-121504970D01*
X122703061Y-121393949D01*
X122629103Y-121166330D01*
X122629101Y-121166327D01*
X122629101Y-121166325D01*
X122589681Y-121088961D01*
X122520448Y-120953084D01*
X122502476Y-120928347D01*
X122379778Y-120759467D01*
X122379774Y-120759462D01*
X122210537Y-120590225D01*
X122210532Y-120590221D01*
X122016919Y-120449554D01*
X122016918Y-120449553D01*
X122016916Y-120449552D01*
X121950324Y-120415621D01*
X121803674Y-120340898D01*
X121576051Y-120266939D01*
X121339671Y-120229500D01*
X121339666Y-120229500D01*
X121100334Y-120229500D01*
X121100329Y-120229500D01*
X120863948Y-120266939D01*
X120636325Y-120340898D01*
X120423080Y-120449554D01*
X120229467Y-120590221D01*
X120229462Y-120590225D01*
X120060225Y-120759462D01*
X120060221Y-120759467D01*
X119919554Y-120953080D01*
X119810898Y-121166325D01*
X119736939Y-121393948D01*
X119699500Y-121630328D01*
X105214786Y-121630328D01*
X105214786Y-81671153D01*
X109659500Y-81671153D01*
X109659500Y-81828846D01*
X109690261Y-81983489D01*
X109690264Y-81983501D01*
X109750602Y-82129172D01*
X109750609Y-82129185D01*
X109838210Y-82260288D01*
X109838213Y-82260292D01*
X109949707Y-82371786D01*
X109949711Y-82371789D01*
X110080814Y-82459390D01*
X110080827Y-82459397D01*
X110226498Y-82519735D01*
X110226503Y-82519737D01*
X110381153Y-82550499D01*
X110381156Y-82550500D01*
X110381158Y-82550500D01*
X110538844Y-82550500D01*
X110538845Y-82550499D01*
X110693497Y-82519737D01*
X110839179Y-82459394D01*
X110970289Y-82371789D01*
X111081789Y-82260289D01*
X111169394Y-82129179D01*
X111169394Y-82129178D01*
X111172398Y-82124683D01*
X111226010Y-82079878D01*
X111295335Y-82071171D01*
X111358362Y-82101325D01*
X111395082Y-82160768D01*
X111399500Y-82193574D01*
X111399500Y-82897870D01*
X111399501Y-82897876D01*
X111405908Y-82957483D01*
X111456202Y-83092328D01*
X111456206Y-83092335D01*
X111542452Y-83207544D01*
X111542455Y-83207547D01*
X111619104Y-83264927D01*
X111660975Y-83320861D01*
X111665959Y-83390552D01*
X111650520Y-83428983D01*
X111569533Y-83561140D01*
X111473126Y-83793889D01*
X111432997Y-83961043D01*
X111398206Y-84021635D01*
X111336180Y-84053799D01*
X111266611Y-84047323D01*
X111211587Y-84004263D01*
X111197862Y-83979548D01*
X111169397Y-83910827D01*
X111169390Y-83910814D01*
X111081789Y-83779711D01*
X111081786Y-83779707D01*
X110970292Y-83668213D01*
X110970288Y-83668210D01*
X110839185Y-83580609D01*
X110839172Y-83580602D01*
X110693501Y-83520264D01*
X110693489Y-83520261D01*
X110538845Y-83489500D01*
X110538842Y-83489500D01*
X110381158Y-83489500D01*
X110381155Y-83489500D01*
X110226510Y-83520261D01*
X110226498Y-83520264D01*
X110080827Y-83580602D01*
X110080814Y-83580609D01*
X109949711Y-83668210D01*
X109949707Y-83668213D01*
X109838213Y-83779707D01*
X109838210Y-83779711D01*
X109750609Y-83910814D01*
X109750602Y-83910827D01*
X109690264Y-84056498D01*
X109690261Y-84056510D01*
X109659500Y-84211153D01*
X109659500Y-84368846D01*
X109690261Y-84523489D01*
X109690264Y-84523501D01*
X109750602Y-84669172D01*
X109750609Y-84669185D01*
X109838210Y-84800288D01*
X109838213Y-84800292D01*
X109949707Y-84911786D01*
X109949711Y-84911789D01*
X110080814Y-84999390D01*
X110080827Y-84999397D01*
X110226498Y-85059735D01*
X110226503Y-85059737D01*
X110381153Y-85090499D01*
X110381156Y-85090500D01*
X110381158Y-85090500D01*
X110538844Y-85090500D01*
X110538845Y-85090499D01*
X110693497Y-85059737D01*
X110839179Y-84999394D01*
X110970289Y-84911789D01*
X111081789Y-84800289D01*
X111169394Y-84669179D01*
X111169395Y-84669176D01*
X111169397Y-84669173D01*
X111197862Y-84600451D01*
X111241702Y-84546047D01*
X111307996Y-84523982D01*
X111375696Y-84541261D01*
X111423307Y-84592398D01*
X111432997Y-84618956D01*
X111473126Y-84786110D01*
X111569533Y-85018859D01*
X111701160Y-85233653D01*
X111701161Y-85233656D01*
X111701164Y-85233659D01*
X111864776Y-85425224D01*
X112013066Y-85551875D01*
X112056343Y-85588838D01*
X112056346Y-85588839D01*
X112271140Y-85720466D01*
X112384013Y-85767219D01*
X112503889Y-85816873D01*
X112748852Y-85875683D01*
X113000000Y-85895449D01*
X113251148Y-85875683D01*
X113496111Y-85816873D01*
X113728859Y-85720466D01*
X113943659Y-85588836D01*
X114135224Y-85425224D01*
X114298836Y-85233659D01*
X114430466Y-85018859D01*
X114526873Y-84786111D01*
X114554560Y-84670784D01*
X114589350Y-84610192D01*
X114651376Y-84578028D01*
X114720945Y-84584504D01*
X114762815Y-84612050D01*
X118013181Y-87862416D01*
X118046666Y-87923739D01*
X118049500Y-87950097D01*
X118049500Y-93693330D01*
X118049499Y-93693348D01*
X118049499Y-93859054D01*
X118049498Y-93859054D01*
X118090423Y-94011786D01*
X118090424Y-94011787D01*
X118112775Y-94050500D01*
X118169480Y-94148716D01*
X118169482Y-94148718D01*
X118288349Y-94267585D01*
X118288355Y-94267590D01*
X118504969Y-94484205D01*
X118538454Y-94545528D01*
X118535219Y-94610204D01*
X118481523Y-94775461D01*
X118481523Y-94775464D01*
X118449500Y-94977648D01*
X118449500Y-95010902D01*
X118429815Y-95077941D01*
X118377011Y-95123696D01*
X118307853Y-95133640D01*
X118244297Y-95104615D01*
X118237819Y-95098583D01*
X114636818Y-91497582D01*
X114603333Y-91436259D01*
X114600499Y-91409901D01*
X114600499Y-89562129D01*
X114600498Y-89562123D01*
X114600497Y-89562116D01*
X114594091Y-89502517D01*
X114578460Y-89460609D01*
X114543797Y-89367671D01*
X114543793Y-89367664D01*
X114457547Y-89252455D01*
X114457544Y-89252452D01*
X114342335Y-89166206D01*
X114342328Y-89166202D01*
X114207482Y-89115908D01*
X114207483Y-89115908D01*
X114147883Y-89109501D01*
X114147881Y-89109500D01*
X114147873Y-89109500D01*
X114147864Y-89109500D01*
X111852129Y-89109500D01*
X111852123Y-89109501D01*
X111792516Y-89115908D01*
X111657671Y-89166202D01*
X111657664Y-89166206D01*
X111542455Y-89252452D01*
X111542452Y-89252455D01*
X111456206Y-89367664D01*
X111456202Y-89367671D01*
X111405908Y-89502517D01*
X111400996Y-89548210D01*
X111399501Y-89562123D01*
X111399500Y-89562135D01*
X111399500Y-90266425D01*
X111379815Y-90333464D01*
X111327011Y-90379219D01*
X111257853Y-90389163D01*
X111194297Y-90360138D01*
X111172398Y-90335316D01*
X111081789Y-90199711D01*
X111081786Y-90199707D01*
X110970292Y-90088213D01*
X110970288Y-90088210D01*
X110839185Y-90000609D01*
X110839172Y-90000602D01*
X110693501Y-89940264D01*
X110693489Y-89940261D01*
X110538845Y-89909500D01*
X110538842Y-89909500D01*
X110381158Y-89909500D01*
X110381155Y-89909500D01*
X110226510Y-89940261D01*
X110226498Y-89940264D01*
X110080827Y-90000602D01*
X110080814Y-90000609D01*
X109949711Y-90088210D01*
X109949707Y-90088213D01*
X109838213Y-90199707D01*
X109838210Y-90199711D01*
X109750609Y-90330814D01*
X109750602Y-90330827D01*
X109690264Y-90476498D01*
X109690261Y-90476510D01*
X109659500Y-90631153D01*
X109659500Y-90788846D01*
X109690261Y-90943489D01*
X109690264Y-90943501D01*
X109750602Y-91089172D01*
X109750609Y-91089185D01*
X109838210Y-91220288D01*
X109838213Y-91220292D01*
X109949707Y-91331786D01*
X109949711Y-91331789D01*
X110080814Y-91419390D01*
X110080827Y-91419397D01*
X110226498Y-91479735D01*
X110226503Y-91479737D01*
X110381153Y-91510499D01*
X110381156Y-91510500D01*
X110381158Y-91510500D01*
X110538844Y-91510500D01*
X110538845Y-91510499D01*
X110693497Y-91479737D01*
X110839179Y-91419394D01*
X110970289Y-91331789D01*
X111081789Y-91220289D01*
X111169394Y-91089179D01*
X111169394Y-91089178D01*
X111172398Y-91084683D01*
X111226010Y-91039878D01*
X111295335Y-91031171D01*
X111358362Y-91061325D01*
X111395082Y-91120768D01*
X111399500Y-91153574D01*
X111399500Y-91857870D01*
X111399501Y-91857876D01*
X111405908Y-91917483D01*
X111456202Y-92052328D01*
X111456206Y-92052335D01*
X111542452Y-92167544D01*
X111542455Y-92167547D01*
X111619104Y-92224927D01*
X111660975Y-92280861D01*
X111665959Y-92350552D01*
X111650520Y-92388983D01*
X111569533Y-92521140D01*
X111473126Y-92753889D01*
X111432997Y-92921043D01*
X111398206Y-92981635D01*
X111336180Y-93013799D01*
X111266611Y-93007323D01*
X111211587Y-92964263D01*
X111197862Y-92939548D01*
X111169397Y-92870827D01*
X111169390Y-92870814D01*
X111081789Y-92739711D01*
X111081786Y-92739707D01*
X110970292Y-92628213D01*
X110970288Y-92628210D01*
X110839185Y-92540609D01*
X110839172Y-92540602D01*
X110693501Y-92480264D01*
X110693489Y-92480261D01*
X110538845Y-92449500D01*
X110538842Y-92449500D01*
X110381158Y-92449500D01*
X110381155Y-92449500D01*
X110226510Y-92480261D01*
X110226498Y-92480264D01*
X110080827Y-92540602D01*
X110080814Y-92540609D01*
X109949711Y-92628210D01*
X109949707Y-92628213D01*
X109838213Y-92739707D01*
X109838210Y-92739711D01*
X109750609Y-92870814D01*
X109750602Y-92870827D01*
X109690264Y-93016498D01*
X109690261Y-93016510D01*
X109659500Y-93171153D01*
X109659500Y-93328846D01*
X109690261Y-93483489D01*
X109690264Y-93483501D01*
X109750602Y-93629172D01*
X109750609Y-93629185D01*
X109838210Y-93760288D01*
X109838213Y-93760292D01*
X109949707Y-93871786D01*
X109949711Y-93871789D01*
X110080814Y-93959390D01*
X110080827Y-93959397D01*
X110207305Y-94011785D01*
X110226503Y-94019737D01*
X110381153Y-94050499D01*
X110381156Y-94050500D01*
X110381158Y-94050500D01*
X110538844Y-94050500D01*
X110538845Y-94050499D01*
X110693497Y-94019737D01*
X110839179Y-93959394D01*
X110970289Y-93871789D01*
X111081789Y-93760289D01*
X111169394Y-93629179D01*
X111169395Y-93629176D01*
X111169397Y-93629173D01*
X111197862Y-93560451D01*
X111241702Y-93506047D01*
X111307996Y-93483982D01*
X111375696Y-93501261D01*
X111423307Y-93552398D01*
X111432997Y-93578956D01*
X111473126Y-93746110D01*
X111569533Y-93978859D01*
X111701160Y-94193653D01*
X111701161Y-94193656D01*
X111756604Y-94258571D01*
X111864776Y-94385224D01*
X111976054Y-94480264D01*
X112056343Y-94548838D01*
X112056346Y-94548839D01*
X112271140Y-94680466D01*
X112500480Y-94775461D01*
X112503889Y-94776873D01*
X112748852Y-94835683D01*
X113000000Y-94855449D01*
X113251148Y-94835683D01*
X113496111Y-94776873D01*
X113728859Y-94680466D01*
X113943659Y-94548836D01*
X114135224Y-94385224D01*
X114298836Y-94193659D01*
X114430466Y-93978859D01*
X114526873Y-93746111D01*
X114585683Y-93501148D01*
X114590570Y-93439053D01*
X114615453Y-93373768D01*
X114671684Y-93332297D01*
X114741410Y-93327810D01*
X114801868Y-93361104D01*
X118421284Y-96980520D01*
X118476686Y-97012506D01*
X118524901Y-97063072D01*
X118538125Y-97131679D01*
X118532617Y-97158211D01*
X118481523Y-97315461D01*
X118481523Y-97315464D01*
X118449500Y-97517648D01*
X118449500Y-97722351D01*
X118481522Y-97924534D01*
X118544781Y-98119223D01*
X118637715Y-98301613D01*
X118758028Y-98467213D01*
X118902786Y-98611971D01*
X119032492Y-98706206D01*
X119068390Y-98732287D01*
X119159840Y-98778883D01*
X119161080Y-98779515D01*
X119211876Y-98827490D01*
X119228671Y-98895311D01*
X119206134Y-98961446D01*
X119161080Y-99000485D01*
X119068386Y-99047715D01*
X118902786Y-99168028D01*
X118758028Y-99312786D01*
X118637715Y-99478386D01*
X118544781Y-99660776D01*
X118481522Y-99855465D01*
X118449500Y-100057648D01*
X118449500Y-100262351D01*
X118481522Y-100464534D01*
X118544781Y-100659223D01*
X118637715Y-100841613D01*
X118758028Y-101007213D01*
X118902786Y-101151971D01*
X119043067Y-101253889D01*
X119068390Y-101272287D01*
X119159840Y-101318883D01*
X119161080Y-101319515D01*
X119211876Y-101367490D01*
X119228671Y-101435311D01*
X119206134Y-101501446D01*
X119161080Y-101540485D01*
X119068386Y-101587715D01*
X118902786Y-101708028D01*
X118758028Y-101852786D01*
X118637715Y-102018386D01*
X118544781Y-102200776D01*
X118481522Y-102395465D01*
X118449500Y-102597648D01*
X118449500Y-102802351D01*
X118481522Y-103004534D01*
X118522792Y-103131546D01*
X118524787Y-103201388D01*
X118488707Y-103261221D01*
X118426006Y-103292049D01*
X118404861Y-103293865D01*
X116944462Y-103293865D01*
X116877423Y-103274180D01*
X116856781Y-103257546D01*
X114636818Y-101037583D01*
X114603333Y-100976260D01*
X114600499Y-100949902D01*
X114600499Y-99102129D01*
X114600498Y-99102123D01*
X114600497Y-99102116D01*
X114594091Y-99042517D01*
X114561367Y-98954780D01*
X114543797Y-98907671D01*
X114543793Y-98907664D01*
X114457547Y-98792455D01*
X114457544Y-98792452D01*
X114342335Y-98706206D01*
X114342328Y-98706202D01*
X114207482Y-98655908D01*
X114207483Y-98655908D01*
X114147883Y-98649501D01*
X114147881Y-98649500D01*
X114147873Y-98649500D01*
X114147864Y-98649500D01*
X111852129Y-98649500D01*
X111852123Y-98649501D01*
X111792516Y-98655908D01*
X111657671Y-98706202D01*
X111657664Y-98706206D01*
X111542455Y-98792452D01*
X111542452Y-98792455D01*
X111456206Y-98907664D01*
X111456202Y-98907671D01*
X111405908Y-99042517D01*
X111399501Y-99102116D01*
X111399501Y-99102123D01*
X111399500Y-99102135D01*
X111399500Y-99806425D01*
X111379815Y-99873464D01*
X111327011Y-99919219D01*
X111257853Y-99929163D01*
X111194297Y-99900138D01*
X111172398Y-99875316D01*
X111081789Y-99739711D01*
X111081786Y-99739707D01*
X110970292Y-99628213D01*
X110970288Y-99628210D01*
X110839185Y-99540609D01*
X110839172Y-99540602D01*
X110693501Y-99480264D01*
X110693489Y-99480261D01*
X110538845Y-99449500D01*
X110538842Y-99449500D01*
X110381158Y-99449500D01*
X110381155Y-99449500D01*
X110226510Y-99480261D01*
X110226498Y-99480264D01*
X110080827Y-99540602D01*
X110080814Y-99540609D01*
X109949711Y-99628210D01*
X109949707Y-99628213D01*
X109838213Y-99739707D01*
X109838210Y-99739711D01*
X109750609Y-99870814D01*
X109750602Y-99870827D01*
X109690264Y-100016498D01*
X109690261Y-100016510D01*
X109659500Y-100171153D01*
X109659500Y-100328846D01*
X109690261Y-100483489D01*
X109690264Y-100483501D01*
X109750602Y-100629172D01*
X109750609Y-100629185D01*
X109838210Y-100760288D01*
X109838213Y-100760292D01*
X109949707Y-100871786D01*
X109949711Y-100871789D01*
X110080814Y-100959390D01*
X110080827Y-100959397D01*
X110226498Y-101019735D01*
X110226503Y-101019737D01*
X110381153Y-101050499D01*
X110381156Y-101050500D01*
X110381158Y-101050500D01*
X110538844Y-101050500D01*
X110538845Y-101050499D01*
X110693497Y-101019737D01*
X110839179Y-100959394D01*
X110970289Y-100871789D01*
X111081789Y-100760289D01*
X111169394Y-100629179D01*
X111169394Y-100629178D01*
X111172398Y-100624683D01*
X111226010Y-100579878D01*
X111295335Y-100571171D01*
X111358362Y-100601325D01*
X111395082Y-100660768D01*
X111399500Y-100693574D01*
X111399500Y-101397870D01*
X111399501Y-101397876D01*
X111405908Y-101457483D01*
X111456202Y-101592328D01*
X111456206Y-101592335D01*
X111542452Y-101707544D01*
X111542455Y-101707547D01*
X111619104Y-101764927D01*
X111660975Y-101820861D01*
X111665959Y-101890552D01*
X111650520Y-101928983D01*
X111569533Y-102061140D01*
X111473126Y-102293889D01*
X111432997Y-102461043D01*
X111398206Y-102521635D01*
X111336180Y-102553799D01*
X111266611Y-102547323D01*
X111211587Y-102504263D01*
X111197862Y-102479548D01*
X111169397Y-102410827D01*
X111169390Y-102410814D01*
X111081789Y-102279711D01*
X111081786Y-102279707D01*
X110970292Y-102168213D01*
X110970288Y-102168210D01*
X110839185Y-102080609D01*
X110839172Y-102080602D01*
X110693501Y-102020264D01*
X110693489Y-102020261D01*
X110538845Y-101989500D01*
X110538842Y-101989500D01*
X110381158Y-101989500D01*
X110381155Y-101989500D01*
X110226510Y-102020261D01*
X110226498Y-102020264D01*
X110080827Y-102080602D01*
X110080814Y-102080609D01*
X109949711Y-102168210D01*
X109949707Y-102168213D01*
X109838213Y-102279707D01*
X109838210Y-102279711D01*
X109750609Y-102410814D01*
X109750602Y-102410827D01*
X109690264Y-102556498D01*
X109690261Y-102556510D01*
X109659500Y-102711153D01*
X109659500Y-102868846D01*
X109690261Y-103023489D01*
X109690264Y-103023501D01*
X109750602Y-103169172D01*
X109750609Y-103169185D01*
X109838210Y-103300288D01*
X109838213Y-103300292D01*
X109949707Y-103411786D01*
X109949711Y-103411789D01*
X110080814Y-103499390D01*
X110080827Y-103499397D01*
X110226498Y-103559735D01*
X110226503Y-103559737D01*
X110381153Y-103590499D01*
X110381156Y-103590500D01*
X110381158Y-103590500D01*
X110538844Y-103590500D01*
X110538845Y-103590499D01*
X110693497Y-103559737D01*
X110839179Y-103499394D01*
X110970289Y-103411789D01*
X111081789Y-103300289D01*
X111169394Y-103169179D01*
X111169395Y-103169176D01*
X111169397Y-103169173D01*
X111197862Y-103100451D01*
X111241702Y-103046047D01*
X111307996Y-103023982D01*
X111375696Y-103041261D01*
X111423307Y-103092398D01*
X111432996Y-103118955D01*
X111436953Y-103135435D01*
X111473126Y-103286110D01*
X111569533Y-103518859D01*
X111701160Y-103733653D01*
X111701161Y-103733656D01*
X111701164Y-103733659D01*
X111864776Y-103925224D01*
X112013066Y-104051875D01*
X112056343Y-104088838D01*
X112056346Y-104088839D01*
X112271140Y-104220466D01*
X112503889Y-104316873D01*
X112748852Y-104375683D01*
X113000000Y-104395449D01*
X113251148Y-104375683D01*
X113496111Y-104316873D01*
X113728859Y-104220466D01*
X113943659Y-104088836D01*
X114135224Y-103925224D01*
X114298836Y-103733659D01*
X114430466Y-103518859D01*
X114526873Y-103286111D01*
X114585683Y-103041148D01*
X114590570Y-102979052D01*
X114615453Y-102913767D01*
X114671684Y-102872296D01*
X114741409Y-102867809D01*
X114801868Y-102901103D01*
X116159504Y-104258739D01*
X116159514Y-104258750D01*
X116163844Y-104263080D01*
X116163845Y-104263081D01*
X116275649Y-104374885D01*
X116275651Y-104374886D01*
X116275655Y-104374889D01*
X116311265Y-104395448D01*
X116412581Y-104453942D01*
X116524384Y-104483899D01*
X116565307Y-104494865D01*
X116565308Y-104494865D01*
X118467731Y-104494865D01*
X118534770Y-104514550D01*
X118580525Y-104567354D01*
X118590469Y-104636512D01*
X118578215Y-104675161D01*
X118544782Y-104740774D01*
X118481522Y-104935465D01*
X118449500Y-105137648D01*
X118449500Y-105342351D01*
X118481522Y-105544534D01*
X118544781Y-105739223D01*
X118637715Y-105921613D01*
X118758028Y-106087213D01*
X118902786Y-106231971D01*
X119057749Y-106344556D01*
X119068390Y-106352287D01*
X119159840Y-106398883D01*
X119161080Y-106399515D01*
X119211876Y-106447490D01*
X119228671Y-106515311D01*
X119206134Y-106581446D01*
X119161080Y-106620485D01*
X119068386Y-106667715D01*
X118902786Y-106788028D01*
X118758028Y-106932786D01*
X118637715Y-107098386D01*
X118544781Y-107280776D01*
X118481522Y-107475465D01*
X118449500Y-107677648D01*
X118449500Y-107882351D01*
X118481522Y-108084534D01*
X118544781Y-108279223D01*
X118637715Y-108461613D01*
X118758028Y-108627213D01*
X118902786Y-108771971D01*
X119057749Y-108884556D01*
X119068390Y-108892287D01*
X119159840Y-108938883D01*
X119161080Y-108939515D01*
X119211876Y-108987490D01*
X119228671Y-109055311D01*
X119206134Y-109121446D01*
X119161080Y-109160485D01*
X119068386Y-109207715D01*
X118902786Y-109328028D01*
X118758028Y-109472786D01*
X118637715Y-109638386D01*
X118544781Y-109820776D01*
X118481522Y-110015465D01*
X118449500Y-110217648D01*
X118449500Y-110422351D01*
X118481522Y-110624534D01*
X118544781Y-110819223D01*
X118637715Y-111001613D01*
X118758028Y-111167213D01*
X118902786Y-111311971D01*
X119057749Y-111424556D01*
X119068390Y-111432287D01*
X119159840Y-111478883D01*
X119161080Y-111479515D01*
X119211876Y-111527490D01*
X119228671Y-111595311D01*
X119206134Y-111661446D01*
X119161080Y-111700485D01*
X119068386Y-111747715D01*
X118902786Y-111868028D01*
X118758028Y-112012786D01*
X118637715Y-112178386D01*
X118544781Y-112360776D01*
X118481522Y-112555465D01*
X118449500Y-112757648D01*
X118449500Y-112962351D01*
X118481522Y-113164534D01*
X118544781Y-113359223D01*
X118637715Y-113541613D01*
X118758028Y-113707213D01*
X118902786Y-113851971D01*
X119057749Y-113964556D01*
X119068390Y-113972287D01*
X119159840Y-114018883D01*
X119161080Y-114019515D01*
X119211876Y-114067490D01*
X119228671Y-114135311D01*
X119206134Y-114201446D01*
X119161080Y-114240485D01*
X119068386Y-114287715D01*
X118902786Y-114408028D01*
X118758028Y-114552786D01*
X118637715Y-114718386D01*
X118544781Y-114900776D01*
X118481522Y-115095465D01*
X118449500Y-115297648D01*
X118449500Y-115502351D01*
X118481522Y-115704534D01*
X118544781Y-115899223D01*
X118637715Y-116081613D01*
X118758028Y-116247213D01*
X118902786Y-116391971D01*
X119057749Y-116504556D01*
X119068390Y-116512287D01*
X119159840Y-116558883D01*
X119161080Y-116559515D01*
X119211876Y-116607490D01*
X119228671Y-116675311D01*
X119206134Y-116741446D01*
X119161080Y-116780485D01*
X119068386Y-116827715D01*
X118902786Y-116948028D01*
X118758028Y-117092786D01*
X118637715Y-117258386D01*
X118544781Y-117440776D01*
X118481522Y-117635465D01*
X118449500Y-117837648D01*
X118449500Y-118042351D01*
X118481522Y-118244534D01*
X118544781Y-118439223D01*
X118637715Y-118621613D01*
X118758028Y-118787213D01*
X118902786Y-118931971D01*
X119057749Y-119044556D01*
X119068390Y-119052287D01*
X119184607Y-119111503D01*
X119250776Y-119145218D01*
X119250778Y-119145218D01*
X119250781Y-119145220D01*
X119355137Y-119179127D01*
X119445465Y-119208477D01*
X119546557Y-119224488D01*
X119647648Y-119240500D01*
X119647649Y-119240500D01*
X120852351Y-119240500D01*
X120852352Y-119240500D01*
X121054534Y-119208477D01*
X121249219Y-119145220D01*
X121431610Y-119052287D01*
X121524590Y-118984732D01*
X121597213Y-118931971D01*
X121597215Y-118931968D01*
X121597219Y-118931966D01*
X121741966Y-118787219D01*
X121741968Y-118787215D01*
X121741971Y-118787213D01*
X121794732Y-118714590D01*
X121862287Y-118621610D01*
X121955220Y-118439219D01*
X122018477Y-118244534D01*
X122050500Y-118042352D01*
X122050500Y-117837648D01*
X122018477Y-117635466D01*
X121955220Y-117440781D01*
X121955218Y-117440778D01*
X121955218Y-117440776D01*
X121921503Y-117374607D01*
X121862287Y-117258390D01*
X121854556Y-117247749D01*
X121741971Y-117092786D01*
X121597213Y-116948028D01*
X121431614Y-116827715D01*
X121425006Y-116824348D01*
X121338917Y-116780483D01*
X121288123Y-116732511D01*
X121271328Y-116664690D01*
X121293865Y-116598555D01*
X121338917Y-116559516D01*
X121431610Y-116512287D01*
X121452770Y-116496913D01*
X121597213Y-116391971D01*
X121597215Y-116391968D01*
X121597219Y-116391966D01*
X121741966Y-116247219D01*
X121741968Y-116247215D01*
X121741971Y-116247213D01*
X121794732Y-116174590D01*
X121862287Y-116081610D01*
X121955220Y-115899219D01*
X122018477Y-115704534D01*
X122050500Y-115502352D01*
X122050500Y-115297648D01*
X122018477Y-115095466D01*
X121955220Y-114900781D01*
X121955218Y-114900778D01*
X121955218Y-114900776D01*
X121921503Y-114834607D01*
X121862287Y-114718390D01*
X121854556Y-114707749D01*
X121741971Y-114552786D01*
X121597213Y-114408028D01*
X121431614Y-114287715D01*
X121425006Y-114284348D01*
X121338917Y-114240483D01*
X121288123Y-114192511D01*
X121271328Y-114124690D01*
X121293865Y-114058555D01*
X121338917Y-114019516D01*
X121431610Y-113972287D01*
X121452770Y-113956913D01*
X121597213Y-113851971D01*
X121597215Y-113851968D01*
X121597219Y-113851966D01*
X121741966Y-113707219D01*
X121741968Y-113707215D01*
X121741971Y-113707213D01*
X121794732Y-113634590D01*
X121862287Y-113541610D01*
X121955220Y-113359219D01*
X122018477Y-113164534D01*
X122050500Y-112962352D01*
X122050500Y-112757648D01*
X122018477Y-112555466D01*
X121955220Y-112360781D01*
X121955218Y-112360778D01*
X121955218Y-112360776D01*
X121921503Y-112294607D01*
X121862287Y-112178390D01*
X121854556Y-112167749D01*
X121741971Y-112012786D01*
X121597213Y-111868028D01*
X121431614Y-111747715D01*
X121425006Y-111744348D01*
X121338917Y-111700483D01*
X121288123Y-111652511D01*
X121271328Y-111584690D01*
X121293865Y-111518555D01*
X121338917Y-111479516D01*
X121431610Y-111432287D01*
X121452770Y-111416913D01*
X121597213Y-111311971D01*
X121597215Y-111311968D01*
X121597219Y-111311966D01*
X121741966Y-111167219D01*
X121741968Y-111167215D01*
X121741971Y-111167213D01*
X121794732Y-111094590D01*
X121862287Y-111001610D01*
X121955220Y-110819219D01*
X122018477Y-110624534D01*
X122050500Y-110422352D01*
X122050500Y-110217648D01*
X122018477Y-110015466D01*
X121955220Y-109820781D01*
X121955218Y-109820778D01*
X121955218Y-109820776D01*
X121921503Y-109754607D01*
X121862287Y-109638390D01*
X121854556Y-109627749D01*
X121741971Y-109472786D01*
X121597213Y-109328028D01*
X121431614Y-109207715D01*
X121425006Y-109204348D01*
X121338917Y-109160483D01*
X121288123Y-109112511D01*
X121271328Y-109044690D01*
X121293865Y-108978555D01*
X121338917Y-108939516D01*
X121431610Y-108892287D01*
X121452770Y-108876913D01*
X121597213Y-108771971D01*
X121597215Y-108771968D01*
X121597219Y-108771966D01*
X121741966Y-108627219D01*
X121741968Y-108627215D01*
X121741971Y-108627213D01*
X121794732Y-108554590D01*
X121862287Y-108461610D01*
X121955220Y-108279219D01*
X122018477Y-108084534D01*
X122050500Y-107882352D01*
X122050500Y-107677648D01*
X122018477Y-107475466D01*
X122018476Y-107475464D01*
X121962084Y-107301907D01*
X121955220Y-107280781D01*
X121955218Y-107280778D01*
X121955218Y-107280776D01*
X121906011Y-107184203D01*
X121862287Y-107098390D01*
X121836930Y-107063489D01*
X121741971Y-106932786D01*
X121597213Y-106788028D01*
X121431614Y-106667715D01*
X121425006Y-106664348D01*
X121338917Y-106620483D01*
X121288123Y-106572511D01*
X121271328Y-106504690D01*
X121293865Y-106438555D01*
X121338917Y-106399516D01*
X121431610Y-106352287D01*
X121452770Y-106336913D01*
X121597213Y-106231971D01*
X121597215Y-106231968D01*
X121597219Y-106231966D01*
X121741966Y-106087219D01*
X121741968Y-106087215D01*
X121741971Y-106087213D01*
X121794732Y-106014590D01*
X121862287Y-105921610D01*
X121955220Y-105739219D01*
X122018477Y-105544534D01*
X122050500Y-105342352D01*
X122050500Y-105137648D01*
X122018477Y-104935466D01*
X121955220Y-104740781D01*
X121955217Y-104740777D01*
X121955217Y-104740774D01*
X121921785Y-104675161D01*
X121908888Y-104606491D01*
X121935164Y-104541751D01*
X121992270Y-104501493D01*
X122032269Y-104494865D01*
X131004268Y-104494865D01*
X131071307Y-104514550D01*
X131091949Y-104531184D01*
X138443338Y-111882574D01*
X138476823Y-111943897D01*
X138471839Y-112013589D01*
X138455976Y-112043139D01*
X138357714Y-112178387D01*
X138264781Y-112360776D01*
X138201522Y-112555465D01*
X138169500Y-112757648D01*
X138169500Y-112962351D01*
X138201522Y-113164534D01*
X138264781Y-113359223D01*
X138357715Y-113541613D01*
X138478028Y-113707213D01*
X138622786Y-113851971D01*
X138777749Y-113964556D01*
X138788390Y-113972287D01*
X138879840Y-114018883D01*
X138881080Y-114019515D01*
X138931876Y-114067490D01*
X138948671Y-114135311D01*
X138926134Y-114201446D01*
X138881080Y-114240485D01*
X138788386Y-114287715D01*
X138622786Y-114408028D01*
X138478028Y-114552786D01*
X138357715Y-114718386D01*
X138264781Y-114900776D01*
X138201522Y-115095465D01*
X138169500Y-115297648D01*
X138169500Y-115502351D01*
X138201522Y-115704534D01*
X138264781Y-115899223D01*
X138357715Y-116081613D01*
X138478028Y-116247213D01*
X138622786Y-116391971D01*
X138777749Y-116504556D01*
X138788390Y-116512287D01*
X138879840Y-116558883D01*
X138881080Y-116559515D01*
X138931876Y-116607490D01*
X138948671Y-116675311D01*
X138926134Y-116741446D01*
X138881080Y-116780485D01*
X138788386Y-116827715D01*
X138622786Y-116948028D01*
X138478028Y-117092786D01*
X138357715Y-117258386D01*
X138264781Y-117440776D01*
X138201522Y-117635465D01*
X138169500Y-117837648D01*
X138169500Y-118042351D01*
X138201522Y-118244534D01*
X138264781Y-118439223D01*
X138357715Y-118621613D01*
X138478028Y-118787213D01*
X138622786Y-118931971D01*
X138777749Y-119044556D01*
X138788390Y-119052287D01*
X138904607Y-119111503D01*
X138970776Y-119145218D01*
X138970778Y-119145218D01*
X138970781Y-119145220D01*
X139075137Y-119179127D01*
X139165465Y-119208477D01*
X139266557Y-119224488D01*
X139367648Y-119240500D01*
X139367649Y-119240500D01*
X140572351Y-119240500D01*
X140572352Y-119240500D01*
X140774534Y-119208477D01*
X140969219Y-119145220D01*
X141151610Y-119052287D01*
X141244590Y-118984732D01*
X141317213Y-118931971D01*
X141317215Y-118931968D01*
X141317219Y-118931966D01*
X141461966Y-118787219D01*
X141461968Y-118787215D01*
X141461971Y-118787213D01*
X141514732Y-118714590D01*
X141582287Y-118621610D01*
X141675220Y-118439219D01*
X141738477Y-118244534D01*
X141770500Y-118042352D01*
X141770500Y-117837648D01*
X141738477Y-117635466D01*
X141675220Y-117440781D01*
X141675218Y-117440778D01*
X141675218Y-117440776D01*
X141641503Y-117374607D01*
X141582287Y-117258390D01*
X141574556Y-117247749D01*
X141461971Y-117092786D01*
X141317213Y-116948028D01*
X141151614Y-116827715D01*
X141145006Y-116824348D01*
X141058917Y-116780483D01*
X141008123Y-116732511D01*
X140991328Y-116664690D01*
X141013865Y-116598555D01*
X141058917Y-116559516D01*
X141151610Y-116512287D01*
X141172770Y-116496913D01*
X141317213Y-116391971D01*
X141317215Y-116391968D01*
X141317219Y-116391966D01*
X141461966Y-116247219D01*
X141461968Y-116247215D01*
X141461971Y-116247213D01*
X141514732Y-116174590D01*
X141582287Y-116081610D01*
X141675220Y-115899219D01*
X141738477Y-115704534D01*
X141770500Y-115502352D01*
X141770500Y-115297648D01*
X141738477Y-115095466D01*
X141675220Y-114900781D01*
X141675218Y-114900778D01*
X141675218Y-114900776D01*
X141641503Y-114834607D01*
X141582287Y-114718390D01*
X141574556Y-114707749D01*
X141461971Y-114552786D01*
X141317213Y-114408028D01*
X141151614Y-114287715D01*
X141145006Y-114284348D01*
X141058917Y-114240483D01*
X141008123Y-114192511D01*
X140991328Y-114124690D01*
X141013865Y-114058555D01*
X141058917Y-114019516D01*
X141151610Y-113972287D01*
X141172770Y-113956913D01*
X141317213Y-113851971D01*
X141317215Y-113851968D01*
X141317219Y-113851966D01*
X141461966Y-113707219D01*
X141461968Y-113707215D01*
X141461971Y-113707213D01*
X141514732Y-113634590D01*
X141582287Y-113541610D01*
X141675220Y-113359219D01*
X141738477Y-113164534D01*
X141770500Y-112962352D01*
X141770500Y-112757648D01*
X141738477Y-112555466D01*
X141675220Y-112360781D01*
X141675218Y-112360778D01*
X141675218Y-112360776D01*
X141641503Y-112294607D01*
X141582287Y-112178390D01*
X141574556Y-112167749D01*
X141461971Y-112012786D01*
X141317213Y-111868028D01*
X141151614Y-111747715D01*
X141145006Y-111744348D01*
X141058917Y-111700483D01*
X141008123Y-111652511D01*
X140991328Y-111584690D01*
X141013865Y-111518555D01*
X141058917Y-111479516D01*
X141151610Y-111432287D01*
X141172770Y-111416913D01*
X141317213Y-111311971D01*
X141317215Y-111311968D01*
X141317219Y-111311966D01*
X141461966Y-111167219D01*
X141461968Y-111167215D01*
X141461971Y-111167213D01*
X141514732Y-111094590D01*
X141582287Y-111001610D01*
X141675220Y-110819219D01*
X141738477Y-110624534D01*
X141770500Y-110422352D01*
X141770500Y-110217648D01*
X141738477Y-110015466D01*
X141675220Y-109820781D01*
X141675218Y-109820778D01*
X141675218Y-109820776D01*
X141641503Y-109754607D01*
X141582287Y-109638390D01*
X141574556Y-109627749D01*
X141461971Y-109472786D01*
X141317213Y-109328028D01*
X141151614Y-109207715D01*
X141145006Y-109204348D01*
X141058917Y-109160483D01*
X141008123Y-109112511D01*
X140991328Y-109044690D01*
X141013865Y-108978555D01*
X141058917Y-108939516D01*
X141151610Y-108892287D01*
X141172770Y-108876913D01*
X141317213Y-108771971D01*
X141317215Y-108771968D01*
X141317219Y-108771966D01*
X141461966Y-108627219D01*
X141461968Y-108627215D01*
X141461971Y-108627213D01*
X141514732Y-108554590D01*
X141582287Y-108461610D01*
X141675220Y-108279219D01*
X141738477Y-108084534D01*
X141770500Y-107882352D01*
X141770500Y-107677648D01*
X141738477Y-107475466D01*
X141738476Y-107475462D01*
X141738476Y-107475461D01*
X141684780Y-107310202D01*
X141682785Y-107240361D01*
X141715028Y-107184205D01*
X146108345Y-102790888D01*
X146169666Y-102757405D01*
X146239358Y-102762389D01*
X146290312Y-102798038D01*
X146364776Y-102885224D01*
X146398195Y-102913767D01*
X146412179Y-102925710D01*
X146450372Y-102984217D01*
X146450870Y-103054085D01*
X146413516Y-103113131D01*
X146412179Y-103114290D01*
X146364776Y-103154776D01*
X146201161Y-103346343D01*
X146201160Y-103346346D01*
X146069533Y-103561140D01*
X145973126Y-103793889D01*
X145914317Y-104038848D01*
X145894551Y-104290000D01*
X145914317Y-104541151D01*
X145973126Y-104786110D01*
X146069533Y-105018859D01*
X146150520Y-105151016D01*
X146168765Y-105218462D01*
X146147649Y-105285064D01*
X146119105Y-105315072D01*
X146042452Y-105372455D01*
X145956206Y-105487664D01*
X145956202Y-105487671D01*
X145905908Y-105622517D01*
X145899501Y-105682116D01*
X145899501Y-105682123D01*
X145899500Y-105682135D01*
X145899500Y-107977870D01*
X145899501Y-107977876D01*
X145905908Y-108037483D01*
X145956202Y-108172328D01*
X145956206Y-108172335D01*
X146042452Y-108287544D01*
X146042455Y-108287547D01*
X146157664Y-108373793D01*
X146157671Y-108373797D01*
X146292517Y-108424091D01*
X146292516Y-108424091D01*
X146299444Y-108424835D01*
X146352127Y-108430500D01*
X148647872Y-108430499D01*
X148707483Y-108424091D01*
X148842331Y-108373796D01*
X148957546Y-108287546D01*
X149043796Y-108172331D01*
X149094091Y-108037483D01*
X149100500Y-107977873D01*
X149100499Y-107273571D01*
X149120183Y-107206535D01*
X149172987Y-107160780D01*
X149242146Y-107150836D01*
X149305702Y-107179861D01*
X149327601Y-107204683D01*
X149418210Y-107340288D01*
X149418213Y-107340292D01*
X149529707Y-107451786D01*
X149529711Y-107451789D01*
X149660814Y-107539390D01*
X149660827Y-107539397D01*
X149806498Y-107599735D01*
X149806503Y-107599737D01*
X149961153Y-107630499D01*
X149961156Y-107630500D01*
X149961158Y-107630500D01*
X150118844Y-107630500D01*
X150118845Y-107630499D01*
X150273497Y-107599737D01*
X150419179Y-107539394D01*
X150550289Y-107451789D01*
X150661789Y-107340289D01*
X150749394Y-107209179D01*
X150809737Y-107063497D01*
X150840500Y-106908842D01*
X150840500Y-106751158D01*
X150840500Y-106751155D01*
X150840499Y-106751153D01*
X150823902Y-106667715D01*
X150809737Y-106596503D01*
X150799799Y-106572511D01*
X150749397Y-106450827D01*
X150749390Y-106450814D01*
X150661789Y-106319711D01*
X150661786Y-106319707D01*
X150550292Y-106208213D01*
X150550288Y-106208210D01*
X150419185Y-106120609D01*
X150419172Y-106120602D01*
X150273501Y-106060264D01*
X150273489Y-106060261D01*
X150118845Y-106029500D01*
X150118842Y-106029500D01*
X149961158Y-106029500D01*
X149961155Y-106029500D01*
X149806510Y-106060261D01*
X149806498Y-106060264D01*
X149660827Y-106120602D01*
X149660814Y-106120609D01*
X149529711Y-106208210D01*
X149529707Y-106208213D01*
X149418213Y-106319707D01*
X149418210Y-106319711D01*
X149327601Y-106455316D01*
X149273988Y-106500121D01*
X149204663Y-106508828D01*
X149141636Y-106478673D01*
X149104917Y-106419230D01*
X149100499Y-106386425D01*
X149100499Y-105682129D01*
X149100498Y-105682123D01*
X149100497Y-105682116D01*
X149094091Y-105622517D01*
X149065005Y-105544534D01*
X149043797Y-105487671D01*
X149043793Y-105487664D01*
X148957547Y-105372455D01*
X148880894Y-105315072D01*
X148839024Y-105259138D01*
X148834040Y-105189446D01*
X148849476Y-105151021D01*
X148930466Y-105018859D01*
X149026873Y-104786111D01*
X149067003Y-104618954D01*
X149101792Y-104558365D01*
X149163818Y-104526200D01*
X149233387Y-104532676D01*
X149288411Y-104575735D01*
X149302137Y-104600450D01*
X149330604Y-104669175D01*
X149330609Y-104669185D01*
X149418210Y-104800288D01*
X149418213Y-104800292D01*
X149529707Y-104911786D01*
X149529711Y-104911789D01*
X149660814Y-104999390D01*
X149660827Y-104999397D01*
X149806498Y-105059735D01*
X149806503Y-105059737D01*
X149961153Y-105090499D01*
X149961156Y-105090500D01*
X149961158Y-105090500D01*
X150118844Y-105090500D01*
X150118845Y-105090499D01*
X150273497Y-105059737D01*
X150419179Y-104999394D01*
X150550289Y-104911789D01*
X150661789Y-104800289D01*
X150749394Y-104669179D01*
X150809737Y-104523497D01*
X150840500Y-104368842D01*
X150840500Y-104211158D01*
X150840500Y-104211155D01*
X150840499Y-104211153D01*
X150823902Y-104127715D01*
X150809737Y-104056503D01*
X150781197Y-103987600D01*
X150749397Y-103910827D01*
X150749390Y-103910814D01*
X150661789Y-103779711D01*
X150661786Y-103779707D01*
X150550292Y-103668213D01*
X150550288Y-103668210D01*
X150419185Y-103580609D01*
X150419172Y-103580602D01*
X150273501Y-103520264D01*
X150273489Y-103520261D01*
X150118845Y-103489500D01*
X150118842Y-103489500D01*
X149961158Y-103489500D01*
X149961155Y-103489500D01*
X149806510Y-103520261D01*
X149806498Y-103520264D01*
X149660827Y-103580602D01*
X149660814Y-103580609D01*
X149529711Y-103668210D01*
X149529707Y-103668213D01*
X149418213Y-103779707D01*
X149418210Y-103779711D01*
X149330609Y-103910814D01*
X149330606Y-103910820D01*
X149302137Y-103979550D01*
X149258295Y-104033953D01*
X149192001Y-104056017D01*
X149124302Y-104038737D01*
X149076692Y-103987600D01*
X149067003Y-103961046D01*
X149026873Y-103793889D01*
X148942627Y-103590500D01*
X148930466Y-103561140D01*
X148798839Y-103346346D01*
X148798838Y-103346343D01*
X148635224Y-103154776D01*
X148608025Y-103131546D01*
X148587819Y-103114289D01*
X148549627Y-103055784D01*
X148549128Y-102985916D01*
X148586482Y-102926870D01*
X148587756Y-102925764D01*
X148635224Y-102885224D01*
X148798836Y-102693659D01*
X148930466Y-102478859D01*
X149026873Y-102246111D01*
X149067003Y-102078954D01*
X149101792Y-102018365D01*
X149163818Y-101986200D01*
X149233387Y-101992676D01*
X149288411Y-102035735D01*
X149302137Y-102060450D01*
X149330604Y-102129175D01*
X149330609Y-102129185D01*
X149418210Y-102260288D01*
X149418213Y-102260292D01*
X149529707Y-102371786D01*
X149529711Y-102371789D01*
X149660814Y-102459390D01*
X149660827Y-102459397D01*
X149709477Y-102479548D01*
X149806503Y-102519737D01*
X149945186Y-102547323D01*
X149961153Y-102550499D01*
X149961156Y-102550500D01*
X149961158Y-102550500D01*
X150118844Y-102550500D01*
X150118845Y-102550499D01*
X150273497Y-102519737D01*
X150419179Y-102459394D01*
X150550289Y-102371789D01*
X150661789Y-102260289D01*
X150749394Y-102129179D01*
X150809737Y-101983497D01*
X150840500Y-101828842D01*
X150840500Y-101671158D01*
X150840500Y-101671155D01*
X150840499Y-101671153D01*
X150824820Y-101592331D01*
X150809737Y-101516503D01*
X150799799Y-101492511D01*
X150749397Y-101370827D01*
X150749390Y-101370814D01*
X150661789Y-101239711D01*
X150661786Y-101239707D01*
X150550292Y-101128213D01*
X150550288Y-101128210D01*
X150419185Y-101040609D01*
X150419172Y-101040602D01*
X150273501Y-100980264D01*
X150273489Y-100980261D01*
X150118845Y-100949500D01*
X150118842Y-100949500D01*
X149961158Y-100949500D01*
X149961155Y-100949500D01*
X149806510Y-100980261D01*
X149806498Y-100980264D01*
X149660827Y-101040602D01*
X149660814Y-101040609D01*
X149529711Y-101128210D01*
X149529707Y-101128213D01*
X149418213Y-101239707D01*
X149418210Y-101239711D01*
X149330609Y-101370814D01*
X149330606Y-101370820D01*
X149302137Y-101439550D01*
X149258295Y-101493953D01*
X149192001Y-101516017D01*
X149124302Y-101498737D01*
X149076692Y-101447600D01*
X149067003Y-101421046D01*
X149026873Y-101253889D01*
X148942627Y-101050500D01*
X148930466Y-101021140D01*
X148798839Y-100806346D01*
X148798838Y-100806343D01*
X148759503Y-100760288D01*
X148635224Y-100614776D01*
X148481507Y-100483489D01*
X148443656Y-100451161D01*
X148443653Y-100451160D01*
X148228859Y-100319533D01*
X147996110Y-100223126D01*
X147751151Y-100164317D01*
X147500000Y-100144551D01*
X147248848Y-100164317D01*
X147003887Y-100223127D01*
X147003885Y-100223127D01*
X146871952Y-100277776D01*
X146802483Y-100285245D01*
X146740004Y-100253970D01*
X146704352Y-100193881D01*
X146700500Y-100163215D01*
X146700500Y-96974499D01*
X146720185Y-96907460D01*
X146772989Y-96861705D01*
X146824500Y-96850499D01*
X148647871Y-96850499D01*
X148647872Y-96850499D01*
X148707483Y-96844091D01*
X148842331Y-96793796D01*
X148957546Y-96707546D01*
X149043796Y-96592331D01*
X149094091Y-96457483D01*
X149100500Y-96397873D01*
X149100499Y-95693571D01*
X149120183Y-95626535D01*
X149172987Y-95580780D01*
X149242146Y-95570836D01*
X149305702Y-95599861D01*
X149327601Y-95624683D01*
X149418210Y-95760288D01*
X149418213Y-95760292D01*
X149529707Y-95871786D01*
X149529711Y-95871789D01*
X149660814Y-95959390D01*
X149660827Y-95959397D01*
X149805885Y-96019481D01*
X149806503Y-96019737D01*
X149961153Y-96050499D01*
X149961156Y-96050500D01*
X149961158Y-96050500D01*
X150118844Y-96050500D01*
X150118845Y-96050499D01*
X150273497Y-96019737D01*
X150419179Y-95959394D01*
X150550289Y-95871789D01*
X150661789Y-95760289D01*
X150749394Y-95629179D01*
X150809737Y-95483497D01*
X150840500Y-95328842D01*
X150840500Y-95171158D01*
X150840500Y-95171155D01*
X150840499Y-95171153D01*
X150809738Y-95016510D01*
X150809737Y-95016503D01*
X150751256Y-94875316D01*
X150749397Y-94870827D01*
X150749390Y-94870814D01*
X150661789Y-94739711D01*
X150661786Y-94739707D01*
X150550292Y-94628213D01*
X150550288Y-94628210D01*
X150419185Y-94540609D01*
X150419172Y-94540602D01*
X150273501Y-94480264D01*
X150273489Y-94480261D01*
X150118845Y-94449500D01*
X150118842Y-94449500D01*
X149961158Y-94449500D01*
X149961155Y-94449500D01*
X149806510Y-94480261D01*
X149806498Y-94480264D01*
X149660827Y-94540602D01*
X149660814Y-94540609D01*
X149529711Y-94628210D01*
X149529707Y-94628213D01*
X149418213Y-94739707D01*
X149418210Y-94739711D01*
X149327601Y-94875316D01*
X149273988Y-94920121D01*
X149204663Y-94928828D01*
X149141636Y-94898673D01*
X149104917Y-94839230D01*
X149100499Y-94806425D01*
X149100499Y-94102129D01*
X149100498Y-94102123D01*
X149100497Y-94102116D01*
X149094091Y-94042517D01*
X149082629Y-94011787D01*
X149043797Y-93907671D01*
X149043793Y-93907664D01*
X148957547Y-93792455D01*
X148880894Y-93735072D01*
X148839024Y-93679138D01*
X148834040Y-93609446D01*
X148849476Y-93571021D01*
X148930466Y-93438859D01*
X149026873Y-93206111D01*
X149067003Y-93038954D01*
X149101792Y-92978365D01*
X149163818Y-92946200D01*
X149233387Y-92952676D01*
X149288411Y-92995735D01*
X149302137Y-93020450D01*
X149330604Y-93089175D01*
X149330609Y-93089185D01*
X149418210Y-93220288D01*
X149418213Y-93220292D01*
X149529707Y-93331786D01*
X149529711Y-93331789D01*
X149660814Y-93419390D01*
X149660827Y-93419397D01*
X149806498Y-93479735D01*
X149806503Y-93479737D01*
X149961153Y-93510499D01*
X149961156Y-93510500D01*
X149961158Y-93510500D01*
X150118844Y-93510500D01*
X150118845Y-93510499D01*
X150273497Y-93479737D01*
X150419179Y-93419394D01*
X150550289Y-93331789D01*
X150661789Y-93220289D01*
X150749394Y-93089179D01*
X150809737Y-92943497D01*
X150840500Y-92788842D01*
X150840500Y-92631158D01*
X150840500Y-92631155D01*
X150840499Y-92631153D01*
X150839914Y-92628210D01*
X150809737Y-92476503D01*
X150781197Y-92407600D01*
X150749397Y-92330827D01*
X150749390Y-92330814D01*
X150661789Y-92199711D01*
X150661786Y-92199707D01*
X150550292Y-92088213D01*
X150550288Y-92088210D01*
X150419185Y-92000609D01*
X150419172Y-92000602D01*
X150273501Y-91940264D01*
X150273489Y-91940261D01*
X150118845Y-91909500D01*
X150118842Y-91909500D01*
X149961158Y-91909500D01*
X149961155Y-91909500D01*
X149806510Y-91940261D01*
X149806498Y-91940264D01*
X149660827Y-92000602D01*
X149660814Y-92000609D01*
X149529711Y-92088210D01*
X149529707Y-92088213D01*
X149418213Y-92199707D01*
X149418210Y-92199711D01*
X149330609Y-92330814D01*
X149330606Y-92330820D01*
X149302137Y-92399550D01*
X149258295Y-92453953D01*
X149192001Y-92476017D01*
X149124302Y-92458737D01*
X149076692Y-92407600D01*
X149067003Y-92381046D01*
X149026873Y-92213889D01*
X148974815Y-92088210D01*
X148930466Y-91981140D01*
X148798839Y-91766346D01*
X148798838Y-91766343D01*
X148635224Y-91574776D01*
X148587819Y-91534289D01*
X148549627Y-91475784D01*
X148549128Y-91405916D01*
X148586482Y-91346870D01*
X148587756Y-91345764D01*
X148635224Y-91305224D01*
X148798836Y-91113659D01*
X148930466Y-90898859D01*
X149026873Y-90666111D01*
X149067003Y-90498954D01*
X149101792Y-90438365D01*
X149163818Y-90406200D01*
X149233387Y-90412676D01*
X149288411Y-90455735D01*
X149302137Y-90480450D01*
X149330604Y-90549175D01*
X149330609Y-90549185D01*
X149418210Y-90680288D01*
X149418213Y-90680292D01*
X149529707Y-90791786D01*
X149529711Y-90791789D01*
X149660814Y-90879390D01*
X149660827Y-90879397D01*
X149806498Y-90939735D01*
X149806503Y-90939737D01*
X149961153Y-90970499D01*
X149961156Y-90970500D01*
X149961158Y-90970500D01*
X150118844Y-90970500D01*
X150118845Y-90970499D01*
X150273497Y-90939737D01*
X150419179Y-90879394D01*
X150550289Y-90791789D01*
X150661789Y-90680289D01*
X150749394Y-90549179D01*
X150809737Y-90403497D01*
X150840500Y-90248842D01*
X150840500Y-90091158D01*
X150840500Y-90091155D01*
X150840499Y-90091153D01*
X150839914Y-90088210D01*
X150809737Y-89936503D01*
X150781197Y-89867600D01*
X150749397Y-89790827D01*
X150749390Y-89790814D01*
X150661789Y-89659711D01*
X150661786Y-89659707D01*
X150550292Y-89548213D01*
X150550288Y-89548210D01*
X150419185Y-89460609D01*
X150419172Y-89460602D01*
X150273501Y-89400264D01*
X150273489Y-89400261D01*
X150118845Y-89369500D01*
X150118842Y-89369500D01*
X149961158Y-89369500D01*
X149961155Y-89369500D01*
X149806510Y-89400261D01*
X149806498Y-89400264D01*
X149660827Y-89460602D01*
X149660814Y-89460609D01*
X149529711Y-89548210D01*
X149529707Y-89548213D01*
X149418213Y-89659707D01*
X149418210Y-89659711D01*
X149330609Y-89790814D01*
X149330606Y-89790820D01*
X149302137Y-89859550D01*
X149258295Y-89913953D01*
X149192001Y-89936017D01*
X149124302Y-89918737D01*
X149076692Y-89867600D01*
X149067003Y-89841046D01*
X149026873Y-89673889D01*
X148930466Y-89441141D01*
X148930466Y-89441140D01*
X148798839Y-89226346D01*
X148798838Y-89226343D01*
X148699044Y-89109500D01*
X148635224Y-89034776D01*
X148463038Y-88887715D01*
X148443656Y-88871161D01*
X148443653Y-88871160D01*
X148228859Y-88739533D01*
X147996110Y-88643126D01*
X147751151Y-88584317D01*
X147500000Y-88564551D01*
X147248848Y-88584317D01*
X147003889Y-88643126D01*
X146771140Y-88739533D01*
X146556346Y-88871160D01*
X146556343Y-88871161D01*
X146364776Y-89034776D01*
X146201161Y-89226343D01*
X146201160Y-89226346D01*
X146069533Y-89441140D01*
X145973126Y-89673889D01*
X145914317Y-89918848D01*
X145894551Y-90170000D01*
X145914317Y-90421151D01*
X145973126Y-90666110D01*
X146069533Y-90898859D01*
X146201160Y-91113653D01*
X146201161Y-91113656D01*
X146240329Y-91159515D01*
X146364776Y-91305224D01*
X146412178Y-91345709D01*
X146412179Y-91345710D01*
X146450372Y-91404217D01*
X146450870Y-91474085D01*
X146413516Y-91533131D01*
X146412179Y-91534290D01*
X146364776Y-91574776D01*
X146201161Y-91766343D01*
X146201160Y-91766346D01*
X146069533Y-91981140D01*
X145973126Y-92213889D01*
X145914317Y-92458848D01*
X145894551Y-92710000D01*
X145914317Y-92961151D01*
X145973126Y-93206110D01*
X146069533Y-93438859D01*
X146150520Y-93571016D01*
X146168765Y-93638462D01*
X146147649Y-93705064D01*
X146119105Y-93735072D01*
X146042452Y-93792455D01*
X145956206Y-93907664D01*
X145956202Y-93907671D01*
X145905908Y-94042517D01*
X145901015Y-94088034D01*
X145899501Y-94102123D01*
X145899500Y-94102135D01*
X145899500Y-95949902D01*
X145879815Y-96016941D01*
X145863181Y-96037583D01*
X145619481Y-96281282D01*
X145619479Y-96281284D01*
X145590975Y-96330655D01*
X145578928Y-96351523D01*
X145540423Y-96418215D01*
X145499499Y-96570943D01*
X145499499Y-96570945D01*
X145499499Y-96739046D01*
X145499500Y-96739059D01*
X145499500Y-101649902D01*
X145479815Y-101716941D01*
X145463181Y-101737583D01*
X141982044Y-105218719D01*
X141920721Y-105252204D01*
X141851029Y-105247220D01*
X141795096Y-105205348D01*
X141771376Y-105142441D01*
X141771262Y-105142460D01*
X141771174Y-105141907D01*
X141770746Y-105140771D01*
X141770500Y-105137651D01*
X141758159Y-105059735D01*
X141738477Y-104935466D01*
X141675220Y-104740781D01*
X141675218Y-104740778D01*
X141675218Y-104740776D01*
X141613147Y-104618957D01*
X141582287Y-104558390D01*
X141550436Y-104514550D01*
X141461971Y-104392786D01*
X141317213Y-104248028D01*
X141151614Y-104127715D01*
X141145006Y-104124348D01*
X141058917Y-104080483D01*
X141008123Y-104032511D01*
X140991328Y-103964690D01*
X141013865Y-103898555D01*
X141058917Y-103859516D01*
X141151610Y-103812287D01*
X141176933Y-103793889D01*
X141317213Y-103691971D01*
X141317215Y-103691968D01*
X141317219Y-103691966D01*
X141461966Y-103547219D01*
X141461968Y-103547215D01*
X141461971Y-103547213D01*
X141558867Y-103413845D01*
X141582287Y-103381610D01*
X141675220Y-103199219D01*
X141738477Y-103004534D01*
X141770500Y-102802352D01*
X141770500Y-102597648D01*
X141762529Y-102547323D01*
X141738477Y-102395465D01*
X141694555Y-102260288D01*
X141675220Y-102200781D01*
X141675218Y-102200778D01*
X141675218Y-102200776D01*
X141613989Y-102080609D01*
X141582287Y-102018390D01*
X141563605Y-101992676D01*
X141461971Y-101852786D01*
X141317213Y-101708028D01*
X141151614Y-101587715D01*
X141145006Y-101584348D01*
X141058917Y-101540483D01*
X141008123Y-101492511D01*
X140991328Y-101424690D01*
X141013865Y-101358555D01*
X141058917Y-101319516D01*
X141151610Y-101272287D01*
X141176933Y-101253889D01*
X141317213Y-101151971D01*
X141317215Y-101151968D01*
X141317219Y-101151966D01*
X141461966Y-101007219D01*
X141461968Y-101007215D01*
X141461971Y-101007213D01*
X141514732Y-100934590D01*
X141582287Y-100841610D01*
X141675220Y-100659219D01*
X141738477Y-100464534D01*
X141770500Y-100262352D01*
X141770500Y-100057648D01*
X141748575Y-99919219D01*
X141738477Y-99855465D01*
X141675218Y-99660776D01*
X141613989Y-99540609D01*
X141582287Y-99478390D01*
X141574556Y-99467749D01*
X141461971Y-99312786D01*
X141317213Y-99168028D01*
X141151614Y-99047715D01*
X141141410Y-99042516D01*
X141058917Y-99000483D01*
X141008123Y-98952511D01*
X140991328Y-98884690D01*
X141013865Y-98818555D01*
X141058917Y-98779516D01*
X141151610Y-98732287D01*
X141187508Y-98706206D01*
X141317213Y-98611971D01*
X141317215Y-98611968D01*
X141317219Y-98611966D01*
X141461966Y-98467219D01*
X141461968Y-98467215D01*
X141461971Y-98467213D01*
X141514732Y-98394590D01*
X141582287Y-98301610D01*
X141675220Y-98119219D01*
X141738477Y-97924534D01*
X141770500Y-97722352D01*
X141770500Y-97517648D01*
X141738477Y-97315466D01*
X141738476Y-97315464D01*
X141675218Y-97120776D01*
X141641503Y-97054607D01*
X141582287Y-96938390D01*
X141526573Y-96861705D01*
X141461971Y-96772786D01*
X141317213Y-96628028D01*
X141151614Y-96507715D01*
X141145006Y-96504348D01*
X141058917Y-96460483D01*
X141008123Y-96412511D01*
X140991328Y-96344690D01*
X141013865Y-96278555D01*
X141058917Y-96239516D01*
X141151610Y-96192287D01*
X141225846Y-96138352D01*
X141317213Y-96071971D01*
X141317215Y-96071968D01*
X141317219Y-96071966D01*
X141461966Y-95927219D01*
X141461968Y-95927215D01*
X141461971Y-95927213D01*
X141534771Y-95827011D01*
X141582287Y-95761610D01*
X141675220Y-95579219D01*
X141738477Y-95384534D01*
X141770500Y-95182352D01*
X141770500Y-94977648D01*
X141762768Y-94928828D01*
X141738477Y-94775465D01*
X141707610Y-94680466D01*
X141675220Y-94580781D01*
X141675218Y-94580778D01*
X141675218Y-94580776D01*
X141624002Y-94480261D01*
X141582287Y-94398390D01*
X141572721Y-94385223D01*
X141461971Y-94232786D01*
X141317213Y-94088028D01*
X141151614Y-93967715D01*
X141135275Y-93959390D01*
X141058917Y-93920483D01*
X141008123Y-93872511D01*
X140991328Y-93804690D01*
X141013865Y-93738555D01*
X141058917Y-93699516D01*
X141151610Y-93652287D01*
X141210576Y-93609446D01*
X141317213Y-93531971D01*
X141317215Y-93531968D01*
X141317219Y-93531966D01*
X141461966Y-93387219D01*
X141461968Y-93387215D01*
X141461971Y-93387213D01*
X141514732Y-93314590D01*
X141582287Y-93221610D01*
X141675220Y-93039219D01*
X141738477Y-92844534D01*
X141770500Y-92642352D01*
X141770500Y-92437648D01*
X141745667Y-92280861D01*
X141738477Y-92235465D01*
X141709127Y-92145137D01*
X141675220Y-92040781D01*
X141675218Y-92040778D01*
X141675218Y-92040776D01*
X141612396Y-91917483D01*
X141582287Y-91858390D01*
X141515414Y-91766346D01*
X141461971Y-91692786D01*
X141317213Y-91548028D01*
X141151614Y-91427715D01*
X141108831Y-91405916D01*
X141058917Y-91380483D01*
X141008123Y-91332511D01*
X140991328Y-91264690D01*
X141013865Y-91198555D01*
X141058917Y-91159516D01*
X141151610Y-91112287D01*
X141221754Y-91061325D01*
X141317213Y-90991971D01*
X141317215Y-90991968D01*
X141317219Y-90991966D01*
X141461966Y-90847219D01*
X141461968Y-90847215D01*
X141461971Y-90847213D01*
X141514732Y-90774590D01*
X141582287Y-90681610D01*
X141675220Y-90499219D01*
X141738477Y-90304534D01*
X141770500Y-90102352D01*
X141770500Y-89897648D01*
X141738477Y-89695466D01*
X141726859Y-89659711D01*
X141695153Y-89562128D01*
X141675220Y-89500781D01*
X141675218Y-89500778D01*
X141675218Y-89500776D01*
X141624002Y-89400261D01*
X141582287Y-89318390D01*
X141534383Y-89252455D01*
X141461971Y-89152786D01*
X141317213Y-89008028D01*
X141151613Y-88887715D01*
X141151612Y-88887714D01*
X141151610Y-88887713D01*
X141094653Y-88858691D01*
X140969223Y-88794781D01*
X140774534Y-88731522D01*
X140599995Y-88703878D01*
X140572352Y-88699500D01*
X139367648Y-88699500D01*
X139343329Y-88703351D01*
X139165465Y-88731522D01*
X138970776Y-88794781D01*
X138788386Y-88887715D01*
X138622786Y-89008028D01*
X138478028Y-89152786D01*
X138357715Y-89318386D01*
X138264781Y-89500776D01*
X138201522Y-89695465D01*
X138169500Y-89897648D01*
X138169500Y-90102351D01*
X138201522Y-90304534D01*
X138264781Y-90499223D01*
X138328691Y-90624653D01*
X138357041Y-90680292D01*
X138357715Y-90681613D01*
X138478028Y-90847213D01*
X138622786Y-90991971D01*
X138777749Y-91104556D01*
X138788390Y-91112287D01*
X138869420Y-91153574D01*
X138881080Y-91159515D01*
X138931876Y-91207490D01*
X138948671Y-91275311D01*
X138926134Y-91341446D01*
X138881080Y-91380485D01*
X138788386Y-91427715D01*
X138622786Y-91548028D01*
X138478028Y-91692786D01*
X138357715Y-91858386D01*
X138264781Y-92040776D01*
X138201522Y-92235465D01*
X138169500Y-92437648D01*
X138169500Y-92642351D01*
X138201522Y-92844534D01*
X138264781Y-93039223D01*
X138324994Y-93157396D01*
X138357041Y-93220292D01*
X138357715Y-93221613D01*
X138478028Y-93387213D01*
X138622786Y-93531971D01*
X138769361Y-93638462D01*
X138788390Y-93652287D01*
X138868977Y-93693348D01*
X138881080Y-93699515D01*
X138931876Y-93747490D01*
X138948671Y-93815311D01*
X138926134Y-93881446D01*
X138881080Y-93920485D01*
X138788386Y-93967715D01*
X138622786Y-94088028D01*
X138478028Y-94232786D01*
X138357715Y-94398386D01*
X138264781Y-94580776D01*
X138201522Y-94775465D01*
X138169500Y-94977648D01*
X138169500Y-95182351D01*
X138201522Y-95384534D01*
X138264781Y-95579223D01*
X138323047Y-95693574D01*
X138357041Y-95760292D01*
X138357715Y-95761613D01*
X138478028Y-95927213D01*
X138622786Y-96071971D01*
X138777749Y-96184556D01*
X138788390Y-96192287D01*
X138879840Y-96238883D01*
X138881080Y-96239515D01*
X138931876Y-96287490D01*
X138948671Y-96355311D01*
X138926134Y-96421446D01*
X138881080Y-96460485D01*
X138788386Y-96507715D01*
X138622786Y-96628028D01*
X138478028Y-96772786D01*
X138357715Y-96938386D01*
X138264781Y-97120776D01*
X138201522Y-97315465D01*
X138169500Y-97517648D01*
X138169500Y-97722351D01*
X138201522Y-97924534D01*
X138264781Y-98119223D01*
X138357715Y-98301613D01*
X138478028Y-98467213D01*
X138622786Y-98611971D01*
X138752492Y-98706206D01*
X138788390Y-98732287D01*
X138879840Y-98778883D01*
X138881080Y-98779515D01*
X138931876Y-98827490D01*
X138948671Y-98895311D01*
X138926134Y-98961446D01*
X138881080Y-99000485D01*
X138788386Y-99047715D01*
X138622786Y-99168028D01*
X138478028Y-99312786D01*
X138357715Y-99478386D01*
X138264781Y-99660776D01*
X138201522Y-99855465D01*
X138169500Y-100057648D01*
X138169500Y-100262351D01*
X138201522Y-100464534D01*
X138264781Y-100659223D01*
X138357715Y-100841613D01*
X138478028Y-101007213D01*
X138622786Y-101151971D01*
X138763067Y-101253889D01*
X138788390Y-101272287D01*
X138879840Y-101318883D01*
X138881080Y-101319515D01*
X138931876Y-101367490D01*
X138948671Y-101435311D01*
X138926134Y-101501446D01*
X138881080Y-101540485D01*
X138788386Y-101587715D01*
X138622786Y-101708028D01*
X138478028Y-101852786D01*
X138357715Y-102018386D01*
X138264781Y-102200776D01*
X138201522Y-102395465D01*
X138169500Y-102597648D01*
X138169500Y-102802351D01*
X138201522Y-103004534D01*
X138264781Y-103199223D01*
X138357715Y-103381613D01*
X138478028Y-103547213D01*
X138622786Y-103691971D01*
X138763067Y-103793889D01*
X138788390Y-103812287D01*
X138879840Y-103858883D01*
X138881080Y-103859515D01*
X138931876Y-103907490D01*
X138948671Y-103975311D01*
X138926134Y-104041446D01*
X138881080Y-104080485D01*
X138788386Y-104127715D01*
X138622786Y-104248028D01*
X138478028Y-104392786D01*
X138357715Y-104558386D01*
X138264781Y-104740776D01*
X138201522Y-104935465D01*
X138169500Y-105137648D01*
X138169500Y-105342351D01*
X138201522Y-105544534D01*
X138264781Y-105739223D01*
X138357715Y-105921613D01*
X138478028Y-106087213D01*
X138622786Y-106231971D01*
X138777749Y-106344556D01*
X138788390Y-106352287D01*
X138879840Y-106398883D01*
X138881080Y-106399515D01*
X138931876Y-106447490D01*
X138948671Y-106515311D01*
X138926134Y-106581446D01*
X138881080Y-106620485D01*
X138788386Y-106667715D01*
X138622786Y-106788028D01*
X138478028Y-106932786D01*
X138357715Y-107098385D01*
X138316201Y-107179861D01*
X138283942Y-107243175D01*
X138279898Y-107251111D01*
X138231924Y-107301907D01*
X138164103Y-107318702D01*
X138097968Y-107296165D01*
X138081732Y-107282497D01*
X126937590Y-96138355D01*
X126937588Y-96138352D01*
X126818717Y-96019481D01*
X126818716Y-96019480D01*
X126714643Y-95959394D01*
X126714642Y-95959393D01*
X126681783Y-95940422D01*
X126625881Y-95925443D01*
X126529057Y-95899499D01*
X126370943Y-95899499D01*
X126363347Y-95899499D01*
X126363331Y-95899500D01*
X121994378Y-95899500D01*
X121927339Y-95879815D01*
X121881584Y-95827011D01*
X121871640Y-95757853D01*
X121883893Y-95719205D01*
X121929768Y-95629172D01*
X121955220Y-95579219D01*
X122018477Y-95384534D01*
X122050500Y-95182352D01*
X122050500Y-94977648D01*
X122042768Y-94928828D01*
X122018477Y-94775465D01*
X121987610Y-94680466D01*
X121955220Y-94580781D01*
X121955218Y-94580778D01*
X121955218Y-94580776D01*
X121904002Y-94480261D01*
X121862287Y-94398390D01*
X121852721Y-94385223D01*
X121741971Y-94232786D01*
X121597213Y-94088028D01*
X121431614Y-93967715D01*
X121415275Y-93959390D01*
X121338917Y-93920483D01*
X121288123Y-93872511D01*
X121271328Y-93804690D01*
X121293865Y-93738555D01*
X121338917Y-93699516D01*
X121431610Y-93652287D01*
X121490576Y-93609446D01*
X121597213Y-93531971D01*
X121597215Y-93531968D01*
X121597219Y-93531966D01*
X121741966Y-93387219D01*
X121741968Y-93387215D01*
X121741971Y-93387213D01*
X121794732Y-93314590D01*
X121862287Y-93221610D01*
X121955220Y-93039219D01*
X122018477Y-92844534D01*
X122050500Y-92642352D01*
X122050500Y-92437648D01*
X122025667Y-92280861D01*
X122018477Y-92235465D01*
X121989127Y-92145137D01*
X121955220Y-92040781D01*
X121955218Y-92040778D01*
X121955218Y-92040776D01*
X121892396Y-91917483D01*
X121862287Y-91858390D01*
X121795414Y-91766346D01*
X121741971Y-91692786D01*
X121597213Y-91548028D01*
X121431614Y-91427715D01*
X121388831Y-91405916D01*
X121338917Y-91380483D01*
X121288123Y-91332511D01*
X121271328Y-91264690D01*
X121293865Y-91198555D01*
X121338917Y-91159516D01*
X121431610Y-91112287D01*
X121501754Y-91061325D01*
X121597213Y-90991971D01*
X121597215Y-90991968D01*
X121597219Y-90991966D01*
X121741966Y-90847219D01*
X121741968Y-90847215D01*
X121741971Y-90847213D01*
X121794732Y-90774590D01*
X121862287Y-90681610D01*
X121955220Y-90499219D01*
X122018477Y-90304534D01*
X122050500Y-90102352D01*
X122050500Y-89897648D01*
X122018477Y-89695466D01*
X122006859Y-89659711D01*
X121975153Y-89562128D01*
X121955220Y-89500781D01*
X121955218Y-89500778D01*
X121955218Y-89500776D01*
X121904002Y-89400261D01*
X121862287Y-89318390D01*
X121814383Y-89252455D01*
X121741971Y-89152786D01*
X121597213Y-89008028D01*
X121431614Y-88887715D01*
X121399123Y-88871160D01*
X121338917Y-88840483D01*
X121288123Y-88792511D01*
X121271328Y-88724690D01*
X121293865Y-88658555D01*
X121338917Y-88619516D01*
X121431610Y-88572287D01*
X121452770Y-88556913D01*
X121597213Y-88451971D01*
X121597215Y-88451968D01*
X121597219Y-88451966D01*
X121741966Y-88307219D01*
X121741968Y-88307215D01*
X121741971Y-88307213D01*
X121794732Y-88234590D01*
X121862287Y-88141610D01*
X121955220Y-87959219D01*
X122018477Y-87764534D01*
X122050500Y-87562352D01*
X122050500Y-87357648D01*
X122018477Y-87155466D01*
X121955220Y-86960781D01*
X121955218Y-86960778D01*
X121955218Y-86960776D01*
X121921503Y-86894607D01*
X121862287Y-86778390D01*
X121854556Y-86767749D01*
X121741971Y-86612786D01*
X121597213Y-86468028D01*
X121431614Y-86347715D01*
X121425006Y-86344348D01*
X121338917Y-86300483D01*
X121288123Y-86252511D01*
X121271328Y-86184690D01*
X121293865Y-86118555D01*
X121338917Y-86079516D01*
X121431610Y-86032287D01*
X121452770Y-86016913D01*
X121597213Y-85911971D01*
X121597215Y-85911968D01*
X121597219Y-85911966D01*
X121741966Y-85767219D01*
X121741968Y-85767215D01*
X121741971Y-85767213D01*
X121794732Y-85694590D01*
X121862287Y-85601610D01*
X121955220Y-85419219D01*
X122018477Y-85224534D01*
X122050500Y-85022352D01*
X122050500Y-84817648D01*
X122027239Y-84670785D01*
X122018477Y-84615465D01*
X121967765Y-84459390D01*
X121955220Y-84420781D01*
X121955218Y-84420778D01*
X121955218Y-84420776D01*
X121921503Y-84354607D01*
X121862287Y-84238390D01*
X121782946Y-84129185D01*
X121741971Y-84072786D01*
X121597213Y-83928028D01*
X121431614Y-83807715D01*
X121376645Y-83779707D01*
X121338917Y-83760483D01*
X121288123Y-83712511D01*
X121271328Y-83644690D01*
X121293865Y-83578555D01*
X121338917Y-83539516D01*
X121431610Y-83492287D01*
X121452770Y-83476913D01*
X121597213Y-83371971D01*
X121597215Y-83371968D01*
X121597219Y-83371966D01*
X121741966Y-83227219D01*
X121741968Y-83227215D01*
X121741971Y-83227213D01*
X121813899Y-83128211D01*
X121862287Y-83061610D01*
X121955220Y-82879219D01*
X122018477Y-82684534D01*
X122050500Y-82482352D01*
X122050500Y-82277648D01*
X122028455Y-82138462D01*
X122018477Y-82075465D01*
X121955218Y-81880776D01*
X121921503Y-81814607D01*
X121862287Y-81698390D01*
X121782946Y-81589185D01*
X121741971Y-81532786D01*
X121597219Y-81388034D01*
X121573527Y-81370821D01*
X121560929Y-81361668D01*
X121518264Y-81306339D01*
X121512285Y-81236726D01*
X121526386Y-81210000D01*
X145894551Y-81210000D01*
X145914317Y-81461151D01*
X145973126Y-81706110D01*
X146069533Y-81938859D01*
X146150520Y-82071016D01*
X146168765Y-82138462D01*
X146147649Y-82205064D01*
X146119105Y-82235072D01*
X146042452Y-82292455D01*
X145956206Y-82407664D01*
X145956202Y-82407671D01*
X145905908Y-82542517D01*
X145899501Y-82602116D01*
X145899501Y-82602123D01*
X145899500Y-82602135D01*
X145899500Y-84897870D01*
X145899501Y-84897876D01*
X145905908Y-84957483D01*
X145956202Y-85092328D01*
X145956206Y-85092335D01*
X146042452Y-85207544D01*
X146042455Y-85207547D01*
X146157664Y-85293793D01*
X146157671Y-85293797D01*
X146292517Y-85344091D01*
X146292516Y-85344091D01*
X146299444Y-85344835D01*
X146352127Y-85350500D01*
X148647872Y-85350499D01*
X148707483Y-85344091D01*
X148842331Y-85293796D01*
X148957546Y-85207546D01*
X149043796Y-85092331D01*
X149094091Y-84957483D01*
X149100500Y-84897873D01*
X149100499Y-84193571D01*
X149120183Y-84126535D01*
X149172987Y-84080780D01*
X149242146Y-84070836D01*
X149305702Y-84099861D01*
X149327601Y-84124683D01*
X149418210Y-84260288D01*
X149418213Y-84260292D01*
X149529707Y-84371786D01*
X149529711Y-84371789D01*
X149660814Y-84459390D01*
X149660827Y-84459397D01*
X149806498Y-84519735D01*
X149806503Y-84519737D01*
X149961153Y-84550499D01*
X149961156Y-84550500D01*
X149961158Y-84550500D01*
X150118844Y-84550500D01*
X150118845Y-84550499D01*
X150273497Y-84519737D01*
X150419179Y-84459394D01*
X150550289Y-84371789D01*
X150661789Y-84260289D01*
X150749394Y-84129179D01*
X150809737Y-83983497D01*
X150840500Y-83828842D01*
X150840500Y-83671158D01*
X150840500Y-83671155D01*
X150840499Y-83671153D01*
X150823406Y-83585220D01*
X150809737Y-83516503D01*
X150809735Y-83516498D01*
X150749397Y-83370827D01*
X150749390Y-83370814D01*
X150661789Y-83239711D01*
X150661786Y-83239707D01*
X150550292Y-83128213D01*
X150550288Y-83128210D01*
X150419185Y-83040609D01*
X150419172Y-83040602D01*
X150273501Y-82980264D01*
X150273489Y-82980261D01*
X150118845Y-82949500D01*
X150118842Y-82949500D01*
X149961158Y-82949500D01*
X149961155Y-82949500D01*
X149806510Y-82980261D01*
X149806498Y-82980264D01*
X149660827Y-83040602D01*
X149660814Y-83040609D01*
X149529711Y-83128210D01*
X149529707Y-83128213D01*
X149418213Y-83239707D01*
X149418210Y-83239711D01*
X149327601Y-83375316D01*
X149273988Y-83420121D01*
X149204663Y-83428828D01*
X149141636Y-83398673D01*
X149104917Y-83339230D01*
X149100499Y-83306425D01*
X149100499Y-82602129D01*
X149100498Y-82602123D01*
X149100497Y-82602116D01*
X149094091Y-82542517D01*
X149063089Y-82459397D01*
X149043797Y-82407671D01*
X149043793Y-82407664D01*
X148957547Y-82292455D01*
X148880894Y-82235072D01*
X148839024Y-82179138D01*
X148834040Y-82109446D01*
X148849476Y-82071021D01*
X148930466Y-81938859D01*
X149026873Y-81706111D01*
X149067003Y-81538954D01*
X149101792Y-81478365D01*
X149163818Y-81446200D01*
X149233387Y-81452676D01*
X149288411Y-81495735D01*
X149302137Y-81520450D01*
X149330604Y-81589175D01*
X149330609Y-81589185D01*
X149418210Y-81720288D01*
X149418213Y-81720292D01*
X149529707Y-81831786D01*
X149529711Y-81831789D01*
X149660814Y-81919390D01*
X149660827Y-81919397D01*
X149806498Y-81979735D01*
X149806503Y-81979737D01*
X149961153Y-82010499D01*
X149961156Y-82010500D01*
X149961158Y-82010500D01*
X150118844Y-82010500D01*
X150118845Y-82010499D01*
X150273497Y-81979737D01*
X150419179Y-81919394D01*
X150550289Y-81831789D01*
X150661789Y-81720289D01*
X150749394Y-81589179D01*
X150809737Y-81443497D01*
X150840500Y-81288842D01*
X150840500Y-81131158D01*
X150840500Y-81131155D01*
X150840499Y-81131153D01*
X150831078Y-81083793D01*
X150809737Y-80976503D01*
X150781197Y-80907600D01*
X150749397Y-80830827D01*
X150749390Y-80830814D01*
X150661789Y-80699711D01*
X150661786Y-80699707D01*
X150550292Y-80588213D01*
X150550288Y-80588210D01*
X150419185Y-80500609D01*
X150419172Y-80500602D01*
X150273501Y-80440264D01*
X150273489Y-80440261D01*
X150118845Y-80409500D01*
X150118842Y-80409500D01*
X149961158Y-80409500D01*
X149961155Y-80409500D01*
X149806510Y-80440261D01*
X149806498Y-80440264D01*
X149660827Y-80500602D01*
X149660814Y-80500609D01*
X149529711Y-80588210D01*
X149529707Y-80588213D01*
X149418213Y-80699707D01*
X149418210Y-80699711D01*
X149330609Y-80830814D01*
X149330606Y-80830820D01*
X149302137Y-80899550D01*
X149258295Y-80953953D01*
X149192001Y-80976017D01*
X149124302Y-80958737D01*
X149076692Y-80907600D01*
X149067003Y-80881046D01*
X149026873Y-80713889D01*
X148930466Y-80481141D01*
X148930466Y-80481140D01*
X148798839Y-80266346D01*
X148798838Y-80266343D01*
X148699044Y-80149500D01*
X148635224Y-80074776D01*
X148508571Y-79966604D01*
X148443656Y-79911161D01*
X148443653Y-79911160D01*
X148228859Y-79779533D01*
X147996110Y-79683126D01*
X147751151Y-79624317D01*
X147500000Y-79604551D01*
X147248848Y-79624317D01*
X147003889Y-79683126D01*
X146771140Y-79779533D01*
X146556346Y-79911160D01*
X146556343Y-79911161D01*
X146364776Y-80074776D01*
X146201161Y-80266343D01*
X146201160Y-80266346D01*
X146069533Y-80481140D01*
X145973126Y-80713889D01*
X145914317Y-80958848D01*
X145894551Y-81210000D01*
X121526386Y-81210000D01*
X121544890Y-81174931D01*
X121605728Y-81140573D01*
X121620562Y-81138060D01*
X121657483Y-81134091D01*
X121792328Y-81083797D01*
X121792327Y-81083797D01*
X121792331Y-81083796D01*
X121907546Y-80997546D01*
X121993796Y-80882331D01*
X122044091Y-80747483D01*
X122050500Y-80687873D01*
X122050499Y-78992128D01*
X122044091Y-78932517D01*
X121993796Y-78797669D01*
X121993795Y-78797668D01*
X121993793Y-78797664D01*
X121907547Y-78682455D01*
X121907544Y-78682452D01*
X121792335Y-78596206D01*
X121792328Y-78596202D01*
X121657482Y-78545908D01*
X121657483Y-78545908D01*
X121597883Y-78539501D01*
X121597881Y-78539500D01*
X121597873Y-78539500D01*
X121597864Y-78539500D01*
X118902129Y-78539500D01*
X118902123Y-78539501D01*
X118842516Y-78545908D01*
X118707671Y-78596202D01*
X118707664Y-78596206D01*
X118592455Y-78682452D01*
X118592452Y-78682455D01*
X118506206Y-78797664D01*
X118506202Y-78797671D01*
X118455908Y-78932517D01*
X118449501Y-78992116D01*
X118449501Y-78992123D01*
X118449500Y-78992135D01*
X118449500Y-80687870D01*
X118449501Y-80687876D01*
X118455908Y-80747483D01*
X118506202Y-80882328D01*
X118506206Y-80882335D01*
X118592452Y-80997544D01*
X118592455Y-80997547D01*
X118707664Y-81083793D01*
X118707671Y-81083797D01*
X118752618Y-81100561D01*
X118842517Y-81134091D01*
X118879441Y-81138060D01*
X118943989Y-81164796D01*
X118983838Y-81222188D01*
X118986333Y-81292013D01*
X118950681Y-81352102D01*
X118939071Y-81361666D01*
X118902784Y-81388030D01*
X118758028Y-81532786D01*
X118637715Y-81698386D01*
X118544781Y-81880776D01*
X118481522Y-82075465D01*
X118449500Y-82277648D01*
X118449500Y-82482351D01*
X118481522Y-82684534D01*
X118544781Y-82879223D01*
X118596265Y-82980264D01*
X118627012Y-83040609D01*
X118637715Y-83061613D01*
X118758028Y-83227213D01*
X118902786Y-83371971D01*
X119057749Y-83484556D01*
X119068390Y-83492287D01*
X119159840Y-83538883D01*
X119161080Y-83539515D01*
X119211876Y-83587490D01*
X119228671Y-83655311D01*
X119206134Y-83721446D01*
X119161080Y-83760485D01*
X119068386Y-83807715D01*
X118902786Y-83928028D01*
X118758028Y-84072786D01*
X118637715Y-84238386D01*
X118544781Y-84420776D01*
X118481522Y-84615465D01*
X118449500Y-84817648D01*
X118449500Y-85022351D01*
X118481522Y-85224534D01*
X118544781Y-85419223D01*
X118608691Y-85544653D01*
X118631205Y-85588838D01*
X118637715Y-85601613D01*
X118758028Y-85767213D01*
X118902786Y-85911971D01*
X119057749Y-86024556D01*
X119068390Y-86032287D01*
X119159840Y-86078883D01*
X119161080Y-86079515D01*
X119211876Y-86127490D01*
X119228671Y-86195311D01*
X119206134Y-86261446D01*
X119161080Y-86300485D01*
X119068386Y-86347715D01*
X118902786Y-86468028D01*
X118758032Y-86612782D01*
X118758028Y-86612787D01*
X118718805Y-86666774D01*
X118663475Y-86709440D01*
X118593862Y-86715419D01*
X118532067Y-86682814D01*
X118530806Y-86681570D01*
X114636818Y-82787582D01*
X114603333Y-82726259D01*
X114600499Y-82699901D01*
X114600499Y-80602129D01*
X114600498Y-80602123D01*
X114600497Y-80602116D01*
X114594091Y-80542517D01*
X114578460Y-80500609D01*
X114543797Y-80407671D01*
X114543793Y-80407664D01*
X114457547Y-80292455D01*
X114457544Y-80292452D01*
X114342335Y-80206206D01*
X114342328Y-80206202D01*
X114207482Y-80155908D01*
X114207483Y-80155908D01*
X114147883Y-80149501D01*
X114147881Y-80149500D01*
X114147873Y-80149500D01*
X114147864Y-80149500D01*
X111852129Y-80149500D01*
X111852123Y-80149501D01*
X111792516Y-80155908D01*
X111657671Y-80206202D01*
X111657664Y-80206206D01*
X111542455Y-80292452D01*
X111542452Y-80292455D01*
X111456206Y-80407664D01*
X111456202Y-80407671D01*
X111405908Y-80542517D01*
X111400996Y-80588210D01*
X111399501Y-80602123D01*
X111399500Y-80602135D01*
X111399500Y-81306425D01*
X111379815Y-81373464D01*
X111327011Y-81419219D01*
X111257853Y-81429163D01*
X111194297Y-81400138D01*
X111172398Y-81375316D01*
X111081789Y-81239711D01*
X111081786Y-81239707D01*
X110970292Y-81128213D01*
X110970288Y-81128210D01*
X110839185Y-81040609D01*
X110839172Y-81040602D01*
X110693501Y-80980264D01*
X110693489Y-80980261D01*
X110538845Y-80949500D01*
X110538842Y-80949500D01*
X110381158Y-80949500D01*
X110381155Y-80949500D01*
X110226510Y-80980261D01*
X110226498Y-80980264D01*
X110080827Y-81040602D01*
X110080814Y-81040609D01*
X109949711Y-81128210D01*
X109949707Y-81128213D01*
X109838213Y-81239707D01*
X109838210Y-81239711D01*
X109750609Y-81370814D01*
X109750602Y-81370827D01*
X109690264Y-81516498D01*
X109690261Y-81516510D01*
X109659500Y-81671153D01*
X105214786Y-81671153D01*
X105214786Y-76030000D01*
X119114592Y-76030000D01*
X119134201Y-76316680D01*
X119192666Y-76598034D01*
X119192667Y-76598037D01*
X119288894Y-76868793D01*
X119288893Y-76868793D01*
X119421098Y-77123935D01*
X119586812Y-77358700D01*
X119671923Y-77449831D01*
X119782947Y-77568708D01*
X120005853Y-77750055D01*
X120251382Y-77899365D01*
X120438237Y-77980526D01*
X120514942Y-78013844D01*
X120791642Y-78091371D01*
X121041920Y-78125771D01*
X121076321Y-78130500D01*
X121076322Y-78130500D01*
X121363679Y-78130500D01*
X121394370Y-78126281D01*
X121648358Y-78091371D01*
X121925058Y-78013844D01*
X122038015Y-77964779D01*
X122188617Y-77899365D01*
X122188620Y-77899363D01*
X122188625Y-77899361D01*
X122434147Y-77750055D01*
X122657053Y-77568708D01*
X122853189Y-77358698D01*
X123018901Y-77123936D01*
X123151104Y-76868797D01*
X123247334Y-76598032D01*
X123305798Y-76316686D01*
X123325408Y-76030000D01*
X136894592Y-76030000D01*
X136914201Y-76316680D01*
X136972666Y-76598034D01*
X136972667Y-76598037D01*
X137068894Y-76868793D01*
X137068893Y-76868793D01*
X137201098Y-77123935D01*
X137366812Y-77358700D01*
X137451923Y-77449831D01*
X137562947Y-77568708D01*
X137785853Y-77750055D01*
X138031382Y-77899365D01*
X138218237Y-77980526D01*
X138294942Y-78013844D01*
X138571642Y-78091371D01*
X138821920Y-78125771D01*
X138856321Y-78130500D01*
X138856322Y-78130500D01*
X139143679Y-78130500D01*
X139174370Y-78126281D01*
X139428358Y-78091371D01*
X139705058Y-78013844D01*
X139818015Y-77964779D01*
X139968617Y-77899365D01*
X139968620Y-77899363D01*
X139968625Y-77899361D01*
X140214147Y-77750055D01*
X140437053Y-77568708D01*
X140633189Y-77358698D01*
X140798901Y-77123936D01*
X140931104Y-76868797D01*
X141027334Y-76598032D01*
X141085798Y-76316686D01*
X141105408Y-76030000D01*
X141085798Y-75743314D01*
X141027334Y-75461968D01*
X140931105Y-75191206D01*
X140931106Y-75191206D01*
X140798901Y-74936064D01*
X140633187Y-74701299D01*
X140554554Y-74617105D01*
X140437053Y-74491292D01*
X140214147Y-74309945D01*
X140214146Y-74309944D01*
X139968617Y-74160634D01*
X139705063Y-74046158D01*
X139705061Y-74046157D01*
X139705058Y-74046156D01*
X139575578Y-74009877D01*
X139428364Y-73968630D01*
X139428359Y-73968629D01*
X139428358Y-73968629D01*
X139286018Y-73949064D01*
X139143679Y-73929500D01*
X139143678Y-73929500D01*
X138856322Y-73929500D01*
X138856321Y-73929500D01*
X138571642Y-73968629D01*
X138571635Y-73968630D01*
X138363861Y-74026845D01*
X138294942Y-74046156D01*
X138294939Y-74046156D01*
X138294936Y-74046158D01*
X138294935Y-74046158D01*
X138031382Y-74160634D01*
X137785853Y-74309944D01*
X137562950Y-74491289D01*
X137366812Y-74701299D01*
X137201098Y-74936064D01*
X137068894Y-75191206D01*
X136972667Y-75461962D01*
X136972666Y-75461965D01*
X136914201Y-75743319D01*
X136894592Y-76030000D01*
X123325408Y-76030000D01*
X123305798Y-75743314D01*
X123247334Y-75461968D01*
X123151105Y-75191206D01*
X123151106Y-75191206D01*
X123018901Y-74936064D01*
X122853187Y-74701299D01*
X122774554Y-74617105D01*
X122657053Y-74491292D01*
X122434147Y-74309945D01*
X122434146Y-74309944D01*
X122188617Y-74160634D01*
X121925063Y-74046158D01*
X121925061Y-74046157D01*
X121925058Y-74046156D01*
X121795578Y-74009877D01*
X121648364Y-73968630D01*
X121648359Y-73968629D01*
X121648358Y-73968629D01*
X121506018Y-73949064D01*
X121363679Y-73929500D01*
X121363678Y-73929500D01*
X121076322Y-73929500D01*
X121076321Y-73929500D01*
X120791642Y-73968629D01*
X120791635Y-73968630D01*
X120583861Y-74026845D01*
X120514942Y-74046156D01*
X120514939Y-74046156D01*
X120514936Y-74046158D01*
X120514935Y-74046158D01*
X120251382Y-74160634D01*
X120005853Y-74309944D01*
X119782950Y-74491289D01*
X119586812Y-74701299D01*
X119421098Y-74936064D01*
X119288894Y-75191206D01*
X119192667Y-75461962D01*
X119192666Y-75461965D01*
X119134201Y-75743319D01*
X119114592Y-76030000D01*
X105214786Y-76030000D01*
X105214786Y-71392706D01*
X105214904Y-71387298D01*
X105217663Y-71324108D01*
X105231672Y-71003225D01*
X105232611Y-70992495D01*
X105264537Y-70749996D01*
X110494415Y-70749996D01*
X110494415Y-70750003D01*
X110514738Y-71098927D01*
X110514739Y-71098938D01*
X110575428Y-71443127D01*
X110575430Y-71443134D01*
X110675674Y-71777972D01*
X110814107Y-72098895D01*
X110814113Y-72098908D01*
X110988870Y-72401597D01*
X111197584Y-72681949D01*
X111197589Y-72681955D01*
X111321463Y-72813253D01*
X111437442Y-72936183D01*
X111613903Y-73084251D01*
X111705186Y-73160847D01*
X111705194Y-73160853D01*
X111997203Y-73352911D01*
X111997207Y-73352913D01*
X112309549Y-73509777D01*
X112637989Y-73629319D01*
X112978086Y-73709923D01*
X113325241Y-73750500D01*
X113325248Y-73750500D01*
X113674752Y-73750500D01*
X113674759Y-73750500D01*
X114021914Y-73709923D01*
X114362011Y-73629319D01*
X114690451Y-73509777D01*
X115002793Y-73352913D01*
X115294811Y-73160849D01*
X115562558Y-72936183D01*
X115802412Y-72681953D01*
X116011130Y-72401596D01*
X116185889Y-72098904D01*
X116324326Y-71777971D01*
X116424569Y-71443136D01*
X116433939Y-71390000D01*
X116485260Y-71098938D01*
X116485259Y-71098938D01*
X116485262Y-71098927D01*
X116505585Y-70750000D01*
X116505585Y-70749996D01*
X144696651Y-70749996D01*
X144696651Y-70750003D01*
X144716974Y-71098927D01*
X144716975Y-71098938D01*
X144777664Y-71443127D01*
X144777666Y-71443134D01*
X144877910Y-71777972D01*
X145016343Y-72098895D01*
X145016349Y-72098908D01*
X145191106Y-72401597D01*
X145399820Y-72681949D01*
X145399825Y-72681955D01*
X145523699Y-72813253D01*
X145639678Y-72936183D01*
X145816139Y-73084251D01*
X145907422Y-73160847D01*
X145907430Y-73160853D01*
X146199439Y-73352911D01*
X146199443Y-73352913D01*
X146511785Y-73509777D01*
X146840225Y-73629319D01*
X147180322Y-73709923D01*
X147527477Y-73750500D01*
X147527484Y-73750500D01*
X147876988Y-73750500D01*
X147876995Y-73750500D01*
X148224150Y-73709923D01*
X148564247Y-73629319D01*
X148892687Y-73509777D01*
X149205029Y-73352913D01*
X149497047Y-73160849D01*
X149764794Y-72936183D01*
X150004648Y-72681953D01*
X150213366Y-72401596D01*
X150388125Y-72098904D01*
X150526562Y-71777971D01*
X150626805Y-71443136D01*
X150636175Y-71390000D01*
X150687496Y-71098938D01*
X150687495Y-71098938D01*
X150687498Y-71098927D01*
X150707821Y-70750000D01*
X150687498Y-70401073D01*
X150656530Y-70225442D01*
X150626807Y-70056872D01*
X150626805Y-70056865D01*
X150626805Y-70056864D01*
X150526562Y-69722029D01*
X150388125Y-69401096D01*
X150237524Y-69140247D01*
X150213365Y-69098402D01*
X150004651Y-68818050D01*
X150004646Y-68818044D01*
X149888669Y-68695117D01*
X149764794Y-68563817D01*
X149616724Y-68439572D01*
X149497049Y-68339152D01*
X149497041Y-68339146D01*
X149205032Y-68147088D01*
X148892694Y-67990226D01*
X148892688Y-67990223D01*
X148564248Y-67870681D01*
X148564245Y-67870680D01*
X148224151Y-67790077D01*
X148180755Y-67785004D01*
X147876995Y-67749500D01*
X147527477Y-67749500D01*
X147223716Y-67785004D01*
X147180321Y-67790077D01*
X147180319Y-67790077D01*
X146840226Y-67870680D01*
X146840223Y-67870681D01*
X146511783Y-67990223D01*
X146511777Y-67990226D01*
X146199439Y-68147088D01*
X145907430Y-68339146D01*
X145907422Y-68339152D01*
X145639678Y-68563817D01*
X145639676Y-68563819D01*
X145399825Y-68818044D01*
X145399820Y-68818050D01*
X145191106Y-69098402D01*
X145016349Y-69401091D01*
X145016343Y-69401104D01*
X144877910Y-69722027D01*
X144777666Y-70056865D01*
X144777664Y-70056872D01*
X144716975Y-70401061D01*
X144716974Y-70401072D01*
X144696651Y-70749996D01*
X116505585Y-70749996D01*
X116485262Y-70401073D01*
X116454294Y-70225442D01*
X116424571Y-70056872D01*
X116424569Y-70056865D01*
X116424569Y-70056864D01*
X116324326Y-69722029D01*
X116185889Y-69401096D01*
X116035288Y-69140247D01*
X116011129Y-69098402D01*
X115802415Y-68818050D01*
X115802410Y-68818044D01*
X115686433Y-68695117D01*
X115562558Y-68563817D01*
X115414488Y-68439572D01*
X115294813Y-68339152D01*
X115294805Y-68339146D01*
X115002796Y-68147088D01*
X114690458Y-67990226D01*
X114690452Y-67990223D01*
X114362012Y-67870681D01*
X114362009Y-67870680D01*
X114021915Y-67790077D01*
X113978519Y-67785004D01*
X113674759Y-67749500D01*
X113325241Y-67749500D01*
X113021480Y-67785004D01*
X112978085Y-67790077D01*
X112978083Y-67790077D01*
X112637990Y-67870680D01*
X112637987Y-67870681D01*
X112309547Y-67990223D01*
X112309541Y-67990226D01*
X111997203Y-68147088D01*
X111705194Y-68339146D01*
X111705186Y-68339152D01*
X111437442Y-68563817D01*
X111437440Y-68563819D01*
X111197589Y-68818044D01*
X111197584Y-68818050D01*
X110988870Y-69098402D01*
X110814113Y-69401091D01*
X110814107Y-69401104D01*
X110675674Y-69722027D01*
X110575430Y-70056865D01*
X110575428Y-70056872D01*
X110514739Y-70401061D01*
X110514738Y-70401072D01*
X110494415Y-70749996D01*
X105264537Y-70749996D01*
X105282437Y-70614031D01*
X105284310Y-70603401D01*
X105366934Y-70230712D01*
X105369732Y-70220274D01*
X105484516Y-69856225D01*
X105488203Y-69846093D01*
X105634289Y-69493409D01*
X105638847Y-69483635D01*
X105815107Y-69145042D01*
X105820502Y-69135697D01*
X106025611Y-68813740D01*
X106031801Y-68804900D01*
X106264182Y-68502055D01*
X106271120Y-68493786D01*
X106529012Y-68212347D01*
X106536644Y-68204716D01*
X106818080Y-67946826D01*
X106826332Y-67939901D01*
X107129197Y-67707502D01*
X107138036Y-67701314D01*
X107459986Y-67496209D01*
X107469338Y-67490811D01*
X107807916Y-67314557D01*
X107817707Y-67309990D01*
X108170376Y-67163909D01*
X108180511Y-67160220D01*
X108544581Y-67045429D01*
X108554996Y-67042638D01*
X108927693Y-66960012D01*
X108938312Y-66958140D01*
X109316782Y-66908313D01*
X109327516Y-66907373D01*
X109711264Y-66890618D01*
X109716673Y-66890500D01*
X109780180Y-66890500D01*
X152648395Y-66890500D01*
X152711582Y-66890500D01*
X152716989Y-66890617D01*
G37*
%TD.AperFunction*%
%TA.AperFunction,NonConductor*%
G36*
X126216942Y-97120185D02*
G01*
X126237584Y-97136819D01*
X138443339Y-109342574D01*
X138476824Y-109403897D01*
X138471840Y-109473589D01*
X138455977Y-109503140D01*
X138357712Y-109638390D01*
X138279898Y-109791110D01*
X138231923Y-109841906D01*
X138164102Y-109858701D01*
X138097967Y-109836163D01*
X138081732Y-109822496D01*
X131791955Y-103532720D01*
X131791953Y-103532717D01*
X131673082Y-103413846D01*
X131673081Y-103413845D01*
X131578188Y-103359059D01*
X131536150Y-103334788D01*
X131383422Y-103293864D01*
X131225308Y-103293864D01*
X131217712Y-103293864D01*
X131217696Y-103293865D01*
X122095139Y-103293865D01*
X122028100Y-103274180D01*
X121982345Y-103221376D01*
X121972401Y-103152218D01*
X121977208Y-103131546D01*
X121983192Y-103113131D01*
X122018477Y-103004534D01*
X122050500Y-102802352D01*
X122050500Y-102597648D01*
X122042529Y-102547323D01*
X122018477Y-102395465D01*
X121974555Y-102260288D01*
X121955220Y-102200781D01*
X121955218Y-102200778D01*
X121955218Y-102200776D01*
X121893989Y-102080609D01*
X121862287Y-102018390D01*
X121843605Y-101992676D01*
X121741971Y-101852786D01*
X121597213Y-101708028D01*
X121431614Y-101587715D01*
X121425006Y-101584348D01*
X121338917Y-101540483D01*
X121288123Y-101492511D01*
X121271328Y-101424690D01*
X121293865Y-101358555D01*
X121338917Y-101319516D01*
X121431610Y-101272287D01*
X121456933Y-101253889D01*
X121597213Y-101151971D01*
X121597215Y-101151968D01*
X121597219Y-101151966D01*
X121741966Y-101007219D01*
X121741968Y-101007215D01*
X121741971Y-101007213D01*
X121794732Y-100934590D01*
X121862287Y-100841610D01*
X121955220Y-100659219D01*
X122018477Y-100464534D01*
X122050500Y-100262352D01*
X122050500Y-100057648D01*
X122028575Y-99919219D01*
X122018477Y-99855465D01*
X121955218Y-99660776D01*
X121893989Y-99540609D01*
X121862287Y-99478390D01*
X121854556Y-99467749D01*
X121741971Y-99312786D01*
X121597213Y-99168028D01*
X121431614Y-99047715D01*
X121421410Y-99042516D01*
X121338917Y-99000483D01*
X121288123Y-98952511D01*
X121271328Y-98884690D01*
X121293865Y-98818555D01*
X121338917Y-98779516D01*
X121431610Y-98732287D01*
X121467508Y-98706206D01*
X121597213Y-98611971D01*
X121597215Y-98611968D01*
X121597219Y-98611966D01*
X121741966Y-98467219D01*
X121741968Y-98467215D01*
X121741971Y-98467213D01*
X121794732Y-98394590D01*
X121862287Y-98301610D01*
X121955220Y-98119219D01*
X122018477Y-97924534D01*
X122050500Y-97722352D01*
X122050500Y-97517648D01*
X122018477Y-97315466D01*
X122018476Y-97315464D01*
X122001371Y-97262819D01*
X121999376Y-97192977D01*
X122035456Y-97133144D01*
X122098157Y-97102316D01*
X122119302Y-97100500D01*
X126149903Y-97100500D01*
X126216942Y-97120185D01*
G37*
%TD.AperFunction*%
M02*
