%TF.GenerationSoftware,KiCad,Pcbnew,8.0.2*%
%TF.CreationDate,2024-05-18T00:20:58-06:00*%
%TF.ProjectId,VacuumATM_wCoinDispenser,56616375-756d-4415-944d-5f77436f696e,rev?*%
%TF.SameCoordinates,Original*%
%TF.FileFunction,Soldermask,Top*%
%TF.FilePolarity,Negative*%
%FSLAX46Y46*%
G04 Gerber Fmt 4.6, Leading zero omitted, Abs format (unit mm)*
G04 Created by KiCad (PCBNEW 8.0.2) date 2024-05-18 00:20:58*
%MOMM*%
%LPD*%
G01*
G04 APERTURE LIST*
%ADD10C,0.000000*%
%ADD11C,0.300000*%
%ADD12C,0.400000*%
%ADD13C,1.100000*%
%ADD14R,2.200000X2.200000*%
%ADD15C,2.200000*%
%ADD16C,3.200000*%
%ADD17C,2.540000*%
%ADD18R,2.600000X1.600000*%
%ADD19O,2.600000X1.600000*%
%ADD20C,5.000000*%
G04 APERTURE END LIST*
D10*
G36*
X109058819Y-108047601D02*
G01*
X109117453Y-108053307D01*
X109175704Y-108062817D01*
X109233382Y-108076131D01*
X109290293Y-108093249D01*
X109346248Y-108114171D01*
X109401054Y-108138897D01*
X109454521Y-108167427D01*
X109505973Y-108199473D01*
X109554799Y-108234578D01*
X109600903Y-108272576D01*
X109644190Y-108313303D01*
X109684564Y-108356592D01*
X109721929Y-108402280D01*
X109756190Y-108450200D01*
X109787251Y-108500188D01*
X109815016Y-108552077D01*
X109839390Y-108605704D01*
X109860276Y-108660903D01*
X109877579Y-108717509D01*
X109891204Y-108775357D01*
X109901054Y-108834280D01*
X109907035Y-108894115D01*
X109909050Y-108954696D01*
X109909050Y-109863754D01*
X110818107Y-109863754D01*
X110848480Y-109864260D01*
X110878686Y-109865769D01*
X110908706Y-109868269D01*
X110938519Y-109871749D01*
X110968104Y-109876197D01*
X110997440Y-109881600D01*
X111026508Y-109887947D01*
X111055285Y-109895225D01*
X111083753Y-109903423D01*
X111111889Y-109912529D01*
X111139674Y-109922530D01*
X111167086Y-109933415D01*
X111194106Y-109945172D01*
X111220712Y-109957789D01*
X111246883Y-109971254D01*
X111272600Y-109985554D01*
X111297842Y-110000679D01*
X111322587Y-110016616D01*
X111346816Y-110033352D01*
X111370507Y-110050877D01*
X111393641Y-110069178D01*
X111416195Y-110088242D01*
X111438151Y-110108059D01*
X111459486Y-110128617D01*
X111480181Y-110149902D01*
X111500215Y-110171904D01*
X111519567Y-110194610D01*
X111538216Y-110218009D01*
X111556143Y-110242087D01*
X111573325Y-110266835D01*
X111589744Y-110292238D01*
X111605377Y-110318287D01*
X111633907Y-110371754D01*
X111658634Y-110426562D01*
X111679557Y-110482517D01*
X111696675Y-110539429D01*
X111709989Y-110597107D01*
X111719499Y-110655359D01*
X111725206Y-110713993D01*
X111727108Y-110772818D01*
X111725206Y-110831644D01*
X111719499Y-110890278D01*
X111709989Y-110948529D01*
X111696675Y-111006206D01*
X111679557Y-111063117D01*
X111658634Y-111119071D01*
X111633907Y-111173878D01*
X111605377Y-111227344D01*
X111573330Y-111278795D01*
X111538226Y-111327621D01*
X111500228Y-111373725D01*
X111459501Y-111417012D01*
X111416212Y-111457386D01*
X111370525Y-111494751D01*
X111322605Y-111529012D01*
X111272617Y-111560073D01*
X111220728Y-111587838D01*
X111167101Y-111612212D01*
X111111902Y-111633098D01*
X111055296Y-111650402D01*
X110997448Y-111664027D01*
X110938524Y-111673878D01*
X110878689Y-111679858D01*
X110818107Y-111681873D01*
X109909050Y-111681873D01*
X109909050Y-112590931D01*
X109907932Y-112636008D01*
X109904599Y-112680781D01*
X109899082Y-112725173D01*
X109891413Y-112769110D01*
X109881621Y-112812518D01*
X109869739Y-112855322D01*
X109855798Y-112897447D01*
X109839828Y-112938820D01*
X109821860Y-112979364D01*
X109801926Y-113019005D01*
X109780057Y-113057670D01*
X109756284Y-113095282D01*
X109730638Y-113131769D01*
X109703150Y-113167054D01*
X109673851Y-113201063D01*
X109642772Y-113233722D01*
X109610111Y-113264801D01*
X109576100Y-113294100D01*
X109540814Y-113321588D01*
X109504327Y-113347234D01*
X109466714Y-113371008D01*
X109428049Y-113392877D01*
X109388408Y-113412810D01*
X109347864Y-113430778D01*
X109306492Y-113446748D01*
X109264367Y-113460689D01*
X109221564Y-113472571D01*
X109178157Y-113482363D01*
X109134220Y-113490032D01*
X109089829Y-113495549D01*
X109045058Y-113498882D01*
X108999990Y-113499999D01*
X108954922Y-113498882D01*
X108910150Y-113495549D01*
X108865758Y-113490033D01*
X108821820Y-113482363D01*
X108778412Y-113472572D01*
X108735608Y-113460690D01*
X108693483Y-113446749D01*
X108652111Y-113430779D01*
X108611567Y-113412812D01*
X108571926Y-113392878D01*
X108533262Y-113371009D01*
X108495649Y-113347236D01*
X108459164Y-113321590D01*
X108423879Y-113294101D01*
X108389870Y-113264802D01*
X108357212Y-113233722D01*
X108326132Y-113201061D01*
X108296833Y-113167051D01*
X108269344Y-113131764D01*
X108243697Y-113095278D01*
X108219924Y-113057665D01*
X108198055Y-113019000D01*
X108178121Y-112979359D01*
X108160153Y-112938815D01*
X108144183Y-112897444D01*
X108130241Y-112855319D01*
X108118359Y-112812516D01*
X108108568Y-112769109D01*
X108100898Y-112725172D01*
X108095381Y-112680780D01*
X108092048Y-112636008D01*
X108090931Y-112590931D01*
X108090931Y-111681873D01*
X107181873Y-111681873D01*
X107151501Y-111681367D01*
X107121294Y-111679858D01*
X107091274Y-111677358D01*
X107061461Y-111673878D01*
X107031876Y-111669430D01*
X107002540Y-111664027D01*
X106973473Y-111657680D01*
X106944695Y-111650402D01*
X106916228Y-111642204D01*
X106888091Y-111633098D01*
X106860307Y-111623097D01*
X106832894Y-111612212D01*
X106805875Y-111600455D01*
X106779269Y-111587838D01*
X106753097Y-111574374D01*
X106727380Y-111560073D01*
X106702138Y-111544949D01*
X106677393Y-111529012D01*
X106653164Y-111512276D01*
X106629473Y-111494751D01*
X106606340Y-111476451D01*
X106583785Y-111457386D01*
X106561829Y-111437569D01*
X106540494Y-111417012D01*
X106519799Y-111395727D01*
X106499765Y-111373725D01*
X106480413Y-111351019D01*
X106461764Y-111327621D01*
X106443838Y-111303542D01*
X106426655Y-111278795D01*
X106410237Y-111253392D01*
X106394603Y-111227344D01*
X106366073Y-111173876D01*
X106341346Y-111119068D01*
X106320424Y-111063112D01*
X106303305Y-111006199D01*
X106289991Y-110948521D01*
X106280481Y-110890270D01*
X106274775Y-110831635D01*
X106272873Y-110772810D01*
X106274775Y-110713984D01*
X106280481Y-110655351D01*
X106289991Y-110597100D01*
X106303305Y-110539423D01*
X106320424Y-110482512D01*
X106341346Y-110426558D01*
X106366073Y-110371752D01*
X106394603Y-110318287D01*
X106426650Y-110266835D01*
X106461754Y-110218009D01*
X106499753Y-110171904D01*
X106540479Y-110128617D01*
X106583768Y-110088242D01*
X106629455Y-110050877D01*
X106677375Y-110016616D01*
X106727363Y-109985554D01*
X106779252Y-109957789D01*
X106832879Y-109933415D01*
X106888078Y-109912529D01*
X106944684Y-109895225D01*
X107002532Y-109881600D01*
X107061456Y-109871749D01*
X107121291Y-109865769D01*
X107181873Y-109863754D01*
X108090931Y-109863754D01*
X108090931Y-108954696D01*
X108091436Y-108924324D01*
X108092945Y-108894118D01*
X108095446Y-108864099D01*
X108098926Y-108834286D01*
X108103373Y-108804701D01*
X108108777Y-108775365D01*
X108115123Y-108746298D01*
X108122402Y-108717520D01*
X108130599Y-108689053D01*
X108139705Y-108660917D01*
X108149706Y-108633133D01*
X108160592Y-108605720D01*
X108172349Y-108578701D01*
X108184965Y-108552095D01*
X108198430Y-108525923D01*
X108212730Y-108500206D01*
X108227855Y-108474965D01*
X108243791Y-108450219D01*
X108260528Y-108425990D01*
X108278052Y-108402299D01*
X108296353Y-108379166D01*
X108315418Y-108356611D01*
X108335235Y-108334655D01*
X108355792Y-108313320D01*
X108377077Y-108292624D01*
X108399079Y-108272590D01*
X108421784Y-108253238D01*
X108445183Y-108234589D01*
X108469261Y-108216662D01*
X108494008Y-108199479D01*
X108519411Y-108183060D01*
X108545459Y-108167427D01*
X108598927Y-108138897D01*
X108653735Y-108114171D01*
X108709690Y-108093249D01*
X108766603Y-108076131D01*
X108824281Y-108062817D01*
X108882533Y-108053307D01*
X108941167Y-108047601D01*
X108999993Y-108045699D01*
X109058819Y-108047601D01*
G37*
G36*
X109000000Y-113500000D02*
G01*
X108999981Y-113500000D01*
X108999990Y-113499999D01*
X109000000Y-113500000D01*
G37*
G36*
X149043635Y-84411230D02*
G01*
X149088408Y-84414563D01*
X149132800Y-84420079D01*
X149176737Y-84427749D01*
X149220145Y-84437540D01*
X149262949Y-84449422D01*
X149305075Y-84463363D01*
X149346447Y-84479333D01*
X149386991Y-84497300D01*
X149426632Y-84517234D01*
X149465297Y-84539103D01*
X149502910Y-84562876D01*
X149539396Y-84588523D01*
X149574681Y-84616012D01*
X149608690Y-84645312D01*
X149641349Y-84676391D01*
X149672428Y-84709052D01*
X149701726Y-84743062D01*
X149729214Y-84778348D01*
X149754859Y-84814835D01*
X149778632Y-84852447D01*
X149800501Y-84891112D01*
X149820434Y-84930753D01*
X149838401Y-84971297D01*
X149854371Y-85012668D01*
X149868313Y-85054793D01*
X149880195Y-85097596D01*
X149889986Y-85141003D01*
X149897655Y-85184939D01*
X149903172Y-85229330D01*
X149906505Y-85274101D01*
X149907623Y-85319177D01*
X149907623Y-86228239D01*
X150816681Y-86228239D01*
X150847054Y-86228744D01*
X150877261Y-86230253D01*
X150907281Y-86232754D01*
X150937094Y-86236234D01*
X150966680Y-86240681D01*
X150996017Y-86246084D01*
X151025084Y-86252431D01*
X151053862Y-86259709D01*
X151082330Y-86267907D01*
X151110466Y-86277013D01*
X151138251Y-86287014D01*
X151165664Y-86297899D01*
X151192683Y-86309656D01*
X151219289Y-86322272D01*
X151245461Y-86335737D01*
X151271178Y-86350037D01*
X151296419Y-86365162D01*
X151321165Y-86381098D01*
X151345393Y-86397834D01*
X151369084Y-86415359D01*
X151392217Y-86433660D01*
X151414772Y-86452724D01*
X151436727Y-86472541D01*
X151458062Y-86493098D01*
X151478757Y-86514384D01*
X151498790Y-86536385D01*
X151518142Y-86559091D01*
X151536791Y-86582490D01*
X151554717Y-86606568D01*
X151571899Y-86631316D01*
X151588317Y-86656719D01*
X151603950Y-86682768D01*
X151632481Y-86736235D01*
X151657207Y-86791043D01*
X151678130Y-86846999D01*
X151695248Y-86903911D01*
X151708563Y-86961589D01*
X151718073Y-87019841D01*
X151723779Y-87078475D01*
X151725681Y-87137301D01*
X151723779Y-87196127D01*
X151718073Y-87254761D01*
X151708563Y-87313012D01*
X151695248Y-87370689D01*
X151678130Y-87427600D01*
X151657207Y-87483555D01*
X151632481Y-87538361D01*
X151603950Y-87591827D01*
X151571903Y-87643279D01*
X151536798Y-87692105D01*
X151498799Y-87738209D01*
X151458073Y-87781497D01*
X151414783Y-87821871D01*
X151369096Y-87859236D01*
X151321177Y-87893497D01*
X151271189Y-87924558D01*
X151219300Y-87952323D01*
X151165673Y-87976697D01*
X151110474Y-87997584D01*
X151053869Y-88014887D01*
X150996021Y-88028512D01*
X150937098Y-88038362D01*
X150877262Y-88044343D01*
X150816681Y-88046358D01*
X149907623Y-88046358D01*
X149907623Y-88955417D01*
X149907117Y-88985790D01*
X149905608Y-89015996D01*
X149903108Y-89046016D01*
X149899628Y-89075829D01*
X149895180Y-89105414D01*
X149889777Y-89134750D01*
X149883431Y-89163817D01*
X149876153Y-89192595D01*
X149867955Y-89221062D01*
X149858849Y-89249199D01*
X149848848Y-89276983D01*
X149837963Y-89304395D01*
X149826207Y-89331415D01*
X149813590Y-89358021D01*
X149800126Y-89384193D01*
X149785825Y-89409909D01*
X149770701Y-89435151D01*
X149754765Y-89459896D01*
X149738029Y-89484125D01*
X149720505Y-89507816D01*
X149702204Y-89530949D01*
X149683140Y-89553504D01*
X149663323Y-89575459D01*
X149642767Y-89596795D01*
X149621482Y-89617490D01*
X149599480Y-89637523D01*
X149576775Y-89656875D01*
X149553377Y-89675525D01*
X149529299Y-89693451D01*
X149504552Y-89710633D01*
X149479149Y-89727052D01*
X149453102Y-89742685D01*
X149399632Y-89771216D01*
X149344824Y-89795942D01*
X149288868Y-89816865D01*
X149231955Y-89833983D01*
X149174276Y-89847297D01*
X149116024Y-89856808D01*
X149057390Y-89862514D01*
X148998564Y-89864416D01*
X148939739Y-89862514D01*
X148881105Y-89856808D01*
X148822855Y-89847297D01*
X148765178Y-89833983D01*
X148708268Y-89816865D01*
X148652314Y-89795942D01*
X148597509Y-89771216D01*
X148544044Y-89742685D01*
X148492591Y-89710638D01*
X148443764Y-89675533D01*
X148397658Y-89637534D01*
X148354370Y-89596808D01*
X148313996Y-89553518D01*
X148276630Y-89507831D01*
X148242368Y-89459912D01*
X148211307Y-89409924D01*
X148183542Y-89358035D01*
X148159168Y-89304408D01*
X148138282Y-89249210D01*
X148120978Y-89192604D01*
X148107353Y-89134757D01*
X148097503Y-89075834D01*
X148091522Y-89015999D01*
X148089508Y-88955417D01*
X148089508Y-88046358D01*
X147180450Y-88046358D01*
X147150078Y-88045852D01*
X147119871Y-88044343D01*
X147089851Y-88041842D01*
X147060039Y-88038362D01*
X147030454Y-88033915D01*
X147001117Y-88028512D01*
X146972050Y-88022165D01*
X146943273Y-88014887D01*
X146914805Y-88006689D01*
X146886669Y-87997584D01*
X146858885Y-87987582D01*
X146831472Y-87976697D01*
X146804453Y-87964940D01*
X146777847Y-87952323D01*
X146751675Y-87938859D01*
X146725958Y-87924558D01*
X146700717Y-87909434D01*
X146675972Y-87893497D01*
X146651743Y-87876761D01*
X146628052Y-87859236D01*
X146604918Y-87840936D01*
X146582364Y-87821871D01*
X146560408Y-87802054D01*
X146539073Y-87781497D01*
X146518378Y-87760211D01*
X146498344Y-87738209D01*
X146478992Y-87715503D01*
X146460342Y-87692105D01*
X146442416Y-87668026D01*
X146425233Y-87643279D01*
X146408814Y-87617875D01*
X146393180Y-87591827D01*
X146364650Y-87538359D01*
X146339923Y-87483552D01*
X146319001Y-87427596D01*
X146301882Y-87370684D01*
X146288568Y-87313006D01*
X146279058Y-87254754D01*
X146273352Y-87196120D01*
X146271450Y-87137294D01*
X146273352Y-87078469D01*
X146279058Y-87019835D01*
X146288568Y-86961584D01*
X146301882Y-86903906D01*
X146319001Y-86846995D01*
X146339923Y-86791040D01*
X146364650Y-86736234D01*
X146393180Y-86682768D01*
X146425227Y-86631316D01*
X146460333Y-86582490D01*
X146498331Y-86536385D01*
X146539058Y-86493098D01*
X146582347Y-86452724D01*
X146628034Y-86415359D01*
X146675954Y-86381098D01*
X146725941Y-86350037D01*
X146777831Y-86322272D01*
X146831458Y-86297899D01*
X146886656Y-86277013D01*
X146943262Y-86259709D01*
X147001109Y-86246084D01*
X147060033Y-86236234D01*
X147119868Y-86230253D01*
X147180450Y-86228239D01*
X148089508Y-86228239D01*
X148089508Y-85319177D01*
X148090626Y-85274100D01*
X148093958Y-85229328D01*
X148099475Y-85184936D01*
X148107145Y-85140999D01*
X148116936Y-85097591D01*
X148128818Y-85054788D01*
X148142760Y-85012663D01*
X148158730Y-84971291D01*
X148176698Y-84930748D01*
X148196632Y-84891106D01*
X148218501Y-84852442D01*
X148242274Y-84814830D01*
X148267921Y-84778344D01*
X148295410Y-84743060D01*
X148324709Y-84709050D01*
X148355789Y-84676391D01*
X148388449Y-84645312D01*
X148422460Y-84616012D01*
X148457745Y-84588523D01*
X148494232Y-84562876D01*
X148531845Y-84539103D01*
X148570509Y-84517234D01*
X148610151Y-84497300D01*
X148650694Y-84479333D01*
X148692066Y-84463363D01*
X148734191Y-84449422D01*
X148776995Y-84437540D01*
X148820402Y-84427749D01*
X148864339Y-84420079D01*
X148908731Y-84414563D01*
X148953503Y-84411230D01*
X148998569Y-84410112D01*
X149043635Y-84411230D01*
G37*
G36*
X111772217Y-77138756D02*
G01*
X111816989Y-77142088D01*
X111861382Y-77147605D01*
X111905320Y-77155275D01*
X111948728Y-77165066D01*
X111991532Y-77176948D01*
X112033658Y-77190890D01*
X112075030Y-77206860D01*
X112115574Y-77224828D01*
X112155216Y-77244761D01*
X112193880Y-77266630D01*
X112231492Y-77290404D01*
X112267978Y-77316050D01*
X112303263Y-77343539D01*
X112337271Y-77372838D01*
X112369930Y-77403917D01*
X112401009Y-77436578D01*
X112430308Y-77470588D01*
X112457796Y-77505875D01*
X112483442Y-77542361D01*
X112507215Y-77579974D01*
X112529084Y-77618639D01*
X112549018Y-77658281D01*
X112566985Y-77698825D01*
X112582955Y-77740196D01*
X112596897Y-77782321D01*
X112608779Y-77825124D01*
X112618570Y-77868531D01*
X112626240Y-77912468D01*
X112631756Y-77956859D01*
X112635089Y-78001630D01*
X112636207Y-78046707D01*
X112636207Y-78955766D01*
X113545269Y-78955766D01*
X113575641Y-78956272D01*
X113605847Y-78957781D01*
X113635867Y-78960282D01*
X113665680Y-78963762D01*
X113695265Y-78968209D01*
X113724601Y-78973612D01*
X113753669Y-78979959D01*
X113782446Y-78987237D01*
X113810913Y-78995435D01*
X113839049Y-79004541D01*
X113866834Y-79014542D01*
X113894246Y-79025427D01*
X113921266Y-79037184D01*
X113947871Y-79049800D01*
X113974043Y-79063265D01*
X113999760Y-79077566D01*
X114025001Y-79092690D01*
X114049746Y-79108626D01*
X114073975Y-79125363D01*
X114097666Y-79142887D01*
X114120799Y-79161188D01*
X114143354Y-79180253D01*
X114165309Y-79200070D01*
X114186644Y-79220627D01*
X114207339Y-79241912D01*
X114227373Y-79263914D01*
X114246725Y-79286620D01*
X114265374Y-79310018D01*
X114283300Y-79334097D01*
X114300483Y-79358844D01*
X114316901Y-79384247D01*
X114332534Y-79410295D01*
X114361065Y-79463763D01*
X114385792Y-79518571D01*
X114406714Y-79574527D01*
X114423833Y-79631439D01*
X114437147Y-79689117D01*
X114446657Y-79747369D01*
X114452363Y-79806004D01*
X114454265Y-79864829D01*
X114452363Y-79923655D01*
X114446657Y-79982289D01*
X114437147Y-80040540D01*
X114423833Y-80098217D01*
X114406714Y-80155128D01*
X114385792Y-80211082D01*
X114361065Y-80265888D01*
X114332534Y-80319355D01*
X114300487Y-80370806D01*
X114265382Y-80419632D01*
X114227384Y-80465736D01*
X114186657Y-80509023D01*
X114143368Y-80549397D01*
X114097681Y-80586762D01*
X114049761Y-80621023D01*
X113999774Y-80652084D01*
X113947885Y-80679849D01*
X113894258Y-80704223D01*
X113839060Y-80725109D01*
X113782455Y-80742413D01*
X113724608Y-80756038D01*
X113665684Y-80765888D01*
X113605850Y-80771869D01*
X113545269Y-80773883D01*
X112636207Y-80773883D01*
X112636207Y-81682945D01*
X112635702Y-81713317D01*
X112634192Y-81743524D01*
X112631692Y-81773544D01*
X112628212Y-81803356D01*
X112623764Y-81832941D01*
X112618361Y-81862278D01*
X112612015Y-81891345D01*
X112604736Y-81920123D01*
X112596538Y-81948590D01*
X112587433Y-81976726D01*
X112577431Y-82004511D01*
X112566546Y-82031923D01*
X112554789Y-82058943D01*
X112542172Y-82085548D01*
X112528708Y-82111720D01*
X112514407Y-82137437D01*
X112499283Y-82162678D01*
X112483346Y-82187424D01*
X112466610Y-82211652D01*
X112449085Y-82235344D01*
X112430785Y-82258477D01*
X112411720Y-82281031D01*
X112391903Y-82302987D01*
X112371346Y-82324322D01*
X112350061Y-82345017D01*
X112328059Y-82365051D01*
X112305353Y-82384403D01*
X112281955Y-82403052D01*
X112257877Y-82420978D01*
X112233130Y-82438161D01*
X112207726Y-82454579D01*
X112181678Y-82470213D01*
X112128210Y-82498743D01*
X112073403Y-82523470D01*
X112017447Y-82544392D01*
X111960535Y-82561511D01*
X111902857Y-82574825D01*
X111844605Y-82584335D01*
X111785971Y-82590041D01*
X111727145Y-82591943D01*
X111668319Y-82590041D01*
X111609685Y-82584335D01*
X111551433Y-82574825D01*
X111493756Y-82561511D01*
X111436845Y-82544392D01*
X111380890Y-82523470D01*
X111326084Y-82498743D01*
X111272617Y-82470213D01*
X111221166Y-82438166D01*
X111172340Y-82403061D01*
X111126236Y-82365063D01*
X111082949Y-82324336D01*
X111042575Y-82281047D01*
X111005210Y-82235360D01*
X110970949Y-82187440D01*
X110939888Y-82137453D01*
X110912123Y-82085563D01*
X110887749Y-82031937D01*
X110866863Y-81976738D01*
X110849559Y-81920132D01*
X110835934Y-81862285D01*
X110826084Y-81803361D01*
X110820103Y-81743526D01*
X110818088Y-81682945D01*
X110818088Y-80773885D01*
X109909031Y-80773885D01*
X109878658Y-80773380D01*
X109848452Y-80771871D01*
X109818432Y-80769370D01*
X109788619Y-80765890D01*
X109759034Y-80761443D01*
X109729698Y-80756040D01*
X109700630Y-80749693D01*
X109671853Y-80742415D01*
X109643385Y-80734217D01*
X109615249Y-80725111D01*
X109587464Y-80715110D01*
X109560052Y-80704225D01*
X109533032Y-80692468D01*
X109506426Y-80679851D01*
X109480254Y-80666387D01*
X109454537Y-80652086D01*
X109429296Y-80636962D01*
X109404551Y-80621025D01*
X109380322Y-80604289D01*
X109356631Y-80586764D01*
X109333497Y-80568464D01*
X109310943Y-80549399D01*
X109288987Y-80529582D01*
X109267652Y-80509025D01*
X109246957Y-80487740D01*
X109226923Y-80465738D01*
X109207571Y-80443032D01*
X109188921Y-80419634D01*
X109170995Y-80395555D01*
X109153812Y-80370808D01*
X109137394Y-80345405D01*
X109121761Y-80319357D01*
X109093230Y-80265888D01*
X109068504Y-80211081D01*
X109047581Y-80155125D01*
X109030463Y-80098212D01*
X109017149Y-80040534D01*
X109007638Y-79982283D01*
X109001932Y-79923648D01*
X109000030Y-79864823D01*
X109001932Y-79805997D01*
X109007638Y-79747363D01*
X109017149Y-79689112D01*
X109030463Y-79631435D01*
X109047581Y-79574524D01*
X109068504Y-79518569D01*
X109093230Y-79463763D01*
X109121761Y-79410297D01*
X109153808Y-79358845D01*
X109188913Y-79310020D01*
X109226912Y-79263915D01*
X109267638Y-79220628D01*
X109310928Y-79180254D01*
X109356615Y-79142889D01*
X109404535Y-79108628D01*
X109454522Y-79077567D01*
X109506411Y-79049801D01*
X109560038Y-79025428D01*
X109615237Y-79004541D01*
X109671842Y-78987237D01*
X109729690Y-78973612D01*
X109788614Y-78963762D01*
X109848449Y-78957781D01*
X109909031Y-78955766D01*
X110818088Y-78955766D01*
X110818088Y-78046707D01*
X110819206Y-78001629D01*
X110822539Y-77956858D01*
X110828056Y-77912466D01*
X110835725Y-77868529D01*
X110845517Y-77825121D01*
X110857399Y-77782317D01*
X110871340Y-77740192D01*
X110887311Y-77698821D01*
X110905278Y-77658277D01*
X110925212Y-77618635D01*
X110947081Y-77579971D01*
X110970855Y-77542358D01*
X110996502Y-77505872D01*
X111023990Y-77470587D01*
X111053290Y-77436578D01*
X111084369Y-77403919D01*
X111117030Y-77372839D01*
X111151040Y-77343540D01*
X111186326Y-77316051D01*
X111222812Y-77290405D01*
X111260425Y-77266631D01*
X111299089Y-77244762D01*
X111338731Y-77224828D01*
X111379274Y-77206860D01*
X111420646Y-77190890D01*
X111462771Y-77176948D01*
X111505574Y-77165066D01*
X111548981Y-77155275D01*
X111592918Y-77147605D01*
X111637309Y-77142088D01*
X111682080Y-77138756D01*
X111727148Y-77137638D01*
X111772217Y-77138756D01*
G37*
G36*
X147241626Y-115317693D02*
G01*
X147300354Y-115323584D01*
X147358467Y-115333248D01*
X147415781Y-115346636D01*
X147472109Y-115363699D01*
X147527267Y-115384389D01*
X147581070Y-115408656D01*
X147633330Y-115436452D01*
X147683864Y-115467728D01*
X147732485Y-115502435D01*
X147779009Y-115540524D01*
X147823249Y-115581947D01*
X154186668Y-121945362D01*
X154217746Y-121978023D01*
X154247045Y-122012034D01*
X154274532Y-122047320D01*
X154300178Y-122083806D01*
X154323951Y-122121419D01*
X154345819Y-122160084D01*
X154365753Y-122199725D01*
X154383720Y-122240269D01*
X154399690Y-122281640D01*
X154413631Y-122323765D01*
X154425513Y-122366568D01*
X154435304Y-122409976D01*
X154442974Y-122453912D01*
X154448491Y-122498304D01*
X154451824Y-122543076D01*
X154452942Y-122588154D01*
X154451824Y-122633232D01*
X154448491Y-122678006D01*
X154442974Y-122722398D01*
X154435304Y-122766336D01*
X154425513Y-122809744D01*
X154413631Y-122852548D01*
X154399690Y-122894674D01*
X154383720Y-122936045D01*
X154365753Y-122976589D01*
X154345819Y-123016230D01*
X154323951Y-123054894D01*
X154300178Y-123092506D01*
X154274532Y-123128992D01*
X154247045Y-123164277D01*
X154217746Y-123198286D01*
X154186668Y-123230945D01*
X154154006Y-123262025D01*
X154119995Y-123291324D01*
X154084708Y-123318813D01*
X154048220Y-123344460D01*
X154010607Y-123368233D01*
X153971942Y-123390102D01*
X153932300Y-123410036D01*
X153891756Y-123428004D01*
X153850384Y-123443974D01*
X153808259Y-123457916D01*
X153765455Y-123469798D01*
X153722047Y-123479589D01*
X153678110Y-123487259D01*
X153633718Y-123492776D01*
X153588946Y-123496109D01*
X153543869Y-123497226D01*
X153543871Y-123497224D01*
X153543874Y-123497221D01*
X153543876Y-123497219D01*
X153543879Y-123497217D01*
X153543887Y-123497211D01*
X153543888Y-123497210D01*
X153543890Y-123497208D01*
X153543891Y-123497207D01*
X153543892Y-123497207D01*
X153543893Y-123497206D01*
X153543893Y-123497205D01*
X153543894Y-123497204D01*
X153543895Y-123497203D01*
X153543896Y-123497202D01*
X153543896Y-123497201D01*
X153543897Y-123497200D01*
X153543898Y-123497199D01*
X153543898Y-123497197D01*
X153543899Y-123497196D01*
X153498819Y-123496145D01*
X153454042Y-123492870D01*
X153409641Y-123487403D01*
X153365694Y-123479773D01*
X153322275Y-123470013D01*
X153279460Y-123458154D01*
X153237324Y-123444225D01*
X153195942Y-123428260D01*
X153155391Y-123410287D01*
X153115746Y-123390340D01*
X153077081Y-123368448D01*
X153039473Y-123344644D01*
X153002997Y-123318957D01*
X152967728Y-123291419D01*
X152933743Y-123262061D01*
X152901115Y-123230915D01*
X146537696Y-116867504D01*
X146496273Y-116823265D01*
X146458183Y-116776744D01*
X146423475Y-116728124D01*
X146392198Y-116677593D01*
X146364401Y-116625335D01*
X146340133Y-116571535D01*
X146319443Y-116516379D01*
X146302379Y-116460053D01*
X146288991Y-116402740D01*
X146279327Y-116344628D01*
X146273435Y-116285900D01*
X146271366Y-116226743D01*
X146273167Y-116167341D01*
X146278888Y-116107881D01*
X146288577Y-116048547D01*
X146302284Y-115989525D01*
X146319920Y-115931510D01*
X146341193Y-115875242D01*
X146365968Y-115820856D01*
X146394109Y-115768487D01*
X146425482Y-115718269D01*
X146459952Y-115670339D01*
X146497383Y-115624830D01*
X146537641Y-115581879D01*
X146580591Y-115541620D01*
X146626097Y-115504188D01*
X146674026Y-115469719D01*
X146724240Y-115438347D01*
X146776607Y-115410208D01*
X146830990Y-115385437D01*
X146887255Y-115364169D01*
X146945266Y-115346538D01*
X147004283Y-115332833D01*
X147063613Y-115323145D01*
X147123070Y-115317424D01*
X147182470Y-115315623D01*
X147241626Y-115317693D01*
G37*
G36*
X148150296Y-109865678D02*
G01*
X148209022Y-109871569D01*
X148267135Y-109881233D01*
X148324448Y-109894622D01*
X148380777Y-109911685D01*
X148435935Y-109932375D01*
X148489737Y-109956642D01*
X148541999Y-109984438D01*
X148592534Y-110015715D01*
X148641157Y-110050422D01*
X148687683Y-110088512D01*
X148731926Y-110129936D01*
X155095329Y-116493351D01*
X155136753Y-116537589D01*
X155174843Y-116584110D01*
X155209551Y-116632729D01*
X155240827Y-116683260D01*
X155268624Y-116735519D01*
X155292892Y-116789319D01*
X155313582Y-116844475D01*
X155330646Y-116900802D01*
X155344035Y-116958115D01*
X155353699Y-117016228D01*
X155359590Y-117074957D01*
X155361659Y-117134114D01*
X155359858Y-117193516D01*
X155354137Y-117252977D01*
X155344448Y-117312311D01*
X155330741Y-117371334D01*
X155313107Y-117429348D01*
X155291835Y-117485616D01*
X155267061Y-117540002D01*
X155238921Y-117592372D01*
X155207548Y-117642589D01*
X155173079Y-117690520D01*
X155135648Y-117736028D01*
X155095390Y-117778979D01*
X155052440Y-117819239D01*
X155006933Y-117856670D01*
X154959005Y-117891139D01*
X154908789Y-117922511D01*
X154856422Y-117950650D01*
X154802038Y-117975421D01*
X154745772Y-117996690D01*
X154687759Y-118014320D01*
X154628743Y-118028025D01*
X154569413Y-118037713D01*
X154509957Y-118043433D01*
X154450558Y-118045234D01*
X154391402Y-118043164D01*
X154332676Y-118037273D01*
X154274563Y-118027608D01*
X154217250Y-118014220D01*
X154160922Y-117997156D01*
X154105765Y-117976466D01*
X154051963Y-117952198D01*
X153999702Y-117924402D01*
X153949167Y-117893125D01*
X153900544Y-117858417D01*
X153854019Y-117820327D01*
X153809776Y-117778904D01*
X147446365Y-111415493D01*
X147404941Y-111371255D01*
X147366851Y-111324733D01*
X147332143Y-111276114D01*
X147300866Y-111225583D01*
X147273070Y-111173325D01*
X147248802Y-111119525D01*
X147228112Y-111064368D01*
X147211048Y-111008041D01*
X147197659Y-110950728D01*
X147187995Y-110892615D01*
X147182104Y-110833887D01*
X147180034Y-110774729D01*
X147181836Y-110715327D01*
X147187557Y-110655866D01*
X147197246Y-110596532D01*
X147210952Y-110537510D01*
X147228588Y-110479495D01*
X147249861Y-110423227D01*
X147274635Y-110368841D01*
X147302776Y-110316472D01*
X147334149Y-110266254D01*
X147368619Y-110218324D01*
X147406050Y-110172815D01*
X147446308Y-110129864D01*
X147489258Y-110089605D01*
X147534764Y-110052173D01*
X147582693Y-110017704D01*
X147632909Y-109986332D01*
X147685277Y-109958193D01*
X147739661Y-109933422D01*
X147795928Y-109912154D01*
X147853942Y-109894523D01*
X147912958Y-109880818D01*
X147972286Y-109871130D01*
X148031742Y-109865410D01*
X148091140Y-109863609D01*
X148150296Y-109865678D01*
G37*
G36*
X138136591Y-71684619D02*
G01*
X138183458Y-71688261D01*
X138230132Y-71694331D01*
X138276517Y-71702829D01*
X138322515Y-71713755D01*
X138368031Y-71727109D01*
X138412968Y-71742891D01*
X138457229Y-71761100D01*
X138500471Y-71781582D01*
X138542374Y-71804197D01*
X138582872Y-71828875D01*
X138621901Y-71855545D01*
X138659395Y-71884134D01*
X138695289Y-71914571D01*
X138729519Y-71946784D01*
X138762018Y-71980703D01*
X138792721Y-72016255D01*
X138821564Y-72053368D01*
X138848481Y-72091972D01*
X138873407Y-72131994D01*
X138896277Y-72173364D01*
X138917025Y-72216009D01*
X138935587Y-72259858D01*
X138951896Y-72304840D01*
X139050352Y-72571748D01*
X139163501Y-72830890D01*
X139290851Y-73081771D01*
X139431904Y-73323895D01*
X139586168Y-73556766D01*
X139753146Y-73779891D01*
X139932344Y-73992773D01*
X140123268Y-74194918D01*
X140325421Y-74385830D01*
X140538310Y-74565015D01*
X140761440Y-74731977D01*
X140994315Y-74886221D01*
X141236441Y-75027251D01*
X141487322Y-75154574D01*
X141746465Y-75267693D01*
X142013374Y-75366113D01*
X142058392Y-75382422D01*
X142102274Y-75400984D01*
X142144948Y-75421732D01*
X142186342Y-75444601D01*
X142226387Y-75469528D01*
X142265012Y-75496445D01*
X142302144Y-75525288D01*
X142337714Y-75555993D01*
X142371650Y-75588492D01*
X142403881Y-75622722D01*
X142434337Y-75658617D01*
X142462945Y-75696112D01*
X142489637Y-75735142D01*
X142514339Y-75775641D01*
X142536982Y-75817544D01*
X142557495Y-75860786D01*
X142575706Y-75905080D01*
X142591488Y-75950046D01*
X142604843Y-75995588D01*
X142615769Y-76041611D01*
X142624268Y-76088017D01*
X142630338Y-76134711D01*
X142633980Y-76181598D01*
X142635194Y-76228580D01*
X142633980Y-76275563D01*
X142630338Y-76322449D01*
X142624268Y-76369143D01*
X142615769Y-76415550D01*
X142604843Y-76461572D01*
X142591488Y-76507114D01*
X142575706Y-76552080D01*
X142557495Y-76596374D01*
X142536978Y-76639616D01*
X142514332Y-76681518D01*
X142489626Y-76722016D01*
X142462933Y-76761045D01*
X142434322Y-76798539D01*
X142403865Y-76834434D01*
X142371633Y-76868663D01*
X142337697Y-76901163D01*
X142302127Y-76931867D01*
X142264996Y-76960710D01*
X142226373Y-76987628D01*
X142186330Y-77012554D01*
X142144937Y-77035425D01*
X142102266Y-77056174D01*
X142058388Y-77074736D01*
X142013374Y-77091047D01*
X141746465Y-77189467D01*
X141487322Y-77302587D01*
X141236441Y-77429909D01*
X140994315Y-77570940D01*
X140761440Y-77725184D01*
X140538310Y-77892146D01*
X140325421Y-78071330D01*
X140123268Y-78262243D01*
X139932344Y-78464388D01*
X139753146Y-78677270D01*
X139586168Y-78900395D01*
X139431904Y-79133266D01*
X139290851Y-79375390D01*
X139163501Y-79626270D01*
X139050352Y-79885412D01*
X138951896Y-80152321D01*
X138935588Y-80197304D01*
X138917027Y-80241154D01*
X138896280Y-80283801D01*
X138873410Y-80325171D01*
X138848485Y-80365194D01*
X138821568Y-80403799D01*
X138792725Y-80440913D01*
X138762021Y-80476464D01*
X138729521Y-80510383D01*
X138695292Y-80542596D01*
X138659397Y-80573032D01*
X138621902Y-80601620D01*
X138582873Y-80628288D01*
X138542374Y-80652965D01*
X138500471Y-80675579D01*
X138457229Y-80696058D01*
X138412969Y-80714268D01*
X138368034Y-80730050D01*
X138322518Y-80743404D01*
X138276520Y-80754331D01*
X138230136Y-80762829D01*
X138183461Y-80768899D01*
X138136594Y-80772541D01*
X138089630Y-80773755D01*
X138042666Y-80772541D01*
X137995798Y-80768899D01*
X137949124Y-80762829D01*
X137902739Y-80754331D01*
X137856741Y-80743404D01*
X137811226Y-80730050D01*
X137766290Y-80714268D01*
X137722030Y-80696058D01*
X137678787Y-80675577D01*
X137636884Y-80652962D01*
X137596385Y-80628284D01*
X137557355Y-80601615D01*
X137519861Y-80573026D01*
X137483966Y-80542589D01*
X137449737Y-80510376D01*
X137417238Y-80476457D01*
X137386534Y-80440906D01*
X137357691Y-80403792D01*
X137330774Y-80365188D01*
X137305848Y-80325166D01*
X137282978Y-80283796D01*
X137262229Y-80241151D01*
X137243666Y-80197302D01*
X137227356Y-80152321D01*
X137128900Y-79885412D01*
X137015751Y-79626270D01*
X136888402Y-79375390D01*
X136747349Y-79133266D01*
X136593086Y-78900395D01*
X136426108Y-78677270D01*
X136246911Y-78464388D01*
X136055988Y-78262243D01*
X135853835Y-78071330D01*
X135640947Y-77892146D01*
X135417818Y-77725184D01*
X135184944Y-77570940D01*
X134942818Y-77429909D01*
X134691937Y-77302587D01*
X134432794Y-77189467D01*
X134165886Y-77091047D01*
X134120866Y-77074738D01*
X134076983Y-77056177D01*
X134034309Y-77035429D01*
X133992914Y-77012559D01*
X133952868Y-76987633D01*
X133914244Y-76960715D01*
X133877112Y-76931872D01*
X133841542Y-76901168D01*
X133807606Y-76868668D01*
X133775375Y-76834438D01*
X133744919Y-76798543D01*
X133716310Y-76761048D01*
X133689618Y-76722018D01*
X133664915Y-76681520D01*
X133642271Y-76639616D01*
X133621757Y-76596374D01*
X133603548Y-76552080D01*
X133587766Y-76507114D01*
X133574412Y-76461572D01*
X133563487Y-76415550D01*
X133554989Y-76369143D01*
X133548919Y-76322449D01*
X133545277Y-76275563D01*
X133544063Y-76228580D01*
X133544066Y-76228483D01*
X136449737Y-76228483D01*
X136568286Y-76313676D01*
X136684864Y-76401347D01*
X136799434Y-76491459D01*
X136911961Y-76583976D01*
X137022407Y-76678861D01*
X137130737Y-76776079D01*
X137236914Y-76875593D01*
X137340902Y-76977367D01*
X137442664Y-77081364D01*
X137542164Y-77187550D01*
X137639365Y-77295886D01*
X137734232Y-77406338D01*
X137826727Y-77518869D01*
X137916815Y-77633442D01*
X138004459Y-77750022D01*
X138089622Y-77868572D01*
X138174782Y-77750022D01*
X138262423Y-77633443D01*
X138352509Y-77518870D01*
X138445004Y-77406341D01*
X138539871Y-77295890D01*
X138637073Y-77187555D01*
X138736574Y-77081370D01*
X138838338Y-76977374D01*
X138942329Y-76875601D01*
X139048508Y-76776087D01*
X139156841Y-76678869D01*
X139267290Y-76583984D01*
X139379819Y-76491466D01*
X139494392Y-76401353D01*
X139610972Y-76313680D01*
X139729522Y-76228483D01*
X139610972Y-76143290D01*
X139494393Y-76055619D01*
X139379822Y-75965508D01*
X139267294Y-75872991D01*
X139156847Y-75778106D01*
X139048516Y-75680888D01*
X138942338Y-75581374D01*
X138838350Y-75479600D01*
X138736587Y-75375602D01*
X138637086Y-75269417D01*
X138539884Y-75161081D01*
X138445017Y-75050629D01*
X138352520Y-74938098D01*
X138262432Y-74823525D01*
X138174787Y-74706946D01*
X138089622Y-74588396D01*
X138004464Y-74706945D01*
X137916824Y-74823524D01*
X137826739Y-74938097D01*
X137734245Y-75050626D01*
X137639379Y-75161077D01*
X137542177Y-75269412D01*
X137442677Y-75375596D01*
X137340913Y-75479593D01*
X137236924Y-75581366D01*
X137130745Y-75680880D01*
X137022413Y-75778097D01*
X136911965Y-75872983D01*
X136799437Y-75965500D01*
X136684865Y-76055614D01*
X136568286Y-76143287D01*
X136449737Y-76228483D01*
X133544066Y-76228483D01*
X133545277Y-76181598D01*
X133548919Y-76134711D01*
X133554989Y-76088017D01*
X133563487Y-76041611D01*
X133574412Y-75995588D01*
X133587766Y-75950046D01*
X133603548Y-75905080D01*
X133621757Y-75860786D01*
X133642275Y-75817545D01*
X133664922Y-75775642D01*
X133689629Y-75735144D01*
X133716323Y-75696115D01*
X133744934Y-75658621D01*
X133775391Y-75622726D01*
X133807623Y-75588497D01*
X133841559Y-75555998D01*
X133877128Y-75525294D01*
X133914260Y-75496450D01*
X133952883Y-75469533D01*
X133992927Y-75444606D01*
X134034319Y-75421736D01*
X134076991Y-75400986D01*
X134120870Y-75382424D01*
X134165886Y-75366113D01*
X134432794Y-75267693D01*
X134691937Y-75154574D01*
X134942818Y-75027251D01*
X135184944Y-74886221D01*
X135417818Y-74731977D01*
X135640947Y-74565015D01*
X135853835Y-74385830D01*
X136055988Y-74194918D01*
X136246911Y-73992773D01*
X136426108Y-73779891D01*
X136593086Y-73556766D01*
X136747349Y-73323895D01*
X136888402Y-73081771D01*
X137015751Y-72830890D01*
X137128900Y-72571748D01*
X137227356Y-72304840D01*
X137243664Y-72259857D01*
X137262225Y-72216006D01*
X137282972Y-72173360D01*
X137305842Y-72131989D01*
X137330767Y-72091966D01*
X137357685Y-72053361D01*
X137386528Y-72016248D01*
X137417232Y-71980696D01*
X137449732Y-71946777D01*
X137483962Y-71914564D01*
X137519858Y-71884128D01*
X137557353Y-71855539D01*
X137596383Y-71828871D01*
X137636883Y-71804194D01*
X137678787Y-71781580D01*
X137722030Y-71761100D01*
X137766290Y-71742891D01*
X137811226Y-71727109D01*
X137856740Y-71713755D01*
X137902738Y-71702829D01*
X137949122Y-71694331D01*
X137995796Y-71688261D01*
X138042663Y-71684619D01*
X138089627Y-71683405D01*
X138136591Y-71684619D01*
G37*
G36*
X126315406Y-75320457D02*
G01*
X126363030Y-75323868D01*
X126410178Y-75329739D01*
X126456765Y-75338029D01*
X126502706Y-75348694D01*
X126547915Y-75361691D01*
X126592308Y-75376979D01*
X126635800Y-75394513D01*
X126678304Y-75414252D01*
X126719736Y-75436152D01*
X126760011Y-75460172D01*
X126799044Y-75486268D01*
X126836749Y-75514397D01*
X126873041Y-75544517D01*
X126907836Y-75576585D01*
X126941048Y-75610558D01*
X126972591Y-75646394D01*
X136010337Y-86491592D01*
X146855529Y-95529815D01*
X146891398Y-95561359D01*
X146925395Y-95594570D01*
X146957480Y-95629364D01*
X146987610Y-95665656D01*
X147015743Y-95703358D01*
X147041838Y-95742387D01*
X147065853Y-95782657D01*
X147087745Y-95824082D01*
X147107474Y-95866577D01*
X147124997Y-95910056D01*
X147140271Y-95954434D01*
X147153257Y-95999625D01*
X147163911Y-96045544D01*
X147172191Y-96092105D01*
X147178056Y-96139223D01*
X147181465Y-96186813D01*
X147182373Y-96234546D01*
X147180791Y-96282031D01*
X147176752Y-96329177D01*
X147170290Y-96375896D01*
X147161441Y-96422099D01*
X147150238Y-96467695D01*
X147136715Y-96512596D01*
X147120908Y-96556712D01*
X147102851Y-96599954D01*
X147082578Y-96642233D01*
X147060123Y-96683459D01*
X147035520Y-96723543D01*
X147008805Y-96762395D01*
X146980012Y-96799927D01*
X146949175Y-96836048D01*
X146916328Y-96870670D01*
X144831932Y-98955055D01*
X156006820Y-110129936D01*
X156006683Y-110130068D01*
X156006614Y-110130135D01*
X156006546Y-110130203D01*
X156047969Y-110174441D01*
X156086059Y-110220962D01*
X156120767Y-110269580D01*
X156152043Y-110320111D01*
X156179839Y-110372368D01*
X156204107Y-110426168D01*
X156224797Y-110481323D01*
X156241860Y-110537650D01*
X156255248Y-110594962D01*
X156264912Y-110653075D01*
X156270803Y-110711803D01*
X156272873Y-110770960D01*
X156271072Y-110830362D01*
X156265352Y-110889823D01*
X156255663Y-110949159D01*
X156241958Y-111008182D01*
X156224322Y-111066197D01*
X156203049Y-111122464D01*
X156178275Y-111176851D01*
X156150133Y-111229220D01*
X156118760Y-111279438D01*
X156084290Y-111327368D01*
X156046859Y-111372877D01*
X156006601Y-111415828D01*
X155963651Y-111456087D01*
X155918145Y-111493519D01*
X155870216Y-111527988D01*
X155820002Y-111559360D01*
X155767635Y-111587499D01*
X155713252Y-111612270D01*
X155656987Y-111633538D01*
X155598976Y-111651168D01*
X155539959Y-111664874D01*
X155480630Y-111674562D01*
X155421173Y-111680282D01*
X155361773Y-111682083D01*
X155302618Y-111680014D01*
X155243891Y-111674122D01*
X155185778Y-111664458D01*
X155128464Y-111651070D01*
X155072136Y-111634007D01*
X155016978Y-111613317D01*
X154963176Y-111589050D01*
X154910915Y-111561253D01*
X154860381Y-111529977D01*
X154811759Y-111495269D01*
X154765234Y-111457179D01*
X154720993Y-111415756D01*
X143546112Y-100240879D01*
X143546112Y-111681926D01*
X143545786Y-111706234D01*
X143544811Y-111730497D01*
X143543190Y-111754702D01*
X143540925Y-111778838D01*
X143538021Y-111802890D01*
X143534479Y-111826845D01*
X143530302Y-111850692D01*
X143525495Y-111874416D01*
X143520060Y-111898004D01*
X143513999Y-111921444D01*
X143507316Y-111944723D01*
X143500014Y-111967827D01*
X143492096Y-111990743D01*
X143483565Y-112013460D01*
X143474424Y-112035962D01*
X143464676Y-112058239D01*
X141168563Y-117109218D01*
X145097969Y-121038627D01*
X145139394Y-121082865D01*
X145177485Y-121129386D01*
X145212194Y-121178005D01*
X145243472Y-121228536D01*
X145271269Y-121280794D01*
X145295538Y-121334594D01*
X145316228Y-121389750D01*
X145333293Y-121446078D01*
X145346681Y-121503390D01*
X145356346Y-121561503D01*
X145362237Y-121620232D01*
X145364307Y-121679389D01*
X145362505Y-121738791D01*
X145356785Y-121798253D01*
X145347095Y-121857587D01*
X145333389Y-121916610D01*
X145315753Y-121974625D01*
X145294480Y-122030892D01*
X145269705Y-122085278D01*
X145241564Y-122137648D01*
X145210191Y-122187865D01*
X145175721Y-122235795D01*
X145138289Y-122281304D01*
X145098031Y-122324255D01*
X145055080Y-122364514D01*
X145009573Y-122401945D01*
X144961645Y-122436414D01*
X144911429Y-122467786D01*
X144859062Y-122495925D01*
X144804678Y-122520697D01*
X144748412Y-122541966D01*
X144690399Y-122559597D01*
X144631382Y-122573302D01*
X144572053Y-122582990D01*
X144512596Y-122588710D01*
X144453198Y-122590511D01*
X144394042Y-122588442D01*
X144335316Y-122582550D01*
X144277204Y-122572886D01*
X144219891Y-122559498D01*
X144163564Y-122542434D01*
X144108406Y-122521744D01*
X144054605Y-122497477D01*
X144002345Y-122469680D01*
X143951811Y-122438403D01*
X143903189Y-122403695D01*
X143856665Y-122365605D01*
X143812423Y-122324180D01*
X140365173Y-118876934D01*
X139000808Y-121878132D01*
X139000808Y-125317585D01*
X138999691Y-125362662D01*
X138996358Y-125407435D01*
X138990841Y-125451827D01*
X138983172Y-125495764D01*
X138973381Y-125539172D01*
X138961500Y-125581976D01*
X138947559Y-125624101D01*
X138931589Y-125665473D01*
X138913621Y-125706016D01*
X138893688Y-125745658D01*
X138871818Y-125784321D01*
X138848045Y-125821933D01*
X138822398Y-125858419D01*
X138794908Y-125893703D01*
X138765608Y-125927711D01*
X138734527Y-125960369D01*
X138701867Y-125991448D01*
X138667856Y-126020748D01*
X138632571Y-126048237D01*
X138596084Y-126073883D01*
X138558472Y-126097657D01*
X138519807Y-126119526D01*
X138480166Y-126139460D01*
X138439622Y-126157427D01*
X138398251Y-126173398D01*
X138356127Y-126187339D01*
X138313324Y-126199221D01*
X138269917Y-126209013D01*
X138225981Y-126216682D01*
X138181590Y-126222199D01*
X138136819Y-126225532D01*
X138091743Y-126226650D01*
X125364910Y-126226650D01*
X125319832Y-126225532D01*
X125275060Y-126222199D01*
X125230668Y-126216682D01*
X125186731Y-126209013D01*
X125143324Y-126199221D01*
X125100521Y-126187339D01*
X125058396Y-126173398D01*
X125017025Y-126157427D01*
X124976481Y-126139460D01*
X124936840Y-126119526D01*
X124898176Y-126097657D01*
X124860564Y-126073883D01*
X124824079Y-126048237D01*
X124788794Y-126020748D01*
X124754785Y-125991448D01*
X124722126Y-125960369D01*
X124691045Y-125927708D01*
X124661745Y-125893698D01*
X124634256Y-125858412D01*
X124608609Y-125821925D01*
X124584835Y-125784312D01*
X124562966Y-125745647D01*
X124543031Y-125706005D01*
X124525064Y-125665461D01*
X124509093Y-125624090D01*
X124495151Y-125581965D01*
X124483269Y-125539162D01*
X124473478Y-125495755D01*
X124465808Y-125451820D01*
X124460291Y-125407430D01*
X124456959Y-125362660D01*
X124455841Y-125317585D01*
X124455841Y-121956535D01*
X119154213Y-114004329D01*
X119136113Y-113976016D01*
X119119107Y-113947126D01*
X119103205Y-113917691D01*
X119088416Y-113887744D01*
X119074752Y-113857315D01*
X119062222Y-113826438D01*
X119050836Y-113795144D01*
X119040605Y-113763465D01*
X119031540Y-113731432D01*
X119023649Y-113699079D01*
X119016945Y-113666436D01*
X119011436Y-113633536D01*
X119007134Y-113600411D01*
X119004048Y-113567093D01*
X119002189Y-113533613D01*
X119001567Y-113500004D01*
X119001567Y-113225185D01*
X120819828Y-113225185D01*
X126121460Y-121177391D01*
X126139558Y-121205704D01*
X126156564Y-121234594D01*
X126172466Y-121264028D01*
X126187255Y-121293975D01*
X126200920Y-121324403D01*
X126213450Y-121355280D01*
X126224836Y-121386573D01*
X126235067Y-121418252D01*
X126244134Y-121450283D01*
X126252024Y-121482636D01*
X126258729Y-121515278D01*
X126264238Y-121548177D01*
X126268541Y-121581302D01*
X126271627Y-121614620D01*
X126273486Y-121648100D01*
X126274109Y-121681709D01*
X126274109Y-124408886D01*
X137182808Y-124408886D01*
X137182808Y-121681709D01*
X137183133Y-121657402D01*
X137184108Y-121633140D01*
X137185730Y-121608934D01*
X137187995Y-121584799D01*
X137190900Y-121560747D01*
X137194443Y-121536792D01*
X137198620Y-121512945D01*
X137203428Y-121489221D01*
X137208864Y-121465633D01*
X137214925Y-121442192D01*
X137221609Y-121418913D01*
X137228912Y-121395809D01*
X137236830Y-121372892D01*
X137245362Y-121350176D01*
X137254503Y-121327673D01*
X137264251Y-121305397D01*
X141728096Y-111485130D01*
X141727943Y-99410152D01*
X141727185Y-99364603D01*
X141724922Y-99319302D01*
X141721173Y-99274278D01*
X141715955Y-99229564D01*
X141709286Y-99185190D01*
X141701185Y-99141187D01*
X141691668Y-99097588D01*
X141680755Y-99054421D01*
X141668462Y-99011719D01*
X141654807Y-98969514D01*
X141639809Y-98927835D01*
X141623486Y-98886714D01*
X141605855Y-98846182D01*
X141586933Y-98806270D01*
X141566740Y-98767009D01*
X141545293Y-98728431D01*
X141522610Y-98690566D01*
X141498709Y-98653446D01*
X141473607Y-98617101D01*
X141447322Y-98581563D01*
X141419873Y-98546862D01*
X141391277Y-98513031D01*
X141361552Y-98480099D01*
X141330716Y-98448099D01*
X141298788Y-98417061D01*
X141265783Y-98387015D01*
X141231722Y-98357995D01*
X141196621Y-98330029D01*
X141160498Y-98303150D01*
X141123372Y-98277389D01*
X141085260Y-98252776D01*
X141046180Y-98229343D01*
X140965967Y-98186498D01*
X140883749Y-98149366D01*
X140799813Y-98117946D01*
X140714446Y-98092239D01*
X140627934Y-98072245D01*
X140540562Y-98057963D01*
X140452618Y-98049394D01*
X140364387Y-98046538D01*
X140276157Y-98049394D01*
X140188212Y-98057963D01*
X140100841Y-98072245D01*
X140014328Y-98092239D01*
X139928961Y-98117946D01*
X139845025Y-98149366D01*
X139762807Y-98186498D01*
X139682594Y-98229343D01*
X139605404Y-98277386D01*
X139532157Y-98330023D01*
X139462995Y-98387006D01*
X139398062Y-98448086D01*
X139337500Y-98513014D01*
X139281454Y-98581543D01*
X139230066Y-98653423D01*
X139183479Y-98728407D01*
X139141837Y-98806244D01*
X139105282Y-98886688D01*
X139073958Y-98969489D01*
X139048009Y-99054398D01*
X139027577Y-99141168D01*
X139012805Y-99229549D01*
X139003837Y-99319293D01*
X139000816Y-99410152D01*
X139000816Y-104409732D01*
X139000310Y-104440105D01*
X138998801Y-104470311D01*
X138996301Y-104500331D01*
X138992821Y-104530144D01*
X138988373Y-104559728D01*
X138982970Y-104589065D01*
X138976624Y-104618132D01*
X138969346Y-104646909D01*
X138961148Y-104675377D01*
X138952042Y-104703513D01*
X138942041Y-104731297D01*
X138931156Y-104758709D01*
X138919400Y-104785729D01*
X138906783Y-104812334D01*
X138893319Y-104838506D01*
X138879018Y-104864223D01*
X138863894Y-104889464D01*
X138847958Y-104914209D01*
X138831222Y-104938438D01*
X138813698Y-104962129D01*
X138795397Y-104985262D01*
X138776333Y-105007817D01*
X138756516Y-105029773D01*
X138735960Y-105051108D01*
X138714675Y-105071803D01*
X138692673Y-105091837D01*
X138669968Y-105111190D01*
X138646570Y-105129839D01*
X138622492Y-105147766D01*
X138597745Y-105164949D01*
X138572342Y-105181368D01*
X138546295Y-105197002D01*
X138492825Y-105225533D01*
X138438017Y-105250259D01*
X138382060Y-105271182D01*
X138325146Y-105288300D01*
X138267468Y-105301615D01*
X138209215Y-105311125D01*
X138150580Y-105316831D01*
X138091754Y-105318733D01*
X138032928Y-105316831D01*
X137974293Y-105311125D01*
X137916042Y-105301615D01*
X137858365Y-105288300D01*
X137801454Y-105271182D01*
X137745500Y-105250259D01*
X137690695Y-105225533D01*
X137637230Y-105197002D01*
X137585778Y-105164955D01*
X137536952Y-105129850D01*
X137490847Y-105091851D01*
X137447560Y-105051125D01*
X137407186Y-105007835D01*
X137369821Y-104962148D01*
X137335560Y-104914229D01*
X137304499Y-104864241D01*
X137276734Y-104812352D01*
X137252361Y-104758725D01*
X137231475Y-104703526D01*
X137214171Y-104646921D01*
X137200546Y-104589073D01*
X137190696Y-104530149D01*
X137184715Y-104470314D01*
X137182701Y-104409732D01*
X137182701Y-94864368D01*
X137181943Y-94818819D01*
X137179680Y-94773518D01*
X137175931Y-94728494D01*
X137170713Y-94683780D01*
X137164044Y-94639406D01*
X137155943Y-94595404D01*
X137146426Y-94551804D01*
X137135512Y-94508638D01*
X137123219Y-94465937D01*
X137109565Y-94423731D01*
X137094567Y-94382053D01*
X137078243Y-94340932D01*
X137060612Y-94300400D01*
X137041691Y-94260489D01*
X137021497Y-94221228D01*
X137000050Y-94182650D01*
X136977367Y-94144786D01*
X136953465Y-94107666D01*
X136928363Y-94071321D01*
X136902078Y-94035783D01*
X136874629Y-94001083D01*
X136846032Y-93967252D01*
X136816307Y-93934320D01*
X136785471Y-93902320D01*
X136753542Y-93871282D01*
X136720537Y-93841236D01*
X136686475Y-93812215D01*
X136651374Y-93784250D01*
X136615251Y-93757371D01*
X136578124Y-93731609D01*
X136540011Y-93706996D01*
X136500930Y-93683563D01*
X136420717Y-93640718D01*
X136338499Y-93603586D01*
X136254563Y-93572166D01*
X136169196Y-93546459D01*
X136082683Y-93526465D01*
X135995312Y-93512183D01*
X135907367Y-93503614D01*
X135819136Y-93500758D01*
X135730905Y-93503614D01*
X135642961Y-93512183D01*
X135555588Y-93526465D01*
X135469075Y-93546459D01*
X135383707Y-93572166D01*
X135299770Y-93603586D01*
X135217551Y-93640718D01*
X135137336Y-93683563D01*
X135060148Y-93731605D01*
X134986902Y-93784241D01*
X134917742Y-93841224D01*
X134852810Y-93902303D01*
X134792250Y-93967231D01*
X134736205Y-94035760D01*
X134684818Y-94107640D01*
X134638232Y-94182623D01*
X134596591Y-94260461D01*
X134560037Y-94340904D01*
X134528714Y-94423705D01*
X134502765Y-94508614D01*
X134482334Y-94595384D01*
X134467562Y-94683765D01*
X134458595Y-94773509D01*
X134455574Y-94864368D01*
X134455574Y-104409732D01*
X134455068Y-104440105D01*
X134453559Y-104470311D01*
X134451058Y-104500331D01*
X134447578Y-104530144D01*
X134443130Y-104559728D01*
X134437727Y-104589065D01*
X134431381Y-104618132D01*
X134424102Y-104646909D01*
X134415904Y-104675377D01*
X134406798Y-104703513D01*
X134396797Y-104731297D01*
X134385911Y-104758709D01*
X134374154Y-104785729D01*
X134361537Y-104812334D01*
X134348072Y-104838506D01*
X134333771Y-104864223D01*
X134318647Y-104889464D01*
X134302710Y-104914209D01*
X134285973Y-104938438D01*
X134268448Y-104962129D01*
X134250147Y-104985262D01*
X134231082Y-105007817D01*
X134211265Y-105029773D01*
X134190708Y-105051108D01*
X134169422Y-105071803D01*
X134147420Y-105091837D01*
X134124714Y-105111190D01*
X134101315Y-105129839D01*
X134077236Y-105147766D01*
X134052489Y-105164949D01*
X134027085Y-105181368D01*
X134001037Y-105197002D01*
X133947569Y-105225533D01*
X133892762Y-105250259D01*
X133836807Y-105271182D01*
X133779894Y-105288300D01*
X133722217Y-105301615D01*
X133663966Y-105311125D01*
X133605332Y-105316831D01*
X133546506Y-105318733D01*
X133487681Y-105316831D01*
X133429048Y-105311125D01*
X133370798Y-105301615D01*
X133313121Y-105288300D01*
X133256211Y-105271182D01*
X133200257Y-105250259D01*
X133145452Y-105225533D01*
X133091987Y-105197002D01*
X133040535Y-105164955D01*
X132991709Y-105129850D01*
X132945604Y-105091851D01*
X132902317Y-105051125D01*
X132861942Y-105007835D01*
X132824576Y-104962148D01*
X132790315Y-104914229D01*
X132759253Y-104864241D01*
X132731487Y-104812352D01*
X132707113Y-104758725D01*
X132686226Y-104703526D01*
X132668922Y-104646921D01*
X132655297Y-104589073D01*
X132645446Y-104530149D01*
X132639466Y-104470314D01*
X132637451Y-104409732D01*
X132637451Y-93046253D01*
X132636693Y-93000704D01*
X132634430Y-92955402D01*
X132630681Y-92910379D01*
X132625463Y-92865665D01*
X132618794Y-92821291D01*
X132610692Y-92777289D01*
X132601175Y-92733689D01*
X132590261Y-92690523D01*
X132577968Y-92647821D01*
X132564313Y-92605615D01*
X132549315Y-92563936D01*
X132532992Y-92522816D01*
X132515360Y-92482284D01*
X132496439Y-92442372D01*
X132476246Y-92403112D01*
X132454798Y-92364534D01*
X132432115Y-92326669D01*
X132408213Y-92289549D01*
X132383111Y-92253204D01*
X132356827Y-92217666D01*
X132329377Y-92182966D01*
X132300781Y-92149135D01*
X132271057Y-92116203D01*
X132240221Y-92084203D01*
X132208292Y-92053165D01*
X132175288Y-92023120D01*
X132141227Y-91994099D01*
X132106127Y-91966134D01*
X132070004Y-91939255D01*
X132032879Y-91913493D01*
X131994767Y-91888881D01*
X131955688Y-91865448D01*
X131875475Y-91822602D01*
X131793257Y-91785469D01*
X131709321Y-91754049D01*
X131623954Y-91728342D01*
X131537441Y-91708347D01*
X131450069Y-91694065D01*
X131362125Y-91685496D01*
X131273894Y-91682640D01*
X131185663Y-91685496D01*
X131097718Y-91694065D01*
X131010346Y-91708347D01*
X130923833Y-91728342D01*
X130838464Y-91754049D01*
X130754528Y-91785469D01*
X130672309Y-91822602D01*
X130592094Y-91865448D01*
X130514905Y-91913490D01*
X130441658Y-91966126D01*
X130372497Y-92023108D01*
X130307564Y-92084188D01*
X130247003Y-92149116D01*
X130190957Y-92217645D01*
X130139569Y-92289525D01*
X130092982Y-92364508D01*
X130051340Y-92442345D01*
X130014786Y-92522789D01*
X129983462Y-92605589D01*
X129957513Y-92690499D01*
X129937081Y-92777269D01*
X129922309Y-92865650D01*
X129913341Y-92955394D01*
X129910320Y-93046253D01*
X129910320Y-104409732D01*
X129909814Y-104440105D01*
X129908305Y-104470311D01*
X129905805Y-104500331D01*
X129902325Y-104530144D01*
X129897877Y-104559728D01*
X129892474Y-104589065D01*
X129886128Y-104618132D01*
X129878850Y-104646909D01*
X129870652Y-104675377D01*
X129861546Y-104703513D01*
X129851545Y-104731297D01*
X129840660Y-104758709D01*
X129828903Y-104785729D01*
X129816287Y-104812334D01*
X129802822Y-104838506D01*
X129788522Y-104864223D01*
X129773398Y-104889464D01*
X129757461Y-104914209D01*
X129740725Y-104938438D01*
X129723201Y-104962129D01*
X129704900Y-104985262D01*
X129685836Y-105007817D01*
X129666019Y-105029773D01*
X129645462Y-105051108D01*
X129624177Y-105071803D01*
X129602175Y-105091837D01*
X129579470Y-105111190D01*
X129556072Y-105129839D01*
X129531993Y-105147766D01*
X129507246Y-105164949D01*
X129481843Y-105181368D01*
X129455795Y-105197002D01*
X129402327Y-105225533D01*
X129347520Y-105250259D01*
X129291564Y-105271182D01*
X129234651Y-105288300D01*
X129176974Y-105301615D01*
X129118722Y-105311125D01*
X129060087Y-105316831D01*
X129001262Y-105318733D01*
X128942436Y-105316831D01*
X128883802Y-105311125D01*
X128825551Y-105301615D01*
X128767874Y-105288300D01*
X128710963Y-105271182D01*
X128655009Y-105250259D01*
X128600203Y-105225533D01*
X128546737Y-105197002D01*
X128495285Y-105164955D01*
X128446458Y-105129850D01*
X128400353Y-105091851D01*
X128357066Y-105051125D01*
X128316691Y-105007835D01*
X128279326Y-104962148D01*
X128245065Y-104914229D01*
X128214004Y-104864241D01*
X128186239Y-104812352D01*
X128161865Y-104758725D01*
X128140979Y-104703526D01*
X128123675Y-104646921D01*
X128110050Y-104589073D01*
X128100200Y-104530149D01*
X128094219Y-104470314D01*
X128092205Y-104409732D01*
X128092205Y-95773914D01*
X128091446Y-95728365D01*
X128089184Y-95683063D01*
X128085435Y-95638039D01*
X128080217Y-95593325D01*
X128073548Y-95548951D01*
X128065446Y-95504948D01*
X128055929Y-95461348D01*
X128045015Y-95418182D01*
X128032722Y-95375480D01*
X128019068Y-95333275D01*
X128004070Y-95291596D01*
X127987746Y-95250475D01*
X127970115Y-95209943D01*
X127951193Y-95170031D01*
X127931000Y-95130771D01*
X127909553Y-95092193D01*
X127886869Y-95054328D01*
X127862967Y-95017208D01*
X127837865Y-94980863D01*
X127811580Y-94945325D01*
X127784131Y-94910625D01*
X127755535Y-94876794D01*
X127725809Y-94843862D01*
X127694973Y-94811862D01*
X127663044Y-94780824D01*
X127630040Y-94750778D01*
X127595978Y-94721758D01*
X127560876Y-94693792D01*
X127524754Y-94666913D01*
X127487627Y-94641151D01*
X127449515Y-94616538D01*
X127410434Y-94593105D01*
X127330221Y-94550260D01*
X127248004Y-94513128D01*
X127164069Y-94481708D01*
X127078702Y-94456001D01*
X126992189Y-94436007D01*
X126904817Y-94421725D01*
X126816873Y-94413156D01*
X126728642Y-94410300D01*
X126640411Y-94413156D01*
X126552466Y-94421725D01*
X126465094Y-94436007D01*
X126378581Y-94456001D01*
X126293213Y-94481708D01*
X126209277Y-94513128D01*
X126127058Y-94550260D01*
X126046844Y-94593105D01*
X125969657Y-94641148D01*
X125896411Y-94693786D01*
X125827251Y-94750769D01*
X125762319Y-94811849D01*
X125701758Y-94876778D01*
X125645713Y-94945307D01*
X125594325Y-95017187D01*
X125547739Y-95092170D01*
X125506097Y-95170007D01*
X125469543Y-95250451D01*
X125438220Y-95333251D01*
X125412270Y-95418161D01*
X125391838Y-95504930D01*
X125377067Y-95593311D01*
X125368099Y-95683055D01*
X125365078Y-95773914D01*
X125365078Y-109864090D01*
X125364572Y-109894462D01*
X125363063Y-109924668D01*
X125360562Y-109954687D01*
X125357082Y-109984500D01*
X125352635Y-110014084D01*
X125347232Y-110043420D01*
X125340885Y-110072488D01*
X125333607Y-110101265D01*
X125325409Y-110129732D01*
X125316304Y-110157868D01*
X125306303Y-110185652D01*
X125295418Y-110213064D01*
X125283661Y-110240084D01*
X125271044Y-110266689D01*
X125257580Y-110292861D01*
X125243280Y-110318577D01*
X125228155Y-110343819D01*
X125212219Y-110368564D01*
X125195483Y-110392792D01*
X125177958Y-110416483D01*
X125159658Y-110439617D01*
X125140593Y-110462171D01*
X125120777Y-110484126D01*
X125100220Y-110505462D01*
X125078934Y-110526156D01*
X125056933Y-110546190D01*
X125034227Y-110565542D01*
X125010829Y-110584191D01*
X124986751Y-110602118D01*
X124962004Y-110619300D01*
X124936600Y-110635718D01*
X124910553Y-110651352D01*
X124857083Y-110679884D01*
X124802275Y-110704611D01*
X124746318Y-110725535D01*
X124689405Y-110742654D01*
X124631727Y-110755969D01*
X124573475Y-110765480D01*
X124514840Y-110771186D01*
X124456014Y-110773088D01*
X124397189Y-110771186D01*
X124338554Y-110765480D01*
X124280303Y-110755969D01*
X124222626Y-110742654D01*
X124165715Y-110725535D01*
X124109760Y-110704611D01*
X124054954Y-110679884D01*
X124001487Y-110651352D01*
X123950036Y-110619306D01*
X123901211Y-110584202D01*
X123855107Y-110546204D01*
X123811820Y-110505478D01*
X123771447Y-110462189D01*
X123734082Y-110416503D01*
X123699821Y-110368583D01*
X123668760Y-110318596D01*
X123640996Y-110266707D01*
X123616622Y-110213080D01*
X123595736Y-110157882D01*
X123578433Y-110101276D01*
X123564808Y-110043429D01*
X123554958Y-109984506D01*
X123548977Y-109924671D01*
X123546962Y-109864090D01*
X123546962Y-105773323D01*
X123546204Y-105727774D01*
X123543941Y-105682472D01*
X123540192Y-105637449D01*
X123534974Y-105592735D01*
X123528305Y-105548361D01*
X123520203Y-105504358D01*
X123510686Y-105460758D01*
X123499772Y-105417592D01*
X123487479Y-105374890D01*
X123473824Y-105332684D01*
X123458825Y-105291005D01*
X123442501Y-105249884D01*
X123424870Y-105209352D01*
X123405948Y-105169441D01*
X123385755Y-105130180D01*
X123364307Y-105091602D01*
X123341623Y-105053737D01*
X123317721Y-105016617D01*
X123292619Y-104980272D01*
X123266334Y-104944734D01*
X123238884Y-104910034D01*
X123210288Y-104876203D01*
X123180562Y-104843272D01*
X123149726Y-104811271D01*
X123117797Y-104780233D01*
X123084792Y-104750188D01*
X123050731Y-104721168D01*
X123015629Y-104693202D01*
X122979507Y-104666324D01*
X122942380Y-104640563D01*
X122904268Y-104615950D01*
X122865188Y-104592518D01*
X122784975Y-104549673D01*
X122702757Y-104512540D01*
X122618822Y-104481121D01*
X122533455Y-104455414D01*
X122446942Y-104435419D01*
X122359571Y-104421138D01*
X122271627Y-104412569D01*
X122183396Y-104409712D01*
X122095166Y-104412569D01*
X122007222Y-104421138D01*
X121919850Y-104435419D01*
X121833338Y-104455414D01*
X121747970Y-104481121D01*
X121664034Y-104512540D01*
X121581816Y-104549673D01*
X121501602Y-104592518D01*
X121424413Y-104640560D01*
X121351166Y-104693196D01*
X121282005Y-104750178D01*
X121217072Y-104811258D01*
X121156511Y-104876186D01*
X121100465Y-104944715D01*
X121049077Y-105016595D01*
X121002490Y-105091578D01*
X120960848Y-105169415D01*
X120924294Y-105249859D01*
X120892970Y-105332659D01*
X120867021Y-105417569D01*
X120846588Y-105504338D01*
X120831817Y-105592720D01*
X120822849Y-105682464D01*
X120819828Y-105773323D01*
X120819828Y-113225185D01*
X119001567Y-113225185D01*
X119001567Y-105773323D01*
X119001567Y-105772762D01*
X119003487Y-105664276D01*
X119009087Y-105556144D01*
X119018344Y-105448453D01*
X119031231Y-105341295D01*
X119047724Y-105234758D01*
X119067797Y-105128931D01*
X119091425Y-105023905D01*
X119118582Y-104919768D01*
X119149245Y-104816610D01*
X119183386Y-104714520D01*
X119220981Y-104613588D01*
X119262006Y-104513904D01*
X119306433Y-104415555D01*
X119354239Y-104318633D01*
X119405398Y-104223227D01*
X119459884Y-104129425D01*
X119517537Y-104037506D01*
X119578161Y-103947786D01*
X119641690Y-103860329D01*
X119708055Y-103775198D01*
X119777188Y-103692458D01*
X119849019Y-103612174D01*
X119923482Y-103534408D01*
X120000507Y-103459225D01*
X120080026Y-103386690D01*
X120161972Y-103316867D01*
X120246275Y-103249819D01*
X120332867Y-103185611D01*
X120421680Y-103124307D01*
X120512646Y-103065972D01*
X120605697Y-103010668D01*
X120700763Y-102958461D01*
X120700787Y-102958484D01*
X120700811Y-102958508D01*
X120700858Y-102958555D01*
X120700882Y-102958579D01*
X120700906Y-102958604D01*
X120700931Y-102958628D01*
X120700958Y-102958652D01*
X120174671Y-102327259D01*
X117953365Y-100475979D01*
X117887142Y-100560169D01*
X117822855Y-100645739D01*
X117760525Y-100732654D01*
X117700171Y-100820879D01*
X117641812Y-100910380D01*
X117585467Y-101001121D01*
X117531157Y-101093068D01*
X117478900Y-101186186D01*
X117428716Y-101280441D01*
X117380625Y-101375797D01*
X117334645Y-101472219D01*
X117290797Y-101569674D01*
X117249099Y-101668126D01*
X117209571Y-101767540D01*
X117172233Y-101867881D01*
X117137104Y-101969116D01*
X117120794Y-102014097D01*
X117102232Y-102057941D01*
X117081483Y-102100579D01*
X117058613Y-102141939D01*
X117033686Y-102181950D01*
X117006768Y-102220543D01*
X116977924Y-102257645D01*
X116947220Y-102293187D01*
X116914720Y-102327098D01*
X116880490Y-102359306D01*
X116844595Y-102389742D01*
X116807100Y-102418334D01*
X116768071Y-102445012D01*
X116727573Y-102469704D01*
X116685670Y-102492341D01*
X116642429Y-102512851D01*
X116598169Y-102531062D01*
X116553233Y-102546844D01*
X116507718Y-102560199D01*
X116461720Y-102571126D01*
X116415335Y-102579624D01*
X116368661Y-102585695D01*
X116321794Y-102589338D01*
X116274829Y-102590552D01*
X116227865Y-102589339D01*
X116180998Y-102585697D01*
X116134324Y-102579627D01*
X116087939Y-102571129D01*
X116041941Y-102560202D01*
X115996426Y-102546847D01*
X115951490Y-102531063D01*
X115907230Y-102512851D01*
X115863987Y-102492339D01*
X115822083Y-102469700D01*
X115781582Y-102445006D01*
X115742551Y-102418327D01*
X115705053Y-102389734D01*
X115669154Y-102359298D01*
X115634918Y-102327089D01*
X115602411Y-102293179D01*
X115571697Y-102257637D01*
X115542841Y-102220535D01*
X115515909Y-102181943D01*
X115490964Y-102141932D01*
X115468072Y-102100574D01*
X115447299Y-102057938D01*
X115428708Y-102014095D01*
X115412365Y-101969116D01*
X115313944Y-101702175D01*
X115200825Y-101443009D01*
X115073503Y-101192112D01*
X114932472Y-100949978D01*
X114778228Y-100717102D01*
X114611266Y-100493978D01*
X114432081Y-100281101D01*
X114241169Y-100078963D01*
X114039024Y-99888061D01*
X113826141Y-99708888D01*
X113603016Y-99541938D01*
X113370145Y-99387706D01*
X113128021Y-99246686D01*
X112877140Y-99119372D01*
X112617998Y-99006259D01*
X112351089Y-98907840D01*
X112306071Y-98891500D01*
X112262189Y-98872915D01*
X112219515Y-98852149D01*
X112178121Y-98829268D01*
X112138075Y-98804334D01*
X112099451Y-98777413D01*
X112062319Y-98748568D01*
X112026749Y-98717863D01*
X111992813Y-98685363D01*
X111960581Y-98651131D01*
X111930125Y-98615232D01*
X111901516Y-98577730D01*
X111874824Y-98538689D01*
X111850121Y-98498174D01*
X111827478Y-98456248D01*
X111806964Y-98412975D01*
X111788754Y-98368715D01*
X111772971Y-98323779D01*
X111759616Y-98278262D01*
X111748689Y-98232262D01*
X111740190Y-98185874D01*
X111734119Y-98139195D01*
X111730476Y-98092321D01*
X111729280Y-98046093D01*
X114634498Y-98046093D01*
X114753048Y-98131286D01*
X114869626Y-98218957D01*
X114984198Y-98309069D01*
X115096725Y-98401586D01*
X115207172Y-98496472D01*
X115315503Y-98593689D01*
X115421681Y-98693203D01*
X115525670Y-98794977D01*
X115627432Y-98898975D01*
X115726933Y-99005160D01*
X115824135Y-99113497D01*
X115919002Y-99223949D01*
X116011497Y-99336480D01*
X116101585Y-99451053D01*
X116189228Y-99567633D01*
X116274391Y-99686184D01*
X116359550Y-99567633D01*
X116447191Y-99451054D01*
X116537277Y-99336481D01*
X116629772Y-99223951D01*
X116724638Y-99113500D01*
X116821840Y-99005164D01*
X116921341Y-98898980D01*
X117023105Y-98794983D01*
X117127094Y-98693210D01*
X117233273Y-98593696D01*
X117341605Y-98496478D01*
X117452054Y-98401593D01*
X117564582Y-98309075D01*
X117679155Y-98218962D01*
X117795734Y-98131289D01*
X117914283Y-98046093D01*
X117795734Y-97960900D01*
X117679155Y-97873230D01*
X117564584Y-97783119D01*
X117452057Y-97690602D01*
X117341610Y-97595717D01*
X117233279Y-97498499D01*
X117127102Y-97398985D01*
X117023113Y-97297211D01*
X116921351Y-97193213D01*
X116821850Y-97087028D01*
X116724649Y-96978691D01*
X116629782Y-96868239D01*
X116537286Y-96755708D01*
X116447198Y-96641135D01*
X116359554Y-96524555D01*
X116274391Y-96406006D01*
X116189231Y-96524555D01*
X116101590Y-96641134D01*
X116011504Y-96755706D01*
X115919010Y-96868236D01*
X115824143Y-96978686D01*
X115726941Y-97087022D01*
X115627440Y-97193206D01*
X115525677Y-97297203D01*
X115421687Y-97398976D01*
X115315508Y-97498489D01*
X115207176Y-97595707D01*
X115096728Y-97690593D01*
X114984199Y-97783110D01*
X114869627Y-97873223D01*
X114753048Y-97960896D01*
X114634498Y-98046093D01*
X111729280Y-98046093D01*
X111729261Y-98045348D01*
X111730474Y-97998374D01*
X111734115Y-97951493D01*
X111740185Y-97904803D01*
X111748684Y-97858400D01*
X111759611Y-97812380D01*
X111772967Y-97766839D01*
X111788751Y-97721874D01*
X111806964Y-97677581D01*
X111827480Y-97634308D01*
X111850126Y-97592382D01*
X111874832Y-97551868D01*
X111901525Y-97512829D01*
X111930136Y-97475330D01*
X111960593Y-97439436D01*
X111992825Y-97405211D01*
X112026762Y-97372719D01*
X112062331Y-97342025D01*
X112099464Y-97313193D01*
X112138087Y-97286287D01*
X112178131Y-97261372D01*
X112219524Y-97238512D01*
X112262195Y-97217772D01*
X112306074Y-97199215D01*
X112351089Y-97182907D01*
X112488715Y-97134530D01*
X112624711Y-97082027D01*
X112758985Y-97025442D01*
X112891450Y-96964824D01*
X113022017Y-96900219D01*
X113150594Y-96831673D01*
X113277095Y-96759234D01*
X113401428Y-96682949D01*
X113401622Y-96682949D01*
X109329425Y-93289512D01*
X109293556Y-93257969D01*
X109259554Y-93224757D01*
X109227460Y-93189963D01*
X109197319Y-93153672D01*
X109169171Y-93115969D01*
X109143060Y-93076940D01*
X109119028Y-93036671D01*
X109097117Y-92995246D01*
X109077370Y-92952752D01*
X109059830Y-92909273D01*
X109044538Y-92864895D01*
X109031538Y-92819705D01*
X109020872Y-92773786D01*
X109012581Y-92727225D01*
X109006710Y-92680108D01*
X109003299Y-92632518D01*
X109002391Y-92584786D01*
X109003973Y-92537302D01*
X109004535Y-92530746D01*
X111257698Y-92530746D01*
X114736553Y-95429897D01*
X114842676Y-95278436D01*
X114942792Y-95123184D01*
X115036807Y-94964324D01*
X115124628Y-94802042D01*
X115206162Y-94636520D01*
X115281318Y-94467942D01*
X115350002Y-94296493D01*
X115412120Y-94122356D01*
X115428429Y-94077373D01*
X115446991Y-94033522D01*
X115467738Y-93990875D01*
X115490608Y-93949505D01*
X115515534Y-93909481D01*
X115542451Y-93870877D01*
X115571294Y-93833763D01*
X115601998Y-93798211D01*
X115634498Y-93764293D01*
X115668728Y-93732080D01*
X115704623Y-93701644D01*
X115742119Y-93673056D01*
X115781148Y-93646387D01*
X115821648Y-93621710D01*
X115863552Y-93599096D01*
X115906795Y-93578617D01*
X115951054Y-93560407D01*
X115995988Y-93544624D01*
X116041503Y-93531270D01*
X116087500Y-93520344D01*
X116133884Y-93511846D01*
X116180558Y-93505776D01*
X116227425Y-93502134D01*
X116274389Y-93500920D01*
X116321353Y-93502134D01*
X116368221Y-93505776D01*
X116414895Y-93511846D01*
X116461281Y-93520344D01*
X116507280Y-93531270D01*
X116552796Y-93544624D01*
X116597733Y-93560407D01*
X116641994Y-93578617D01*
X116685236Y-93599098D01*
X116727138Y-93621713D01*
X116767637Y-93646391D01*
X116806666Y-93673060D01*
X116844160Y-93701649D01*
X116880055Y-93732086D01*
X116914284Y-93764300D01*
X116946783Y-93798218D01*
X116977487Y-93833770D01*
X117006330Y-93870884D01*
X117033247Y-93909488D01*
X117058174Y-93949511D01*
X117081044Y-93990880D01*
X117101792Y-94033525D01*
X117120355Y-94077375D01*
X117136665Y-94122356D01*
X117235120Y-94389265D01*
X117348269Y-94648407D01*
X117475617Y-94899287D01*
X117616670Y-95141411D01*
X117770933Y-95374282D01*
X117937911Y-95597407D01*
X118117108Y-95810289D01*
X118308031Y-96012434D01*
X118510184Y-96203346D01*
X118723073Y-96382530D01*
X118946202Y-96549492D01*
X119179076Y-96703736D01*
X119421202Y-96844766D01*
X119672084Y-96972088D01*
X119931226Y-97085207D01*
X120198135Y-97183628D01*
X120243152Y-97199937D01*
X120287033Y-97218498D01*
X120329706Y-97239246D01*
X120371100Y-97262115D01*
X120411145Y-97287041D01*
X120449770Y-97313959D01*
X120486902Y-97342802D01*
X120522472Y-97373506D01*
X120556409Y-97406005D01*
X120588641Y-97440235D01*
X120619097Y-97476131D01*
X120647707Y-97513626D01*
X120674399Y-97552656D01*
X120699103Y-97593155D01*
X120721746Y-97635059D01*
X120742260Y-97678302D01*
X120760470Y-97722595D01*
X120776252Y-97767560D01*
X120789606Y-97813102D01*
X120800532Y-97859124D01*
X120809030Y-97905530D01*
X120815100Y-97952224D01*
X120818742Y-97999111D01*
X120819956Y-98046094D01*
X120818742Y-98093076D01*
X120815100Y-98139963D01*
X120809030Y-98186658D01*
X120800532Y-98233065D01*
X120789606Y-98279087D01*
X120776252Y-98324630D01*
X120760470Y-98369596D01*
X120742260Y-98413891D01*
X120721743Y-98457132D01*
X120699096Y-98499035D01*
X120674391Y-98539533D01*
X120647697Y-98578562D01*
X120619086Y-98616056D01*
X120588629Y-98651950D01*
X120556396Y-98686179D01*
X120522460Y-98718678D01*
X120486890Y-98749382D01*
X120449758Y-98778225D01*
X120411135Y-98805142D01*
X120371091Y-98830068D01*
X120329699Y-98852939D01*
X120287028Y-98873688D01*
X120243149Y-98892250D01*
X120198135Y-98908561D01*
X120089598Y-98946429D01*
X119982045Y-98986869D01*
X119875523Y-99029861D01*
X119770074Y-99075385D01*
X119665744Y-99123422D01*
X119562576Y-99173951D01*
X119460617Y-99226954D01*
X119359909Y-99282409D01*
X121401645Y-100984672D01*
X121417332Y-100998113D01*
X121432709Y-101011873D01*
X121447770Y-101025952D01*
X121462510Y-101040351D01*
X121476920Y-101055070D01*
X121490996Y-101070108D01*
X121504730Y-101085465D01*
X121518116Y-101101143D01*
X121518116Y-101101345D01*
X122813537Y-102655082D01*
X122908300Y-102675709D01*
X123002335Y-102699226D01*
X123095574Y-102725610D01*
X123187948Y-102754839D01*
X123279390Y-102786892D01*
X123369829Y-102821746D01*
X123459198Y-102859379D01*
X123547428Y-102899769D01*
X123547428Y-95774204D01*
X123548325Y-95695986D01*
X123551155Y-95617897D01*
X123555910Y-95539973D01*
X123562584Y-95462248D01*
X123571168Y-95384756D01*
X123581656Y-95307534D01*
X123594041Y-95230615D01*
X123608315Y-95154034D01*
X123624471Y-95077827D01*
X123642502Y-95002028D01*
X123662401Y-94926672D01*
X123684160Y-94851793D01*
X123707773Y-94777428D01*
X123733231Y-94703609D01*
X123760528Y-94630373D01*
X123789657Y-94557754D01*
X118551052Y-91564117D01*
X118499524Y-91532275D01*
X118450613Y-91497367D01*
X118404414Y-91459558D01*
X118361023Y-91419012D01*
X118320535Y-91375896D01*
X118283046Y-91330374D01*
X118248650Y-91282610D01*
X118217444Y-91232771D01*
X118189523Y-91181021D01*
X118164981Y-91127525D01*
X118143915Y-91072448D01*
X118126420Y-91015955D01*
X118112592Y-90958211D01*
X118102525Y-90899381D01*
X118096316Y-90839631D01*
X118094059Y-90779125D01*
X118094440Y-90748782D01*
X118095823Y-90718600D01*
X118098197Y-90688599D01*
X118101550Y-90658800D01*
X118105869Y-90629224D01*
X118111144Y-90599892D01*
X118117361Y-90570824D01*
X118124510Y-90542040D01*
X118132578Y-90513562D01*
X118141554Y-90485410D01*
X118151425Y-90457605D01*
X118162180Y-90430168D01*
X118173807Y-90403119D01*
X118186294Y-90376480D01*
X118199629Y-90350269D01*
X118213801Y-90324510D01*
X118228797Y-90299221D01*
X118244606Y-90274424D01*
X118261215Y-90250140D01*
X118278614Y-90226389D01*
X118296789Y-90203192D01*
X118315730Y-90180570D01*
X118335424Y-90158542D01*
X118355859Y-90137131D01*
X118377024Y-90116357D01*
X118398907Y-90096240D01*
X118421496Y-90076801D01*
X118444779Y-90058060D01*
X118468743Y-90040039D01*
X118493379Y-90022759D01*
X118518672Y-90006239D01*
X118544613Y-89990501D01*
X118597906Y-89961716D01*
X118652553Y-89936722D01*
X118708363Y-89915522D01*
X118765146Y-89898115D01*
X118822710Y-89884504D01*
X118880864Y-89874689D01*
X118939418Y-89868671D01*
X118998180Y-89866452D01*
X119056961Y-89868032D01*
X119115569Y-89873413D01*
X119173813Y-89882596D01*
X119231502Y-89895582D01*
X119288446Y-89912372D01*
X119344453Y-89932966D01*
X119399334Y-89957368D01*
X119452896Y-89985576D01*
X119453090Y-89985576D01*
X124959320Y-93131889D01*
X125136947Y-93020948D01*
X125320043Y-92922664D01*
X125507964Y-92837086D01*
X125700063Y-92764261D01*
X125895695Y-92704236D01*
X126094214Y-92657059D01*
X126294974Y-92622777D01*
X126497330Y-92601438D01*
X126700635Y-92593089D01*
X126904245Y-92597777D01*
X127107514Y-92615550D01*
X127309795Y-92646456D01*
X127510443Y-92690541D01*
X127708813Y-92747854D01*
X127904258Y-92818441D01*
X128096134Y-92902351D01*
X128102672Y-92796353D01*
X128112741Y-92690844D01*
X128126315Y-92585908D01*
X128143367Y-92481629D01*
X128163869Y-92378093D01*
X128187795Y-92275383D01*
X128215117Y-92173583D01*
X128245808Y-92072777D01*
X128279842Y-91973051D01*
X128317190Y-91874488D01*
X128357826Y-91777172D01*
X128401723Y-91681187D01*
X128448854Y-91586619D01*
X128499192Y-91493551D01*
X128552709Y-91402067D01*
X128609378Y-91312252D01*
X125482597Y-85766744D01*
X125461126Y-85726885D01*
X125441747Y-85686192D01*
X125424469Y-85644745D01*
X125409302Y-85602625D01*
X125396256Y-85559913D01*
X125385340Y-85516688D01*
X125376564Y-85473031D01*
X125369938Y-85429023D01*
X125365471Y-85384745D01*
X125363174Y-85340276D01*
X125363055Y-85295697D01*
X125365124Y-85251089D01*
X125369392Y-85206531D01*
X125375867Y-85162106D01*
X125384561Y-85117892D01*
X125395481Y-85073970D01*
X125408605Y-85030645D01*
X125423795Y-84988213D01*
X125441003Y-84946740D01*
X125460177Y-84906288D01*
X125481268Y-84866922D01*
X125504225Y-84828705D01*
X125528998Y-84791701D01*
X125555536Y-84755974D01*
X125583791Y-84721588D01*
X125613710Y-84688607D01*
X125645245Y-84657093D01*
X125678345Y-84627112D01*
X125712959Y-84598727D01*
X125749039Y-84572001D01*
X125786532Y-84546999D01*
X125825389Y-84523784D01*
X125865322Y-84502529D01*
X125906087Y-84483369D01*
X125947603Y-84466315D01*
X125989789Y-84451376D01*
X126032562Y-84438563D01*
X126075842Y-84427884D01*
X126119547Y-84419350D01*
X126163595Y-84412969D01*
X126207905Y-84408753D01*
X126252395Y-84406711D01*
X126296983Y-84406852D01*
X126341589Y-84409186D01*
X126386131Y-84413722D01*
X126430526Y-84420472D01*
X126474695Y-84429443D01*
X126518554Y-84440647D01*
X126561800Y-84454014D01*
X126604139Y-84469440D01*
X126645508Y-84486874D01*
X126685844Y-84506267D01*
X126725084Y-84527569D01*
X126763164Y-84550730D01*
X126800021Y-84575699D01*
X126835592Y-84602428D01*
X126869814Y-84630865D01*
X126902623Y-84660962D01*
X126933955Y-84692667D01*
X126963749Y-84725932D01*
X126991940Y-84760706D01*
X127018465Y-84796940D01*
X127043261Y-84834582D01*
X127066265Y-84873584D01*
X130025241Y-90120914D01*
X130180659Y-90059290D01*
X130338316Y-90006158D01*
X130497879Y-89961512D01*
X130659013Y-89925349D01*
X130821383Y-89897664D01*
X130984655Y-89878452D01*
X131148494Y-89867710D01*
X131312566Y-89865432D01*
X131476535Y-89871615D01*
X131640068Y-89886253D01*
X131802829Y-89909343D01*
X131964485Y-89940879D01*
X132124699Y-89980859D01*
X132283138Y-90029276D01*
X132439468Y-90086127D01*
X132593353Y-90151407D01*
X132743629Y-90224711D01*
X132889143Y-90305390D01*
X133029670Y-90393194D01*
X133164990Y-90487874D01*
X133294879Y-90589179D01*
X133419114Y-90696860D01*
X133537474Y-90810666D01*
X133649736Y-90930348D01*
X133755677Y-91055656D01*
X133855076Y-91186341D01*
X133947709Y-91322151D01*
X134033354Y-91462838D01*
X134111788Y-91608151D01*
X134182790Y-91757841D01*
X134246136Y-91911657D01*
X134301605Y-92069351D01*
X134488779Y-91975471D01*
X134680213Y-91894674D01*
X134875262Y-91826947D01*
X135073281Y-91772279D01*
X135273627Y-91730657D01*
X135475653Y-91702068D01*
X135678716Y-91686501D01*
X135882171Y-91683943D01*
X136085373Y-91694382D01*
X136287678Y-91717806D01*
X136488440Y-91754201D01*
X136687016Y-91803557D01*
X136882760Y-91865860D01*
X137075027Y-91941099D01*
X137263174Y-92029260D01*
X137446556Y-92130333D01*
X137622903Y-92243218D01*
X137790180Y-92366453D01*
X137948067Y-92499477D01*
X138096246Y-92641730D01*
X138234399Y-92792651D01*
X138362207Y-92951681D01*
X138479351Y-93118260D01*
X138585513Y-93291826D01*
X138680374Y-93471820D01*
X138763616Y-93657681D01*
X138834919Y-93848849D01*
X138893967Y-94044765D01*
X138940439Y-94244866D01*
X138974018Y-94448595D01*
X138994385Y-94655389D01*
X139001220Y-94864689D01*
X139001220Y-96535854D01*
X139143866Y-96472318D01*
X139288831Y-96416089D01*
X139435842Y-96367182D01*
X139584626Y-96325613D01*
X139734908Y-96291396D01*
X139886416Y-96264545D01*
X140038876Y-96245075D01*
X140192013Y-96233000D01*
X140345556Y-96228337D01*
X140499229Y-96231098D01*
X140652759Y-96241300D01*
X140805874Y-96258956D01*
X140958299Y-96284081D01*
X141109760Y-96316690D01*
X141259985Y-96356798D01*
X141408699Y-96404419D01*
X141554889Y-96459273D01*
X141697608Y-96520957D01*
X141836651Y-96589288D01*
X141971810Y-96664087D01*
X142102881Y-96745172D01*
X142229658Y-96832361D01*
X142351935Y-96925474D01*
X142469507Y-97024330D01*
X142582167Y-97128748D01*
X142689711Y-97238546D01*
X142791933Y-97353544D01*
X142888626Y-97473561D01*
X142979585Y-97598414D01*
X143064605Y-97727925D01*
X143143479Y-97861910D01*
X143216003Y-98000190D01*
X143216003Y-98000393D01*
X144926925Y-96289470D01*
X134782798Y-87835947D01*
X134767112Y-87822507D01*
X134751735Y-87808748D01*
X134736673Y-87794668D01*
X134721934Y-87780269D01*
X134707523Y-87765550D01*
X134693448Y-87750511D01*
X134679714Y-87735153D01*
X134666328Y-87719476D01*
X134666328Y-87719282D01*
X126212806Y-77575638D01*
X111257698Y-92530746D01*
X109004535Y-92530746D01*
X109008014Y-92490155D01*
X109014477Y-92443436D01*
X109023329Y-92397234D01*
X109034537Y-92351637D01*
X109048065Y-92306736D01*
X109063881Y-92262620D01*
X109081948Y-92219377D01*
X109102235Y-92177099D01*
X109124706Y-92135873D01*
X109149327Y-92095789D01*
X109176065Y-92056937D01*
X109204885Y-92019406D01*
X109235753Y-91983286D01*
X109268634Y-91948665D01*
X125631694Y-75585601D01*
X125666318Y-75552753D01*
X125702442Y-75521915D01*
X125739974Y-75493120D01*
X125778827Y-75466404D01*
X125818911Y-75441801D01*
X125860135Y-75419346D01*
X125902410Y-75399072D01*
X125945647Y-75381014D01*
X125989756Y-75365206D01*
X126034647Y-75351684D01*
X126080231Y-75340481D01*
X126126418Y-75331631D01*
X126173119Y-75325169D01*
X126220244Y-75321130D01*
X126267703Y-75319548D01*
X126315406Y-75320457D01*
G37*
D11*
G36*
X120425187Y-127318056D02*
G01*
X120506663Y-127328086D01*
X120582495Y-127344801D01*
X120652682Y-127368203D01*
X120732479Y-127406857D01*
X120803457Y-127455958D01*
X120865616Y-127515507D01*
X120876989Y-127528670D01*
X120928706Y-127597159D01*
X120971657Y-127668905D01*
X121005843Y-127743906D01*
X121031263Y-127822162D01*
X121047917Y-127903675D01*
X121055806Y-127988443D01*
X121056507Y-128023262D01*
X121053502Y-128101446D01*
X121044486Y-128175898D01*
X121024764Y-128263715D01*
X120995649Y-128345700D01*
X120957144Y-128421853D01*
X120909246Y-128492174D01*
X120864166Y-128544232D01*
X120801260Y-128602070D01*
X120732755Y-128650105D01*
X120658650Y-128688338D01*
X120578946Y-128716767D01*
X120493643Y-128735392D01*
X120402740Y-128744215D01*
X120364812Y-128745000D01*
X119782293Y-128745000D01*
X119782293Y-128393290D01*
X120237317Y-128393290D01*
X120337701Y-128393290D01*
X120415077Y-128377085D01*
X120477484Y-128333362D01*
X120509892Y-128295104D01*
X120547180Y-128226475D01*
X120568931Y-128152290D01*
X120578874Y-128076469D01*
X120580600Y-128024361D01*
X120575616Y-127944672D01*
X120560662Y-127871707D01*
X120532355Y-127798520D01*
X120517586Y-127771570D01*
X120468065Y-127711706D01*
X120399328Y-127674740D01*
X120337701Y-127666423D01*
X120237317Y-127666423D01*
X120237317Y-128393290D01*
X119782293Y-128393290D01*
X119782293Y-127314713D01*
X120338067Y-127314713D01*
X120425187Y-127318056D01*
G37*
G36*
X121802930Y-127645516D02*
G01*
X121877169Y-127653137D01*
X121954286Y-127667387D01*
X121961061Y-127668988D01*
X122035937Y-127692721D01*
X122103099Y-127727967D01*
X122133252Y-127751053D01*
X122184101Y-127804870D01*
X122219348Y-127869755D01*
X122234374Y-127945750D01*
X122239956Y-128025964D01*
X122241330Y-128105694D01*
X122241330Y-128527379D01*
X122245702Y-128606484D01*
X122258819Y-128681086D01*
X122278332Y-128745000D01*
X121860311Y-128745000D01*
X121847447Y-128670973D01*
X121843824Y-128623000D01*
X121796325Y-128679673D01*
X121735572Y-128722427D01*
X121661566Y-128751260D01*
X121587583Y-128764896D01*
X121518493Y-128768447D01*
X121439685Y-128763748D01*
X121360740Y-128746873D01*
X121286103Y-128713217D01*
X121232362Y-128670261D01*
X121186316Y-128612713D01*
X121152828Y-128543333D01*
X121137945Y-128468228D01*
X121137108Y-128444581D01*
X121140702Y-128414173D01*
X121584072Y-128414173D01*
X121623833Y-128478464D01*
X121676396Y-128487079D01*
X121749298Y-128473352D01*
X121780810Y-128455205D01*
X121816294Y-128388247D01*
X121823308Y-128309392D01*
X121823308Y-128277152D01*
X121742005Y-128288890D01*
X121668412Y-128310724D01*
X121607435Y-128351676D01*
X121584072Y-128414173D01*
X121140702Y-128414173D01*
X121146770Y-128362836D01*
X121175759Y-128289426D01*
X121224073Y-128224350D01*
X121282201Y-128174246D01*
X121291713Y-128167609D01*
X121357620Y-128131168D01*
X121439112Y-128100702D01*
X121518927Y-128079879D01*
X121609564Y-128063207D01*
X121689867Y-128052857D01*
X121777096Y-128045164D01*
X121823308Y-128042313D01*
X121823308Y-128029124D01*
X121807852Y-127957339D01*
X121795831Y-127944494D01*
X121725025Y-127924658D01*
X121711200Y-127924344D01*
X121634162Y-127938283D01*
X121578279Y-127990701D01*
X121562823Y-128042313D01*
X121162753Y-128017400D01*
X121190208Y-127929644D01*
X121229889Y-127853589D01*
X121281799Y-127789235D01*
X121345935Y-127736582D01*
X121422299Y-127695629D01*
X121510891Y-127666377D01*
X121585359Y-127652117D01*
X121666704Y-127644438D01*
X121724756Y-127642976D01*
X121802930Y-127645516D01*
G37*
G36*
X123471214Y-128745000D02*
G01*
X123036706Y-128745000D01*
X123036706Y-128064661D01*
X123028263Y-127990329D01*
X123015091Y-127967575D01*
X122959770Y-127947791D01*
X122891148Y-127975911D01*
X122862915Y-128044776D01*
X122859386Y-128094703D01*
X122859386Y-128745000D01*
X122424512Y-128745000D01*
X122424512Y-127666423D01*
X122829344Y-127666423D01*
X122829344Y-127776332D01*
X122878810Y-127711868D01*
X122943897Y-127672278D01*
X123017152Y-127651311D01*
X123092053Y-127643497D01*
X123119505Y-127642976D01*
X123195906Y-127648387D01*
X123269674Y-127666634D01*
X123318440Y-127688771D01*
X123381092Y-127734102D01*
X123428608Y-127794343D01*
X123435677Y-127807840D01*
X123458686Y-127884127D01*
X123467744Y-127956918D01*
X123471076Y-128035343D01*
X123471214Y-128056967D01*
X123471214Y-128745000D01*
G37*
G36*
X124091835Y-127267819D02*
G01*
X124091835Y-127619528D01*
X123656961Y-127619528D01*
X123656961Y-127267819D01*
X124091835Y-127267819D01*
G37*
G36*
X124091835Y-127666423D02*
G01*
X124091835Y-128745000D01*
X123656961Y-128745000D01*
X123656961Y-127666423D01*
X124091835Y-127666423D01*
G37*
G36*
X124886083Y-127646822D02*
G01*
X124958947Y-127658360D01*
X125040078Y-127682360D01*
X125114331Y-127717436D01*
X125181706Y-127763590D01*
X125222802Y-127800512D01*
X125276713Y-127863405D01*
X125319471Y-127934207D01*
X125351074Y-128012916D01*
X125368889Y-128084549D01*
X125378959Y-128161673D01*
X125381438Y-128227327D01*
X125380339Y-128299501D01*
X124679117Y-128299501D01*
X124687114Y-128376051D01*
X124711357Y-128439452D01*
X124775251Y-128481451D01*
X124827861Y-128487079D01*
X124901177Y-128470369D01*
X124954199Y-128414023D01*
X124975506Y-128345662D01*
X125383270Y-128373506D01*
X125361729Y-128445930D01*
X125330125Y-128512533D01*
X125288459Y-128573316D01*
X125236730Y-128628278D01*
X125202652Y-128657072D01*
X125135390Y-128700469D01*
X125058626Y-128733207D01*
X124985266Y-128752785D01*
X124904925Y-128764531D01*
X124817603Y-128768447D01*
X124735987Y-128764592D01*
X124659666Y-128753027D01*
X124588640Y-128733751D01*
X124510398Y-128700444D01*
X124439781Y-128656033D01*
X124386759Y-128610544D01*
X124331976Y-128548552D01*
X124288527Y-128481280D01*
X124256413Y-128408727D01*
X124235633Y-128330893D01*
X124226188Y-128247779D01*
X124225558Y-128218900D01*
X124229440Y-128145066D01*
X124243689Y-128065027D01*
X124677652Y-128065027D01*
X124946930Y-128065027D01*
X124937769Y-127989798D01*
X124907729Y-127936067D01*
X124839860Y-127903094D01*
X124812474Y-127900896D01*
X124735715Y-127920291D01*
X124690818Y-127978474D01*
X124677784Y-128054929D01*
X124677652Y-128065027D01*
X124243689Y-128065027D01*
X124244347Y-128061329D01*
X124270433Y-127982898D01*
X124307699Y-127909774D01*
X124356145Y-127841957D01*
X124384561Y-127810038D01*
X124447909Y-127753263D01*
X124518701Y-127708234D01*
X124596939Y-127674953D01*
X124667823Y-127656191D01*
X124743878Y-127645586D01*
X124808444Y-127642976D01*
X124886083Y-127646822D01*
G37*
G36*
X125940876Y-127314713D02*
G01*
X125940876Y-128745000D01*
X125512230Y-128745000D01*
X125512230Y-127314713D01*
X125940876Y-127314713D01*
G37*
G36*
X126521197Y-128327344D02*
G01*
X126945080Y-128250774D01*
X126980045Y-128323383D01*
X127033649Y-128375246D01*
X127105891Y-128406364D01*
X127184393Y-128416575D01*
X127196773Y-128416737D01*
X127276371Y-128409546D01*
X127340492Y-128371791D01*
X127347715Y-128343098D01*
X127313643Y-128281915D01*
X127243213Y-128253680D01*
X127185415Y-128240150D01*
X127096143Y-128221551D01*
X127015170Y-128201475D01*
X126942499Y-128179923D01*
X126863331Y-128150905D01*
X126785450Y-128113038D01*
X126718194Y-128064660D01*
X126703646Y-128050006D01*
X126656362Y-127988022D01*
X126622588Y-127920771D01*
X126602324Y-127848254D01*
X126595569Y-127770471D01*
X126601004Y-127695694D01*
X126621085Y-127614607D01*
X126655962Y-127540148D01*
X126705635Y-127472315D01*
X126750175Y-127427920D01*
X126812827Y-127381479D01*
X126884831Y-127344646D01*
X126966185Y-127317422D01*
X127041123Y-127302076D01*
X127122555Y-127293401D01*
X127192376Y-127291266D01*
X127271895Y-127294608D01*
X127346275Y-127304636D01*
X127437454Y-127328403D01*
X127519497Y-127364055D01*
X127592403Y-127411591D01*
X127656173Y-127471011D01*
X127710807Y-127542314D01*
X127756305Y-127625502D01*
X127775628Y-127671552D01*
X127395708Y-127786224D01*
X127355449Y-127716978D01*
X127298555Y-127670394D01*
X127225026Y-127646473D01*
X127176989Y-127642976D01*
X127103359Y-127651807D01*
X127048799Y-127704358D01*
X127047662Y-127717714D01*
X127075872Y-127769371D01*
X127148369Y-127795243D01*
X127193842Y-127804542D01*
X127269412Y-127818506D01*
X127350744Y-127834649D01*
X127432740Y-127852636D01*
X127509447Y-127872077D01*
X127555077Y-127885875D01*
X127625476Y-127918446D01*
X127687563Y-127967294D01*
X127736794Y-128025826D01*
X127775434Y-128094434D01*
X127799762Y-128170197D01*
X127809422Y-128244502D01*
X127810066Y-128270558D01*
X127803845Y-128351101D01*
X127785182Y-128425667D01*
X127754077Y-128494258D01*
X127710530Y-128556871D01*
X127654541Y-128613509D01*
X127633112Y-128631060D01*
X127562942Y-128677750D01*
X127485147Y-128714780D01*
X127414493Y-128738259D01*
X127338544Y-128755030D01*
X127257300Y-128765093D01*
X127170761Y-128768447D01*
X127076216Y-128764570D01*
X126988633Y-128752939D01*
X126908012Y-128733555D01*
X126834353Y-128706417D01*
X126767655Y-128671525D01*
X126707918Y-128628879D01*
X126639099Y-128559957D01*
X126595606Y-128499219D01*
X126559076Y-128430728D01*
X126529506Y-128354482D01*
X126521197Y-128327344D01*
G37*
G36*
X128601047Y-127666423D02*
G01*
X128601047Y-127947791D01*
X128391853Y-127947791D01*
X128391853Y-128338335D01*
X128403801Y-128412670D01*
X128417132Y-128426995D01*
X128471720Y-128440184D01*
X128544564Y-128429165D01*
X128601047Y-128411974D01*
X128601047Y-128742801D01*
X128527724Y-128755198D01*
X128448770Y-128764214D01*
X128372463Y-128768221D01*
X128350087Y-128768447D01*
X128269993Y-128764274D01*
X128190349Y-128749288D01*
X128115912Y-128719400D01*
X128063224Y-128681252D01*
X128014345Y-128616580D01*
X127985831Y-128541368D01*
X127972797Y-128460985D01*
X127970534Y-128404281D01*
X127971633Y-128277885D01*
X127971633Y-127947791D01*
X127814829Y-127947791D01*
X127814829Y-127666423D01*
X127971999Y-127666423D01*
X127978228Y-127320942D01*
X128391853Y-127314347D01*
X128391853Y-127666423D01*
X128601047Y-127666423D01*
G37*
G36*
X129127146Y-128745000D02*
G01*
X128709857Y-128745000D01*
X128709857Y-127666423D01*
X129075489Y-127666423D01*
X129063765Y-127885509D01*
X129088443Y-127803086D01*
X129125383Y-127737715D01*
X129183977Y-127683003D01*
X129259260Y-127651502D01*
X129337073Y-127642976D01*
X129408514Y-127648105D01*
X129408514Y-128031322D01*
X129334892Y-128018764D01*
X129319487Y-128018133D01*
X129244542Y-128028757D01*
X129181430Y-128066916D01*
X129142360Y-128132827D01*
X129127897Y-128213265D01*
X129127146Y-128240150D01*
X129127146Y-128745000D01*
G37*
G36*
X130122861Y-127646876D02*
G01*
X130197638Y-127658575D01*
X130280735Y-127682909D01*
X130356594Y-127718475D01*
X130425215Y-127765273D01*
X130466940Y-127802711D01*
X130521599Y-127865307D01*
X130564948Y-127933571D01*
X130596989Y-128007502D01*
X130617722Y-128087101D01*
X130627146Y-128172366D01*
X130627774Y-128202048D01*
X130623803Y-128275775D01*
X130608553Y-128359100D01*
X130581865Y-128436809D01*
X130543741Y-128508903D01*
X130494178Y-128575381D01*
X130465108Y-128606514D01*
X130400386Y-128661546D01*
X130328220Y-128705192D01*
X130248608Y-128737452D01*
X130176579Y-128755638D01*
X130099379Y-128765917D01*
X130033898Y-128768447D01*
X129953444Y-128764359D01*
X129878322Y-128752096D01*
X129795211Y-128726590D01*
X129719777Y-128689311D01*
X129652020Y-128640259D01*
X129611113Y-128601018D01*
X129557824Y-128536198D01*
X129515561Y-128467307D01*
X129484323Y-128394346D01*
X129464110Y-128317315D01*
X129454922Y-128236214D01*
X129454309Y-128208276D01*
X129454706Y-128200949D01*
X129915928Y-128200949D01*
X129917897Y-128282075D01*
X129925897Y-128361781D01*
X129947436Y-128432857D01*
X130004784Y-128481784D01*
X130040126Y-128487079D01*
X130109918Y-128463449D01*
X130145070Y-128398372D01*
X130146371Y-128392557D01*
X130158650Y-128319862D01*
X130165262Y-128243561D01*
X130166521Y-128190690D01*
X130164319Y-128115777D01*
X130155645Y-128042399D01*
X130138678Y-127985160D01*
X130084146Y-127931530D01*
X130041225Y-127924344D01*
X129971757Y-127951324D01*
X129946703Y-127986992D01*
X129925666Y-128058779D01*
X129917401Y-128138994D01*
X129915928Y-128200949D01*
X129454706Y-128200949D01*
X129458307Y-128134567D01*
X129473660Y-128051310D01*
X129500528Y-127973721D01*
X129538910Y-127901799D01*
X129588808Y-127835545D01*
X129618074Y-127804542D01*
X129682912Y-127749635D01*
X129754602Y-127706088D01*
X129833144Y-127673901D01*
X129918539Y-127653074D01*
X129994935Y-127644396D01*
X130043057Y-127642976D01*
X130122861Y-127646876D01*
G37*
G36*
X132368371Y-128745000D02*
G01*
X131946319Y-128745000D01*
X131946319Y-128058066D01*
X131937045Y-127984977D01*
X131929833Y-127970872D01*
X131871581Y-127947791D01*
X131800705Y-127978646D01*
X131771545Y-128054208D01*
X131767900Y-128108991D01*
X131767900Y-128745000D01*
X131349878Y-128745000D01*
X131349878Y-128064295D01*
X131335790Y-127988863D01*
X131269767Y-127947905D01*
X131264515Y-127947791D01*
X131195622Y-127980671D01*
X131176308Y-128057127D01*
X131176221Y-128064295D01*
X131176221Y-128745000D01*
X130757101Y-128745000D01*
X130757101Y-127666423D01*
X131149477Y-127666423D01*
X131149477Y-127772302D01*
X131196944Y-127715722D01*
X131258745Y-127675307D01*
X131334880Y-127651059D01*
X131413257Y-127643102D01*
X131425349Y-127642976D01*
X131499568Y-127648179D01*
X131575119Y-127667403D01*
X131646910Y-127706719D01*
X131703175Y-127764536D01*
X131720272Y-127790987D01*
X131767802Y-127733315D01*
X131827042Y-127689807D01*
X131897993Y-127660465D01*
X131980654Y-127645288D01*
X132033147Y-127642976D01*
X132107731Y-127649210D01*
X132180740Y-127670033D01*
X132216696Y-127687306D01*
X132278165Y-127730933D01*
X132325349Y-127788416D01*
X132332467Y-127801245D01*
X132357011Y-127876248D01*
X132366653Y-127954955D01*
X132368371Y-128014103D01*
X132368371Y-128745000D01*
G37*
G36*
X132984229Y-127757648D02*
G01*
X133037838Y-127697176D01*
X133106888Y-127661901D01*
X133184809Y-127645775D01*
X133241417Y-127642976D01*
X133321251Y-127649917D01*
X133393143Y-127670739D01*
X133463050Y-127709678D01*
X133468929Y-127714050D01*
X133522789Y-127764075D01*
X133567132Y-127825763D01*
X133601958Y-127899114D01*
X133607781Y-127915184D01*
X133629741Y-127989299D01*
X133644515Y-128065327D01*
X133652101Y-128143267D01*
X133653210Y-128187393D01*
X133650366Y-128266151D01*
X133641833Y-128340078D01*
X133624084Y-128422416D01*
X133598144Y-128497798D01*
X133564012Y-128566225D01*
X133536706Y-128607979D01*
X133480426Y-128670505D01*
X133413207Y-128717674D01*
X133335049Y-128749485D01*
X133259349Y-128764529D01*
X133190126Y-128768447D01*
X133108883Y-128762986D01*
X133036064Y-128746602D01*
X132961755Y-128713684D01*
X132898911Y-128665899D01*
X132854170Y-128613108D01*
X132825605Y-128684893D01*
X132808741Y-128745000D01*
X132555949Y-128745000D01*
X132555949Y-128052205D01*
X132984229Y-128052205D01*
X132984229Y-128341632D01*
X132994748Y-128418333D01*
X133044817Y-128477989D01*
X133091940Y-128487079D01*
X133162388Y-128459825D01*
X133182432Y-128434323D01*
X133205310Y-128357713D01*
X133212781Y-128276856D01*
X133214306Y-128206078D01*
X133212570Y-128129940D01*
X133205238Y-128052296D01*
X133184518Y-127980358D01*
X133178036Y-127970505D01*
X133117948Y-127927995D01*
X133090108Y-127924344D01*
X133020943Y-127952680D01*
X133016835Y-127956584D01*
X132985789Y-128025966D01*
X132984229Y-128052205D01*
X132555949Y-128052205D01*
X132555949Y-127314713D01*
X132984229Y-127314713D01*
X132984229Y-127757648D01*
G37*
G36*
X134391038Y-127646822D02*
G01*
X134463901Y-127658360D01*
X134545032Y-127682360D01*
X134619286Y-127717436D01*
X134686661Y-127763590D01*
X134727757Y-127800512D01*
X134781668Y-127863405D01*
X134824425Y-127934207D01*
X134856028Y-128012916D01*
X134873844Y-128084549D01*
X134883914Y-128161673D01*
X134886392Y-128227327D01*
X134885293Y-128299501D01*
X134184072Y-128299501D01*
X134192068Y-128376051D01*
X134216312Y-128439452D01*
X134280205Y-128481451D01*
X134332816Y-128487079D01*
X134406131Y-128470369D01*
X134459154Y-128414023D01*
X134480461Y-128345662D01*
X134888224Y-128373506D01*
X134866683Y-128445930D01*
X134835080Y-128512533D01*
X134793413Y-128573316D01*
X134741684Y-128628278D01*
X134707607Y-128657072D01*
X134640345Y-128700469D01*
X134563581Y-128733207D01*
X134490221Y-128752785D01*
X134409880Y-128764531D01*
X134322558Y-128768447D01*
X134240941Y-128764592D01*
X134164620Y-128753027D01*
X134093594Y-128733751D01*
X134015353Y-128700444D01*
X133944736Y-128656033D01*
X133891713Y-128610544D01*
X133836930Y-128548552D01*
X133793482Y-128481280D01*
X133761368Y-128408727D01*
X133740588Y-128330893D01*
X133731143Y-128247779D01*
X133730513Y-128218900D01*
X133734395Y-128145066D01*
X133748643Y-128065027D01*
X134182607Y-128065027D01*
X134451884Y-128065027D01*
X134442723Y-127989798D01*
X134412683Y-127936067D01*
X134344814Y-127903094D01*
X134317429Y-127900896D01*
X134240670Y-127920291D01*
X134195773Y-127978474D01*
X134182738Y-128054929D01*
X134182607Y-128065027D01*
X133748643Y-128065027D01*
X133749301Y-128061329D01*
X133775388Y-127982898D01*
X133812654Y-127909774D01*
X133861100Y-127841957D01*
X133889515Y-127810038D01*
X133952863Y-127753263D01*
X134023656Y-127708234D01*
X134101893Y-127674953D01*
X134172778Y-127656191D01*
X134248833Y-127645586D01*
X134313399Y-127642976D01*
X134391038Y-127646822D01*
G37*
G36*
X135434473Y-128745000D02*
G01*
X135017184Y-128745000D01*
X135017184Y-127666423D01*
X135382816Y-127666423D01*
X135371092Y-127885509D01*
X135395770Y-127803086D01*
X135432710Y-127737715D01*
X135491304Y-127683003D01*
X135566588Y-127651502D01*
X135644400Y-127642976D01*
X135715841Y-127648105D01*
X135715841Y-128031322D01*
X135642219Y-128018764D01*
X135626815Y-128018133D01*
X135551869Y-128028757D01*
X135488757Y-128066916D01*
X135449688Y-128132827D01*
X135435225Y-128213265D01*
X135434473Y-128240150D01*
X135434473Y-128745000D01*
G37*
G36*
X136922279Y-127713318D02*
G01*
X136891504Y-127713318D01*
X136816748Y-127713318D01*
X136812003Y-127713318D01*
X136736797Y-127725837D01*
X136710520Y-127752885D01*
X136766306Y-127809998D01*
X136803836Y-127874588D01*
X136823107Y-127946655D01*
X136825925Y-127989923D01*
X136817704Y-128068050D01*
X136788805Y-128143462D01*
X136739098Y-128205660D01*
X136694400Y-128239783D01*
X136623005Y-128276168D01*
X136551293Y-128299477D01*
X136470955Y-128314826D01*
X136395229Y-128321648D01*
X136341225Y-128322948D01*
X136287369Y-128321116D01*
X136240475Y-128318918D01*
X136166753Y-128332609D01*
X136152181Y-128357752D01*
X136220123Y-128393215D01*
X136229484Y-128393656D01*
X136566173Y-128407944D01*
X136644236Y-128415944D01*
X136721688Y-128435647D01*
X136793822Y-128471280D01*
X136844609Y-128514923D01*
X136891750Y-128579509D01*
X136921431Y-128650535D01*
X136933653Y-128728001D01*
X136934002Y-128744267D01*
X136925736Y-128818685D01*
X136896676Y-128893756D01*
X136853279Y-128952797D01*
X136801745Y-128998524D01*
X136732419Y-129036781D01*
X136654495Y-129062095D01*
X136576512Y-129077916D01*
X136486669Y-129088943D01*
X136406255Y-129094312D01*
X136318250Y-129096613D01*
X136295063Y-129096709D01*
X136190764Y-129094285D01*
X136096724Y-129087011D01*
X136012943Y-129074887D01*
X135939421Y-129057915D01*
X135857349Y-129027741D01*
X135793516Y-128988947D01*
X135739372Y-128928330D01*
X135713724Y-128854243D01*
X135711445Y-128820837D01*
X135717854Y-128775408D01*
X136074878Y-128775408D01*
X136120942Y-128836275D01*
X136150349Y-128845383D01*
X136227786Y-128856904D01*
X136304176Y-128861430D01*
X136359909Y-128862236D01*
X136434429Y-128859855D01*
X136506850Y-128846809D01*
X136516347Y-128842086D01*
X136548953Y-128788963D01*
X136535398Y-128750129D01*
X136465056Y-128731810D01*
X136214096Y-128720087D01*
X136169034Y-128719354D01*
X136095567Y-128735174D01*
X136074878Y-128775408D01*
X135717854Y-128775408D01*
X135722399Y-128743196D01*
X135760266Y-128675419D01*
X135825181Y-128627105D01*
X135849930Y-128616406D01*
X135794898Y-128560755D01*
X135767922Y-128491440D01*
X135764934Y-128454839D01*
X135776291Y-128378910D01*
X135816219Y-128307284D01*
X135875845Y-128255879D01*
X135946651Y-128220366D01*
X135881575Y-128181165D01*
X135830590Y-128120423D01*
X135805024Y-128051638D01*
X135798526Y-127986259D01*
X136206769Y-127986259D01*
X136231563Y-128059627D01*
X136299444Y-128087576D01*
X136319609Y-128088475D01*
X136393240Y-128068559D01*
X136426374Y-128003022D01*
X136427320Y-127984427D01*
X136406143Y-127911298D01*
X136336451Y-127878389D01*
X136316678Y-127877449D01*
X136245516Y-127895407D01*
X136208486Y-127960757D01*
X136206769Y-127986259D01*
X135798526Y-127986259D01*
X135797907Y-127980031D01*
X135806654Y-127904308D01*
X135837405Y-127829903D01*
X135890296Y-127766917D01*
X135937858Y-127731270D01*
X136004033Y-127696866D01*
X136079780Y-127670912D01*
X136152324Y-127655392D01*
X136231901Y-127646080D01*
X136318510Y-127642976D01*
X136396134Y-127645706D01*
X136469993Y-127654827D01*
X136505356Y-127662393D01*
X136521433Y-127589251D01*
X136553547Y-127517844D01*
X136608692Y-127457099D01*
X136682876Y-127420652D01*
X136761616Y-127408751D01*
X136776099Y-127408503D01*
X136851370Y-127408503D01*
X136927071Y-127408503D01*
X136933636Y-127408503D01*
X136922279Y-127713318D01*
G37*
G36*
X138602059Y-128369842D02*
G01*
X138585939Y-128745000D01*
X137491242Y-128745000D01*
X137491242Y-128398785D01*
X137735241Y-128230624D01*
X137798333Y-128184172D01*
X137857111Y-128138090D01*
X137921327Y-128086473D01*
X137930147Y-128079316D01*
X137987837Y-128031170D01*
X138047841Y-127977100D01*
X138099535Y-127922978D01*
X138115161Y-127902728D01*
X138148321Y-127836973D01*
X138157659Y-127777065D01*
X138141208Y-127704714D01*
X138122854Y-127679612D01*
X138055055Y-127644729D01*
X138031263Y-127642976D01*
X137953862Y-127666088D01*
X137904940Y-127726412D01*
X137880474Y-127799216D01*
X137868964Y-127879647D01*
X137489777Y-127804542D01*
X137505567Y-127725307D01*
X137527064Y-127652923D01*
X137560394Y-127575107D01*
X137601940Y-127507156D01*
X137651704Y-127449072D01*
X137689445Y-127415830D01*
X137750930Y-127373498D01*
X137816408Y-127339924D01*
X137885878Y-127315108D01*
X137959341Y-127299051D01*
X138036797Y-127291753D01*
X138063503Y-127291266D01*
X138147906Y-127295671D01*
X138226358Y-127308886D01*
X138298859Y-127330911D01*
X138365410Y-127361745D01*
X138435532Y-127408854D01*
X138444888Y-127416563D01*
X138502704Y-127475359D01*
X138546318Y-127542115D01*
X138575733Y-127616830D01*
X138590948Y-127699505D01*
X138593266Y-127750321D01*
X138586890Y-127827324D01*
X138567764Y-127902124D01*
X138535886Y-127974722D01*
X138512666Y-128014103D01*
X138464591Y-128073701D01*
X138402732Y-128132906D01*
X138336622Y-128187970D01*
X138274203Y-128235769D01*
X138203311Y-128286900D01*
X138123948Y-128341362D01*
X138081089Y-128369842D01*
X138602059Y-128369842D01*
G37*
G36*
X139375291Y-127296427D02*
G01*
X139451281Y-127311910D01*
X139520992Y-127337715D01*
X139596357Y-127382305D01*
X139652255Y-127430818D01*
X139701873Y-127489653D01*
X139711043Y-127502658D01*
X139752839Y-127571412D01*
X139787551Y-127645784D01*
X139815178Y-127725772D01*
X139835722Y-127811377D01*
X139847056Y-127883906D01*
X139853857Y-127960030D01*
X139856124Y-128039748D01*
X139853685Y-128120812D01*
X139846369Y-128197674D01*
X139834176Y-128270335D01*
X139812076Y-128355251D01*
X139782356Y-128433603D01*
X139745014Y-128505389D01*
X139700052Y-128570610D01*
X139648890Y-128627604D01*
X139592719Y-128674938D01*
X139518702Y-128718988D01*
X139437472Y-128749127D01*
X139364271Y-128763617D01*
X139286061Y-128768447D01*
X139207325Y-128763447D01*
X139133919Y-128748447D01*
X139052870Y-128717247D01*
X138979497Y-128671648D01*
X138924217Y-128622649D01*
X138874267Y-128563649D01*
X138830678Y-128496555D01*
X138794476Y-128423272D01*
X138765662Y-128343798D01*
X138744237Y-128258136D01*
X138732416Y-128185149D01*
X138725323Y-128108201D01*
X138722959Y-128027292D01*
X138723452Y-128010439D01*
X139157833Y-128010439D01*
X139158558Y-128085631D01*
X139161340Y-128165213D01*
X139167223Y-128243374D01*
X139178960Y-128320631D01*
X139187509Y-128352257D01*
X139224829Y-128415369D01*
X139290091Y-128440184D01*
X139360188Y-128410199D01*
X139396333Y-128340475D01*
X139398168Y-128333939D01*
X139413238Y-128259199D01*
X139422029Y-128177678D01*
X139426047Y-128093878D01*
X139426745Y-128036085D01*
X139425832Y-127958434D01*
X139422329Y-127877273D01*
X139414921Y-127799157D01*
X139400141Y-127724946D01*
X139389376Y-127696465D01*
X139343053Y-127636433D01*
X139291190Y-127619528D01*
X139222140Y-127651986D01*
X139187509Y-127722110D01*
X139171860Y-127794188D01*
X139162731Y-127873069D01*
X139158558Y-127954327D01*
X139157833Y-128010439D01*
X138723452Y-128010439D01*
X138725380Y-127944516D01*
X138732645Y-127866183D01*
X138744752Y-127792292D01*
X138766696Y-127706175D01*
X138796207Y-127626999D01*
X138833286Y-127554764D01*
X138877931Y-127489469D01*
X138928927Y-127432370D01*
X138985057Y-127384948D01*
X139059190Y-127340817D01*
X139140716Y-127310622D01*
X139214302Y-127296105D01*
X139293022Y-127291266D01*
X139375291Y-127296427D01*
G37*
G36*
X141064027Y-128369842D02*
G01*
X141047907Y-128745000D01*
X139953210Y-128745000D01*
X139953210Y-128398785D01*
X140197209Y-128230624D01*
X140260301Y-128184172D01*
X140319079Y-128138090D01*
X140383295Y-128086473D01*
X140392115Y-128079316D01*
X140449804Y-128031170D01*
X140509809Y-127977100D01*
X140561503Y-127922978D01*
X140577129Y-127902728D01*
X140610289Y-127836973D01*
X140619627Y-127777065D01*
X140603176Y-127704714D01*
X140584822Y-127679612D01*
X140517023Y-127644729D01*
X140493231Y-127642976D01*
X140415830Y-127666088D01*
X140366908Y-127726412D01*
X140342442Y-127799216D01*
X140330932Y-127879647D01*
X139951745Y-127804542D01*
X139967535Y-127725307D01*
X139989032Y-127652923D01*
X140022361Y-127575107D01*
X140063908Y-127507156D01*
X140113672Y-127449072D01*
X140151413Y-127415830D01*
X140212898Y-127373498D01*
X140278376Y-127339924D01*
X140347846Y-127315108D01*
X140421309Y-127299051D01*
X140498765Y-127291753D01*
X140525471Y-127291266D01*
X140609874Y-127295671D01*
X140688326Y-127308886D01*
X140760827Y-127330911D01*
X140827378Y-127361745D01*
X140897500Y-127408854D01*
X140906856Y-127416563D01*
X140964671Y-127475359D01*
X141008286Y-127542115D01*
X141037701Y-127616830D01*
X141052916Y-127699505D01*
X141055234Y-127750321D01*
X141048858Y-127827324D01*
X141029732Y-127902124D01*
X140997854Y-127974722D01*
X140974634Y-128014103D01*
X140926558Y-128073701D01*
X140864700Y-128132906D01*
X140798590Y-128187970D01*
X140736171Y-128235769D01*
X140665279Y-128286900D01*
X140585916Y-128341362D01*
X140543057Y-128369842D01*
X141064027Y-128369842D01*
G37*
G36*
X142154693Y-128088475D02*
G01*
X142352530Y-128088475D01*
X142352530Y-128440184D01*
X142154693Y-128440184D01*
X142154693Y-128745000D01*
X141743999Y-128745000D01*
X141743999Y-128440184D01*
X141168807Y-128440184D01*
X141168807Y-128096535D01*
X141174164Y-128088475D01*
X141510625Y-128088475D01*
X141743999Y-128088475D01*
X141743999Y-127736765D01*
X141510625Y-128088475D01*
X141174164Y-128088475D01*
X141704065Y-127291266D01*
X142154693Y-127291266D01*
X142154693Y-128088475D01*
G37*
G36*
X121233810Y-68129427D02*
G01*
X120346475Y-70990000D01*
X119432030Y-70990000D01*
X118505861Y-68129427D01*
X119466468Y-68129427D01*
X119913433Y-69625659D01*
X119961321Y-69767559D01*
X119972784Y-69806643D01*
X120473970Y-68129427D01*
X121233810Y-68129427D01*
G37*
G36*
X122543473Y-68791032D02*
G01*
X122691951Y-68806274D01*
X122846185Y-68834775D01*
X122859734Y-68837976D01*
X123009486Y-68885443D01*
X123143810Y-68955935D01*
X123204117Y-69002107D01*
X123305815Y-69109741D01*
X123376308Y-69239511D01*
X123406361Y-69391501D01*
X123417524Y-69551928D01*
X123420272Y-69711388D01*
X123420272Y-70554759D01*
X123429016Y-70712968D01*
X123455251Y-70862173D01*
X123494277Y-70990000D01*
X122658234Y-70990000D01*
X122632506Y-70841946D01*
X122625261Y-70746001D01*
X122530263Y-70859347D01*
X122408757Y-70944854D01*
X122260744Y-71002521D01*
X122112779Y-71029792D01*
X121974598Y-71036894D01*
X121816984Y-71027497D01*
X121659092Y-70993746D01*
X121509819Y-70926435D01*
X121402337Y-70840523D01*
X121310245Y-70725427D01*
X121243269Y-70586667D01*
X121213502Y-70436457D01*
X121211828Y-70389162D01*
X121219017Y-70328346D01*
X122105757Y-70328346D01*
X122185278Y-70456929D01*
X122290404Y-70474159D01*
X122436208Y-70446705D01*
X122499232Y-70410411D01*
X122570201Y-70276495D01*
X122584228Y-70118785D01*
X122584228Y-70054305D01*
X122421623Y-70077781D01*
X122274437Y-70121449D01*
X122152482Y-70203352D01*
X122105757Y-70328346D01*
X121219017Y-70328346D01*
X121231154Y-70225672D01*
X121289131Y-70078852D01*
X121385759Y-69948701D01*
X121502016Y-69848493D01*
X121521039Y-69835219D01*
X121652853Y-69762336D01*
X121815837Y-69701405D01*
X121975466Y-69659759D01*
X122156741Y-69626415D01*
X122317346Y-69605715D01*
X122491804Y-69590328D01*
X122584228Y-69584626D01*
X122584228Y-69558248D01*
X122553316Y-69414679D01*
X122529274Y-69388988D01*
X122387663Y-69349317D01*
X122360013Y-69348688D01*
X122205937Y-69376567D01*
X122094170Y-69481403D01*
X122063258Y-69584626D01*
X121263119Y-69534801D01*
X121318028Y-69359289D01*
X121397391Y-69207179D01*
X121501210Y-69078471D01*
X121629483Y-68973164D01*
X121782211Y-68891259D01*
X121959394Y-68832755D01*
X122108330Y-68804234D01*
X122271021Y-68788877D01*
X122387124Y-68785952D01*
X122543473Y-68791032D01*
G37*
G36*
X124982449Y-70097536D02*
G01*
X125730565Y-70160551D01*
X125702813Y-70305356D01*
X125651682Y-70459710D01*
X125580355Y-70598356D01*
X125488833Y-70721294D01*
X125411095Y-70799490D01*
X125286810Y-70891994D01*
X125146045Y-70961778D01*
X124988801Y-71008841D01*
X124840904Y-71031098D01*
X124708408Y-71036894D01*
X124559906Y-71029291D01*
X124393462Y-71000097D01*
X124239846Y-70949006D01*
X124099059Y-70876019D01*
X123971101Y-70781137D01*
X123911933Y-70725484D01*
X123807596Y-70602300D01*
X123724846Y-70466854D01*
X123663684Y-70319146D01*
X123624108Y-70159177D01*
X123606119Y-69986946D01*
X123604919Y-69926810D01*
X123612343Y-69776032D01*
X123640851Y-69606291D01*
X123690739Y-69448760D01*
X123762009Y-69303439D01*
X123854659Y-69170329D01*
X123909002Y-69108353D01*
X124029696Y-68998787D01*
X124163167Y-68911890D01*
X124309415Y-68847662D01*
X124468440Y-68806102D01*
X124640242Y-68787211D01*
X124700348Y-68785952D01*
X124856600Y-68794453D01*
X125001672Y-68819955D01*
X125156792Y-68871196D01*
X125296695Y-68945578D01*
X125404501Y-69027752D01*
X125512743Y-69140513D01*
X125598966Y-69267858D01*
X125663169Y-69409790D01*
X125705354Y-69566308D01*
X125719574Y-69662295D01*
X124953872Y-69725310D01*
X124922411Y-69581054D01*
X124850587Y-69450000D01*
X124723063Y-69395582D01*
X124585953Y-69455390D01*
X124549406Y-69511353D01*
X124508909Y-69660579D01*
X124494970Y-69822606D01*
X124492986Y-69929741D01*
X124498496Y-70078892D01*
X124522133Y-70231281D01*
X124549406Y-70309295D01*
X124657538Y-70413324D01*
X124741381Y-70427264D01*
X124877668Y-70372846D01*
X124951995Y-70241792D01*
X124982449Y-70097536D01*
G37*
G36*
X127996894Y-68832847D02*
G01*
X127996894Y-70990000D01*
X127189427Y-70990000D01*
X127189427Y-70732812D01*
X127102095Y-70865848D01*
X126968326Y-70960874D01*
X126813186Y-71012841D01*
X126651911Y-71034222D01*
X126561479Y-71036894D01*
X126398856Y-71023100D01*
X126258026Y-70981716D01*
X126127108Y-70903377D01*
X126082274Y-70862505D01*
X125992243Y-70739200D01*
X125935557Y-70587274D01*
X125913049Y-70426068D01*
X125911549Y-70367180D01*
X125911549Y-68832847D01*
X126781297Y-68832847D01*
X126781297Y-70178869D01*
X126803176Y-70326090D01*
X126809874Y-70337871D01*
X126924912Y-70380369D01*
X127062677Y-70328197D01*
X127078053Y-70312226D01*
X127134381Y-70176625D01*
X127138136Y-70116587D01*
X127138136Y-68832847D01*
X127996894Y-68832847D01*
G37*
G36*
X130455931Y-68832847D02*
G01*
X130455931Y-70990000D01*
X129648464Y-70990000D01*
X129648464Y-70732812D01*
X129561132Y-70865848D01*
X129427363Y-70960874D01*
X129272223Y-71012841D01*
X129110948Y-71034222D01*
X129020516Y-71036894D01*
X128857893Y-71023100D01*
X128717063Y-70981716D01*
X128586145Y-70903377D01*
X128541311Y-70862505D01*
X128451280Y-70739200D01*
X128394594Y-70587274D01*
X128372086Y-70426068D01*
X128370586Y-70367180D01*
X128370586Y-68832847D01*
X129240334Y-68832847D01*
X129240334Y-70178869D01*
X129262213Y-70326090D01*
X129268911Y-70337871D01*
X129383949Y-70380369D01*
X129521714Y-70328197D01*
X129537090Y-70312226D01*
X129593418Y-70176625D01*
X129597173Y-70116587D01*
X129597173Y-68832847D01*
X130455931Y-68832847D01*
G37*
G36*
X134052163Y-70990000D02*
G01*
X133208060Y-70990000D01*
X133208060Y-69616133D01*
X133189512Y-69469954D01*
X133175087Y-69441744D01*
X133058583Y-69395582D01*
X132916831Y-69457292D01*
X132858511Y-69608417D01*
X132851221Y-69717983D01*
X132851221Y-70990000D01*
X132015177Y-70990000D01*
X132015177Y-69628590D01*
X131987001Y-69477727D01*
X131854955Y-69395810D01*
X131844452Y-69395582D01*
X131706665Y-69461343D01*
X131668037Y-69614254D01*
X131667864Y-69628590D01*
X131667864Y-70990000D01*
X130829623Y-70990000D01*
X130829623Y-68832847D01*
X131614375Y-68832847D01*
X131614375Y-69044605D01*
X131709309Y-68931444D01*
X131832911Y-68850615D01*
X131985181Y-68802118D01*
X132141934Y-68786205D01*
X132166120Y-68785952D01*
X132314557Y-68796359D01*
X132465660Y-68834807D01*
X132609241Y-68913438D01*
X132721772Y-69029072D01*
X132755966Y-69081974D01*
X132851025Y-68966630D01*
X132969505Y-68879615D01*
X133111407Y-68820931D01*
X133276730Y-68790577D01*
X133381716Y-68785952D01*
X133530884Y-68798420D01*
X133676901Y-68840066D01*
X133748813Y-68874612D01*
X133871751Y-68961867D01*
X133966119Y-69076832D01*
X133980355Y-69102491D01*
X134029442Y-69252497D01*
X134048727Y-69409911D01*
X134052163Y-69528206D01*
X134052163Y-70990000D01*
G37*
G36*
X137988381Y-70990000D02*
G01*
X137059281Y-70990000D01*
X136900279Y-70427264D01*
X136181472Y-70427264D01*
X136012212Y-70990000D01*
X135262630Y-70990000D01*
X135653763Y-69723845D01*
X136341939Y-69723845D01*
X136735415Y-69723845D01*
X136538311Y-69118611D01*
X136341939Y-69723845D01*
X135653763Y-69723845D01*
X136146301Y-68129427D01*
X137094452Y-68129427D01*
X137988381Y-70990000D01*
G37*
G36*
X139301430Y-68879741D02*
G01*
X139301430Y-70990000D01*
X138436078Y-70990000D01*
X138436078Y-68879741D01*
X137852826Y-68879741D01*
X137852826Y-68129427D01*
X139883949Y-68129427D01*
X139883949Y-68879741D01*
X139301430Y-68879741D01*
G37*
G36*
X143096231Y-68129427D02*
G01*
X143096231Y-70990000D01*
X142247732Y-70990000D01*
X142271179Y-68954480D01*
X141768527Y-70990000D01*
X141183810Y-70990000D01*
X140662107Y-68954480D01*
X140685554Y-70990000D01*
X139991660Y-70990000D01*
X139991660Y-68129427D01*
X141159630Y-68129427D01*
X141549441Y-69556782D01*
X141921667Y-68129427D01*
X143096231Y-68129427D01*
G37*
D12*
X124239347Y-113734438D02*
X124239347Y-111734438D01*
X124239347Y-111734438D02*
X125001252Y-111734438D01*
X125001252Y-111734438D02*
X125191728Y-111829676D01*
X125191728Y-111829676D02*
X125286966Y-111924914D01*
X125286966Y-111924914D02*
X125382204Y-112115390D01*
X125382204Y-112115390D02*
X125382204Y-112401104D01*
X125382204Y-112401104D02*
X125286966Y-112591580D01*
X125286966Y-112591580D02*
X125191728Y-112686819D01*
X125191728Y-112686819D02*
X125001252Y-112782057D01*
X125001252Y-112782057D02*
X124239347Y-112782057D01*
X126239347Y-113734438D02*
X126239347Y-111734438D01*
X127096490Y-113734438D02*
X127096490Y-112686819D01*
X127096490Y-112686819D02*
X127001252Y-112496342D01*
X127001252Y-112496342D02*
X126810776Y-112401104D01*
X126810776Y-112401104D02*
X126525061Y-112401104D01*
X126525061Y-112401104D02*
X126334585Y-112496342D01*
X126334585Y-112496342D02*
X126239347Y-112591580D01*
X128334585Y-113734438D02*
X128144109Y-113639200D01*
X128144109Y-113639200D02*
X128048871Y-113543961D01*
X128048871Y-113543961D02*
X127953633Y-113353485D01*
X127953633Y-113353485D02*
X127953633Y-112782057D01*
X127953633Y-112782057D02*
X128048871Y-112591580D01*
X128048871Y-112591580D02*
X128144109Y-112496342D01*
X128144109Y-112496342D02*
X128334585Y-112401104D01*
X128334585Y-112401104D02*
X128620300Y-112401104D01*
X128620300Y-112401104D02*
X128810776Y-112496342D01*
X128810776Y-112496342D02*
X128906014Y-112591580D01*
X128906014Y-112591580D02*
X129001252Y-112782057D01*
X129001252Y-112782057D02*
X129001252Y-113353485D01*
X129001252Y-113353485D02*
X128906014Y-113543961D01*
X128906014Y-113543961D02*
X128810776Y-113639200D01*
X128810776Y-113639200D02*
X128620300Y-113734438D01*
X128620300Y-113734438D02*
X128334585Y-113734438D01*
X129572681Y-112401104D02*
X130334585Y-112401104D01*
X129858395Y-111734438D02*
X129858395Y-113448723D01*
X129858395Y-113448723D02*
X129953633Y-113639200D01*
X129953633Y-113639200D02*
X130144109Y-113734438D01*
X130144109Y-113734438D02*
X130334585Y-113734438D01*
X131286966Y-113734438D02*
X131096490Y-113639200D01*
X131096490Y-113639200D02*
X131001252Y-113543961D01*
X131001252Y-113543961D02*
X130906014Y-113353485D01*
X130906014Y-113353485D02*
X130906014Y-112782057D01*
X130906014Y-112782057D02*
X131001252Y-112591580D01*
X131001252Y-112591580D02*
X131096490Y-112496342D01*
X131096490Y-112496342D02*
X131286966Y-112401104D01*
X131286966Y-112401104D02*
X131572681Y-112401104D01*
X131572681Y-112401104D02*
X131763157Y-112496342D01*
X131763157Y-112496342D02*
X131858395Y-112591580D01*
X131858395Y-112591580D02*
X131953633Y-112782057D01*
X131953633Y-112782057D02*
X131953633Y-113353485D01*
X131953633Y-113353485D02*
X131858395Y-113543961D01*
X131858395Y-113543961D02*
X131763157Y-113639200D01*
X131763157Y-113639200D02*
X131572681Y-113734438D01*
X131572681Y-113734438D02*
X131286966Y-113734438D01*
X132810776Y-112401104D02*
X132810776Y-113734438D01*
X132810776Y-112591580D02*
X132906014Y-112496342D01*
X132906014Y-112496342D02*
X133096490Y-112401104D01*
X133096490Y-112401104D02*
X133382205Y-112401104D01*
X133382205Y-112401104D02*
X133572681Y-112496342D01*
X133572681Y-112496342D02*
X133667919Y-112686819D01*
X133667919Y-112686819D02*
X133667919Y-113734438D01*
X136048872Y-111924914D02*
X136144110Y-111829676D01*
X136144110Y-111829676D02*
X136334586Y-111734438D01*
X136334586Y-111734438D02*
X136810777Y-111734438D01*
X136810777Y-111734438D02*
X137001253Y-111829676D01*
X137001253Y-111829676D02*
X137096491Y-111924914D01*
X137096491Y-111924914D02*
X137191729Y-112115390D01*
X137191729Y-112115390D02*
X137191729Y-112305866D01*
X137191729Y-112305866D02*
X137096491Y-112591580D01*
X137096491Y-112591580D02*
X135953634Y-113734438D01*
X135953634Y-113734438D02*
X137191729Y-113734438D01*
D13*
%TO.C,Reset*%
X150040000Y-83750000D03*
X150040000Y-81210000D03*
D14*
X147500000Y-83750000D03*
D15*
X147500000Y-81210000D03*
%TD*%
D13*
%TO.C,User1*%
X110460000Y-90710000D03*
X110460000Y-93250000D03*
D14*
X113000000Y-90710000D03*
D15*
X113000000Y-93250000D03*
%TD*%
D13*
%TO.C,User2*%
X110460000Y-100250000D03*
X110460000Y-102790000D03*
D14*
X113000000Y-100250000D03*
D15*
X113000000Y-102790000D03*
%TD*%
D13*
%TO.C,9g Servo*%
X150040000Y-106830000D03*
X150040000Y-104290000D03*
X150040000Y-101750000D03*
D14*
X147500000Y-106830000D03*
D15*
X147500000Y-104290000D03*
X147500000Y-101750000D03*
%TD*%
D13*
%TO.C,Neopixel*%
X150040000Y-95250000D03*
X150040000Y-92710000D03*
X150040000Y-90170000D03*
D14*
X147500000Y-95250000D03*
D15*
X147500000Y-92710000D03*
X147500000Y-90170000D03*
%TD*%
D13*
%TO.C,Cam*%
X110460000Y-81750000D03*
X110460000Y-84290000D03*
D14*
X113000000Y-81750000D03*
D15*
X113000000Y-84290000D03*
%TD*%
D16*
%TO.C,A1*%
X121220000Y-76030000D03*
D17*
X121220000Y-121750000D03*
D16*
X139000000Y-76030000D03*
D17*
X139000000Y-121750000D03*
D18*
X120250000Y-79840000D03*
D19*
X120250000Y-82380000D03*
X120250000Y-84920000D03*
X120250000Y-87460000D03*
X120250000Y-90000000D03*
X120250000Y-92540000D03*
X120250000Y-95080000D03*
X120250000Y-97620000D03*
X120250000Y-100160000D03*
X120250000Y-102700000D03*
X120250000Y-105240000D03*
X120250000Y-107780000D03*
X120250000Y-110320000D03*
X120250000Y-112860000D03*
X120250000Y-115400000D03*
X120250000Y-117940000D03*
X139970000Y-117940000D03*
X139970000Y-115400000D03*
X139970000Y-112860000D03*
X139970000Y-110320000D03*
X139970000Y-107780000D03*
X139970000Y-105240000D03*
X139970000Y-102700000D03*
X139970000Y-100160000D03*
X139970000Y-97620000D03*
X139970000Y-95080000D03*
X139970000Y-92540000D03*
X139970000Y-90000000D03*
%TD*%
D20*
%TO.C,H3*%
X113500000Y-126250000D03*
%TD*%
%TO.C,H2*%
X147702236Y-70750000D03*
%TD*%
%TO.C,H1*%
X113500000Y-70750000D03*
%TD*%
%TO.C,H4*%
X147702236Y-126250000D03*
%TD*%
M02*
