%TF.GenerationSoftware,KiCad,Pcbnew,8.0.2*%
%TF.CreationDate,2024-05-18T00:20:58-06:00*%
%TF.ProjectId,VacuumATM_wCoinDispenser,56616375-756d-4415-944d-5f77436f696e,rev?*%
%TF.SameCoordinates,Original*%
%TF.FileFunction,Legend,Top*%
%TF.FilePolarity,Positive*%
%FSLAX46Y46*%
G04 Gerber Fmt 4.6, Leading zero omitted, Abs format (unit mm)*
G04 Created by KiCad (PCBNEW 8.0.2) date 2024-05-18 00:20:58*
%MOMM*%
%LPD*%
G01*
G04 APERTURE LIST*
%ADD10C,0.100000*%
%ADD11C,0.150000*%
%ADD12C,0.120000*%
G04 APERTURE END LIST*
D10*
X105338973Y-102622419D02*
X105958020Y-102622419D01*
X105958020Y-102622419D02*
X105624687Y-103003371D01*
X105624687Y-103003371D02*
X105767544Y-103003371D01*
X105767544Y-103003371D02*
X105862782Y-103050990D01*
X105862782Y-103050990D02*
X105910401Y-103098609D01*
X105910401Y-103098609D02*
X105958020Y-103193847D01*
X105958020Y-103193847D02*
X105958020Y-103431942D01*
X105958020Y-103431942D02*
X105910401Y-103527180D01*
X105910401Y-103527180D02*
X105862782Y-103574800D01*
X105862782Y-103574800D02*
X105767544Y-103622419D01*
X105767544Y-103622419D02*
X105481830Y-103622419D01*
X105481830Y-103622419D02*
X105386592Y-103574800D01*
X105386592Y-103574800D02*
X105338973Y-103527180D01*
X106386592Y-103527180D02*
X106434211Y-103574800D01*
X106434211Y-103574800D02*
X106386592Y-103622419D01*
X106386592Y-103622419D02*
X106338973Y-103574800D01*
X106338973Y-103574800D02*
X106386592Y-103527180D01*
X106386592Y-103527180D02*
X106386592Y-103622419D01*
X106767544Y-102622419D02*
X107386591Y-102622419D01*
X107386591Y-102622419D02*
X107053258Y-103003371D01*
X107053258Y-103003371D02*
X107196115Y-103003371D01*
X107196115Y-103003371D02*
X107291353Y-103050990D01*
X107291353Y-103050990D02*
X107338972Y-103098609D01*
X107338972Y-103098609D02*
X107386591Y-103193847D01*
X107386591Y-103193847D02*
X107386591Y-103431942D01*
X107386591Y-103431942D02*
X107338972Y-103527180D01*
X107338972Y-103527180D02*
X107291353Y-103574800D01*
X107291353Y-103574800D02*
X107196115Y-103622419D01*
X107196115Y-103622419D02*
X106910401Y-103622419D01*
X106910401Y-103622419D02*
X106815163Y-103574800D01*
X106815163Y-103574800D02*
X106767544Y-103527180D01*
X107672306Y-102622419D02*
X108005639Y-103622419D01*
X108005639Y-103622419D02*
X108338972Y-102622419D01*
X106719925Y-100622419D02*
X106719925Y-99622419D01*
X106719925Y-99622419D02*
X106958020Y-99622419D01*
X106958020Y-99622419D02*
X107100877Y-99670038D01*
X107100877Y-99670038D02*
X107196115Y-99765276D01*
X107196115Y-99765276D02*
X107243734Y-99860514D01*
X107243734Y-99860514D02*
X107291353Y-100050990D01*
X107291353Y-100050990D02*
X107291353Y-100193847D01*
X107291353Y-100193847D02*
X107243734Y-100384323D01*
X107243734Y-100384323D02*
X107196115Y-100479561D01*
X107196115Y-100479561D02*
X107100877Y-100574800D01*
X107100877Y-100574800D02*
X106958020Y-100622419D01*
X106958020Y-100622419D02*
X106719925Y-100622419D01*
X107672306Y-99717657D02*
X107719925Y-99670038D01*
X107719925Y-99670038D02*
X107815163Y-99622419D01*
X107815163Y-99622419D02*
X108053258Y-99622419D01*
X108053258Y-99622419D02*
X108148496Y-99670038D01*
X108148496Y-99670038D02*
X108196115Y-99717657D01*
X108196115Y-99717657D02*
X108243734Y-99812895D01*
X108243734Y-99812895D02*
X108243734Y-99908133D01*
X108243734Y-99908133D02*
X108196115Y-100050990D01*
X108196115Y-100050990D02*
X107624687Y-100622419D01*
X107624687Y-100622419D02*
X108243734Y-100622419D01*
X105338973Y-92622419D02*
X105958020Y-92622419D01*
X105958020Y-92622419D02*
X105624687Y-93003371D01*
X105624687Y-93003371D02*
X105767544Y-93003371D01*
X105767544Y-93003371D02*
X105862782Y-93050990D01*
X105862782Y-93050990D02*
X105910401Y-93098609D01*
X105910401Y-93098609D02*
X105958020Y-93193847D01*
X105958020Y-93193847D02*
X105958020Y-93431942D01*
X105958020Y-93431942D02*
X105910401Y-93527180D01*
X105910401Y-93527180D02*
X105862782Y-93574800D01*
X105862782Y-93574800D02*
X105767544Y-93622419D01*
X105767544Y-93622419D02*
X105481830Y-93622419D01*
X105481830Y-93622419D02*
X105386592Y-93574800D01*
X105386592Y-93574800D02*
X105338973Y-93527180D01*
X106386592Y-93527180D02*
X106434211Y-93574800D01*
X106434211Y-93574800D02*
X106386592Y-93622419D01*
X106386592Y-93622419D02*
X106338973Y-93574800D01*
X106338973Y-93574800D02*
X106386592Y-93527180D01*
X106386592Y-93527180D02*
X106386592Y-93622419D01*
X106767544Y-92622419D02*
X107386591Y-92622419D01*
X107386591Y-92622419D02*
X107053258Y-93003371D01*
X107053258Y-93003371D02*
X107196115Y-93003371D01*
X107196115Y-93003371D02*
X107291353Y-93050990D01*
X107291353Y-93050990D02*
X107338972Y-93098609D01*
X107338972Y-93098609D02*
X107386591Y-93193847D01*
X107386591Y-93193847D02*
X107386591Y-93431942D01*
X107386591Y-93431942D02*
X107338972Y-93527180D01*
X107338972Y-93527180D02*
X107291353Y-93574800D01*
X107291353Y-93574800D02*
X107196115Y-93622419D01*
X107196115Y-93622419D02*
X106910401Y-93622419D01*
X106910401Y-93622419D02*
X106815163Y-93574800D01*
X106815163Y-93574800D02*
X106767544Y-93527180D01*
X107672306Y-92622419D02*
X108005639Y-93622419D01*
X108005639Y-93622419D02*
X108338972Y-92622419D01*
X106719925Y-90622419D02*
X106719925Y-89622419D01*
X106719925Y-89622419D02*
X106958020Y-89622419D01*
X106958020Y-89622419D02*
X107100877Y-89670038D01*
X107100877Y-89670038D02*
X107196115Y-89765276D01*
X107196115Y-89765276D02*
X107243734Y-89860514D01*
X107243734Y-89860514D02*
X107291353Y-90050990D01*
X107291353Y-90050990D02*
X107291353Y-90193847D01*
X107291353Y-90193847D02*
X107243734Y-90384323D01*
X107243734Y-90384323D02*
X107196115Y-90479561D01*
X107196115Y-90479561D02*
X107100877Y-90574800D01*
X107100877Y-90574800D02*
X106958020Y-90622419D01*
X106958020Y-90622419D02*
X106719925Y-90622419D01*
X107624687Y-89622419D02*
X108243734Y-89622419D01*
X108243734Y-89622419D02*
X107910401Y-90003371D01*
X107910401Y-90003371D02*
X108053258Y-90003371D01*
X108053258Y-90003371D02*
X108148496Y-90050990D01*
X108148496Y-90050990D02*
X108196115Y-90098609D01*
X108196115Y-90098609D02*
X108243734Y-90193847D01*
X108243734Y-90193847D02*
X108243734Y-90431942D01*
X108243734Y-90431942D02*
X108196115Y-90527180D01*
X108196115Y-90527180D02*
X108148496Y-90574800D01*
X108148496Y-90574800D02*
X108053258Y-90622419D01*
X108053258Y-90622419D02*
X107767544Y-90622419D01*
X107767544Y-90622419D02*
X107672306Y-90574800D01*
X107672306Y-90574800D02*
X107624687Y-90527180D01*
X105767544Y-82122419D02*
X105767544Y-81122419D01*
X105767544Y-81122419D02*
X106005639Y-81122419D01*
X106005639Y-81122419D02*
X106148496Y-81170038D01*
X106148496Y-81170038D02*
X106243734Y-81265276D01*
X106243734Y-81265276D02*
X106291353Y-81360514D01*
X106291353Y-81360514D02*
X106338972Y-81550990D01*
X106338972Y-81550990D02*
X106338972Y-81693847D01*
X106338972Y-81693847D02*
X106291353Y-81884323D01*
X106291353Y-81884323D02*
X106243734Y-81979561D01*
X106243734Y-81979561D02*
X106148496Y-82074800D01*
X106148496Y-82074800D02*
X106005639Y-82122419D01*
X106005639Y-82122419D02*
X105767544Y-82122419D01*
X107291353Y-82122419D02*
X106719925Y-82122419D01*
X107005639Y-82122419D02*
X107005639Y-81122419D01*
X107005639Y-81122419D02*
X106910401Y-81265276D01*
X106910401Y-81265276D02*
X106815163Y-81360514D01*
X106815163Y-81360514D02*
X106719925Y-81408133D01*
X107624687Y-81122419D02*
X108243734Y-81122419D01*
X108243734Y-81122419D02*
X107910401Y-81503371D01*
X107910401Y-81503371D02*
X108053258Y-81503371D01*
X108053258Y-81503371D02*
X108148496Y-81550990D01*
X108148496Y-81550990D02*
X108196115Y-81598609D01*
X108196115Y-81598609D02*
X108243734Y-81693847D01*
X108243734Y-81693847D02*
X108243734Y-81931942D01*
X108243734Y-81931942D02*
X108196115Y-82027180D01*
X108196115Y-82027180D02*
X108148496Y-82074800D01*
X108148496Y-82074800D02*
X108053258Y-82122419D01*
X108053258Y-82122419D02*
X107767544Y-82122419D01*
X107767544Y-82122419D02*
X107672306Y-82074800D01*
X107672306Y-82074800D02*
X107624687Y-82027180D01*
X152375312Y-84622419D02*
X152041979Y-84146228D01*
X151803884Y-84622419D02*
X151803884Y-83622419D01*
X151803884Y-83622419D02*
X152184836Y-83622419D01*
X152184836Y-83622419D02*
X152280074Y-83670038D01*
X152280074Y-83670038D02*
X152327693Y-83717657D01*
X152327693Y-83717657D02*
X152375312Y-83812895D01*
X152375312Y-83812895D02*
X152375312Y-83955752D01*
X152375312Y-83955752D02*
X152327693Y-84050990D01*
X152327693Y-84050990D02*
X152280074Y-84098609D01*
X152280074Y-84098609D02*
X152184836Y-84146228D01*
X152184836Y-84146228D02*
X151803884Y-84146228D01*
X152756265Y-84574800D02*
X152899122Y-84622419D01*
X152899122Y-84622419D02*
X153137217Y-84622419D01*
X153137217Y-84622419D02*
X153232455Y-84574800D01*
X153232455Y-84574800D02*
X153280074Y-84527180D01*
X153280074Y-84527180D02*
X153327693Y-84431942D01*
X153327693Y-84431942D02*
X153327693Y-84336704D01*
X153327693Y-84336704D02*
X153280074Y-84241466D01*
X153280074Y-84241466D02*
X153232455Y-84193847D01*
X153232455Y-84193847D02*
X153137217Y-84146228D01*
X153137217Y-84146228D02*
X152946741Y-84098609D01*
X152946741Y-84098609D02*
X152851503Y-84050990D01*
X152851503Y-84050990D02*
X152803884Y-84003371D01*
X152803884Y-84003371D02*
X152756265Y-83908133D01*
X152756265Y-83908133D02*
X152756265Y-83812895D01*
X152756265Y-83812895D02*
X152803884Y-83717657D01*
X152803884Y-83717657D02*
X152851503Y-83670038D01*
X152851503Y-83670038D02*
X152946741Y-83622419D01*
X152946741Y-83622419D02*
X153184836Y-83622419D01*
X153184836Y-83622419D02*
X153327693Y-83670038D01*
X153613408Y-83622419D02*
X154184836Y-83622419D01*
X153899122Y-84622419D02*
X153899122Y-83622419D01*
X152827693Y-106670038D02*
X152732455Y-106622419D01*
X152732455Y-106622419D02*
X152589598Y-106622419D01*
X152589598Y-106622419D02*
X152446741Y-106670038D01*
X152446741Y-106670038D02*
X152351503Y-106765276D01*
X152351503Y-106765276D02*
X152303884Y-106860514D01*
X152303884Y-106860514D02*
X152256265Y-107050990D01*
X152256265Y-107050990D02*
X152256265Y-107193847D01*
X152256265Y-107193847D02*
X152303884Y-107384323D01*
X152303884Y-107384323D02*
X152351503Y-107479561D01*
X152351503Y-107479561D02*
X152446741Y-107574800D01*
X152446741Y-107574800D02*
X152589598Y-107622419D01*
X152589598Y-107622419D02*
X152684836Y-107622419D01*
X152684836Y-107622419D02*
X152827693Y-107574800D01*
X152827693Y-107574800D02*
X152875312Y-107527180D01*
X152875312Y-107527180D02*
X152875312Y-107193847D01*
X152875312Y-107193847D02*
X152684836Y-107193847D01*
X153303884Y-107622419D02*
X153303884Y-106622419D01*
X153303884Y-106622419D02*
X153875312Y-107622419D01*
X153875312Y-107622419D02*
X153875312Y-106622419D01*
X154351503Y-107622419D02*
X154351503Y-106622419D01*
X154351503Y-106622419D02*
X154589598Y-106622419D01*
X154589598Y-106622419D02*
X154732455Y-106670038D01*
X154732455Y-106670038D02*
X154827693Y-106765276D01*
X154827693Y-106765276D02*
X154875312Y-106860514D01*
X154875312Y-106860514D02*
X154922931Y-107050990D01*
X154922931Y-107050990D02*
X154922931Y-107193847D01*
X154922931Y-107193847D02*
X154875312Y-107384323D01*
X154875312Y-107384323D02*
X154827693Y-107479561D01*
X154827693Y-107479561D02*
X154732455Y-107574800D01*
X154732455Y-107574800D02*
X154589598Y-107622419D01*
X154589598Y-107622419D02*
X154351503Y-107622419D01*
X152256265Y-102074800D02*
X152399122Y-102122419D01*
X152399122Y-102122419D02*
X152637217Y-102122419D01*
X152637217Y-102122419D02*
X152732455Y-102074800D01*
X152732455Y-102074800D02*
X152780074Y-102027180D01*
X152780074Y-102027180D02*
X152827693Y-101931942D01*
X152827693Y-101931942D02*
X152827693Y-101836704D01*
X152827693Y-101836704D02*
X152780074Y-101741466D01*
X152780074Y-101741466D02*
X152732455Y-101693847D01*
X152732455Y-101693847D02*
X152637217Y-101646228D01*
X152637217Y-101646228D02*
X152446741Y-101598609D01*
X152446741Y-101598609D02*
X152351503Y-101550990D01*
X152351503Y-101550990D02*
X152303884Y-101503371D01*
X152303884Y-101503371D02*
X152256265Y-101408133D01*
X152256265Y-101408133D02*
X152256265Y-101312895D01*
X152256265Y-101312895D02*
X152303884Y-101217657D01*
X152303884Y-101217657D02*
X152351503Y-101170038D01*
X152351503Y-101170038D02*
X152446741Y-101122419D01*
X152446741Y-101122419D02*
X152684836Y-101122419D01*
X152684836Y-101122419D02*
X152827693Y-101170038D01*
X153256265Y-102122419D02*
X153256265Y-101455752D01*
X153256265Y-101122419D02*
X153208646Y-101170038D01*
X153208646Y-101170038D02*
X153256265Y-101217657D01*
X153256265Y-101217657D02*
X153303884Y-101170038D01*
X153303884Y-101170038D02*
X153256265Y-101122419D01*
X153256265Y-101122419D02*
X153256265Y-101217657D01*
X154161026Y-101455752D02*
X154161026Y-102265276D01*
X154161026Y-102265276D02*
X154113407Y-102360514D01*
X154113407Y-102360514D02*
X154065788Y-102408133D01*
X154065788Y-102408133D02*
X153970550Y-102455752D01*
X153970550Y-102455752D02*
X153827693Y-102455752D01*
X153827693Y-102455752D02*
X153732455Y-102408133D01*
X154161026Y-102074800D02*
X154065788Y-102122419D01*
X154065788Y-102122419D02*
X153875312Y-102122419D01*
X153875312Y-102122419D02*
X153780074Y-102074800D01*
X153780074Y-102074800D02*
X153732455Y-102027180D01*
X153732455Y-102027180D02*
X153684836Y-101931942D01*
X153684836Y-101931942D02*
X153684836Y-101646228D01*
X153684836Y-101646228D02*
X153732455Y-101550990D01*
X153732455Y-101550990D02*
X153780074Y-101503371D01*
X153780074Y-101503371D02*
X153875312Y-101455752D01*
X153875312Y-101455752D02*
X154065788Y-101455752D01*
X154065788Y-101455752D02*
X154161026Y-101503371D01*
X154637217Y-101455752D02*
X154637217Y-102122419D01*
X154637217Y-101550990D02*
X154684836Y-101503371D01*
X154684836Y-101503371D02*
X154780074Y-101455752D01*
X154780074Y-101455752D02*
X154922931Y-101455752D01*
X154922931Y-101455752D02*
X155018169Y-101503371D01*
X155018169Y-101503371D02*
X155065788Y-101598609D01*
X155065788Y-101598609D02*
X155065788Y-102122419D01*
X155970550Y-102122419D02*
X155970550Y-101598609D01*
X155970550Y-101598609D02*
X155922931Y-101503371D01*
X155922931Y-101503371D02*
X155827693Y-101455752D01*
X155827693Y-101455752D02*
X155637217Y-101455752D01*
X155637217Y-101455752D02*
X155541979Y-101503371D01*
X155970550Y-102074800D02*
X155875312Y-102122419D01*
X155875312Y-102122419D02*
X155637217Y-102122419D01*
X155637217Y-102122419D02*
X155541979Y-102074800D01*
X155541979Y-102074800D02*
X155494360Y-101979561D01*
X155494360Y-101979561D02*
X155494360Y-101884323D01*
X155494360Y-101884323D02*
X155541979Y-101789085D01*
X155541979Y-101789085D02*
X155637217Y-101741466D01*
X155637217Y-101741466D02*
X155875312Y-101741466D01*
X155875312Y-101741466D02*
X155970550Y-101693847D01*
X156589598Y-102122419D02*
X156494360Y-102074800D01*
X156494360Y-102074800D02*
X156446741Y-101979561D01*
X156446741Y-101979561D02*
X156446741Y-101122419D01*
X152327693Y-80670038D02*
X152232455Y-80622419D01*
X152232455Y-80622419D02*
X152089598Y-80622419D01*
X152089598Y-80622419D02*
X151946741Y-80670038D01*
X151946741Y-80670038D02*
X151851503Y-80765276D01*
X151851503Y-80765276D02*
X151803884Y-80860514D01*
X151803884Y-80860514D02*
X151756265Y-81050990D01*
X151756265Y-81050990D02*
X151756265Y-81193847D01*
X151756265Y-81193847D02*
X151803884Y-81384323D01*
X151803884Y-81384323D02*
X151851503Y-81479561D01*
X151851503Y-81479561D02*
X151946741Y-81574800D01*
X151946741Y-81574800D02*
X152089598Y-81622419D01*
X152089598Y-81622419D02*
X152184836Y-81622419D01*
X152184836Y-81622419D02*
X152327693Y-81574800D01*
X152327693Y-81574800D02*
X152375312Y-81527180D01*
X152375312Y-81527180D02*
X152375312Y-81193847D01*
X152375312Y-81193847D02*
X152184836Y-81193847D01*
X152803884Y-81622419D02*
X152803884Y-80622419D01*
X152803884Y-80622419D02*
X153375312Y-81622419D01*
X153375312Y-81622419D02*
X153375312Y-80622419D01*
X153851503Y-81622419D02*
X153851503Y-80622419D01*
X153851503Y-80622419D02*
X154089598Y-80622419D01*
X154089598Y-80622419D02*
X154232455Y-80670038D01*
X154232455Y-80670038D02*
X154327693Y-80765276D01*
X154327693Y-80765276D02*
X154375312Y-80860514D01*
X154375312Y-80860514D02*
X154422931Y-81050990D01*
X154422931Y-81050990D02*
X154422931Y-81193847D01*
X154422931Y-81193847D02*
X154375312Y-81384323D01*
X154375312Y-81384323D02*
X154327693Y-81479561D01*
X154327693Y-81479561D02*
X154232455Y-81574800D01*
X154232455Y-81574800D02*
X154089598Y-81622419D01*
X154089598Y-81622419D02*
X153851503Y-81622419D01*
X152827693Y-89670038D02*
X152732455Y-89622419D01*
X152732455Y-89622419D02*
X152589598Y-89622419D01*
X152589598Y-89622419D02*
X152446741Y-89670038D01*
X152446741Y-89670038D02*
X152351503Y-89765276D01*
X152351503Y-89765276D02*
X152303884Y-89860514D01*
X152303884Y-89860514D02*
X152256265Y-90050990D01*
X152256265Y-90050990D02*
X152256265Y-90193847D01*
X152256265Y-90193847D02*
X152303884Y-90384323D01*
X152303884Y-90384323D02*
X152351503Y-90479561D01*
X152351503Y-90479561D02*
X152446741Y-90574800D01*
X152446741Y-90574800D02*
X152589598Y-90622419D01*
X152589598Y-90622419D02*
X152684836Y-90622419D01*
X152684836Y-90622419D02*
X152827693Y-90574800D01*
X152827693Y-90574800D02*
X152875312Y-90527180D01*
X152875312Y-90527180D02*
X152875312Y-90193847D01*
X152875312Y-90193847D02*
X152684836Y-90193847D01*
X153303884Y-90622419D02*
X153303884Y-89622419D01*
X153303884Y-89622419D02*
X153875312Y-90622419D01*
X153875312Y-90622419D02*
X153875312Y-89622419D01*
X154351503Y-90622419D02*
X154351503Y-89622419D01*
X154351503Y-89622419D02*
X154589598Y-89622419D01*
X154589598Y-89622419D02*
X154732455Y-89670038D01*
X154732455Y-89670038D02*
X154827693Y-89765276D01*
X154827693Y-89765276D02*
X154875312Y-89860514D01*
X154875312Y-89860514D02*
X154922931Y-90050990D01*
X154922931Y-90050990D02*
X154922931Y-90193847D01*
X154922931Y-90193847D02*
X154875312Y-90384323D01*
X154875312Y-90384323D02*
X154827693Y-90479561D01*
X154827693Y-90479561D02*
X154732455Y-90574800D01*
X154732455Y-90574800D02*
X154589598Y-90622419D01*
X154589598Y-90622419D02*
X154351503Y-90622419D01*
X105338973Y-84122419D02*
X105958020Y-84122419D01*
X105958020Y-84122419D02*
X105624687Y-84503371D01*
X105624687Y-84503371D02*
X105767544Y-84503371D01*
X105767544Y-84503371D02*
X105862782Y-84550990D01*
X105862782Y-84550990D02*
X105910401Y-84598609D01*
X105910401Y-84598609D02*
X105958020Y-84693847D01*
X105958020Y-84693847D02*
X105958020Y-84931942D01*
X105958020Y-84931942D02*
X105910401Y-85027180D01*
X105910401Y-85027180D02*
X105862782Y-85074800D01*
X105862782Y-85074800D02*
X105767544Y-85122419D01*
X105767544Y-85122419D02*
X105481830Y-85122419D01*
X105481830Y-85122419D02*
X105386592Y-85074800D01*
X105386592Y-85074800D02*
X105338973Y-85027180D01*
X106386592Y-85027180D02*
X106434211Y-85074800D01*
X106434211Y-85074800D02*
X106386592Y-85122419D01*
X106386592Y-85122419D02*
X106338973Y-85074800D01*
X106338973Y-85074800D02*
X106386592Y-85027180D01*
X106386592Y-85027180D02*
X106386592Y-85122419D01*
X106767544Y-84122419D02*
X107386591Y-84122419D01*
X107386591Y-84122419D02*
X107053258Y-84503371D01*
X107053258Y-84503371D02*
X107196115Y-84503371D01*
X107196115Y-84503371D02*
X107291353Y-84550990D01*
X107291353Y-84550990D02*
X107338972Y-84598609D01*
X107338972Y-84598609D02*
X107386591Y-84693847D01*
X107386591Y-84693847D02*
X107386591Y-84931942D01*
X107386591Y-84931942D02*
X107338972Y-85027180D01*
X107338972Y-85027180D02*
X107291353Y-85074800D01*
X107291353Y-85074800D02*
X107196115Y-85122419D01*
X107196115Y-85122419D02*
X106910401Y-85122419D01*
X106910401Y-85122419D02*
X106815163Y-85074800D01*
X106815163Y-85074800D02*
X106767544Y-85027180D01*
X107672306Y-84122419D02*
X108005639Y-85122419D01*
X108005639Y-85122419D02*
X108338972Y-84122419D01*
X152780074Y-103622419D02*
X152303884Y-103622419D01*
X152303884Y-103622419D02*
X152256265Y-104098609D01*
X152256265Y-104098609D02*
X152303884Y-104050990D01*
X152303884Y-104050990D02*
X152399122Y-104003371D01*
X152399122Y-104003371D02*
X152637217Y-104003371D01*
X152637217Y-104003371D02*
X152732455Y-104050990D01*
X152732455Y-104050990D02*
X152780074Y-104098609D01*
X152780074Y-104098609D02*
X152827693Y-104193847D01*
X152827693Y-104193847D02*
X152827693Y-104431942D01*
X152827693Y-104431942D02*
X152780074Y-104527180D01*
X152780074Y-104527180D02*
X152732455Y-104574800D01*
X152732455Y-104574800D02*
X152637217Y-104622419D01*
X152637217Y-104622419D02*
X152399122Y-104622419D01*
X152399122Y-104622419D02*
X152303884Y-104574800D01*
X152303884Y-104574800D02*
X152256265Y-104527180D01*
X153113408Y-103622419D02*
X153446741Y-104622419D01*
X153446741Y-104622419D02*
X153780074Y-103622419D01*
X152256265Y-95574800D02*
X152399122Y-95622419D01*
X152399122Y-95622419D02*
X152637217Y-95622419D01*
X152637217Y-95622419D02*
X152732455Y-95574800D01*
X152732455Y-95574800D02*
X152780074Y-95527180D01*
X152780074Y-95527180D02*
X152827693Y-95431942D01*
X152827693Y-95431942D02*
X152827693Y-95336704D01*
X152827693Y-95336704D02*
X152780074Y-95241466D01*
X152780074Y-95241466D02*
X152732455Y-95193847D01*
X152732455Y-95193847D02*
X152637217Y-95146228D01*
X152637217Y-95146228D02*
X152446741Y-95098609D01*
X152446741Y-95098609D02*
X152351503Y-95050990D01*
X152351503Y-95050990D02*
X152303884Y-95003371D01*
X152303884Y-95003371D02*
X152256265Y-94908133D01*
X152256265Y-94908133D02*
X152256265Y-94812895D01*
X152256265Y-94812895D02*
X152303884Y-94717657D01*
X152303884Y-94717657D02*
X152351503Y-94670038D01*
X152351503Y-94670038D02*
X152446741Y-94622419D01*
X152446741Y-94622419D02*
X152684836Y-94622419D01*
X152684836Y-94622419D02*
X152827693Y-94670038D01*
X153256265Y-95622419D02*
X153256265Y-94955752D01*
X153256265Y-94622419D02*
X153208646Y-94670038D01*
X153208646Y-94670038D02*
X153256265Y-94717657D01*
X153256265Y-94717657D02*
X153303884Y-94670038D01*
X153303884Y-94670038D02*
X153256265Y-94622419D01*
X153256265Y-94622419D02*
X153256265Y-94717657D01*
X154161026Y-94955752D02*
X154161026Y-95765276D01*
X154161026Y-95765276D02*
X154113407Y-95860514D01*
X154113407Y-95860514D02*
X154065788Y-95908133D01*
X154065788Y-95908133D02*
X153970550Y-95955752D01*
X153970550Y-95955752D02*
X153827693Y-95955752D01*
X153827693Y-95955752D02*
X153732455Y-95908133D01*
X154161026Y-95574800D02*
X154065788Y-95622419D01*
X154065788Y-95622419D02*
X153875312Y-95622419D01*
X153875312Y-95622419D02*
X153780074Y-95574800D01*
X153780074Y-95574800D02*
X153732455Y-95527180D01*
X153732455Y-95527180D02*
X153684836Y-95431942D01*
X153684836Y-95431942D02*
X153684836Y-95146228D01*
X153684836Y-95146228D02*
X153732455Y-95050990D01*
X153732455Y-95050990D02*
X153780074Y-95003371D01*
X153780074Y-95003371D02*
X153875312Y-94955752D01*
X153875312Y-94955752D02*
X154065788Y-94955752D01*
X154065788Y-94955752D02*
X154161026Y-95003371D01*
X154637217Y-94955752D02*
X154637217Y-95622419D01*
X154637217Y-95050990D02*
X154684836Y-95003371D01*
X154684836Y-95003371D02*
X154780074Y-94955752D01*
X154780074Y-94955752D02*
X154922931Y-94955752D01*
X154922931Y-94955752D02*
X155018169Y-95003371D01*
X155018169Y-95003371D02*
X155065788Y-95098609D01*
X155065788Y-95098609D02*
X155065788Y-95622419D01*
X155970550Y-95622419D02*
X155970550Y-95098609D01*
X155970550Y-95098609D02*
X155922931Y-95003371D01*
X155922931Y-95003371D02*
X155827693Y-94955752D01*
X155827693Y-94955752D02*
X155637217Y-94955752D01*
X155637217Y-94955752D02*
X155541979Y-95003371D01*
X155970550Y-95574800D02*
X155875312Y-95622419D01*
X155875312Y-95622419D02*
X155637217Y-95622419D01*
X155637217Y-95622419D02*
X155541979Y-95574800D01*
X155541979Y-95574800D02*
X155494360Y-95479561D01*
X155494360Y-95479561D02*
X155494360Y-95384323D01*
X155494360Y-95384323D02*
X155541979Y-95289085D01*
X155541979Y-95289085D02*
X155637217Y-95241466D01*
X155637217Y-95241466D02*
X155875312Y-95241466D01*
X155875312Y-95241466D02*
X155970550Y-95193847D01*
X156589598Y-95622419D02*
X156494360Y-95574800D01*
X156494360Y-95574800D02*
X156446741Y-95479561D01*
X156446741Y-95479561D02*
X156446741Y-94622419D01*
X152780074Y-92122419D02*
X152303884Y-92122419D01*
X152303884Y-92122419D02*
X152256265Y-92598609D01*
X152256265Y-92598609D02*
X152303884Y-92550990D01*
X152303884Y-92550990D02*
X152399122Y-92503371D01*
X152399122Y-92503371D02*
X152637217Y-92503371D01*
X152637217Y-92503371D02*
X152732455Y-92550990D01*
X152732455Y-92550990D02*
X152780074Y-92598609D01*
X152780074Y-92598609D02*
X152827693Y-92693847D01*
X152827693Y-92693847D02*
X152827693Y-92931942D01*
X152827693Y-92931942D02*
X152780074Y-93027180D01*
X152780074Y-93027180D02*
X152732455Y-93074800D01*
X152732455Y-93074800D02*
X152637217Y-93122419D01*
X152637217Y-93122419D02*
X152399122Y-93122419D01*
X152399122Y-93122419D02*
X152303884Y-93074800D01*
X152303884Y-93074800D02*
X152256265Y-93027180D01*
X153113408Y-92122419D02*
X153446741Y-93122419D01*
X153446741Y-93122419D02*
X153780074Y-92122419D01*
X103500000Y-65500000D02*
X158000000Y-65500000D01*
X158000000Y-132000000D01*
X103500000Y-132000000D01*
X103500000Y-65500000D01*
D11*
X143794819Y-83718095D02*
X143318628Y-84051428D01*
X143794819Y-84289523D02*
X142794819Y-84289523D01*
X142794819Y-84289523D02*
X142794819Y-83908571D01*
X142794819Y-83908571D02*
X142842438Y-83813333D01*
X142842438Y-83813333D02*
X142890057Y-83765714D01*
X142890057Y-83765714D02*
X142985295Y-83718095D01*
X142985295Y-83718095D02*
X143128152Y-83718095D01*
X143128152Y-83718095D02*
X143223390Y-83765714D01*
X143223390Y-83765714D02*
X143271009Y-83813333D01*
X143271009Y-83813333D02*
X143318628Y-83908571D01*
X143318628Y-83908571D02*
X143318628Y-84289523D01*
X143747200Y-82908571D02*
X143794819Y-83003809D01*
X143794819Y-83003809D02*
X143794819Y-83194285D01*
X143794819Y-83194285D02*
X143747200Y-83289523D01*
X143747200Y-83289523D02*
X143651961Y-83337142D01*
X143651961Y-83337142D02*
X143271009Y-83337142D01*
X143271009Y-83337142D02*
X143175771Y-83289523D01*
X143175771Y-83289523D02*
X143128152Y-83194285D01*
X143128152Y-83194285D02*
X143128152Y-83003809D01*
X143128152Y-83003809D02*
X143175771Y-82908571D01*
X143175771Y-82908571D02*
X143271009Y-82860952D01*
X143271009Y-82860952D02*
X143366247Y-82860952D01*
X143366247Y-82860952D02*
X143461485Y-83337142D01*
X143747200Y-82479999D02*
X143794819Y-82384761D01*
X143794819Y-82384761D02*
X143794819Y-82194285D01*
X143794819Y-82194285D02*
X143747200Y-82099047D01*
X143747200Y-82099047D02*
X143651961Y-82051428D01*
X143651961Y-82051428D02*
X143604342Y-82051428D01*
X143604342Y-82051428D02*
X143509104Y-82099047D01*
X143509104Y-82099047D02*
X143461485Y-82194285D01*
X143461485Y-82194285D02*
X143461485Y-82337142D01*
X143461485Y-82337142D02*
X143413866Y-82432380D01*
X143413866Y-82432380D02*
X143318628Y-82479999D01*
X143318628Y-82479999D02*
X143271009Y-82479999D01*
X143271009Y-82479999D02*
X143175771Y-82432380D01*
X143175771Y-82432380D02*
X143128152Y-82337142D01*
X143128152Y-82337142D02*
X143128152Y-82194285D01*
X143128152Y-82194285D02*
X143175771Y-82099047D01*
X143747200Y-81241904D02*
X143794819Y-81337142D01*
X143794819Y-81337142D02*
X143794819Y-81527618D01*
X143794819Y-81527618D02*
X143747200Y-81622856D01*
X143747200Y-81622856D02*
X143651961Y-81670475D01*
X143651961Y-81670475D02*
X143271009Y-81670475D01*
X143271009Y-81670475D02*
X143175771Y-81622856D01*
X143175771Y-81622856D02*
X143128152Y-81527618D01*
X143128152Y-81527618D02*
X143128152Y-81337142D01*
X143128152Y-81337142D02*
X143175771Y-81241904D01*
X143175771Y-81241904D02*
X143271009Y-81194285D01*
X143271009Y-81194285D02*
X143366247Y-81194285D01*
X143366247Y-81194285D02*
X143461485Y-81670475D01*
X143128152Y-80908570D02*
X143128152Y-80527618D01*
X142794819Y-80765713D02*
X143651961Y-80765713D01*
X143651961Y-80765713D02*
X143747200Y-80718094D01*
X143747200Y-80718094D02*
X143794819Y-80622856D01*
X143794819Y-80622856D02*
X143794819Y-80527618D01*
X116614819Y-93884761D02*
X117424342Y-93884761D01*
X117424342Y-93884761D02*
X117519580Y-93837142D01*
X117519580Y-93837142D02*
X117567200Y-93789523D01*
X117567200Y-93789523D02*
X117614819Y-93694285D01*
X117614819Y-93694285D02*
X117614819Y-93503809D01*
X117614819Y-93503809D02*
X117567200Y-93408571D01*
X117567200Y-93408571D02*
X117519580Y-93360952D01*
X117519580Y-93360952D02*
X117424342Y-93313333D01*
X117424342Y-93313333D02*
X116614819Y-93313333D01*
X117567200Y-92884761D02*
X117614819Y-92789523D01*
X117614819Y-92789523D02*
X117614819Y-92599047D01*
X117614819Y-92599047D02*
X117567200Y-92503809D01*
X117567200Y-92503809D02*
X117471961Y-92456190D01*
X117471961Y-92456190D02*
X117424342Y-92456190D01*
X117424342Y-92456190D02*
X117329104Y-92503809D01*
X117329104Y-92503809D02*
X117281485Y-92599047D01*
X117281485Y-92599047D02*
X117281485Y-92741904D01*
X117281485Y-92741904D02*
X117233866Y-92837142D01*
X117233866Y-92837142D02*
X117138628Y-92884761D01*
X117138628Y-92884761D02*
X117091009Y-92884761D01*
X117091009Y-92884761D02*
X116995771Y-92837142D01*
X116995771Y-92837142D02*
X116948152Y-92741904D01*
X116948152Y-92741904D02*
X116948152Y-92599047D01*
X116948152Y-92599047D02*
X116995771Y-92503809D01*
X117567200Y-91646666D02*
X117614819Y-91741904D01*
X117614819Y-91741904D02*
X117614819Y-91932380D01*
X117614819Y-91932380D02*
X117567200Y-92027618D01*
X117567200Y-92027618D02*
X117471961Y-92075237D01*
X117471961Y-92075237D02*
X117091009Y-92075237D01*
X117091009Y-92075237D02*
X116995771Y-92027618D01*
X116995771Y-92027618D02*
X116948152Y-91932380D01*
X116948152Y-91932380D02*
X116948152Y-91741904D01*
X116948152Y-91741904D02*
X116995771Y-91646666D01*
X116995771Y-91646666D02*
X117091009Y-91599047D01*
X117091009Y-91599047D02*
X117186247Y-91599047D01*
X117186247Y-91599047D02*
X117281485Y-92075237D01*
X117614819Y-91170475D02*
X116948152Y-91170475D01*
X117138628Y-91170475D02*
X117043390Y-91122856D01*
X117043390Y-91122856D02*
X116995771Y-91075237D01*
X116995771Y-91075237D02*
X116948152Y-90979999D01*
X116948152Y-90979999D02*
X116948152Y-90884761D01*
X117614819Y-90027618D02*
X117614819Y-90599046D01*
X117614819Y-90313332D02*
X116614819Y-90313332D01*
X116614819Y-90313332D02*
X116757676Y-90408570D01*
X116757676Y-90408570D02*
X116852914Y-90503808D01*
X116852914Y-90503808D02*
X116900533Y-90599046D01*
X116614819Y-103424761D02*
X117424342Y-103424761D01*
X117424342Y-103424761D02*
X117519580Y-103377142D01*
X117519580Y-103377142D02*
X117567200Y-103329523D01*
X117567200Y-103329523D02*
X117614819Y-103234285D01*
X117614819Y-103234285D02*
X117614819Y-103043809D01*
X117614819Y-103043809D02*
X117567200Y-102948571D01*
X117567200Y-102948571D02*
X117519580Y-102900952D01*
X117519580Y-102900952D02*
X117424342Y-102853333D01*
X117424342Y-102853333D02*
X116614819Y-102853333D01*
X117567200Y-102424761D02*
X117614819Y-102329523D01*
X117614819Y-102329523D02*
X117614819Y-102139047D01*
X117614819Y-102139047D02*
X117567200Y-102043809D01*
X117567200Y-102043809D02*
X117471961Y-101996190D01*
X117471961Y-101996190D02*
X117424342Y-101996190D01*
X117424342Y-101996190D02*
X117329104Y-102043809D01*
X117329104Y-102043809D02*
X117281485Y-102139047D01*
X117281485Y-102139047D02*
X117281485Y-102281904D01*
X117281485Y-102281904D02*
X117233866Y-102377142D01*
X117233866Y-102377142D02*
X117138628Y-102424761D01*
X117138628Y-102424761D02*
X117091009Y-102424761D01*
X117091009Y-102424761D02*
X116995771Y-102377142D01*
X116995771Y-102377142D02*
X116948152Y-102281904D01*
X116948152Y-102281904D02*
X116948152Y-102139047D01*
X116948152Y-102139047D02*
X116995771Y-102043809D01*
X117567200Y-101186666D02*
X117614819Y-101281904D01*
X117614819Y-101281904D02*
X117614819Y-101472380D01*
X117614819Y-101472380D02*
X117567200Y-101567618D01*
X117567200Y-101567618D02*
X117471961Y-101615237D01*
X117471961Y-101615237D02*
X117091009Y-101615237D01*
X117091009Y-101615237D02*
X116995771Y-101567618D01*
X116995771Y-101567618D02*
X116948152Y-101472380D01*
X116948152Y-101472380D02*
X116948152Y-101281904D01*
X116948152Y-101281904D02*
X116995771Y-101186666D01*
X116995771Y-101186666D02*
X117091009Y-101139047D01*
X117091009Y-101139047D02*
X117186247Y-101139047D01*
X117186247Y-101139047D02*
X117281485Y-101615237D01*
X117614819Y-100710475D02*
X116948152Y-100710475D01*
X117138628Y-100710475D02*
X117043390Y-100662856D01*
X117043390Y-100662856D02*
X116995771Y-100615237D01*
X116995771Y-100615237D02*
X116948152Y-100519999D01*
X116948152Y-100519999D02*
X116948152Y-100424761D01*
X116710057Y-100139046D02*
X116662438Y-100091427D01*
X116662438Y-100091427D02*
X116614819Y-99996189D01*
X116614819Y-99996189D02*
X116614819Y-99758094D01*
X116614819Y-99758094D02*
X116662438Y-99662856D01*
X116662438Y-99662856D02*
X116710057Y-99615237D01*
X116710057Y-99615237D02*
X116805295Y-99567618D01*
X116805295Y-99567618D02*
X116900533Y-99567618D01*
X116900533Y-99567618D02*
X117043390Y-99615237D01*
X117043390Y-99615237D02*
X117614819Y-100186665D01*
X117614819Y-100186665D02*
X117614819Y-99567618D01*
X143794819Y-107361428D02*
X143794819Y-107170952D01*
X143794819Y-107170952D02*
X143747200Y-107075714D01*
X143747200Y-107075714D02*
X143699580Y-107028095D01*
X143699580Y-107028095D02*
X143556723Y-106932857D01*
X143556723Y-106932857D02*
X143366247Y-106885238D01*
X143366247Y-106885238D02*
X142985295Y-106885238D01*
X142985295Y-106885238D02*
X142890057Y-106932857D01*
X142890057Y-106932857D02*
X142842438Y-106980476D01*
X142842438Y-106980476D02*
X142794819Y-107075714D01*
X142794819Y-107075714D02*
X142794819Y-107266190D01*
X142794819Y-107266190D02*
X142842438Y-107361428D01*
X142842438Y-107361428D02*
X142890057Y-107409047D01*
X142890057Y-107409047D02*
X142985295Y-107456666D01*
X142985295Y-107456666D02*
X143223390Y-107456666D01*
X143223390Y-107456666D02*
X143318628Y-107409047D01*
X143318628Y-107409047D02*
X143366247Y-107361428D01*
X143366247Y-107361428D02*
X143413866Y-107266190D01*
X143413866Y-107266190D02*
X143413866Y-107075714D01*
X143413866Y-107075714D02*
X143366247Y-106980476D01*
X143366247Y-106980476D02*
X143318628Y-106932857D01*
X143318628Y-106932857D02*
X143223390Y-106885238D01*
X143128152Y-106028095D02*
X143937676Y-106028095D01*
X143937676Y-106028095D02*
X144032914Y-106075714D01*
X144032914Y-106075714D02*
X144080533Y-106123333D01*
X144080533Y-106123333D02*
X144128152Y-106218571D01*
X144128152Y-106218571D02*
X144128152Y-106361428D01*
X144128152Y-106361428D02*
X144080533Y-106456666D01*
X143747200Y-106028095D02*
X143794819Y-106123333D01*
X143794819Y-106123333D02*
X143794819Y-106313809D01*
X143794819Y-106313809D02*
X143747200Y-106409047D01*
X143747200Y-106409047D02*
X143699580Y-106456666D01*
X143699580Y-106456666D02*
X143604342Y-106504285D01*
X143604342Y-106504285D02*
X143318628Y-106504285D01*
X143318628Y-106504285D02*
X143223390Y-106456666D01*
X143223390Y-106456666D02*
X143175771Y-106409047D01*
X143175771Y-106409047D02*
X143128152Y-106313809D01*
X143128152Y-106313809D02*
X143128152Y-106123333D01*
X143128152Y-106123333D02*
X143175771Y-106028095D01*
X143747200Y-104837618D02*
X143794819Y-104694761D01*
X143794819Y-104694761D02*
X143794819Y-104456666D01*
X143794819Y-104456666D02*
X143747200Y-104361428D01*
X143747200Y-104361428D02*
X143699580Y-104313809D01*
X143699580Y-104313809D02*
X143604342Y-104266190D01*
X143604342Y-104266190D02*
X143509104Y-104266190D01*
X143509104Y-104266190D02*
X143413866Y-104313809D01*
X143413866Y-104313809D02*
X143366247Y-104361428D01*
X143366247Y-104361428D02*
X143318628Y-104456666D01*
X143318628Y-104456666D02*
X143271009Y-104647142D01*
X143271009Y-104647142D02*
X143223390Y-104742380D01*
X143223390Y-104742380D02*
X143175771Y-104789999D01*
X143175771Y-104789999D02*
X143080533Y-104837618D01*
X143080533Y-104837618D02*
X142985295Y-104837618D01*
X142985295Y-104837618D02*
X142890057Y-104789999D01*
X142890057Y-104789999D02*
X142842438Y-104742380D01*
X142842438Y-104742380D02*
X142794819Y-104647142D01*
X142794819Y-104647142D02*
X142794819Y-104409047D01*
X142794819Y-104409047D02*
X142842438Y-104266190D01*
X143747200Y-103456666D02*
X143794819Y-103551904D01*
X143794819Y-103551904D02*
X143794819Y-103742380D01*
X143794819Y-103742380D02*
X143747200Y-103837618D01*
X143747200Y-103837618D02*
X143651961Y-103885237D01*
X143651961Y-103885237D02*
X143271009Y-103885237D01*
X143271009Y-103885237D02*
X143175771Y-103837618D01*
X143175771Y-103837618D02*
X143128152Y-103742380D01*
X143128152Y-103742380D02*
X143128152Y-103551904D01*
X143128152Y-103551904D02*
X143175771Y-103456666D01*
X143175771Y-103456666D02*
X143271009Y-103409047D01*
X143271009Y-103409047D02*
X143366247Y-103409047D01*
X143366247Y-103409047D02*
X143461485Y-103885237D01*
X143794819Y-102980475D02*
X143128152Y-102980475D01*
X143318628Y-102980475D02*
X143223390Y-102932856D01*
X143223390Y-102932856D02*
X143175771Y-102885237D01*
X143175771Y-102885237D02*
X143128152Y-102789999D01*
X143128152Y-102789999D02*
X143128152Y-102694761D01*
X143128152Y-102456665D02*
X143794819Y-102218570D01*
X143794819Y-102218570D02*
X143128152Y-101980475D01*
X143794819Y-101456665D02*
X143747200Y-101551903D01*
X143747200Y-101551903D02*
X143699580Y-101599522D01*
X143699580Y-101599522D02*
X143604342Y-101647141D01*
X143604342Y-101647141D02*
X143318628Y-101647141D01*
X143318628Y-101647141D02*
X143223390Y-101599522D01*
X143223390Y-101599522D02*
X143175771Y-101551903D01*
X143175771Y-101551903D02*
X143128152Y-101456665D01*
X143128152Y-101456665D02*
X143128152Y-101313808D01*
X143128152Y-101313808D02*
X143175771Y-101218570D01*
X143175771Y-101218570D02*
X143223390Y-101170951D01*
X143223390Y-101170951D02*
X143318628Y-101123332D01*
X143318628Y-101123332D02*
X143604342Y-101123332D01*
X143604342Y-101123332D02*
X143699580Y-101170951D01*
X143699580Y-101170951D02*
X143747200Y-101218570D01*
X143747200Y-101218570D02*
X143794819Y-101313808D01*
X143794819Y-101313808D02*
X143794819Y-101456665D01*
X143794819Y-95662380D02*
X142794819Y-95662380D01*
X142794819Y-95662380D02*
X143794819Y-95090952D01*
X143794819Y-95090952D02*
X142794819Y-95090952D01*
X143747200Y-94233809D02*
X143794819Y-94329047D01*
X143794819Y-94329047D02*
X143794819Y-94519523D01*
X143794819Y-94519523D02*
X143747200Y-94614761D01*
X143747200Y-94614761D02*
X143651961Y-94662380D01*
X143651961Y-94662380D02*
X143271009Y-94662380D01*
X143271009Y-94662380D02*
X143175771Y-94614761D01*
X143175771Y-94614761D02*
X143128152Y-94519523D01*
X143128152Y-94519523D02*
X143128152Y-94329047D01*
X143128152Y-94329047D02*
X143175771Y-94233809D01*
X143175771Y-94233809D02*
X143271009Y-94186190D01*
X143271009Y-94186190D02*
X143366247Y-94186190D01*
X143366247Y-94186190D02*
X143461485Y-94662380D01*
X143794819Y-93614761D02*
X143747200Y-93709999D01*
X143747200Y-93709999D02*
X143699580Y-93757618D01*
X143699580Y-93757618D02*
X143604342Y-93805237D01*
X143604342Y-93805237D02*
X143318628Y-93805237D01*
X143318628Y-93805237D02*
X143223390Y-93757618D01*
X143223390Y-93757618D02*
X143175771Y-93709999D01*
X143175771Y-93709999D02*
X143128152Y-93614761D01*
X143128152Y-93614761D02*
X143128152Y-93471904D01*
X143128152Y-93471904D02*
X143175771Y-93376666D01*
X143175771Y-93376666D02*
X143223390Y-93329047D01*
X143223390Y-93329047D02*
X143318628Y-93281428D01*
X143318628Y-93281428D02*
X143604342Y-93281428D01*
X143604342Y-93281428D02*
X143699580Y-93329047D01*
X143699580Y-93329047D02*
X143747200Y-93376666D01*
X143747200Y-93376666D02*
X143794819Y-93471904D01*
X143794819Y-93471904D02*
X143794819Y-93614761D01*
X143128152Y-92852856D02*
X144128152Y-92852856D01*
X143175771Y-92852856D02*
X143128152Y-92757618D01*
X143128152Y-92757618D02*
X143128152Y-92567142D01*
X143128152Y-92567142D02*
X143175771Y-92471904D01*
X143175771Y-92471904D02*
X143223390Y-92424285D01*
X143223390Y-92424285D02*
X143318628Y-92376666D01*
X143318628Y-92376666D02*
X143604342Y-92376666D01*
X143604342Y-92376666D02*
X143699580Y-92424285D01*
X143699580Y-92424285D02*
X143747200Y-92471904D01*
X143747200Y-92471904D02*
X143794819Y-92567142D01*
X143794819Y-92567142D02*
X143794819Y-92757618D01*
X143794819Y-92757618D02*
X143747200Y-92852856D01*
X143794819Y-91948094D02*
X143128152Y-91948094D01*
X142794819Y-91948094D02*
X142842438Y-91995713D01*
X142842438Y-91995713D02*
X142890057Y-91948094D01*
X142890057Y-91948094D02*
X142842438Y-91900475D01*
X142842438Y-91900475D02*
X142794819Y-91948094D01*
X142794819Y-91948094D02*
X142890057Y-91948094D01*
X143794819Y-91567142D02*
X143128152Y-91043333D01*
X143128152Y-91567142D02*
X143794819Y-91043333D01*
X143747200Y-90281428D02*
X143794819Y-90376666D01*
X143794819Y-90376666D02*
X143794819Y-90567142D01*
X143794819Y-90567142D02*
X143747200Y-90662380D01*
X143747200Y-90662380D02*
X143651961Y-90709999D01*
X143651961Y-90709999D02*
X143271009Y-90709999D01*
X143271009Y-90709999D02*
X143175771Y-90662380D01*
X143175771Y-90662380D02*
X143128152Y-90567142D01*
X143128152Y-90567142D02*
X143128152Y-90376666D01*
X143128152Y-90376666D02*
X143175771Y-90281428D01*
X143175771Y-90281428D02*
X143271009Y-90233809D01*
X143271009Y-90233809D02*
X143366247Y-90233809D01*
X143366247Y-90233809D02*
X143461485Y-90709999D01*
X143794819Y-89662380D02*
X143747200Y-89757618D01*
X143747200Y-89757618D02*
X143651961Y-89805237D01*
X143651961Y-89805237D02*
X142794819Y-89805237D01*
X117519580Y-83829523D02*
X117567200Y-83877142D01*
X117567200Y-83877142D02*
X117614819Y-84019999D01*
X117614819Y-84019999D02*
X117614819Y-84115237D01*
X117614819Y-84115237D02*
X117567200Y-84258094D01*
X117567200Y-84258094D02*
X117471961Y-84353332D01*
X117471961Y-84353332D02*
X117376723Y-84400951D01*
X117376723Y-84400951D02*
X117186247Y-84448570D01*
X117186247Y-84448570D02*
X117043390Y-84448570D01*
X117043390Y-84448570D02*
X116852914Y-84400951D01*
X116852914Y-84400951D02*
X116757676Y-84353332D01*
X116757676Y-84353332D02*
X116662438Y-84258094D01*
X116662438Y-84258094D02*
X116614819Y-84115237D01*
X116614819Y-84115237D02*
X116614819Y-84019999D01*
X116614819Y-84019999D02*
X116662438Y-83877142D01*
X116662438Y-83877142D02*
X116710057Y-83829523D01*
X117614819Y-82972380D02*
X117091009Y-82972380D01*
X117091009Y-82972380D02*
X116995771Y-83019999D01*
X116995771Y-83019999D02*
X116948152Y-83115237D01*
X116948152Y-83115237D02*
X116948152Y-83305713D01*
X116948152Y-83305713D02*
X116995771Y-83400951D01*
X117567200Y-82972380D02*
X117614819Y-83067618D01*
X117614819Y-83067618D02*
X117614819Y-83305713D01*
X117614819Y-83305713D02*
X117567200Y-83400951D01*
X117567200Y-83400951D02*
X117471961Y-83448570D01*
X117471961Y-83448570D02*
X117376723Y-83448570D01*
X117376723Y-83448570D02*
X117281485Y-83400951D01*
X117281485Y-83400951D02*
X117233866Y-83305713D01*
X117233866Y-83305713D02*
X117233866Y-83067618D01*
X117233866Y-83067618D02*
X117186247Y-82972380D01*
X117614819Y-82496189D02*
X116948152Y-82496189D01*
X117043390Y-82496189D02*
X116995771Y-82448570D01*
X116995771Y-82448570D02*
X116948152Y-82353332D01*
X116948152Y-82353332D02*
X116948152Y-82210475D01*
X116948152Y-82210475D02*
X116995771Y-82115237D01*
X116995771Y-82115237D02*
X117091009Y-82067618D01*
X117091009Y-82067618D02*
X117614819Y-82067618D01*
X117091009Y-82067618D02*
X116995771Y-82019999D01*
X116995771Y-82019999D02*
X116948152Y-81924761D01*
X116948152Y-81924761D02*
X116948152Y-81781904D01*
X116948152Y-81781904D02*
X116995771Y-81686665D01*
X116995771Y-81686665D02*
X117091009Y-81639046D01*
X117091009Y-81639046D02*
X117614819Y-81639046D01*
X129395714Y-72389104D02*
X129871904Y-72389104D01*
X129300476Y-72674819D02*
X129633809Y-71674819D01*
X129633809Y-71674819D02*
X129967142Y-72674819D01*
X130824285Y-72674819D02*
X130252857Y-72674819D01*
X130538571Y-72674819D02*
X130538571Y-71674819D01*
X130538571Y-71674819D02*
X130443333Y-71817676D01*
X130443333Y-71817676D02*
X130348095Y-71912914D01*
X130348095Y-71912914D02*
X130252857Y-71960533D01*
X112738095Y-123204819D02*
X112738095Y-122204819D01*
X112738095Y-122681009D02*
X113309523Y-122681009D01*
X113309523Y-123204819D02*
X113309523Y-122204819D01*
X113690476Y-122204819D02*
X114309523Y-122204819D01*
X114309523Y-122204819D02*
X113976190Y-122585771D01*
X113976190Y-122585771D02*
X114119047Y-122585771D01*
X114119047Y-122585771D02*
X114214285Y-122633390D01*
X114214285Y-122633390D02*
X114261904Y-122681009D01*
X114261904Y-122681009D02*
X114309523Y-122776247D01*
X114309523Y-122776247D02*
X114309523Y-123014342D01*
X114309523Y-123014342D02*
X114261904Y-123109580D01*
X114261904Y-123109580D02*
X114214285Y-123157200D01*
X114214285Y-123157200D02*
X114119047Y-123204819D01*
X114119047Y-123204819D02*
X113833333Y-123204819D01*
X113833333Y-123204819D02*
X113738095Y-123157200D01*
X113738095Y-123157200D02*
X113690476Y-123109580D01*
X146940331Y-67704819D02*
X146940331Y-66704819D01*
X146940331Y-67181009D02*
X147511759Y-67181009D01*
X147511759Y-67704819D02*
X147511759Y-66704819D01*
X147940331Y-66800057D02*
X147987950Y-66752438D01*
X147987950Y-66752438D02*
X148083188Y-66704819D01*
X148083188Y-66704819D02*
X148321283Y-66704819D01*
X148321283Y-66704819D02*
X148416521Y-66752438D01*
X148416521Y-66752438D02*
X148464140Y-66800057D01*
X148464140Y-66800057D02*
X148511759Y-66895295D01*
X148511759Y-66895295D02*
X148511759Y-66990533D01*
X148511759Y-66990533D02*
X148464140Y-67133390D01*
X148464140Y-67133390D02*
X147892712Y-67704819D01*
X147892712Y-67704819D02*
X148511759Y-67704819D01*
X112738095Y-67704819D02*
X112738095Y-66704819D01*
X112738095Y-67181009D02*
X113309523Y-67181009D01*
X113309523Y-67704819D02*
X113309523Y-66704819D01*
X114309523Y-67704819D02*
X113738095Y-67704819D01*
X114023809Y-67704819D02*
X114023809Y-66704819D01*
X114023809Y-66704819D02*
X113928571Y-66847676D01*
X113928571Y-66847676D02*
X113833333Y-66942914D01*
X113833333Y-66942914D02*
X113738095Y-66990533D01*
X146940331Y-123204819D02*
X146940331Y-122204819D01*
X146940331Y-122681009D02*
X147511759Y-122681009D01*
X147511759Y-123204819D02*
X147511759Y-122204819D01*
X148416521Y-122538152D02*
X148416521Y-123204819D01*
X148178426Y-122157200D02*
X147940331Y-122871485D01*
X147940331Y-122871485D02*
X148559378Y-122871485D01*
D12*
%TO.C,Reset*%
X150160000Y-85550000D02*
X150900000Y-85550000D01*
X150900000Y-85550000D02*
X150900000Y-85050000D01*
X144340000Y-85310000D02*
X150660000Y-85310000D01*
X144340000Y-85310000D02*
X144340000Y-79650000D01*
X144800000Y-85310000D02*
X144800000Y-79650000D01*
X150100000Y-85310000D02*
X150100000Y-84540000D01*
X150660000Y-85310000D02*
X150660000Y-84540000D01*
X150100000Y-82960000D02*
X150100000Y-82000000D01*
X150660000Y-82960000D02*
X150660000Y-82000000D01*
X150100000Y-80420000D02*
X150100000Y-79650000D01*
X150660000Y-80420000D02*
X150660000Y-79650000D01*
X144340000Y-79650000D02*
X150660000Y-79650000D01*
%TO.C,User1*%
X110340000Y-88910000D02*
X109600000Y-88910000D01*
X109600000Y-88910000D02*
X109600000Y-89410000D01*
X116160000Y-89150000D02*
X109840000Y-89150000D01*
X116160000Y-89150000D02*
X116160000Y-94810000D01*
X115700000Y-89150000D02*
X115700000Y-94810000D01*
X110400000Y-89150000D02*
X110400000Y-89920000D01*
X109840000Y-89150000D02*
X109840000Y-89920000D01*
X110400000Y-91500000D02*
X110400000Y-92460000D01*
X109840000Y-91500000D02*
X109840000Y-92460000D01*
X110400000Y-94040000D02*
X110400000Y-94810000D01*
X109840000Y-94040000D02*
X109840000Y-94810000D01*
X116160000Y-94810000D02*
X109840000Y-94810000D01*
%TO.C,User2*%
X110340000Y-98450000D02*
X109600000Y-98450000D01*
X109600000Y-98450000D02*
X109600000Y-98950000D01*
X116160000Y-98690000D02*
X109840000Y-98690000D01*
X116160000Y-98690000D02*
X116160000Y-104350000D01*
X115700000Y-98690000D02*
X115700000Y-104350000D01*
X110400000Y-98690000D02*
X110400000Y-99460000D01*
X109840000Y-98690000D02*
X109840000Y-99460000D01*
X110400000Y-101040000D02*
X110400000Y-102000000D01*
X109840000Y-101040000D02*
X109840000Y-102000000D01*
X110400000Y-103580000D02*
X110400000Y-104350000D01*
X109840000Y-103580000D02*
X109840000Y-104350000D01*
X116160000Y-104350000D02*
X109840000Y-104350000D01*
%TO.C,9g Servo*%
X150160000Y-108630000D02*
X150900000Y-108630000D01*
X150900000Y-108630000D02*
X150900000Y-108130000D01*
X144340000Y-108390000D02*
X150660000Y-108390000D01*
X144340000Y-108390000D02*
X144340000Y-100190000D01*
X144800000Y-108390000D02*
X144800000Y-100190000D01*
X150100000Y-108390000D02*
X150100000Y-107620000D01*
X150660000Y-108390000D02*
X150660000Y-107620000D01*
X150100000Y-106040000D02*
X150100000Y-105080000D01*
X150660000Y-106040000D02*
X150660000Y-105080000D01*
X150100000Y-103500000D02*
X150100000Y-102540000D01*
X150660000Y-103500000D02*
X150660000Y-102540000D01*
X150100000Y-100960000D02*
X150100000Y-100190000D01*
X150660000Y-100960000D02*
X150660000Y-100190000D01*
X144340000Y-100190000D02*
X150660000Y-100190000D01*
%TO.C,Neopixel*%
X150160000Y-97050000D02*
X150900000Y-97050000D01*
X150900000Y-97050000D02*
X150900000Y-96550000D01*
X144340000Y-96810000D02*
X150660000Y-96810000D01*
X144340000Y-96810000D02*
X144340000Y-88610000D01*
X144800000Y-96810000D02*
X144800000Y-88610000D01*
X150100000Y-96810000D02*
X150100000Y-96040000D01*
X150660000Y-96810000D02*
X150660000Y-96040000D01*
X150100000Y-94460000D02*
X150100000Y-93500000D01*
X150660000Y-94460000D02*
X150660000Y-93500000D01*
X150100000Y-91920000D02*
X150100000Y-90960000D01*
X150660000Y-91920000D02*
X150660000Y-90960000D01*
X150100000Y-89380000D02*
X150100000Y-88610000D01*
X150660000Y-89380000D02*
X150660000Y-88610000D01*
X144340000Y-88610000D02*
X150660000Y-88610000D01*
%TO.C,Cam*%
X110340000Y-79950000D02*
X109600000Y-79950000D01*
X109600000Y-79950000D02*
X109600000Y-80450000D01*
X116160000Y-80190000D02*
X109840000Y-80190000D01*
X116160000Y-80190000D02*
X116160000Y-85850000D01*
X115700000Y-80190000D02*
X115700000Y-85850000D01*
X110400000Y-80190000D02*
X110400000Y-80960000D01*
X109840000Y-80190000D02*
X109840000Y-80960000D01*
X110400000Y-82540000D02*
X110400000Y-83500000D01*
X109840000Y-82540000D02*
X109840000Y-83500000D01*
X110400000Y-85080000D02*
X110400000Y-85850000D01*
X109840000Y-85080000D02*
X109840000Y-85850000D01*
X116160000Y-85850000D02*
X109840000Y-85850000D01*
%TO.C,A1*%
X118250000Y-80840000D02*
X118250000Y-78840000D01*
X118570000Y-76030000D02*
X118570000Y-121750000D01*
X139000000Y-73380000D02*
X121220000Y-73380000D01*
X139000000Y-124400000D02*
X121220000Y-124400000D01*
X141650000Y-76030000D02*
X141650000Y-121750000D01*
X118570000Y-76030000D02*
G75*
G02*
X121220000Y-73380000I2650000J0D01*
G01*
X121220000Y-124400000D02*
G75*
G02*
X118570000Y-121750000I0J2650000D01*
G01*
X139000000Y-73380000D02*
G75*
G02*
X141650000Y-76030000I0J-2650000D01*
G01*
X141650000Y-121750000D02*
G75*
G02*
X139000000Y-124400000I-2650000J0D01*
G01*
%TD*%
M02*
