M48
; DRILL file {KiCad 8.0.2} date 2024-05-18T00:21:08-0600
; FORMAT={-:-/ absolute / inch / decimal}
; #@! TF.CreationDate,2024-05-18T00:21:08-06:00
; #@! TF.GenerationSoftware,Kicad,Pcbnew,8.0.2
; #@! TF.FileFunction,Plated,1,2,PTH
FMAT,2
INCH
; #@! TA.AperFunction,Plated,PTH,ComponentDrill
T1C0.0394
; #@! TA.AperFunction,Plated,PTH,ComponentDrill
T2C0.0433
; #@! TA.AperFunction,Plated,PTH,ComponentDrill
T3C0.0984
%
G90
G05
T1
X4.7224Y-3.1433
X4.7224Y-3.2433
X4.7224Y-3.3433
X4.7224Y-3.4433
X4.7224Y-3.5433
X4.7224Y-3.6433
X4.7224Y-3.7433
X4.7224Y-3.8433
X4.7224Y-3.9433
X4.7224Y-4.0433
X4.7224Y-4.1433
X4.7224Y-4.2433
X4.7224Y-4.3433
X4.7224Y-4.4433
X4.7224Y-4.5433
X4.7224Y-4.6433
X5.5224Y-3.5433
X5.5224Y-3.6433
X5.5224Y-3.7433
X5.5224Y-3.8433
X5.5224Y-3.9433
X5.5224Y-4.0433
X5.5224Y-4.1433
X5.5224Y-4.2433
X5.5224Y-4.3433
X5.5224Y-4.4433
X5.5224Y-4.5433
X5.5224Y-4.6433
T2
X4.4488Y-3.2185
X4.4488Y-3.3185
X4.4488Y-3.5713
X4.4488Y-3.6713
X4.4488Y-3.9469
X4.4488Y-4.0469
X5.8071Y-3.1972
X5.8071Y-3.2972
X5.8071Y-3.55
X5.8071Y-3.65
X5.8071Y-3.75
X5.8071Y-4.0059
X5.8071Y-4.1059
X5.8071Y-4.2059
T3
X4.4685Y-2.7854
X4.4685Y-4.9705
X5.815Y-2.7854
X5.815Y-4.9705
M30
