<?xml version="1.0" encoding="UTF-8" standalone="no"?>
<!-- Created with Inkscape (http://www.inkscape.org/) -->

<svg
   width="210mm"
   height="297mm"
   viewBox="0 0 210 297"
   version="1.1"
   id="svg5"
   inkscape:version="1.1.2 (b8e25be833, 2022-02-05)"
   sodipodi:docname="AcrylicLaserPieces.svg"
   xmlns:inkscape="http://www.inkscape.org/namespaces/inkscape"
   xmlns:sodipodi="http://sodipodi.sourceforge.net/DTD/sodipodi-0.dtd"
   xmlns="http://www.w3.org/2000/svg"
   xmlns:svg="http://www.w3.org/2000/svg">
  <sodipodi:namedview
     id="namedview7"
     pagecolor="#ffffff"
     bordercolor="#666666"
     borderopacity="1.0"
     inkscape:pageshadow="2"
     inkscape:pageopacity="0.0"
     inkscape:pagecheckerboard="0"
     inkscape:document-units="mm"
     showgrid="false"
     inkscape:zoom="1.5518659"
     inkscape:cx="319.29306"
     inkscape:cy="123.72203"
     inkscape:window-width="1920"
     inkscape:window-height="1057"
     inkscape:window-x="-8"
     inkscape:window-y="-8"
     inkscape:window-maximized="1"
     inkscape:current-layer="layer1" />
  <defs
     id="defs2">
    <marker
       id="DistanceX"
       orient="auto"
       refX="0.0"
       refY="0.0"
       style="overflow:visible">
      <path
         d="M 3,-3 L -3,3 M 0,-5 L  0,5"
         style="stroke:#000000; stroke-width:0.5"
         id="path826" />
    </marker>
    <pattern
       id="Hatch"
       patternUnits="userSpaceOnUse"
       width="8"
       height="8"
       x="0"
       y="0">
      <path
         d="M8 4 l-4,4"
         stroke="#000000"
         stroke-width="0.25"
         linecap="square"
         id="path829" />
      <path
         d="M6 2 l-4,4"
         stroke="#000000"
         stroke-width="0.25"
         linecap="square"
         id="path831" />
      <path
         d="M4 0 l-4,4"
         stroke="#000000"
         stroke-width="0.25"
         linecap="square"
         id="path833" />
    </pattern>
    <symbol
       id="*MODEL_SPACE" />
    <symbol
       id="*PAPER_SPACE" />
  </defs>
  <g
     inkscape:label="Layer 1"
     inkscape:groupmode="layer"
     id="layer1">
    <path
       d="m -179.85268,120.49836 a 22.5,22.5 0 1 0 -23.99263,0 3.2500001,3.2500001 0 0 0 3.4656,-5.49904 16,16 0 1 1 17.06143,0 3.2500001,3.2500001 0 0 0 3.4656,5.49904 z"
       style="fill:none;stroke:#000000;stroke-width:0.264583"
       id="path2321" />
    <path
       d="m 45.34825,50.575163 a 22.5,22.5 0 1 0 -23.99263,0 3.2500001,3.2500001 0 0 0 3.4656,-5.49904 16,16 0 1 1 17.06143,0 3.2500001,3.2500001 0 0 0 3.4656,5.49904 z"
       style="fill:none;stroke:#000000;stroke-width:0.1;stroke-miterlimit:4;stroke-dasharray:none"
       id="path842" />
    <path
       d="M -45.921958,77.497206 H -145.92196 v 47.249984 h 100.000002 z"
       style="fill:none;stroke:#000000;stroke-width:0.264583"
       id="path2323" />
    <rect
       style="fill:none;stroke-width:0.1;stroke-linecap:round;stroke-linejoin:round;stroke:#000000;stroke-miterlimit:4;stroke-dasharray:none"
       id="rect2347"
       width="100"
       height="47.249977"
       x="79.278969"
       y="7.5740061"
       ry="4.99999" />
  </g>
</svg>
