<?xml version="1.0" encoding="UTF-8"?>
<!-- Created by Vectric (http://www.vectric.com/) -->
<svg width="20.00000000in" height="20.00000000in" viewBox="0.00000000 0.00000000 20.00000000 20.00000000" id="svg2" version="1.1" xmlns="http://www.w3.org/2000/svg" xmlns:xlink="http://www.w3.org/1999/xlink" xmlns:inkscape="http://www.inkscape.org/namespaces/inkscape">
    <g inkscape:groupmode="layer" id="64e55e68-f7af-4e94-ad73-f8b823f925e3" inkscape:label="Layer 1" style="stroke:#000000;">
        <path style="fill:none;stroke-width:0.010000;stroke-linecap:round;stroke-linejoin:round;stroke-opacity:1;stroke:#000000;" d="M 1.984913,10.256187 C 2.233427,10.099376 2.398444,9.822343 2.398444,9.506769 C 2.398444,9.017540 2.001846,8.620942 1.512617,8.620942 C 1.023388,8.620942 0.626790,9.017540 0.626790,9.506769 C 0.626790,9.822343 0.791807,10.099376 1.040321,10.256187 C 1.060013,10.268587 1.083330,10.275750 1.108319,10.275750 C 1.178985,10.275750 1.236272,10.218464 1.236272,10.147798 C 1.236272,10.102309 1.212534,10.062364 1.176762,10.039689 C 1.000041,9.928179 0.882695,9.731178 0.882695,9.506770 C 0.882695,9.158874 1.164721,8.876848 1.512617,8.876848 C 1.860513,8.876848 2.142539,9.158874 2.142539,9.506770 C 2.142539,9.731178 2.025193,9.928179 1.848472,10.039689 C 1.812700,10.062364 1.788962,10.102309 1.788962,10.147798 C 1.788962,10.218464 1.846249,10.275750 1.916915,10.275750 C 1.941904,10.275750 1.965221,10.268587 1.984913,10.256187 "/>
        <path style="fill:none;stroke-width:0.010000;stroke-linecap:round;stroke-linejoin:round;stroke-opacity:1;stroke:#000000;" d="M 2.702058,9.415694 L 2.698618,9.460932 L 2.697460,9.506747 L 2.697944,9.536402 L 2.699385,9.565794 L 2.701768,9.594930 L 2.705079,9.623794 L 2.709302,9.652371 L 2.714422,9.680647 L 2.720425,9.708605 L 2.727295,9.736232 L 2.735017,9.763511 L 2.743577,9.790427 L 2.752959,9.816966 L 2.763149,9.843112 L 2.774130,9.868851 L 2.785889,9.894167 L 2.798409,9.919045 L 2.811677,9.943470 L 2.825677,9.967427 L 2.840394,9.990901 L 2.855813,10.013877 L 2.871920,10.036340 L 2.888698,10.058275 L 2.906133,10.079667 L 2.924210,10.100501 L 2.942914,10.120761 L 2.962231,10.140434 L 2.982144,10.159504 L 3.002639,10.177955 L 3.023702,10.195774 L 3.045317,10.212944 L 3.067468,10.229451 L 3.090142,10.245280 L 3.113365,10.260443 L 3.121174,10.264994 L 3.129351,10.269034 L 3.137834,10.272518 L 3.146600,10.275420 L 3.155623,10.277719 L 3.164880,10.279390 L 3.174344,10.280409 L 3.184027,10.280755 L 3.197577,10.280071 L 3.210779,10.278056 L 3.223525,10.274779 L 3.235744,10.270306 L 3.247369,10.264707 L 3.258331,10.258046 L 3.268566,10.250393 L 3.278006,10.241814 L 3.286586,10.232373 L 3.294239,10.222139 L 3.300899,10.211176 L 3.306499,10.199552 L 3.310971,10.187332 L 3.314248,10.174587 L 3.316263,10.161385 L 3.316951,10.147762 L 3.315821,10.130374 L 3.312518,10.113621 L 3.307187,10.097693 L 3.299970,10.082734 L 3.291013,10.068890 L 3.280456,10.056302 L 3.268443,10.045110 L 3.255268,10.035568 L 3.238840,10.024842 L 3.222933,10.013738 L 3.207393,10.002157 L 3.192230,9.990112 L 3.177453,9.977611 L 3.163074,9.964666 L 3.149104,9.951288 L 3.135553,9.937486 L 3.122431,9.923272 L 3.109748,9.908656 L 3.097517,9.893649 L 3.085746,9.878260 L 3.074447,9.862502 L 3.063631,9.846384 L 3.053307,9.829917 L 3.043486,9.813111 L 3.034179,9.795977 L 3.025396,9.778526 L 3.017148,9.760769 L 3.009445,9.742714 L 3.002297,9.724374 L 2.995717,9.705759 L 2.989713,9.686879 L 2.984296,9.667745 L 2.979477,9.648367 L 2.975266,9.628756 L 2.971674,9.608921 L 2.968712,9.588874 L 2.966389,9.568625 L 2.964717,9.548185 L 2.963706,9.527563 L 2.963368,9.506792 L 2.964181,9.474607 L 2.966595,9.442869 L 2.970569,9.411594 L 2.976064,9.380821 L 2.983042,9.350589 L 2.991462,9.320936 L 3.001287,9.291901 L 3.012475,9.263524 L 3.024989,9.235844 L 3.038790,9.208899 L 3.053837,9.182730 L 3.070092,9.157375 L 3.087515,9.132873 L 3.106067,9.109265 L 3.125710,9.086589 L 3.146403,9.064885 L 3.168107,9.044192 L 3.190783,9.024549 L 3.214391,9.005997 L 3.238893,8.988574 L 3.264248,8.972319 L 3.290417,8.957272 L 3.317362,8.943471 L 3.345042,8.930957 L 3.373419,8.919769 L 3.402454,8.909944 L 3.432107,8.901524 L 3.462339,8.894546 L 3.493112,8.889051 L 3.524387,8.885077 L 3.556125,8.882663 L 3.588288,8.881850 L 3.620451,8.882663 L 3.652189,8.885077 L 3.683464,8.889051 L 3.714237,8.894546 L 3.744469,8.901524 L 3.774122,8.909944 L 3.803157,8.919769 L 3.831534,8.930957 L 3.859214,8.943471 L 3.886159,8.957272 L 3.912328,8.972319 L 3.937684,8.988574 L 3.962185,9.005997 L 3.985793,9.024549 L 4.008469,9.044192 L 4.030173,9.064885 L 4.050866,9.086589 L 4.070509,9.109265 L 4.089061,9.132873 L 4.106485,9.157375 L 4.122739,9.182730 L 4.137787,9.208899 L 4.151587,9.235844 L 4.164101,9.263524 L 4.175289,9.291901 L 4.185114,9.320936 L 4.193534,9.350589 L 4.200512,9.380821 L 4.206007,9.411594 L 4.209981,9.442869 L 4.212395,9.474607 L 4.213209,9.506792 L 4.212870,9.527563 L 4.211859,9.548185 L 4.210187,9.568625 L 4.207864,9.588874 L 4.204902,9.608921 L 4.201310,9.628756 L 4.197099,9.648367 L 4.192280,9.667745 L 4.186864,9.686879 L 4.180860,9.705759 L 4.174279,9.724374 L 4.167132,9.742714 L 4.159429,9.760769 L 4.151180,9.778526 L 4.142398,9.795977 L 4.133090,9.813111 L 4.123270,9.829917 L 4.112945,9.846384 L 4.102129,9.862502 L 4.090830,9.878260 L 4.079059,9.893649 L 4.066828,9.908656 L 4.054146,9.923272 L 4.041024,9.937486 L 4.027472,9.951288 L 4.013502,9.964666 L 3.999123,9.977611 L 3.984347,9.990112 L 3.969183,10.002157 L 3.953643,10.013738 L 3.937737,10.024842 L 3.921308,10.035568 L 3.908133,10.045110 L 3.896120,10.056302 L 3.885564,10.068890 L 3.876606,10.082734 L 3.869389,10.097693 L 3.864058,10.113621 L 3.860755,10.130374 L 3.859625,10.147762 L 3.860313,10.161385 L 3.862328,10.174587 L 3.865605,10.187332 L 3.870077,10.199552 L 3.875677,10.211176 L 3.882337,10.222139 L 3.889990,10.232373 L 3.898570,10.241814 L 3.908010,10.250393 L 3.918245,10.258046 L 3.929208,10.264707 L 3.940832,10.270306 L 3.953051,10.274779 L 3.965797,10.278056 L 3.978999,10.280071 L 3.992549,10.280755 L 4.002232,10.280409 L 4.011697,10.279390 L 4.020953,10.277719 L 4.029976,10.275420 L 4.038742,10.272518 L 4.047225,10.269034 L 4.055403,10.264994 L 4.063212,10.260443 L 4.086434,10.245280 L 4.109108,10.229451 L 4.131260,10.212944 L 4.152874,10.195774 L 4.173937,10.177955 L 4.194432,10.159504 L 4.214346,10.140434 L 4.233662,10.120761 L 4.252366,10.100501 L 4.270443,10.079667 L 4.287878,10.058275 L 4.304657,10.036340 L 4.320763,10.013877 L 4.336182,9.990901 L 4.350899,9.967427 L 4.364899,9.943470 L 4.378167,9.919045 L 4.390687,9.894167 L 4.402446,9.868851 L 4.413428,9.843112 L 4.423617,9.816966 L 4.432999,9.790427 L 4.441559,9.763511 L 4.449281,9.736232 L 4.456151,9.708605 L 4.462154,9.680647 L 4.467275,9.652371 L 4.471498,9.623794 L 4.474808,9.594930 L 4.477191,9.565794 L 4.478632,9.536402 L 4.479116,9.506747 L 4.477958,9.460932 L 4.474518,9.415694 L 4.468853,9.371112 L 4.461019,9.327242 L 4.451071,9.284141 L 4.439066,9.241866 L 4.425060,9.200473 L 4.409109,9.160017 L 4.391269,9.120556 L 4.371596,9.082144 L 4.350146,9.044839 L 4.326974,9.008695 L 4.302138,8.973770 L 4.275693,8.940118 L 4.247695,8.907795 L 4.218199,8.876858 L 4.187262,8.847363 L 4.154940,8.819364 L 4.121288,8.792919 L 4.086362,8.768083 L 4.050219,8.744912 L 4.012913,8.723462 L 3.974502,8.703788 L 3.935040,8.685948 L 3.894585,8.669997 L 3.853191,8.655991 L 3.810916,8.643986 L 3.767816,8.634039 L 3.723946,8.626205 L 3.679364,8.620540 L 3.634126,8.617100 L 3.588288,8.615941 L 3.542451,8.617100 L 3.497212,8.620540 L 3.452630,8.626205 L 3.408761,8.634039 L 3.365660,8.643986 L 3.323385,8.655991 L 3.281992,8.669997 L 3.241536,8.685948 L 3.202075,8.703788 L 3.163663,8.723462 L 3.126357,8.744912 L 3.090214,8.768083 L 3.055288,8.792919 L 3.021636,8.819364 L 2.989314,8.847363 L 2.958377,8.876858 L 2.928882,8.907795 L 2.900883,8.940118 L 2.874438,8.973770 L 2.849602,9.008695 L 2.826431,9.044839 L 2.804980,9.082144 L 2.785307,9.120556 L 2.767467,9.160017 L 2.751516,9.200473 L 2.737510,9.241866 L 2.725505,9.284141 L 2.715558,9.327242 L 2.707723,9.371112 L 2.702058,9.415694 "/>
        <path style="fill:none;stroke-width:0.010000;stroke-linecap:round;stroke-linejoin:round;stroke-opacity:1;stroke:#000000;" d="M 6.568356,9.370356 L 6.560477,9.326240 L 6.550474,9.282896 L 6.538401,9.240381 L 6.524316,9.198754 L 6.508274,9.158069 L 6.490333,9.118385 L 6.470549,9.079757 L 6.448979,9.042242 L 6.425677,9.005896 L 6.400702,8.970774 L 6.374109,8.936934 L 6.345954,8.904431 L 6.316294,8.873322 L 6.285185,8.843662 L 6.252682,8.815507 L 6.218842,8.788914 L 6.183721,8.763939 L 6.147374,8.740638 L 6.109859,8.719067 L 6.071231,8.699283 L 6.031547,8.681342 L 5.990863,8.665300 L 5.949235,8.651215 L 5.906721,8.639143 L 5.863377,8.629139 L 5.819260,8.621260 L 5.774427,8.615563 L 5.728937,8.612104 L 5.682847,8.610939 L 5.636756,8.612104 L 5.591266,8.615563 L 5.546434,8.621260 L 5.502317,8.629139 L 5.458973,8.639143 L 5.416459,8.651215 L 5.374831,8.665300 L 5.334147,8.681342 L 5.294462,8.699283 L 5.255834,8.719067 L 5.218319,8.740638 L 5.181973,8.763939 L 5.146852,8.788914 L 5.113012,8.815507 L 5.080509,8.843662 L 5.049399,8.873322 L 5.019739,8.904431 L 4.991584,8.936934 L 4.964991,8.970774 L 4.940016,9.005896 L 4.916715,9.042242 L 4.895144,9.079757 L 4.875360,9.118385 L 4.857419,9.158069 L 4.841378,9.198754 L 4.827293,9.240381 L 4.815220,9.282896 L 4.805216,9.326240 L 4.797338,9.370356 L 4.791641,9.415189 L 4.788182,9.460679 L 4.787017,9.506725 L 4.787504,9.536566 L 4.788953,9.566121 L 4.791350,9.595419 L 4.794679,9.624445 L 4.798926,9.653183 L 4.804075,9.681618 L 4.810112,9.709734 L 4.817021,9.737516 L 4.824787,9.764950 L 4.833395,9.792019 L 4.842830,9.818708 L 4.853077,9.845002 L 4.864121,9.870886 L 4.875946,9.896344 L 4.888537,9.921362 L 4.901880,9.945925 L 4.915958,9.970016 L 4.930758,9.993622 L 4.946264,10.016727 L 4.962460,10.039316 L 4.979332,10.061374 L 4.996864,10.082885 L 5.015043,10.103836 L 5.033851,10.124210 L 5.053275,10.143992 L 5.073300,10.163168 L 5.093910,10.181723 L 5.115090,10.199641 L 5.136826,10.216907 L 5.159102,10.233507 L 5.181903,10.249424 L 5.205296,10.264699 L 5.213363,10.269400 L 5.221850,10.273594 L 5.230655,10.277209 L 5.239754,10.280222 L 5.249119,10.282608 L 5.258726,10.284342 L 5.268545,10.285399 L 5.278622,10.285759 L 5.292640,10.285052 L 5.306340,10.282961 L 5.319569,10.279559 L 5.332252,10.274917 L 5.344316,10.269106 L 5.355692,10.262195 L 5.366310,10.254254 L 5.376104,10.245353 L 5.385005,10.235559 L 5.392946,10.224941 L 5.399857,10.213565 L 5.405669,10.201501 L 5.410310,10.188818 L 5.413712,10.175589 L 5.415803,10.161889 L 5.416518,10.147725 L 5.415349,10.129725 L 5.411920,10.112339 L 5.406386,10.095805 L 5.398896,10.080280 L 5.389601,10.065914 L 5.378648,10.052853 L 5.366184,10.041241 L 5.352661,10.031448 L 5.336197,10.020698 L 5.320418,10.009682 L 5.305001,9.998194 L 5.289959,9.986245 L 5.275300,9.973844 L 5.261036,9.961002 L 5.247177,9.947730 L 5.233733,9.934038 L 5.220715,9.919937 L 5.208134,9.905438 L 5.196000,9.890550 L 5.184323,9.875284 L 5.173115,9.859651 L 5.162384,9.843662 L 5.152143,9.827327 L 5.142401,9.810656 L 5.133168,9.793660 L 5.124456,9.776349 L 5.116274,9.758734 L 5.108633,9.740825 L 5.101544,9.722633 L 5.095016,9.704168 L 5.089060,9.685440 L 5.083687,9.666460 L 5.078907,9.647239 L 5.074730,9.627785 L 5.071167,9.608110 L 5.068229,9.588224 L 5.065925,9.568137 L 5.064266,9.547859 L 5.063263,9.527400 L 5.062927,9.506815 L 5.063735,9.474860 L 5.066129,9.443374 L 5.070072,9.412349 L 5.075523,9.381824 L 5.082445,9.351835 L 5.090797,9.322421 L 5.100542,9.293621 L 5.111641,9.265472 L 5.124054,9.238015 L 5.137743,9.211286 L 5.152670,9.185327 L 5.168795,9.160174 L 5.186079,9.135868 L 5.204484,9.112448 L 5.223970,9.089953 L 5.244498,9.068421 L 5.266029,9.047893 L 5.288525,9.028407 L 5.311945,9.010002 L 5.336251,8.992718 L 5.361403,8.976593 L 5.387363,8.961667 L 5.414091,8.947977 L 5.441549,8.935564 L 5.469697,8.924465 L 5.498498,8.914720 L 5.527911,8.906368 L 5.557900,8.899446 L 5.588426,8.893995 L 5.619451,8.890053 L 5.650937,8.887658 L 5.682847,8.886852 L 5.714757,8.887658 L 5.746243,8.890053 L 5.777267,8.893995 L 5.807793,8.899446 L 5.837782,8.906368 L 5.867196,8.914720 L 5.895996,8.924465 L 5.924145,8.935564 L 5.951602,8.947977 L 5.978330,8.961667 L 6.004290,8.976593 L 6.029443,8.992718 L 6.053748,9.010002 L 6.077169,9.028407 L 6.099664,9.047893 L 6.121195,9.068421 L 6.141724,9.089953 L 6.161210,9.112448 L 6.179615,9.135868 L 6.196899,9.160174 L 6.213024,9.185327 L 6.227950,9.211286 L 6.241640,9.238015 L 6.254053,9.265472 L 6.265151,9.293621 L 6.274896,9.322421 L 6.283249,9.351835 L 6.290170,9.381824 L 6.295622,9.412349 L 6.299564,9.443374 L 6.301958,9.474860 L 6.302766,9.506815 L 6.302430,9.527400 L 6.301427,9.547859 L 6.299769,9.568137 L 6.297465,9.588224 L 6.294526,9.608110 L 6.290963,9.627785 L 6.286786,9.647239 L 6.282006,9.666460 L 6.276633,9.685440 L 6.270677,9.704168 L 6.264150,9.722633 L 6.257060,9.740825 L 6.249419,9.758734 L 6.241238,9.776349 L 6.232525,9.793660 L 6.223293,9.810656 L 6.213551,9.827327 L 6.203309,9.843662 L 6.192579,9.859651 L 6.181370,9.875284 L 6.169693,9.890550 L 6.157559,9.905438 L 6.144978,9.919937 L 6.131961,9.934038 L 6.118517,9.947730 L 6.104658,9.961002 L 6.090394,9.973844 L 6.075735,9.986245 L 6.060692,9.998194 L 6.045276,10.009682 L 6.029497,10.020698 L 6.013032,10.031448 L 5.999509,10.041241 L 5.987045,10.052853 L 5.976092,10.065914 L 5.966797,10.080280 L 5.959307,10.095805 L 5.953773,10.112339 L 5.950345,10.129725 L 5.949176,10.147725 L 5.949891,10.161889 L 5.951982,10.175589 L 5.955383,10.188818 L 5.960025,10.201501 L 5.965837,10.213565 L 5.972748,10.224941 L 5.980688,10.235559 L 5.989589,10.245353 L 5.999383,10.254254 L 6.010002,10.262195 L 6.021378,10.269106 L 6.033442,10.274917 L 6.046125,10.279559 L 6.059353,10.282961 L 6.073053,10.285052 L 6.087071,10.285759 L 6.097148,10.285399 L 6.106968,10.284342 L 6.116574,10.282608 L 6.125940,10.280222 L 6.135038,10.277209 L 6.143843,10.273594 L 6.152330,10.269400 L 6.160398,10.264699 L 6.183791,10.249424 L 6.206592,10.233507 L 6.228868,10.216907 L 6.250603,10.199641 L 6.271784,10.181723 L 6.292393,10.163168 L 6.312418,10.143992 L 6.331842,10.124210 L 6.350651,10.103836 L 6.368829,10.082885 L 6.386362,10.061374 L 6.403234,10.039316 L 6.419430,10.016727 L 6.434935,9.993622 L 6.449735,9.970016 L 6.463814,9.945925 L 6.477156,9.921362 L 6.489748,9.896344 L 6.501573,9.870886 L 6.512616,9.845002 L 6.522863,9.818708 L 6.532298,9.792019 L 6.540906,9.764950 L 6.548673,9.737516 L 6.555582,9.709734 L 6.561618,9.681618 L 6.566768,9.653183 L 6.571014,9.624445 L 6.574344,9.595419 L 6.576740,9.566121 L 6.578189,9.536566 L 6.578676,9.506725 L 6.577512,9.460679 L 6.574053,9.415189 L 6.568356,9.370356 "/>
        <path style="fill:none;stroke-width:0.010000;stroke-linecap:round;stroke-linejoin:round;stroke-opacity:1;stroke:#000000;" d="M 0.627631,11.541604 L 0.630978,11.570792 L 0.635249,11.599691 L 0.640427,11.628285 L 0.646498,11.656559 L 0.653445,11.684498 L 0.661255,11.712086 L 0.669912,11.739307 L 0.679400,11.766146 L 0.689705,11.792588 L 0.700810,11.818617 L 0.712702,11.844219 L 0.725364,11.869377 L 0.738781,11.894077 L 0.752938,11.918303 L 0.767820,11.942041 L 0.783412,11.965275 L 0.799699,11.987989 L 0.816665,12.010170 L 0.834295,12.031801 L 0.852574,12.052867 L 0.871487,12.073355 L 0.891019,12.093247 L 0.911155,12.112530 L 0.931879,12.131187 L 0.953177,12.149205 L 0.975034,12.166567 L 0.997433,12.183259 L 1.020362,12.199265 L 1.043926,12.214651 L 1.052252,12.219504 L 1.061048,12.223850 L 1.070175,12.227598 L 1.079607,12.230721 L 1.089314,12.233194 L 1.099270,12.234991 L 1.109445,12.236087 L 1.119917,12.236461 L 1.134402,12.235729 L 1.148600,12.233563 L 1.162312,12.230037 L 1.175458,12.225225 L 1.187962,12.219202 L 1.199751,12.212040 L 1.210754,12.203812 L 1.220901,12.194590 L 1.230124,12.184442 L 1.238352,12.173439 L 1.245514,12.161650 L 1.251537,12.149146 L 1.256349,12.136000 L 1.259874,12.122288 L 1.262041,12.108091 L 1.262784,12.093386 L 1.261574,12.074774 L 1.258021,12.056753 L 1.252285,12.039615 L 1.244522,12.023523 L 1.234889,12.008635 L 1.223539,11.995101 L 1.210624,11.983070 L 1.196754,11.973024 L 1.180253,11.962251 L 1.164601,11.951324 L 1.149308,11.939928 L 1.134387,11.928074 L 1.119846,11.915773 L 1.105696,11.903034 L 1.091948,11.889869 L 1.078612,11.876287 L 1.065699,11.862299 L 1.053219,11.847916 L 1.041182,11.833148 L 1.029599,11.818005 L 1.018481,11.802498 L 1.007837,11.786637 L 0.997678,11.770434 L 0.988015,11.753897 L 0.978857,11.737039 L 0.970215,11.719868 L 0.962100,11.702396 L 0.954521,11.684633 L 0.947489,11.666589 L 0.941014,11.648274 L 0.935107,11.629698 L 0.929778,11.610873 L 0.925036,11.591807 L 0.920893,11.572511 L 0.917359,11.552996 L 0.914444,11.533270 L 0.912159,11.513345 L 0.910514,11.493229 L 0.909519,11.472933 L 0.909186,11.452534 L 0.909988,11.420810 L 0.912363,11.389576 L 0.916273,11.358801 L 0.921681,11.328523 L 0.928546,11.298777 L 0.936831,11.269603 L 0.946496,11.241037 L 0.957505,11.213117 L 0.969817,11.185882 L 0.983396,11.159371 L 0.998202,11.133620 L 1.014197,11.108671 L 1.031342,11.084561 L 1.049599,11.061328 L 1.068928,11.039014 L 1.089292,11.017655 L 1.110651,10.997291 L 1.132966,10.977961 L 1.156198,10.959705 L 1.180308,10.942559 L 1.205258,10.926564 L 1.231008,10.911758 L 1.257520,10.898180 L 1.284754,10.885867 L 1.312674,10.874859 L 1.341240,10.865193 L 1.370415,10.856909 L 1.400160,10.850043 L 1.430439,10.844636 L 1.461213,10.840726 L 1.492447,10.838351 L 1.524104,10.837550 L 1.555761,10.838351 L 1.586995,10.840726 L 1.617770,10.844636 L 1.648048,10.850043 L 1.677794,10.856909 L 1.706968,10.865193 L 1.735534,10.874859 L 1.763454,10.885867 L 1.790689,10.898180 L 1.817201,10.911758 L 1.842951,10.926564 L 1.867900,10.942559 L 1.892011,10.959705 L 1.915243,10.977961 L 1.937558,10.997291 L 1.958916,11.017655 L 1.979280,11.039014 L 1.998610,11.061328 L 2.016867,11.084561 L 2.034012,11.108671 L 2.050007,11.133620 L 2.064813,11.159371 L 2.078391,11.185882 L 2.090704,11.213117 L 2.101712,11.241037 L 2.111378,11.269603 L 2.119663,11.298777 L 2.126528,11.328523 L 2.131935,11.358801 L 2.135846,11.389576 L 2.138221,11.420810 L 2.139023,11.452534 L 2.138690,11.472933 L 2.137695,11.493229 L 2.136049,11.513345 L 2.133764,11.533270 L 2.130849,11.552996 L 2.127315,11.572511 L 2.123172,11.591807 L 2.118431,11.610873 L 2.113101,11.629698 L 2.107194,11.648274 L 2.100720,11.666589 L 2.093688,11.684633 L 2.086109,11.702396 L 2.077993,11.719868 L 2.069352,11.737039 L 2.060194,11.753897 L 2.050530,11.770434 L 2.040372,11.786637 L 2.029728,11.802498 L 2.018609,11.818005 L 2.007026,11.833148 L 1.994990,11.847916 L 1.982510,11.862299 L 1.969596,11.876287 L 1.956261,11.889869 L 1.942513,11.903034 L 1.928363,11.915773 L 1.913822,11.928074 L 1.898900,11.939928 L 1.883608,11.951324 L 1.867956,11.962251 L 1.851455,11.973024 L 1.837584,11.983070 L 1.824669,11.995101 L 1.813320,12.008635 L 1.803687,12.023523 L 1.795924,12.039615 L 1.790187,12.056753 L 1.786634,12.074774 L 1.785425,12.093386 L 1.786167,12.108091 L 1.788334,12.122288 L 1.791860,12.136000 L 1.796671,12.149146 L 1.802695,12.161650 L 1.809857,12.173439 L 1.818085,12.184442 L 1.827307,12.194590 L 1.837455,12.203812 L 1.848458,12.212040 L 1.860246,12.219202 L 1.872750,12.225225 L 1.885897,12.230037 L 1.899608,12.233563 L 1.913806,12.235729 L 1.928292,12.236461 L 1.938763,12.236087 L 1.948938,12.234991 L 1.958894,12.233194 L 1.968602,12.230721 L 1.978033,12.227598 L 1.987160,12.223850 L 1.995957,12.219504 L 2.004282,12.214651 L 2.027847,12.199265 L 2.050775,12.183259 L 2.073175,12.166567 L 2.095031,12.149205 L 2.116329,12.131187 L 2.137054,12.112530 L 2.157189,12.093247 L 2.176721,12.073355 L 2.195634,12.052867 L 2.213914,12.031801 L 2.231544,12.010170 L 2.248510,11.987989 L 2.264796,11.965275 L 2.280388,11.942041 L 2.295270,11.918303 L 2.309428,11.894077 L 2.322845,11.869377 L 2.335507,11.844219 L 2.347398,11.818617 L 2.358504,11.792588 L 2.368808,11.766146 L 2.378296,11.739307 L 2.386953,11.712086 L 2.394763,11.684498 L 2.401711,11.656559 L 2.407781,11.628285 L 2.412960,11.599691 L 2.417230,11.570792 L 2.420578,11.541604 L 2.422988,11.512144 L 2.424445,11.482426 L 2.424935,11.452399 L 2.423764,11.406123 L 2.420286,11.360381 L 2.414558,11.315298 L 2.406635,11.270934 L 2.396575,11.227347 L 2.384434,11.184593 L 2.370270,11.142731 L 2.354138,11.101818 L 2.336097,11.061911 L 2.316202,11.023067 L 2.294510,10.985342 L 2.271079,10.948793 L 2.245965,10.913476 L 2.219224,10.879448 L 2.190913,10.846764 L 2.161088,10.815482 L 2.129806,10.785657 L 2.097123,10.757346 L 2.063095,10.730606 L 2.027778,10.705491 L 1.991229,10.682060 L 1.953504,10.660369 L 1.914659,10.640474 L 1.874752,10.622432 L 1.833839,10.606301 L 1.791977,10.592136 L 1.749224,10.579996 L 1.705636,10.569936 L 1.661272,10.562013 L 1.616190,10.556284 L 1.570448,10.552806 L 1.524104,10.551634 L 1.477761,10.552806 L 1.432018,10.556284 L 1.386936,10.562013 L 1.342572,10.569936 L 1.298984,10.579996 L 1.256231,10.592136 L 1.214369,10.606301 L 1.173456,10.622432 L 1.133549,10.640474 L 1.094705,10.660369 L 1.056980,10.682060 L 1.020431,10.705491 L 0.985114,10.730606 L 0.951086,10.757346 L 0.918402,10.785657 L 0.887120,10.815482 L 0.857295,10.846764 L 0.828984,10.879448 L 0.802243,10.913476 L 0.777129,10.948793 L 0.753698,10.985342 L 0.732007,11.023067 L 0.712112,11.061911 L 0.694070,11.101818 L 0.677939,11.142731 L 0.663774,11.184593 L 0.651633,11.227347 L 0.641574,11.270934 L 0.633651,11.315298 L 0.627922,11.360381 L 0.624444,11.406123 L 0.623274,11.452399 L 0.623764,11.482426 L 0.625221,11.512144 L 0.627631,11.541604 "/>
    </g>
</svg>
