0
SECTION
2
HEADER
9
$INSUNITS
70
1
9
$ACADVER
1
AC1014
9
$HANDSEED
5
FFFF
0
ENDSEC
0
SECTION
2
TABLES
0
TABLE
2
VPORT
5
8
100
AcDbSymbolTable
0
ENDTAB
0
TABLE
2
LTYPE
5
5
100
AcDbSymbolTable
0
LTYPE
5
14
100
AcDbSymbolTableRecord
100
AcDbLinetypeTableRecord
2
BYBLOCK
70
0
0
LTYPE
5
15
100
AcDbSymbolTableRecord
100
AcDbLinetypeTableRecord
2
BYLAYER
70
0
0
ENDTAB
0
TABLE
2
LAYER
5
2
100
AcDbSymbolTable
70
2
0
LAYER
5
50
100
AcDbSymbolTableRecord
100
AcDbLayerTableRecord
2
0
70
0
6
CONTINUOUS
0
ENDTAB
0
TABLE
2
STYLE
5
3
100
AcDbSymbolTable
70
1
0
STYLE
5
11
100
AcDbSymbolTableRecord
100
AcDbTextStyleTableRecord
2
STANDARD
70
0
0
ENDTAB
0
TABLE
2
VIEW
5
6
100
AcDbSymbolTable
70
0
0
ENDTAB
0
TABLE
2
UCS
5
7
100
AcDbSymbolTable
70
0
0
ENDTAB
0
TABLE
2
APPID
5
9
100
AcDbSymbolTable
70
2
0
APPID
5
12
100
AcDbSymbolTableRecord
100
AcDbRegAppTableRecord
2
ACAD
70
0
0
ENDTAB
0
TABLE
2
DIMSTYLE
5
A
100
AcDbSymbolTable
70
1
0
ENDTAB
0
TABLE
2
BLOCK_RECORD
5
1
100
AcDbSymbolTable
70
1
0
BLOCK_RECORD
5
1F
100
AcDbSymbolTableRecord
100
AcDbBlockTableRecord
2
*MODEL_SPACE
0
BLOCK_RECORD
5
1B
100
AcDbSymbolTableRecord
100
AcDbBlockTableRecord
2
*PAPER_SPACE
0
ENDTAB
0
ENDSEC
0
SECTION
2
BLOCKS
0
BLOCK
5
20
100
AcDbEntity
100
AcDbBlockBegin
2
*MODEL_SPACE
0
ENDBLK
5
21
100
AcDbEntity
100
AcDbBlockEnd
0
BLOCK
5
1C
100
AcDbEntity
100
AcDbBlockBegin
2
*PAPER_SPACE
0
ENDBLK
5
1D
100
AcDbEntity
100
AcDbBlockEnd
0
ENDSEC
0
SECTION
2
ENTITIES
0
LWPOLYLINE
5
100
100
AcDbEntity
8
0
100
AcDbPolyline
90
8
70
1
43
0.0
10
-2.0374015748031584
20
-2.7658391496811134
10
2.0374015748031398
20
-2.7658391496811126
42
-0.41421356237309742
10
2.1653543307086518
20
-2.8937919055866246
10
2.1653543307086571
20
-5.2953667087362373
42
-0.41421356237309903
10
2.0374015748031451
20
-5.4233194646417502
10
-2.0374015748031513
20
-5.4233194646417537
42
-0.41421356237309426
10
-2.1653543307086633
20
-5.2953667087362435
10
-2.1653543307086696
20
-2.8937919055866246
42
-0.41421356237309348
0
LWPOLYLINE
5
101
100
AcDbEntity
8
0
100
AcDbPolyline
90
4
70
1
43
0.0
10
-4.6657453734710748
20
-4.8439961409178078
42
3.4623281294039834
10
-5.6103373036942887
20
-4.8439961409178043
42
0.99999999999999989
10
-5.4738962471064907
20
-4.6274979444992965
42
-3.4623281294039892
10
-4.8021864300588719
20
-4.6274979444992992
42
0.99999999999999989
0
LWPOLYLINE
5
102
100
AcDbEntity
8
0
100
AcDbPolyline
90
4
70
1
43
0.0
10
-8.0022145669291369
20
-2.5689887559803246
10
-8.0022145669291369
20
-5.6201698583425284
10
3.7108759842519654
20
-5.6201698583425284
10
3.7108759842519654
20
-2.5689887559803246
0
LWPOLYLINE
5
103
100
AcDbEntity
8
0
100
AcDbPolyline
90
4
70
1
43
0.0
10
1.9685039370078647
20
-2.9626895433818987
10
-1.968503937007883
20
-2.9626895433818987
10
-1.9685039370078767
20
-5.2264690709409676
10
1.9685039370078694
20
-5.2264690709409622
0
CIRCLE
5
104
100
AcDbEntity
8
0
100
AcDbCircle
10
-5.8700914234671115
20
-3.8984270780975105
30
0
40
0.083661417322834081
210
-0
220
1.6653345369377348e-16
230
1
0
CIRCLE
5
105
100
AcDbEntity
8
0
100
AcDbCircle
10
-4.602143482762167
20
-3.5586814513409153
30
3.4967654318902565e-16
40
0.083661417322834081
210
-0
220
1.6653345369377348e-16
230
1
0
CIRCLE
5
106
100
AcDbEntity
8
0
100
AcDbCircle
10
-4.6021434827621661
20
-4.6304771629819417
30
6.9935308637805131e-16
40
0.083661417322834081
210
-0
220
1.6653345369377348e-16
230
1
0
CIRCLE
5
107
100
AcDbEntity
8
0
100
AcDbCircle
10
-4.9418891095187618
20
-3.362529222276998
30
3.4967654318902565e-16
40
0.083661417322834081
210
-0
220
1.6653345369377348e-16
230
1
0
CIRCLE
5
108
100
AcDbEntity
8
0
100
AcDbCircle
10
-5.8700914234671098
20
-4.2907315362253478
30
0
40
0.083661417322834081
210
-0
220
1.6653345369377348e-16
230
1
0
CIRCLE
5
109
100
AcDbEntity
8
0
100
AcDbCircle
10
-5.6739391944031929
20
-3.5586814513409162
30
6.9935308637805131e-16
40
0.083661417322834081
210
-0
220
1.6653345369377348e-16
230
1
0
CIRCLE
5
110
100
AcDbEntity
8
0
100
AcDbCircle
10
-4.4059912536982484
20
-3.8984270780975105
30
0
40
0.083661417322834081
210
-0
220
1.6653345369377348e-16
230
1
0
CIRCLE
5
111
100
AcDbEntity
8
0
100
AcDbCircle
10
-4.4059912536982484
20
-4.290731536225346
30
0
40
0.083661417322834081
210
-0
220
1.6653345369377348e-16
230
1
0
CIRCLE
5
112
100
AcDbEntity
8
0
100
AcDbCircle
10
-5.334193567646599
20
-3.362529222276998
30
3.4967654318902565e-16
40
0.083661417322834081
210
-0
220
1.6653345369377348e-16
230
1
0
CIRCLE
5
113
100
AcDbEntity
8
0
100
AcDbCircle
10
-5.6739391944031921
20
-4.6304771629819417
30
6.9935308637805131e-16
40
0.083661417322834081
210
-0
220
1.6653345369377348e-16
230
1
0
ELLIPSE
5
114
100
AcDbEntity
8
0
100
AcDbEllipse
10
3.7108759842519654
20
-2.6258145698769453
30
0
11
-0.098425196850393692
21
-2.8390197141490543e-17
31
0.0
40
0.57735026918966326
41
3.1415926535897931
42
4.7123889803846897
0
ELLIPSE
5
115
100
AcDbEntity
8
0
100
AcDbEllipse
10
-8.0022145669291369
20
-2.6258145698769444
30
0
11
-0.09842519685039372
21
2.3658497617908788e-17
31
0.0
40
0.57735026918966348
41
4.7123889803847039
42
6.2831853071795862
0
LINE
5
116
100
AcDbEntity
8
0
100
AcDbLine
10
-8.0022145669291369
20
-2.5689887559803242
30
-6.3089326981092136e-18
11
3.7108759842519654
21
-2.5689887559803251
31
-6.3089326981092136e-18
0
LINE
5
117
100
AcDbEntity
8
0
100
AcDbLine
10
3.8093011811023589
20
-2.8417526626841041
30
3.4967654318902565e-16
11
3.8093011811023589
21
-2.6258145698769453
31
-2.6668152355186683e-32
0
LINE
5
118
100
AcDbEntity
8
0
100
AcDbLine
10
-8.1006397637795313
20
-2.6258145698769444
30
-4.6524844232768754e-33
11
-8.1006397637795313
21
-2.8417526626841036
31
1.6391087961985577e-16
0
LINE
5
119
100
AcDbEntity
8
0
100
AcDbLine
10
-8.1006397637795313
20
-2.8417526626841036
30
1.6391087961985577e-16
11
-8.1006397637795313
21
-5.7185950551929219
31
5.2451481478353848e-16
0
LINE
5
120
100
AcDbEntity
8
0
100
AcDbLine
10
3.8093011811023589
20
-5.7185950551929219
30
6.9935308637805131e-16
11
3.8093011811023589
21
-2.8417526626841041
31
3.4967654318902565e-16
0
LINE
5
121
100
AcDbEntity
8
0
100
AcDbLine
10
3.8093011811023589
20
-5.7185950551929219
30
6.9935308637805131e-16
11
-8.1006397637795313
21
-5.7185950551929219
31
5.2451481478353848e-16
0
LWPOLYLINE
5
122
100
AcDbEntity
8
0
100
AcDbPolyline
90
4
70
1
43
0.0
10
-4.6657453734710748
20
-4.8439961409178078
42
3.4623281294039834
10
-5.6103373036942887
20
-4.8439961409178043
42
0.99999999999999989
10
-5.4738962471064916
20
-4.6274979444992965
42
-3.4623281294039892
10
-4.8021864300588719
20
-4.6274979444992992
42
0.99999999999999989
0
LWPOLYLINE
5
123
100
AcDbEntity
8
0
100
AcDbPolyline
90
4
70
1
43
0.0
10
1.9685039370078694
20
-5.2264690709409622
10
-1.9685039370078763
20
-5.2264690709409667
10
-1.968503937007883
20
-2.9626895433818996
10
1.9685039370078647
20
-2.9626895433818996
0
LWPOLYLINE
5
124
100
AcDbEntity
8
0
100
AcDbPolyline
90
8
70
1
43
0.0
10
-2.0374015748031513
20
-5.4233194646417546
10
2.0374015748031455
20
-5.4233194646417502
42
0.41421356237309426
10
2.1653543307086571
20
-5.2953667087362382
10
2.1653543307086518
20
-2.8937919055866246
42
0.41421356237309503
10
2.0374015748031393
20
-2.7658391496811134
10
-2.037401574803158
20
-2.7658391496811134
42
0.41421356237309742
10
-2.1653543307086704
20
-2.893791905586625
10
-2.1653543307086629
20
-5.2953667087362435
42
0.41421356237309426
0
ENDSEC
0
SECTION
2
OBJECTS
0
DICTIONARY
5
C
100
AcDbDictionary
3
ACAD_GROUP
350
D
3
ACAD_MLINESTYLE
350
17
0
DICTIONARY
5
D
100
AcDbDictionary
0
DICTIONARY
5
1A
330
C
100
AcDbDictionary
0
DICTIONARY
5
17
100
AcDbDictionary
0
ENDSEC
0
EOF
