0
SECTION
2
HEADER
9
$INSUNITS
70
4
9
$ACADVER
1
AC1014
9
$HANDSEED
5
FFFF
0
ENDSEC
0
SECTION
2
TABLES
0
TABLE
2
VPORT
5
8
100
AcDbSymbolTable
0
ENDTAB
0
TABLE
2
LTYPE
5
5
100
AcDbSymbolTable
0
LTYPE
5
14
100
AcDbSymbolTableRecord
100
AcDbLinetypeTableRecord
2
BYBLOCK
70
0
0
LTYPE
5
15
100
AcDbSymbolTableRecord
100
AcDbLinetypeTableRecord
2
BYLAYER
70
0
0
ENDTAB
0
TABLE
2
LAYER
5
2
100
AcDbSymbolTable
70
2
0
LAYER
5
50
100
AcDbSymbolTableRecord
100
AcDbLayerTableRecord
2
0
70
0
6
CONTINUOUS
0
ENDTAB
0
TABLE
2
STYLE
5
3
100
AcDbSymbolTable
70
1
0
STYLE
5
11
100
AcDbSymbolTableRecord
100
AcDbTextStyleTableRecord
2
STANDARD
70
0
0
ENDTAB
0
TABLE
2
VIEW
5
6
100
AcDbSymbolTable
70
0
0
ENDTAB
0
TABLE
2
UCS
5
7
100
AcDbSymbolTable
70
0
0
ENDTAB
0
TABLE
2
APPID
5
9
100
AcDbSymbolTable
70
2
0
APPID
5
12
100
AcDbSymbolTableRecord
100
AcDbRegAppTableRecord
2
ACAD
70
0
0
ENDTAB
0
TABLE
2
DIMSTYLE
5
A
100
AcDbSymbolTable
70
1
0
ENDTAB
0
TABLE
2
BLOCK_RECORD
5
1
100
AcDbSymbolTable
70
1
0
BLOCK_RECORD
5
1F
100
AcDbSymbolTableRecord
100
AcDbBlockTableRecord
2
*MODEL_SPACE
0
BLOCK_RECORD
5
1B
100
AcDbSymbolTableRecord
100
AcDbBlockTableRecord
2
*PAPER_SPACE
0
ENDTAB
0
ENDSEC
0
SECTION
2
BLOCKS
0
BLOCK
5
20
100
AcDbEntity
100
AcDbBlockBegin
2
*MODEL_SPACE
0
ENDBLK
5
21
100
AcDbEntity
100
AcDbBlockEnd
0
BLOCK
5
1C
100
AcDbEntity
100
AcDbBlockBegin
2
*PAPER_SPACE
0
ENDBLK
5
1D
100
AcDbEntity
100
AcDbBlockEnd
0
ENDSEC
0
SECTION
2
ENTITIES
0
LWPOLYLINE
5
100
100
AcDbEntity
8
0
100
AcDbPolyline
90
8
70
1
43
0.0
10
-51.750000000000227
20
-70.252314401900279
10
51.749999999999751
20
-70.252314401900264
42
-0.41421356237309742
10
54.999999999999758
20
-73.502314401900264
10
54.999999999999893
20
-134.50231440190043
42
-0.41421356237309903
10
51.749999999999893
20
-137.75231440190049
10
-51.75000000000005
20
-137.75231440190058
42
-0.41421356237309426
10
-55.000000000000057
20
-134.50231440190061
10
-55.000000000000213
20
-73.502314401900264
42
-0.41421356237309348
0
LWPOLYLINE
5
101
100
AcDbEntity
8
0
100
AcDbPolyline
90
4
70
1
43
0.0
10
-118.50993248616531
20
-123.03750197931234
42
3.4623281294039834
10
-142.50256751383495
20
-123.03750197931224
42
0.99999999999999989
10
-139.03696467650488
20
-117.53844779028213
42
-3.4623281294039892
10
-121.97553532349536
20
-117.53844779028221
42
0.99999999999999989
0
LWPOLYLINE
5
102
100
AcDbEntity
8
0
100
AcDbPolyline
90
4
70
1
43
0.0
10
-203.25625000000008
20
-65.25231440190025
10
-203.25625000000008
20
-142.75231440190024
10
94.256249999999937
20
-142.75231440190024
10
94.256249999999937
20
-65.25231440190025
0
LWPOLYLINE
5
103
100
AcDbEntity
8
0
100
AcDbPolyline
90
4
70
1
43
0.0
10
49.999999999999773
20
-75.252314401900236
10
-50.000000000000227
20
-75.252314401900236
10
-50.000000000000071
20
-132.75231440190058
10
49.999999999999886
20
-132.75231440190046
0
CIRCLE
5
104
100
AcDbEntity
8
0
100
AcDbCircle
10
-149.10032215606464
20
-99.020047783676773
30
0
40
2.1249999999999858
210
-0
220
1.6653345369377348e-16
230
1
0
CIRCLE
5
105
100
AcDbEntity
8
0
100
AcDbCircle
10
-116.89444446215904
20
-90.390508864059257
30
8.8817841970012523e-15
40
2.1249999999999858
210
-0
220
1.6653345369377348e-16
230
1
0
CIRCLE
5
106
100
AcDbEntity
8
0
100
AcDbCircle
10
-116.89444446215903
20
-117.61411993974134
30
1.7763568394002505e-14
40
2.1249999999999858
210
-0
220
1.6653345369377348e-16
230
1
0
CIRCLE
5
107
100
AcDbEntity
8
0
100
AcDbCircle
10
-125.52398338177656
20
-85.408242245835751
30
8.8817841970012523e-15
40
2.1249999999999858
210
-0
220
1.6653345369377348e-16
230
1
0
CIRCLE
5
108
100
AcDbEntity
8
0
100
AcDbCircle
10
-149.10032215606461
20
-108.98458102012384
30
0
40
2.1249999999999858
210
-0
220
1.6653345369377348e-16
230
1
0
CIRCLE
5
109
100
AcDbEntity
8
0
100
AcDbCircle
10
-144.11805553784112
20
-90.390508864059285
30
1.7763568394002505e-14
40
2.1249999999999858
210
-0
220
1.6653345369377348e-16
230
1
0
CIRCLE
5
110
100
AcDbEntity
8
0
100
AcDbCircle
10
-111.91217784393552
20
-99.020047783676773
30
0
40
2.1249999999999858
210
-0
220
1.6653345369377348e-16
230
1
0
CIRCLE
5
111
100
AcDbEntity
8
0
100
AcDbCircle
10
-111.91217784393552
20
-108.98458102012378
30
0
40
2.1249999999999858
210
-0
220
1.6653345369377348e-16
230
1
0
CIRCLE
5
112
100
AcDbEntity
8
0
100
AcDbCircle
10
-135.48851661822363
20
-85.408242245835751
30
8.8817841970012523e-15
40
2.1249999999999858
210
-0
220
1.6653345369377348e-16
230
1
0
CIRCLE
5
113
100
AcDbEntity
8
0
100
AcDbCircle
10
-144.11805553784109
20
-117.61411993974134
30
1.7763568394002505e-14
40
2.1249999999999858
210
-0
220
1.6653345369377348e-16
230
1
0
ELLIPSE
5
114
100
AcDbEntity
8
0
100
AcDbEllipse
10
94.256249999999937
20
-66.69569007487442
30
0
11
-2.5
21
-7.2111100739385976e-16
31
0.0
40
0.57735026918966326
41
3.1415926535897931
42
4.7123889803846897
0
ELLIPSE
5
115
100
AcDbEntity
8
0
100
AcDbEllipse
10
-203.25625000000008
20
-66.695690074874392
30
0
11
-2.5000000000000004
21
6.0092583949488324e-16
31
0.0
40
0.57735026918966348
41
4.7123889803847039
42
6.2831853071795862
0
LINE
5
116
100
AcDbEntity
8
0
100
AcDbLine
10
-203.25625000000008
20
-65.252314401900236
30
-1.6024689053197403e-16
11
94.256249999999937
21
-65.252314401900264
31
-1.6024689053197403e-16
0
LINE
5
117
100
AcDbEntity
8
0
100
AcDbLine
10
96.756249999999937
20
-72.180517632176247
30
8.8817841970012523e-15
11
96.756249999999937
21
-66.69569007487442
31
-6.7737106982174179e-31
0
LINE
5
118
100
AcDbEntity
8
0
100
AcDbLine
10
-205.75625000000008
20
-66.695690074874392
30
-1.1817310435123266e-31
11
-205.75625000000008
21
-72.180517632176247
31
4.163336342344337e-15
0
LINE
5
119
100
AcDbEntity
8
0
100
AcDbLine
10
-205.75625000000008
20
-72.180517632176247
30
4.163336342344337e-15
11
-205.75625000000008
21
-145.25231440190024
31
1.3322676295501878e-14
0
LINE
5
120
100
AcDbEntity
8
0
100
AcDbLine
10
96.756249999999937
20
-145.25231440190024
30
1.7763568394002505e-14
11
96.756249999999937
21
-72.180517632176247
31
8.8817841970012523e-15
0
LINE
5
121
100
AcDbEntity
8
0
100
AcDbLine
10
96.756249999999937
20
-145.25231440190024
30
1.7763568394002505e-14
11
-205.75625000000008
21
-145.25231440190024
31
1.3322676295501878e-14
0
LWPOLYLINE
5
122
100
AcDbEntity
8
0
100
AcDbPolyline
90
4
70
1
43
0.0
10
-118.50993248616531
20
-123.03750197931234
42
3.4623281294039834
10
-142.50256751383495
20
-123.03750197931224
42
0.99999999999999989
10
-139.03696467650488
20
-117.53844779028215
42
-3.4623281294039892
10
-121.97553532349536
20
-117.53844779028221
42
0.99999999999999989
0
LWPOLYLINE
5
123
100
AcDbEntity
8
0
100
AcDbPolyline
90
4
70
1
43
0.0
10
49.999999999999886
20
-132.75231440190043
10
-50.000000000000064
20
-132.75231440190058
10
-50.000000000000227
20
-75.25231440190025
10
49.999999999999773
20
-75.25231440190025
0
LWPOLYLINE
5
124
100
AcDbEntity
8
0
100
AcDbPolyline
90
8
70
1
43
0.0
10
-51.750000000000043
20
-137.75231440190058
10
51.749999999999901
20
-137.75231440190046
42
0.41421356237309426
10
54.999999999999893
20
-134.50231440190046
10
54.999999999999758
20
-73.502314401900279
42
0.41421356237309503
10
51.749999999999744
20
-70.252314401900293
10
-51.75000000000022
20
-70.252314401900279
42
0.41421356237309742
10
-55.000000000000227
20
-73.502314401900279
10
-55.000000000000043
20
-134.50231440190061
42
0.41421356237309426
0
ENDSEC
0
SECTION
2
OBJECTS
0
DICTIONARY
5
C
100
AcDbDictionary
3
ACAD_GROUP
350
D
3
ACAD_MLINESTYLE
350
17
0
DICTIONARY
5
D
100
AcDbDictionary
0
DICTIONARY
5
1A
330
C
100
AcDbDictionary
0
DICTIONARY
5
17
100
AcDbDictionary
0
ENDSEC
0
EOF
