0
SECTION
2
HEADER
9
$INSUNITS
70
1
9
$ACADVER
1
AC1014
9
$HANDSEED
5
FFFF
0
ENDSEC
0
SECTION
2
TABLES
0
TABLE
2
VPORT
5
8
100
AcDbSymbolTable
0
ENDTAB
0
TABLE
2
LTYPE
5
5
100
AcDbSymbolTable
0
LTYPE
5
14
100
AcDbSymbolTableRecord
100
AcDbLinetypeTableRecord
2
BYBLOCK
70
0
0
LTYPE
5
15
100
AcDbSymbolTableRecord
100
AcDbLinetypeTableRecord
2
BYLAYER
70
0
0
ENDTAB
0
TABLE
2
LAYER
5
2
100
AcDbSymbolTable
70
2
0
LAYER
5
50
100
AcDbSymbolTableRecord
100
AcDbLayerTableRecord
2
0
70
0
6
CONTINUOUS
0
ENDTAB
0
TABLE
2
STYLE
5
3
100
AcDbSymbolTable
70
1
0
STYLE
5
11
100
AcDbSymbolTableRecord
100
AcDbTextStyleTableRecord
2
STANDARD
70
0
0
ENDTAB
0
TABLE
2
VIEW
5
6
100
AcDbSymbolTable
70
0
0
ENDTAB
0
TABLE
2
UCS
5
7
100
AcDbSymbolTable
70
0
0
ENDTAB
0
TABLE
2
APPID
5
9
100
AcDbSymbolTable
70
2
0
APPID
5
12
100
AcDbSymbolTableRecord
100
AcDbRegAppTableRecord
2
ACAD
70
0
0
ENDTAB
0
TABLE
2
DIMSTYLE
5
A
100
AcDbSymbolTable
70
1
0
ENDTAB
0
TABLE
2
BLOCK_RECORD
5
1
100
AcDbSymbolTable
70
1
0
BLOCK_RECORD
5
1F
100
AcDbSymbolTableRecord
100
AcDbBlockTableRecord
2
*MODEL_SPACE
0
BLOCK_RECORD
5
1B
100
AcDbSymbolTableRecord
100
AcDbBlockTableRecord
2
*PAPER_SPACE
0
ENDTAB
0
ENDSEC
0
SECTION
2
BLOCKS
0
BLOCK
5
20
100
AcDbEntity
100
AcDbBlockBegin
2
*MODEL_SPACE
0
ENDBLK
5
21
100
AcDbEntity
100
AcDbBlockEnd
0
BLOCK
5
1C
100
AcDbEntity
100
AcDbBlockBegin
2
*PAPER_SPACE
0
ENDBLK
5
1D
100
AcDbEntity
100
AcDbBlockEnd
0
ENDSEC
0
SECTION
2
ENTITIES
0
LWPOLYLINE
5
100
100
AcDbEntity
8
0
100
AcDbPolyline
90
4
70
1
43
0.0
10
3.8093011811023647
20
1.4254998092356994
10
7.6281988188976415
20
1.4254998092356994
10
7.6281988188976415
20
5.381232530527277
10
3.8093011811023647
20
5.381232530527277
0
LWPOLYLINE
5
101
100
AcDbEntity
8
0
100
AcDbPolyline
90
32
70
1
43
0.0
10
7.6281988188976397
20
0.54527559055118147
10
7.6281988188976397
20
-1.4091458600556399
10
7.391978346456697
20
-1.4091458600556397
10
7.3919783464566953
20
-0.049464821281547951
42
0.41421356237309626
10
6.8014271653543332
20
0.54108635982081388
10
4.6360728346456712
20
0.54108635982081432
42
0.41421356237309465
10
4.0455216535433101
20
-0.049464821281548048
10
4.0455216535433092
20
-1.4091458600556395
10
2.8644192913385873
20
-1.4091458600556395
10
2.8644192913385877
20
-0.049464821281547951
42
0.4142135623730952
10
2.2738681102362253
20
0.54108635982081454
10
1.0629921259842467
20
0.54108635982081421
42
0.41421356237309509
10
0.47244094488188532
20
-0.049464821281548096
10
0.47244094488188498
20
-1.409145860055639
10
-0.47244094488189514
20
-1.4091458600556388
10
-0.47244094488189486
20
-0.049464821281547951
42
0.41421356237309503
10
-1.0629921259842572
20
0.54108635982081432
10
-2.2738681102362177
20
0.54108635982081421
42
0.41421356237309531
10
-2.8644192913385798
20
-0.049464821281548048
10
-2.8644192913385802
20
-1.409145860055639
10
-3.5730807086614167
20
-1.409145860055639
10
-3.5730807086614185
20
1.086614173228347
10
3.3368602362204776
20
1.0866141732283467
10
3.3368602362204776
20
4.977383269445804
10
3.3368602362204776
20
5.1858295795235865
10
3.8093011811023647
20
5.1858295795235865
10
3.8093011811023647
20
5.381232530527277
10
7.6281988188976415
20
5.381232530527277
10
7.6281988188976415
20
5.1858295795235883
10
8.1006397637795313
20
5.1858295795235883
10
8.1006397637795313
20
4.977383269445804
10
8.1006397637795313
20
0.54527559055118147
0
LWPOLYLINE
5
102
100
AcDbEntity
8
0
100
AcDbPolyline
90
13
70
1
43
0.0
10
3.8093011811023647
20
1.4254998092356994
10
3.8093011811023647
20
5.1858295795236078
10
3.3368602362204776
20
5.1858295795236078
10
3.3368602362204776
20
1.086614173228347
10
3.3368602362204776
20
-1.4091458600556392
10
3.8093011811023647
20
-1.409145860055639
10
3.8093011811023647
20
0.9530588643538096
10
7.6281988188976415
20
0.9530588643538096
10
7.6281988188976415
20
0.54527559055118147
10
8.1006397637795313
20
0.54527559055118147
10
8.1006397637795313
20
5.1858295795235883
10
7.6281988188976415
20
5.1858295795235883
10
7.6281988188976415
20
1.425499809235699
0
ENDSEC
0
SECTION
2
OBJECTS
0
DICTIONARY
5
C
100
AcDbDictionary
3
ACAD_GROUP
350
D
3
ACAD_MLINESTYLE
350
17
0
DICTIONARY
5
D
100
AcDbDictionary
0
DICTIONARY
5
1A
330
C
100
AcDbDictionary
0
DICTIONARY
5
17
100
AcDbDictionary
0
ENDSEC
0
EOF
