0
SECTION
2
HEADER
9
$INSUNITS
70
4
9
$ACADVER
1
AC1014
9
$HANDSEED
5
FFFF
0
ENDSEC
0
SECTION
2
TABLES
0
TABLE
2
VPORT
5
8
100
AcDbSymbolTable
0
ENDTAB
0
TABLE
2
LTYPE
5
5
100
AcDbSymbolTable
0
LTYPE
5
14
100
AcDbSymbolTableRecord
100
AcDbLinetypeTableRecord
2
BYBLOCK
70
0
0
LTYPE
5
15
100
AcDbSymbolTableRecord
100
AcDbLinetypeTableRecord
2
BYLAYER
70
0
0
ENDTAB
0
TABLE
2
LAYER
5
2
100
AcDbSymbolTable
70
2
0
LAYER
5
50
100
AcDbSymbolTableRecord
100
AcDbLayerTableRecord
2
0
70
0
6
CONTINUOUS
0
ENDTAB
0
TABLE
2
STYLE
5
3
100
AcDbSymbolTable
70
1
0
STYLE
5
11
100
AcDbSymbolTableRecord
100
AcDbTextStyleTableRecord
2
STANDARD
70
0
0
ENDTAB
0
TABLE
2
VIEW
5
6
100
AcDbSymbolTable
70
0
0
ENDTAB
0
TABLE
2
UCS
5
7
100
AcDbSymbolTable
70
0
0
ENDTAB
0
TABLE
2
APPID
5
9
100
AcDbSymbolTable
70
2
0
APPID
5
12
100
AcDbSymbolTableRecord
100
AcDbRegAppTableRecord
2
ACAD
70
0
0
ENDTAB
0
TABLE
2
DIMSTYLE
5
A
100
AcDbSymbolTable
70
1
0
ENDTAB
0
TABLE
2
BLOCK_RECORD
5
1
100
AcDbSymbolTable
70
1
0
BLOCK_RECORD
5
1F
100
AcDbSymbolTableRecord
100
AcDbBlockTableRecord
2
*MODEL_SPACE
0
BLOCK_RECORD
5
1B
100
AcDbSymbolTableRecord
100
AcDbBlockTableRecord
2
*PAPER_SPACE
0
ENDTAB
0
ENDSEC
0
SECTION
2
BLOCKS
0
BLOCK
5
20
100
AcDbEntity
100
AcDbBlockBegin
2
*MODEL_SPACE
0
ENDBLK
5
21
100
AcDbEntity
100
AcDbBlockEnd
0
BLOCK
5
1C
100
AcDbEntity
100
AcDbBlockBegin
2
*PAPER_SPACE
0
ENDBLK
5
1D
100
AcDbEntity
100
AcDbBlockEnd
0
ENDSEC
0
SECTION
2
ENTITIES
0
LWPOLYLINE
5
100
100
AcDbEntity
8
0
100
AcDbPolyline
90
4
70
1
43
0.0
10
96.75625000000008
20
36.207695154586766
10
193.75625000000011
20
36.207695154586766
10
193.75625000000011
20
136.68330627539285
10
96.75625000000008
20
136.68330627539285
0
LWPOLYLINE
5
101
100
AcDbEntity
8
0
100
AcDbPolyline
90
32
70
1
43
0.0
10
193.75625000000008
20
13.850000000000012
10
193.75625000000008
20
-35.792304845413256
10
187.75625000000014
20
-35.792304845413256
10
187.75625000000008
20
-1.2564064605513181
42
0.41421356237309626
10
172.75625000000008
20
13.743593539448673
10
117.75625000000007
20
13.743593539448685
42
0.41421356237309465
10
102.75625000000008
20
-1.2564064605513205
10
102.75625000000005
20
-35.792304845413241
10
72.756250000000122
20
-35.792304845413241
10
72.756250000000136
20
-1.2564064605513181
42
0.4142135623730952
10
57.756250000000129
20
13.743593539448691
10
26.999999999999869
20
13.743593539448682
42
0.41421356237309509
10
11.999999999999888
20
-1.2564064605513217
10
11.999999999999879
20
-35.792304845413234
10
-12.000000000000137
20
-35.792304845413227
10
-12.000000000000131
20
-1.2564064605513181
42
0.41421356237309503
10
-27.000000000000135
20
13.743593539448685
10
-57.756249999999937
20
13.743593539448682
42
0.41421356237309531
10
-72.756249999999923
20
-1.2564064605513205
10
-72.756249999999937
20
-35.792304845413234
10
-90.756249999999994
20
-35.792304845413234
10
-90.756250000000037
20
27.600000000000016
10
84.756250000000136
20
27.600000000000012
10
84.756250000000136
20
126.42553504392342
10
84.756250000000136
20
131.72007131989912
10
96.75625000000008
20
131.72007131989912
10
96.75625000000008
20
136.68330627539285
10
193.75625000000011
20
136.68330627539285
10
193.75625000000011
20
131.72007131989915
10
205.75625000000008
20
131.72007131989915
10
205.75625000000008
20
126.42553504392342
10
205.75625000000008
20
13.850000000000012
0
LWPOLYLINE
5
102
100
AcDbEntity
8
0
100
AcDbPolyline
90
13
70
1
43
0.0
10
96.75625000000008
20
36.207695154586766
10
96.75625000000008
20
131.72007131989966
10
84.756250000000136
20
131.72007131989966
10
84.756250000000136
20
27.600000000000016
10
84.756250000000136
20
-35.792304845413241
10
96.75625000000008
20
-35.792304845413234
10
96.75625000000008
20
24.207695154586766
10
193.75625000000011
20
24.207695154586766
10
193.75625000000011
20
13.850000000000012
10
205.75625000000008
20
13.850000000000012
10
205.75625000000008
20
131.72007131989915
10
193.75625000000011
20
131.72007131989915
10
193.75625000000011
20
36.207695154586759
0
ENDSEC
0
SECTION
2
OBJECTS
0
DICTIONARY
5
C
100
AcDbDictionary
3
ACAD_GROUP
350
D
3
ACAD_MLINESTYLE
350
17
0
DICTIONARY
5
D
100
AcDbDictionary
0
DICTIONARY
5
1A
330
C
100
AcDbDictionary
0
DICTIONARY
5
17
100
AcDbDictionary
0
ENDSEC
0
EOF
